<svg width="85" height="85" viewBox="0 0 85 85" fill="none" xmlns="http://www.w3.org/2000/svg">
<circle cx="42.5" cy="42.5" r="42.5" fill="#D4DEFC"/>
<circle cx="43.0743" cy="43.0743" r="37.3311" fill="white"/>
<path d="M48.0259 36.4213C49.5181 36.4262 50.948 37.0217 52.0015 38.0786C53.0551 39.1355 53.646 40.5676 53.646 42.06C53.646 42.2292 53.5791 42.3915 53.4595 42.5112C53.3399 42.6308 53.1775 42.6976 53.0083 42.6977C52.8391 42.6977 52.6768 42.6307 52.5572 42.5112C52.4375 42.3915 52.3697 42.2292 52.3697 42.06C52.3697 40.9062 51.9124 39.7994 51.0982 38.9819C50.2839 38.1643 49.1788 37.7023 48.0249 37.6977C47.8558 37.6976 47.6934 37.6307 47.5738 37.5112C47.4541 37.3915 47.3872 37.2283 47.3872 37.059C47.3873 36.8899 47.4542 36.7275 47.5738 36.6078C47.6934 36.4882 47.8558 36.4214 48.0249 36.4213H48.0259Z" fill="#233A7C" stroke="#233A7C" stroke-width="0.1"/>
<mask id="path-4-outside-1_643_2178" maskUnits="userSpaceOnUse" x="23" y="29" width="39" height="32" fill="black">
<rect fill="white" x="23" y="29" width="39" height="32"/>
<path d="M61.4796 58.9995L54.5643 52.0018L57.4498 49.0604L60.656 52.1959C60.7698 52.291 60.9154 52.3394 61.0635 52.3317C61.2116 52.324 61.3513 52.2606 61.4547 52.1543C61.558 52.0479 61.6174 51.9065 61.621 51.7582C61.6245 51.61 61.5719 51.4658 61.4737 51.3547L57.8528 47.825C57.7427 47.7163 57.5942 47.6554 57.4395 47.6554C57.2848 47.6554 57.1364 47.7163 57.0263 47.825L56.488 48.375L55.6614 47.522C56.918 45.7784 57.5382 43.6564 57.4186 41.5105C57.2991 39.3646 56.4469 37.3246 55.0044 35.7314C53.5619 34.1381 51.6165 33.088 49.493 32.7563C47.3695 32.4247 45.1965 32.8316 43.3369 33.9091V31.1766H59.1588C59.4708 31.1766 59.7701 31.3005 59.9907 31.5212C60.2114 31.7418 60.3354 32.0411 60.3354 32.3531V48.5986L61.5119 49.7457V32.3531C61.5119 31.729 61.264 31.1305 60.8227 30.6892C60.3814 30.2479 59.7829 30 59.1588 30H26.3531C25.729 30 25.1305 30.2479 24.6892 30.6892C24.2479 31.1305 24 31.729 24 32.3531V51.4724C24 52.0965 24.2479 52.695 24.6892 53.1363C25.1305 53.5776 25.729 53.8255 26.3531 53.8255H40.116V55.2962H37.4688C37.3127 55.2962 37.1631 55.3582 37.0528 55.4685C36.9425 55.5788 36.8805 55.7285 36.8805 55.8845C36.8805 56.0405 36.9425 56.1901 37.0528 56.3005C37.1631 56.4108 37.3127 56.4728 37.4688 56.4728H48.0255C48.1815 56.4728 48.3312 56.4108 48.4415 56.3005C48.5518 56.1901 48.6138 56.0405 48.6138 55.8845C48.6138 55.7285 48.5518 55.5788 48.4415 55.4685C48.3312 55.3582 48.1815 55.2962 48.0255 55.2962H45.3782V53.8255H53.0553L52.4818 53.2372C52.3152 53.069 52.1841 52.8689 52.0964 52.6489H26.3531C26.0411 52.6489 25.7418 52.525 25.5212 52.3043C25.3005 52.0837 25.1766 51.7844 25.1766 51.4724V32.3531C25.1766 32.0411 25.3005 31.7418 25.5212 31.5212C25.7418 31.3005 26.0411 31.1766 26.3531 31.1766H42.1662V34.7063C41.1779 35.501 40.36 36.487 39.7616 37.6051C39.1631 38.7233 38.7963 39.9507 38.6832 41.2138C38.5701 42.477 38.7129 43.7501 39.1031 44.9568C39.4934 46.1635 40.123 47.2791 40.9543 48.2368H38.0629V35.2946C38.0629 35.1385 38.0009 34.9889 37.8906 34.8786C37.7803 34.7683 37.6307 34.7063 37.4746 34.7063C37.3186 34.7063 37.169 34.7683 37.0587 34.8786C36.9483 34.9889 36.8864 35.1385 36.8864 35.2946V48.2368H32.789V40.0008C32.789 39.8448 32.727 39.6952 32.6167 39.5848C32.5063 39.4745 32.3567 39.4125 32.2007 39.4125C32.0447 39.4125 31.895 39.4745 31.7847 39.5848C31.6744 39.6952 31.6124 39.8448 31.6124 40.0008V48.2368H27.5297V43.8247C27.5297 43.6686 27.4677 43.519 27.3574 43.4087C27.2471 43.2984 27.0974 43.2364 26.9414 43.2364C26.7854 43.2364 26.6358 43.2984 26.5254 43.4087C26.4151 43.519 26.3531 43.6686 26.3531 43.8247V48.5809C26.3488 48.622 26.3488 48.6634 26.3531 48.7045C26.349 48.7446 26.349 48.785 26.3531 48.8251C26.3531 48.9811 26.4151 49.1307 26.5254 49.2411C26.6358 49.3514 26.7854 49.4134 26.9414 49.4134H42.175C43.7127 50.6492 45.6023 51.3664 47.5728 51.4621C49.5433 51.5577 51.4934 51.0269 53.1436 49.9458L54.026 50.8664L53.323 51.59C53.2143 51.7001 53.1534 51.8486 53.1534 52.0033C53.1534 52.158 53.2143 52.3065 53.323 52.4166L60.6471 59.8289C60.7574 59.9385 60.9065 60 61.0619 60C61.2173 60 61.3664 59.9385 61.4766 59.8289C61.5866 59.7191 61.6486 59.5702 61.6492 59.4148C61.6497 59.2594 61.5887 59.1101 61.4796 58.9995ZM41.2867 53.8255H44.2281V55.2962H41.2867V53.8255ZM39.816 42.0598C39.8224 40.4389 40.3088 38.8563 41.2139 37.5116C42.1189 36.1669 43.402 35.1205 44.9012 34.5043C46.4005 33.8882 48.0486 33.73 49.6377 34.0497C51.2267 34.3694 52.6854 35.1527 53.8297 36.3007C54.974 37.4487 55.7526 38.9099 56.0672 40.5C56.3818 42.0901 56.2183 43.7377 55.5973 45.2349C54.9764 46.7322 53.9258 48.0119 52.5782 48.9126C51.2306 49.8133 49.6464 50.2946 48.0255 50.2958C45.8468 50.2872 43.7603 49.4157 42.2227 47.8721C40.6852 46.3285 39.8219 44.2385 39.8219 42.0598H39.816ZM54.0907 49.2339C54.382 48.9862 54.658 48.7209 54.9173 48.4398L55.6614 49.2075L54.8584 50.0252L54.0907 49.2339Z"/>
</mask>
<path d="M61.4796 58.9995L54.5643 52.0018L57.4498 49.0604L60.656 52.1959C60.7698 52.291 60.9154 52.3394 61.0635 52.3317C61.2116 52.324 61.3513 52.2606 61.4547 52.1543C61.558 52.0479 61.6174 51.9065 61.621 51.7582C61.6245 51.61 61.5719 51.4658 61.4737 51.3547L57.8528 47.825C57.7427 47.7163 57.5942 47.6554 57.4395 47.6554C57.2848 47.6554 57.1364 47.7163 57.0263 47.825L56.488 48.375L55.6614 47.522C56.918 45.7784 57.5382 43.6564 57.4186 41.5105C57.2991 39.3646 56.4469 37.3246 55.0044 35.7314C53.5619 34.1381 51.6165 33.088 49.493 32.7563C47.3695 32.4247 45.1965 32.8316 43.3369 33.9091V31.1766H59.1588C59.4708 31.1766 59.7701 31.3005 59.9907 31.5212C60.2114 31.7418 60.3354 32.0411 60.3354 32.3531V48.5986L61.5119 49.7457V32.3531C61.5119 31.729 61.264 31.1305 60.8227 30.6892C60.3814 30.2479 59.7829 30 59.1588 30H26.3531C25.729 30 25.1305 30.2479 24.6892 30.6892C24.2479 31.1305 24 31.729 24 32.3531V51.4724C24 52.0965 24.2479 52.695 24.6892 53.1363C25.1305 53.5776 25.729 53.8255 26.3531 53.8255H40.116V55.2962H37.4688C37.3127 55.2962 37.1631 55.3582 37.0528 55.4685C36.9425 55.5788 36.8805 55.7285 36.8805 55.8845C36.8805 56.0405 36.9425 56.1901 37.0528 56.3005C37.1631 56.4108 37.3127 56.4728 37.4688 56.4728H48.0255C48.1815 56.4728 48.3312 56.4108 48.4415 56.3005C48.5518 56.1901 48.6138 56.0405 48.6138 55.8845C48.6138 55.7285 48.5518 55.5788 48.4415 55.4685C48.3312 55.3582 48.1815 55.2962 48.0255 55.2962H45.3782V53.8255H53.0553L52.4818 53.2372C52.3152 53.069 52.1841 52.8689 52.0964 52.6489H26.3531C26.0411 52.6489 25.7418 52.525 25.5212 52.3043C25.3005 52.0837 25.1766 51.7844 25.1766 51.4724V32.3531C25.1766 32.0411 25.3005 31.7418 25.5212 31.5212C25.7418 31.3005 26.0411 31.1766 26.3531 31.1766H42.1662V34.7063C41.1779 35.501 40.36 36.487 39.7616 37.6051C39.1631 38.7233 38.7963 39.9507 38.6832 41.2138C38.5701 42.477 38.7129 43.7501 39.1031 44.9568C39.4934 46.1635 40.123 47.2791 40.9543 48.2368H38.0629V35.2946C38.0629 35.1385 38.0009 34.9889 37.8906 34.8786C37.7803 34.7683 37.6307 34.7063 37.4746 34.7063C37.3186 34.7063 37.169 34.7683 37.0587 34.8786C36.9483 34.9889 36.8864 35.1385 36.8864 35.2946V48.2368H32.789V40.0008C32.789 39.8448 32.727 39.6952 32.6167 39.5848C32.5063 39.4745 32.3567 39.4125 32.2007 39.4125C32.0447 39.4125 31.895 39.4745 31.7847 39.5848C31.6744 39.6952 31.6124 39.8448 31.6124 40.0008V48.2368H27.5297V43.8247C27.5297 43.6686 27.4677 43.519 27.3574 43.4087C27.2471 43.2984 27.0974 43.2364 26.9414 43.2364C26.7854 43.2364 26.6358 43.2984 26.5254 43.4087C26.4151 43.519 26.3531 43.6686 26.3531 43.8247V48.5809C26.3488 48.622 26.3488 48.6634 26.3531 48.7045C26.349 48.7446 26.349 48.785 26.3531 48.8251C26.3531 48.9811 26.4151 49.1307 26.5254 49.2411C26.6358 49.3514 26.7854 49.4134 26.9414 49.4134H42.175C43.7127 50.6492 45.6023 51.3664 47.5728 51.4621C49.5433 51.5577 51.4934 51.0269 53.1436 49.9458L54.026 50.8664L53.323 51.59C53.2143 51.7001 53.1534 51.8486 53.1534 52.0033C53.1534 52.158 53.2143 52.3065 53.323 52.4166L60.6471 59.8289C60.7574 59.9385 60.9065 60 61.0619 60C61.2173 60 61.3664 59.9385 61.4766 59.8289C61.5866 59.7191 61.6486 59.5702 61.6492 59.4148C61.6497 59.2594 61.5887 59.1101 61.4796 58.9995ZM41.2867 53.8255H44.2281V55.2962H41.2867V53.8255ZM39.816 42.0598C39.8224 40.4389 40.3088 38.8563 41.2139 37.5116C42.1189 36.1669 43.402 35.1205 44.9012 34.5043C46.4005 33.8882 48.0486 33.73 49.6377 34.0497C51.2267 34.3694 52.6854 35.1527 53.8297 36.3007C54.974 37.4487 55.7526 38.9099 56.0672 40.5C56.3818 42.0901 56.2183 43.7377 55.5973 45.2349C54.9764 46.7322 53.9258 48.0119 52.5782 48.9126C51.2306 49.8133 49.6464 50.2946 48.0255 50.2958C45.8468 50.2872 43.7603 49.4157 42.2227 47.8721C40.6852 46.3285 39.8219 44.2385 39.8219 42.0598H39.816ZM54.0907 49.2339C54.382 48.9862 54.658 48.7209 54.9173 48.4398L55.6614 49.2075L54.8584 50.0252L54.0907 49.2339Z" fill="#233A7C"/>
<path d="M61.4796 58.9995L54.5643 52.0018L57.4498 49.0604L60.656 52.1959C60.7698 52.291 60.9154 52.3394 61.0635 52.3317C61.2116 52.324 61.3513 52.2606 61.4547 52.1543C61.558 52.0479 61.6174 51.9065 61.621 51.7582C61.6245 51.61 61.5719 51.4658 61.4737 51.3547L57.8528 47.825C57.7427 47.7163 57.5942 47.6554 57.4395 47.6554C57.2848 47.6554 57.1364 47.7163 57.0263 47.825L56.488 48.375L55.6614 47.522C56.918 45.7784 57.5382 43.6564 57.4186 41.5105C57.2991 39.3646 56.4469 37.3246 55.0044 35.7314C53.5619 34.1381 51.6165 33.088 49.493 32.7563C47.3695 32.4247 45.1965 32.8316 43.3369 33.9091V31.1766H59.1588C59.4708 31.1766 59.7701 31.3005 59.9907 31.5212C60.2114 31.7418 60.3354 32.0411 60.3354 32.3531V48.5986L61.5119 49.7457V32.3531C61.5119 31.729 61.264 31.1305 60.8227 30.6892C60.3814 30.2479 59.7829 30 59.1588 30H26.3531C25.729 30 25.1305 30.2479 24.6892 30.6892C24.2479 31.1305 24 31.729 24 32.3531V51.4724C24 52.0965 24.2479 52.695 24.6892 53.1363C25.1305 53.5776 25.729 53.8255 26.3531 53.8255H40.116V55.2962H37.4688C37.3127 55.2962 37.1631 55.3582 37.0528 55.4685C36.9425 55.5788 36.8805 55.7285 36.8805 55.8845C36.8805 56.0405 36.9425 56.1901 37.0528 56.3005C37.1631 56.4108 37.3127 56.4728 37.4688 56.4728H48.0255C48.1815 56.4728 48.3312 56.4108 48.4415 56.3005C48.5518 56.1901 48.6138 56.0405 48.6138 55.8845C48.6138 55.7285 48.5518 55.5788 48.4415 55.4685C48.3312 55.3582 48.1815 55.2962 48.0255 55.2962H45.3782V53.8255H53.0553L52.4818 53.2372C52.3152 53.069 52.1841 52.8689 52.0964 52.6489H26.3531C26.0411 52.6489 25.7418 52.525 25.5212 52.3043C25.3005 52.0837 25.1766 51.7844 25.1766 51.4724V32.3531C25.1766 32.0411 25.3005 31.7418 25.5212 31.5212C25.7418 31.3005 26.0411 31.1766 26.3531 31.1766H42.1662V34.7063C41.1779 35.501 40.36 36.487 39.7616 37.6051C39.1631 38.7233 38.7963 39.9507 38.6832 41.2138C38.5701 42.477 38.7129 43.7501 39.1031 44.9568C39.4934 46.1635 40.123 47.2791 40.9543 48.2368H38.0629V35.2946C38.0629 35.1385 38.0009 34.9889 37.8906 34.8786C37.7803 34.7683 37.6307 34.7063 37.4746 34.7063C37.3186 34.7063 37.169 34.7683 37.0587 34.8786C36.9483 34.9889 36.8864 35.1385 36.8864 35.2946V48.2368H32.789V40.0008C32.789 39.8448 32.727 39.6952 32.6167 39.5848C32.5063 39.4745 32.3567 39.4125 32.2007 39.4125C32.0447 39.4125 31.895 39.4745 31.7847 39.5848C31.6744 39.6952 31.6124 39.8448 31.6124 40.0008V48.2368H27.5297V43.8247C27.5297 43.6686 27.4677 43.519 27.3574 43.4087C27.2471 43.2984 27.0974 43.2364 26.9414 43.2364C26.7854 43.2364 26.6358 43.2984 26.5254 43.4087C26.4151 43.519 26.3531 43.6686 26.3531 43.8247V48.5809C26.3488 48.622 26.3488 48.6634 26.3531 48.7045C26.349 48.7446 26.349 48.785 26.3531 48.8251C26.3531 48.9811 26.4151 49.1307 26.5254 49.2411C26.6358 49.3514 26.7854 49.4134 26.9414 49.4134H42.175C43.7127 50.6492 45.6023 51.3664 47.5728 51.4621C49.5433 51.5577 51.4934 51.0269 53.1436 49.9458L54.026 50.8664L53.323 51.59C53.2143 51.7001 53.1534 51.8486 53.1534 52.0033C53.1534 52.158 53.2143 52.3065 53.323 52.4166L60.6471 59.8289C60.7574 59.9385 60.9065 60 61.0619 60C61.2173 60 61.3664 59.9385 61.4766 59.8289C61.5866 59.7191 61.6486 59.5702 61.6492 59.4148C61.6497 59.2594 61.5887 59.1101 61.4796 58.9995ZM41.2867 53.8255H44.2281V55.2962H41.2867V53.8255ZM39.816 42.0598C39.8224 40.4389 40.3088 38.8563 41.2139 37.5116C42.1189 36.1669 43.402 35.1205 44.9012 34.5043C46.4005 33.8882 48.0486 33.73 49.6377 34.0497C51.2267 34.3694 52.6854 35.1527 53.8297 36.3007C54.974 37.4487 55.7526 38.9099 56.0672 40.5C56.3818 42.0901 56.2183 43.7377 55.5973 45.2349C54.9764 46.7322 53.9258 48.0119 52.5782 48.9126C51.2306 49.8133 49.6464 50.2946 48.0255 50.2958C45.8468 50.2872 43.7603 49.4157 42.2227 47.8721C40.6852 46.3285 39.8219 44.2385 39.8219 42.0598H39.816ZM54.0907 49.2339C54.382 48.9862 54.658 48.7209 54.9173 48.4398L55.6614 49.2075L54.8584 50.0252L54.0907 49.2339Z" stroke="#233A7C" stroke-width="0.2" mask="url(#path-4-outside-1_643_2178)"/>
<path d="M57.1077 51.425C57.2763 51.425 57.4383 51.4917 57.5579 51.6105L59.6175 53.6691C59.6767 53.7283 59.724 53.7988 59.7561 53.8762C59.7883 53.9536 59.804 54.0374 59.804 54.1213C59.804 54.205 59.7882 54.2881 59.7561 54.3654C59.7241 54.4428 59.6767 54.5132 59.6175 54.5724C59.4979 54.6913 59.3358 54.7579 59.1673 54.758C58.9986 54.758 58.8367 54.6913 58.7171 54.5724L56.6575 52.5139C56.5983 52.4547 56.5519 52.3841 56.5198 52.3068C56.4877 52.2293 56.471 52.1456 56.471 52.0617C56.471 51.9779 56.4877 51.8949 56.5198 51.8176C56.5519 51.7403 56.5983 51.6697 56.6575 51.6105H56.6585C56.778 51.4918 56.9393 51.4251 57.1077 51.425Z" fill="#233A7C" stroke="#233A7C" stroke-width="0.1"/>
<path d="M26.9297 40.8334C27.2807 40.8334 27.5652 41.119 27.5655 41.4711C27.5655 41.8234 27.2808 42.1098 26.9297 42.1098C26.5788 42.1096 26.295 41.8233 26.295 41.4711C26.2952 41.1192 26.5789 40.8336 26.9297 40.8334Z" fill="#233A7C" stroke="#233A7C" stroke-width="0.1"/>
<path d="M32.2028 37.0096C32.5538 37.0096 32.8383 37.2952 32.8385 37.6473C32.8385 37.9996 32.5539 38.2859 32.2028 38.2859C31.8518 38.2857 31.568 37.9994 31.568 37.6473C31.5682 37.2953 31.852 37.0098 32.2028 37.0096Z" fill="#233A7C" stroke="#233A7C" stroke-width="0.1"/>
<path d="M37.4771 32.3033C37.828 32.3033 38.1126 32.5889 38.1128 32.941C38.1128 33.2933 37.8282 33.5797 37.4771 33.5797C37.1261 33.5795 36.8423 33.2932 36.8423 32.941C36.8425 32.5891 37.1262 32.3036 37.4771 32.3033Z" fill="#233A7C" stroke="#233A7C" stroke-width="0.1"/>
</svg>
