<svg width="146" height="39" viewBox="0 0 146 39" fill="none" xmlns="http://www.w3.org/2000/svg">
<path d="M49.5565 31.7091L48.8675 27.1042H43.9723L43.2833 31.7091H39.6211L43.6825 6.32689H49.5203L53.5813 31.7091H49.5565ZM48.3236 23.6595L46.402 10.8232L44.48 23.6595H48.3236ZM54.9314 12.4186C54.9314 10.3639 55.4268 8.79259 56.418 7.70479C57.4091 6.5928 58.8715 6.03681 60.8054 6.03681C62.7393 6.03681 64.2016 6.5928 65.1928 7.70479C66.184 8.79259 66.6794 10.3639 66.6794 12.4186V13.2163H62.9086V12.1648C62.9086 11.2946 62.7393 10.666 62.4009 10.2793C62.0626 9.86831 61.5668 9.66284 60.9143 9.66284C60.2615 9.66284 59.7661 9.86831 59.4273 10.2793C59.089 10.666 58.92 11.2946 58.92 12.1648C58.92 13.2283 59.1979 14.159 59.7538 14.957C60.3339 15.7546 61.1922 16.6611 62.3282 17.6765C63.2712 18.5465 64.0326 19.3202 64.6127 19.9969C65.1928 20.6497 65.6886 21.4473 66.0993 22.3903C66.5104 23.333 66.716 24.4085 66.716 25.6172C66.716 27.672 66.2082 29.2556 65.1928 30.3676C64.1777 31.4554 62.7031 31.9993 60.7692 31.9993C58.8353 31.9993 57.3607 31.4554 56.3452 30.3676C55.3302 29.2556 54.8224 27.672 54.8224 25.6172V24.0582H58.5936V25.8713C58.5936 27.5149 59.2826 28.3367 60.6603 28.3367C62.0383 28.3367 62.7273 27.5149 62.7273 25.8713C62.7273 24.8077 62.4371 23.8769 61.857 23.079C61.3008 22.2814 60.4547 21.3749 59.3188 20.3595C58.3761 19.4895 57.6143 18.7278 57.0342 18.0753C56.4541 17.3982 55.9587 16.5887 55.5476 15.6456C55.1365 14.7029 54.9314 13.6274 54.9314 12.4186ZM68.4935 12.4186C68.4935 10.3639 68.9889 8.79259 69.9801 7.70479C70.9713 6.5928 72.4337 6.03681 74.3675 6.03681C76.3014 6.03681 77.7641 6.5928 78.755 7.70479C79.7462 8.79259 80.2419 10.3639 80.2419 12.4186V13.2163H76.4708V12.1648C76.4708 11.2946 76.3014 10.666 75.9631 10.2793C75.6247 9.86831 75.1289 9.66284 74.4765 9.66284C73.8236 9.66284 73.3282 9.86831 72.9899 10.2793C72.6511 10.666 72.4822 11.2946 72.4822 12.1648C72.4822 13.2283 72.7601 14.159 73.3159 14.957C73.8964 15.7546 74.7544 16.6611 75.8907 17.6765C76.8334 18.5465 77.5948 19.3202 78.1749 19.9969C78.755 20.6497 79.2507 21.4473 79.6615 22.3903C80.0726 23.333 80.2781 24.4085 80.2781 25.6172C80.2781 27.672 79.7704 29.2556 78.755 30.3676C77.7399 31.4554 76.2652 31.9993 74.3314 31.9993C72.3975 31.9993 70.9228 31.4554 69.9078 30.3676C68.8923 29.2556 68.3846 27.672 68.3846 25.6172V24.0582H72.1557V25.8713C72.1557 27.5149 72.8448 28.3367 74.2224 28.3367C75.6005 28.3367 76.2895 27.5149 76.2895 25.8713C76.2895 24.8077 75.9993 23.8769 75.4192 23.079C74.8633 22.2814 74.0173 21.3749 72.8809 20.3595C71.9383 19.4895 71.1769 18.7278 70.5964 18.0753C70.0163 17.3982 69.5209 16.5887 69.1098 15.6456C68.6991 14.7029 68.4935 13.6274 68.4935 12.4186ZM86.3707 25.9074C86.3707 27.5511 87.0594 28.3733 88.4374 28.3733C89.8155 28.3733 90.5041 27.5511 90.5041 25.9074V6.32689H94.2753V25.6538C94.2753 27.7085 93.7675 29.2917 92.7525 30.4038C91.737 31.4916 90.2624 32.0355 88.3285 32.0355C86.3946 32.0355 84.9203 31.4916 83.9049 30.4038C82.8895 29.2917 82.3821 27.7085 82.3821 25.6538V6.32689H86.3707V25.9074ZM105.351 31.7091C105.206 31.298 105.109 30.9115 105.06 30.5489C105.012 30.1863 104.988 29.5335 104.988 28.5908V24.6021C104.988 23.4416 104.783 22.6198 104.371 22.1363C103.961 21.6286 103.296 21.3749 102.377 21.3749H100.999V31.7091H97.0108V6.32689H103.03C105.085 6.32689 106.584 6.81036 107.526 7.77731C108.469 8.72007 108.941 10.1826 108.941 12.1648V14.159C108.941 16.77 108.07 18.486 106.33 19.3082C107.272 19.6947 107.949 20.3475 108.36 21.266C108.771 22.1606 108.977 23.3088 108.977 24.7107V28.627C108.977 29.3522 109.001 29.9446 109.049 30.4038C109.098 30.8388 109.218 31.2741 109.412 31.7091H105.351ZM100.999 17.7489H102.558C103.356 17.7489 103.948 17.5433 104.335 17.1326C104.746 16.7215 104.952 16.0325 104.952 15.0655V12.5637C104.952 11.6451 104.783 10.9803 104.444 10.5693C104.13 10.1584 103.622 9.95292 102.921 9.95292H100.999V17.7489ZM115.589 6.32689V31.7091H111.6V6.32689H115.589ZM118.178 12.4186C118.178 10.388 118.698 8.81677 119.738 7.70479C120.777 6.5928 122.276 6.03681 124.234 6.03681C126.192 6.03681 127.691 6.5928 128.73 7.70479C129.77 8.81677 130.289 10.388 130.289 12.4186V25.6172C130.289 27.6481 129.77 29.2194 128.73 30.3311C127.691 31.4431 126.192 31.9993 124.234 31.9993C122.276 31.9993 120.777 31.4431 119.738 30.3311C118.698 29.2194 118.178 27.6481 118.178 25.6172V12.4186ZM122.167 25.8713C122.167 27.5392 122.856 28.3733 124.234 28.3733C125.612 28.3733 126.301 27.5392 126.301 25.8713V12.1648C126.301 10.4968 125.612 9.66284 124.234 9.66284C122.856 9.66284 122.167 10.4968 122.167 12.1648V25.8713ZM136.435 31.7091H132.845V6.32689H137.849L141.947 21.52V6.32689H145.5V31.7091H141.403L136.435 13.3253V31.7091Z" fill="white"/>
<mask id="mask0_103_104" style="mask-type:luminance" maskUnits="userSpaceOnUse" x="0" y="0" width="34" height="39">
<path d="M33.7759 0H0.5V38.3493H33.7759V0Z" fill="white"/>
</mask>
<g mask="url(#mask0_103_104)">
<path d="M33.6136 8.60178C32.7847 18.3551 29.2292 26.927 24.0528 32.7618C23.1142 33.8209 22.1219 34.7897 21.0822 35.6582C19.8355 36.7023 18.5209 37.6021 17.1499 38.3426V31.9684C17.9299 30.4415 18.7809 28.8941 19.7004 27.3325C23.3242 21.1772 28.0112 14.8074 33.6136 8.60178Z" fill="#449FD8"/>
<path d="M33.7759 5.78038C33.7733 5.88081 33.7699 5.98056 33.7662 6.08098C27.0498 11.431 21.4157 17.0725 17.1499 22.5873C17.1443 22.5948 17.1383 22.6019 17.1331 22.609C15.5473 19.14 14.3666 15.2681 13.6858 11.1265C11.9227 12.6216 9.95901 13.695 7.86509 14.2471C9.04952 19.3317 11.0032 23.9247 13.5339 27.751C14.6049 29.3719 15.7793 30.8548 17.0424 32.1799C17.0775 32.2168 17.1133 32.2541 17.1499 32.291V38.343C17.1499 38.343 17.1428 38.3475 17.1391 38.3493C16.3523 37.9256 15.5849 37.4488 14.8381 36.9221C13.3351 35.8645 11.9153 34.6073 10.5962 33.174C6.26732 28.4736 3.0218 21.8878 1.47813 14.2904C0.92117 11.5542 0.586174 8.68654 0.5 5.72823C2.14514 6.56024 3.91898 7.01338 5.76706 7.01338C6.09385 7.01338 6.41878 6.99905 6.74072 6.971C9.00624 6.77474 11.1408 5.89644 13.0422 4.48087C14.5818 3.33456 15.9696 1.83551 17.1499 0.0599851C17.1629 0.0404373 17.1767 0.0202192 17.1905 0C17.9143 1.0974 18.7171 2.08982 19.5855 2.95961C22.1331 5.51238 25.2488 7.01338 28.6129 7.01338C30.4226 7.01338 32.1598 6.57911 33.7759 5.78038Z" fill="white"/>
</g>
</svg>
