<svg width="85" height="85" viewBox="0 0 85 85" fill="none" xmlns="http://www.w3.org/2000/svg">
<circle cx="42.5" cy="42.5" r="42.5" fill="#D4DEFC"/>
<circle cx="43.0743" cy="43.0743" r="37.3311" fill="white"/>
<mask id="path-3-outside-1_643_2052" maskUnits="userSpaceOnUse" x="26" y="26" width="34" height="34" fill="black">
<rect fill="white" x="26" y="26" width="34" height="34"/>
<path fill-rule="evenodd" clip-rule="evenodd" d="M49.1111 38.974C49.1569 38.7935 49.0681 38.6171 48.8944 38.549C46.8181 37.731 44.9638 36.9005 43.261 35.384C43.1221 35.259 42.9277 35.259 42.7874 35.377C41.1805 36.7256 39.0541 37.688 37.0971 38.5504C36.9388 38.6199 36.8568 38.774 36.886 38.9421C37.4985 42.6265 39.6179 46.4264 42.8138 48.4874C42.9458 48.5721 43.0916 48.5707 43.2207 48.4791C46.3096 46.2875 48.2124 42.5588 49.1123 38.9743L49.1111 38.974ZM43.8293 27.5163L44.3849 28.6607L45.6502 28.837C46.4085 28.944 46.7127 29.8759 46.1599 30.4078L45.2418 31.2911L45.4655 32.5507C45.5974 33.2951 44.8113 33.8839 44.128 33.5187L43.0016 32.916L41.8724 33.5201C41.1946 33.8826 40.4029 33.3034 40.5349 32.5521L40.7557 31.2911L39.8391 30.4064C39.2849 29.8717 39.596 28.9426 40.3488 28.837L41.6238 28.6565L42.1752 27.5177C42.5057 26.8344 43.4904 26.8205 43.8279 27.5177L43.8293 27.5163ZM43.6029 29.3342L43.0029 28.0982L42.4099 29.3203C42.3404 29.4689 42.2001 29.5814 42.0252 29.605L40.6488 29.7994L41.6168 30.7341C41.7474 30.8452 41.8168 31.0202 41.7863 31.2007L41.5488 32.5618L42.7641 31.9118C42.9057 31.834 43.0835 31.8285 43.2363 31.909L44.453 32.5604L44.2127 31.2007C44.1863 31.0424 44.2349 30.8744 44.3585 30.7549L45.3502 29.7994L43.9835 29.6092C43.8238 29.587 43.678 29.487 43.603 29.3314L43.6029 29.3342ZM54.0264 49.858C53.8889 50.0969 53.5833 50.1774 53.3444 50.0399C53.1056 49.9024 53.025 49.5969 53.1625 49.358L55.525 45.2666C56.0986 44.2749 54.4625 43.3417 53.8931 44.3264L52.3181 47.054C52.2917 47.0998 52.2597 47.1387 52.2222 47.1734L49.6555 49.5163C48.5958 50.4829 47.7097 51.5467 47.7097 53.0244V58.4989C47.7097 58.7752 47.4861 58.9988 47.2097 58.9988C46.9333 58.9988 46.7097 58.7752 46.7097 58.4989V53.0244C46.7097 51.2314 47.7194 49.9329 48.9847 48.779L51.4944 46.4889L53.0305 43.8279C53.5708 42.8933 54.5625 42.7238 55.3944 43.0766L55.4028 38.8145C55.4944 36.7965 58.986 36.7674 58.9889 38.7908L59 50.3972C59.0014 51.729 58.3889 52.9026 57.2681 53.6317L53.7001 55.9524C53.2487 56.2454 53.0028 56.7009 53.0042 57.237L53.0056 58.4967C53.0056 58.7716 52.782 58.9952 52.5084 58.9952C52.2334 58.9952 52.0098 58.7716 52.0098 58.4967L52.0084 57.237C52.007 56.3579 52.4209 55.5941 53.1584 55.1149L56.7264 52.7943C57.5639 52.2499 58.0056 51.3916 58.0042 50.3958L57.9931 38.7895C57.9917 38.0728 56.4167 38.1325 56.4001 38.8561L56.3903 43.9196C56.7028 44.4293 56.775 45.0723 56.407 45.7334L54.0278 49.8568L54.0264 49.858ZM32.8388 49.3581C32.9763 49.5969 32.8958 49.9011 32.6569 50.04C32.418 50.1775 32.1139 50.0969 31.9749 49.858L29.5958 45.7346C29.2277 45.0735 29.2999 44.4319 29.6124 43.9208L29.6027 38.8573C29.5861 38.1351 28.0097 38.074 28.0097 38.7906L27.9985 50.397C27.9972 51.3928 28.4388 52.251 29.2763 52.7954L32.8443 55.1161C33.5804 55.5952 33.9943 56.3577 33.993 57.2382L33.9916 58.4978C33.9916 58.7728 33.768 58.9964 33.493 58.9964C33.218 58.9964 32.9944 58.7728 32.9944 58.4978L32.9958 57.2382C32.9972 56.7021 32.7513 56.2466 32.2999 55.9536L28.7319 53.6329C27.6125 52.9038 27 51.7316 27 50.3984L27.0111 38.792C27.0139 36.7686 30.5055 36.7977 30.5972 38.8156L30.6056 43.0778C31.4375 42.725 32.4306 42.8944 32.9695 43.8291L34.5056 46.49L37.0153 48.7802C38.2806 49.9343 39.2903 51.2341 39.2903 53.0256V58.5C39.2903 58.7764 39.0667 59 38.7903 59C38.5139 59 38.2903 58.7764 38.2903 58.5V53.0256C38.2903 51.5479 37.4028 50.4841 36.3445 49.5175L33.7778 47.1746C33.7403 47.1413 33.7083 47.101 33.6819 47.0551L32.1069 44.3275C31.5375 43.3429 29.9014 44.2762 30.475 45.2677L32.8375 49.3592L32.8388 49.3581ZM54.964 32.2968C55.7223 32.4037 56.0265 33.3356 55.4737 33.8675L54.5557 34.7508L54.7793 36.0105C54.9112 36.7549 54.1251 37.3437 53.4418 36.9785L52.3154 36.3757L51.1862 36.9799C50.5085 37.3423 49.7182 36.7632 49.8487 36.0132L50.0696 34.7522L49.1529 33.8675C48.5974 33.3301 48.9126 32.4037 49.6626 32.2982L50.9362 32.1176L51.4876 30.9788C51.8182 30.2955 52.8029 30.2817 53.1404 30.9788L53.6959 32.1232L54.9612 32.2996L54.964 32.2968ZM49.9628 33.2606L50.9322 34.1953C51.0628 34.3064 51.1322 34.4813 51.1003 34.6619L50.8628 36.0229L52.0781 35.373C52.2197 35.2952 52.3975 35.2896 52.5503 35.3702L53.767 36.0215L53.5253 34.6619C53.4975 34.505 53.5475 34.3355 53.6711 34.2161L54.6628 33.2606L53.2961 33.0689C53.1364 33.0467 52.9906 32.9481 52.9156 32.7912L52.3156 31.5551L51.7225 32.7773C51.6531 32.9259 51.5128 33.0384 51.3378 33.062L49.9614 33.2578L49.9628 33.2606ZM34.5171 30.976L35.0726 32.1204L36.3379 32.2968C37.0962 32.4023 37.4004 33.3356 36.8476 33.8675L35.9296 34.7508L36.1532 36.0105C36.2851 36.7549 35.499 37.3437 34.8157 36.9785L33.6893 36.3757L32.5601 36.9798C31.8824 37.3423 31.0907 36.7632 31.2226 36.0132L31.4435 34.7522L30.5268 33.8675C29.9713 33.3301 30.2865 32.4037 31.0365 32.2982L32.3115 32.1176L32.8629 30.9788C32.9393 30.8205 33.0574 30.6913 33.2004 30.6011C33.6643 30.3108 34.2768 30.4872 34.5157 30.9788L34.5171 30.976ZM34.2907 32.794L33.6907 31.5593L33.0976 32.7814C33.0282 32.9301 32.8879 33.0412 32.7129 33.0662L31.3365 33.262L32.3046 34.1966C32.4351 34.3077 32.5046 34.4827 32.474 34.6633L32.2351 36.0243L33.4504 35.3743C33.5935 35.2966 33.7699 35.291 33.9226 35.3716L35.1393 36.0229L34.899 34.6633C34.8713 34.5049 34.9213 34.3369 35.0449 34.2175L36.0365 33.262L34.6699 33.0703C34.5101 33.0481 34.3643 32.9495 34.2893 32.7926L34.2907 32.794ZM45.0683 39.9892C45.2641 39.7934 45.5794 39.7934 45.7752 39.9892C45.9711 40.185 45.9711 40.5003 45.7752 40.6961L42.6211 43.8501C42.4183 44.0528 42.096 44.0487 41.8877 43.8209L40.2252 42.1447C40.0308 41.9488 40.0322 41.6336 40.228 41.4391C40.4238 41.2447 40.7391 41.2461 40.9336 41.4405L42.2697 42.7877L45.0697 39.9879L45.0683 39.9892ZM35.9003 39.1032C35.7975 38.4851 36.1225 37.888 36.6947 37.6366C38.5433 36.8227 40.6393 35.8784 42.1475 34.6118C42.6656 34.1771 43.4225 34.1896 43.9267 34.6382C45.5295 36.0672 47.2934 36.8436 49.2586 37.6199C49.8947 37.8699 50.2475 38.5532 50.0808 39.2157C49.1225 43.0319 47.0947 46.9542 43.7989 49.2914C43.3419 49.615 42.7461 49.6303 42.2752 49.3262C38.835 47.1069 36.5615 43.0681 35.9016 39.1018L35.9003 39.1032Z"/>
</mask>
<path fill-rule="evenodd" clip-rule="evenodd" d="M49.1111 38.974C49.1569 38.7935 49.0681 38.6171 48.8944 38.549C46.8181 37.731 44.9638 36.9005 43.261 35.384C43.1221 35.259 42.9277 35.259 42.7874 35.377C41.1805 36.7256 39.0541 37.688 37.0971 38.5504C36.9388 38.6199 36.8568 38.774 36.886 38.9421C37.4985 42.6265 39.6179 46.4264 42.8138 48.4874C42.9458 48.5721 43.0916 48.5707 43.2207 48.4791C46.3096 46.2875 48.2124 42.5588 49.1123 38.9743L49.1111 38.974ZM43.8293 27.5163L44.3849 28.6607L45.6502 28.837C46.4085 28.944 46.7127 29.8759 46.1599 30.4078L45.2418 31.2911L45.4655 32.5507C45.5974 33.2951 44.8113 33.8839 44.128 33.5187L43.0016 32.916L41.8724 33.5201C41.1946 33.8826 40.4029 33.3034 40.5349 32.5521L40.7557 31.2911L39.8391 30.4064C39.2849 29.8717 39.596 28.9426 40.3488 28.837L41.6238 28.6565L42.1752 27.5177C42.5057 26.8344 43.4904 26.8205 43.8279 27.5177L43.8293 27.5163ZM43.6029 29.3342L43.0029 28.0982L42.4099 29.3203C42.3404 29.4689 42.2001 29.5814 42.0252 29.605L40.6488 29.7994L41.6168 30.7341C41.7474 30.8452 41.8168 31.0202 41.7863 31.2007L41.5488 32.5618L42.7641 31.9118C42.9057 31.834 43.0835 31.8285 43.2363 31.909L44.453 32.5604L44.2127 31.2007C44.1863 31.0424 44.2349 30.8744 44.3585 30.7549L45.3502 29.7994L43.9835 29.6092C43.8238 29.587 43.678 29.487 43.603 29.3314L43.6029 29.3342ZM54.0264 49.858C53.8889 50.0969 53.5833 50.1774 53.3444 50.0399C53.1056 49.9024 53.025 49.5969 53.1625 49.358L55.525 45.2666C56.0986 44.2749 54.4625 43.3417 53.8931 44.3264L52.3181 47.054C52.2917 47.0998 52.2597 47.1387 52.2222 47.1734L49.6555 49.5163C48.5958 50.4829 47.7097 51.5467 47.7097 53.0244V58.4989C47.7097 58.7752 47.4861 58.9988 47.2097 58.9988C46.9333 58.9988 46.7097 58.7752 46.7097 58.4989V53.0244C46.7097 51.2314 47.7194 49.9329 48.9847 48.779L51.4944 46.4889L53.0305 43.8279C53.5708 42.8933 54.5625 42.7238 55.3944 43.0766L55.4028 38.8145C55.4944 36.7965 58.986 36.7674 58.9889 38.7908L59 50.3972C59.0014 51.729 58.3889 52.9026 57.2681 53.6317L53.7001 55.9524C53.2487 56.2454 53.0028 56.7009 53.0042 57.237L53.0056 58.4967C53.0056 58.7716 52.782 58.9952 52.5084 58.9952C52.2334 58.9952 52.0098 58.7716 52.0098 58.4967L52.0084 57.237C52.007 56.3579 52.4209 55.5941 53.1584 55.1149L56.7264 52.7943C57.5639 52.2499 58.0056 51.3916 58.0042 50.3958L57.9931 38.7895C57.9917 38.0728 56.4167 38.1325 56.4001 38.8561L56.3903 43.9196C56.7028 44.4293 56.775 45.0723 56.407 45.7334L54.0278 49.8568L54.0264 49.858ZM32.8388 49.3581C32.9763 49.5969 32.8958 49.9011 32.6569 50.04C32.418 50.1775 32.1139 50.0969 31.9749 49.858L29.5958 45.7346C29.2277 45.0735 29.2999 44.4319 29.6124 43.9208L29.6027 38.8573C29.5861 38.1351 28.0097 38.074 28.0097 38.7906L27.9985 50.397C27.9972 51.3928 28.4388 52.251 29.2763 52.7954L32.8443 55.1161C33.5804 55.5952 33.9943 56.3577 33.993 57.2382L33.9916 58.4978C33.9916 58.7728 33.768 58.9964 33.493 58.9964C33.218 58.9964 32.9944 58.7728 32.9944 58.4978L32.9958 57.2382C32.9972 56.7021 32.7513 56.2466 32.2999 55.9536L28.7319 53.6329C27.6125 52.9038 27 51.7316 27 50.3984L27.0111 38.792C27.0139 36.7686 30.5055 36.7977 30.5972 38.8156L30.6056 43.0778C31.4375 42.725 32.4306 42.8944 32.9695 43.8291L34.5056 46.49L37.0153 48.7802C38.2806 49.9343 39.2903 51.2341 39.2903 53.0256V58.5C39.2903 58.7764 39.0667 59 38.7903 59C38.5139 59 38.2903 58.7764 38.2903 58.5V53.0256C38.2903 51.5479 37.4028 50.4841 36.3445 49.5175L33.7778 47.1746C33.7403 47.1413 33.7083 47.101 33.6819 47.0551L32.1069 44.3275C31.5375 43.3429 29.9014 44.2762 30.475 45.2677L32.8375 49.3592L32.8388 49.3581ZM54.964 32.2968C55.7223 32.4037 56.0265 33.3356 55.4737 33.8675L54.5557 34.7508L54.7793 36.0105C54.9112 36.7549 54.1251 37.3437 53.4418 36.9785L52.3154 36.3757L51.1862 36.9799C50.5085 37.3423 49.7182 36.7632 49.8487 36.0132L50.0696 34.7522L49.1529 33.8675C48.5974 33.3301 48.9126 32.4037 49.6626 32.2982L50.9362 32.1176L51.4876 30.9788C51.8182 30.2955 52.8029 30.2817 53.1404 30.9788L53.6959 32.1232L54.9612 32.2996L54.964 32.2968ZM49.9628 33.2606L50.9322 34.1953C51.0628 34.3064 51.1322 34.4813 51.1003 34.6619L50.8628 36.0229L52.0781 35.373C52.2197 35.2952 52.3975 35.2896 52.5503 35.3702L53.767 36.0215L53.5253 34.6619C53.4975 34.505 53.5475 34.3355 53.6711 34.2161L54.6628 33.2606L53.2961 33.0689C53.1364 33.0467 52.9906 32.9481 52.9156 32.7912L52.3156 31.5551L51.7225 32.7773C51.6531 32.9259 51.5128 33.0384 51.3378 33.062L49.9614 33.2578L49.9628 33.2606ZM34.5171 30.976L35.0726 32.1204L36.3379 32.2968C37.0962 32.4023 37.4004 33.3356 36.8476 33.8675L35.9296 34.7508L36.1532 36.0105C36.2851 36.7549 35.499 37.3437 34.8157 36.9785L33.6893 36.3757L32.5601 36.9798C31.8824 37.3423 31.0907 36.7632 31.2226 36.0132L31.4435 34.7522L30.5268 33.8675C29.9713 33.3301 30.2865 32.4037 31.0365 32.2982L32.3115 32.1176L32.8629 30.9788C32.9393 30.8205 33.0574 30.6913 33.2004 30.6011C33.6643 30.3108 34.2768 30.4872 34.5157 30.9788L34.5171 30.976ZM34.2907 32.794L33.6907 31.5593L33.0976 32.7814C33.0282 32.9301 32.8879 33.0412 32.7129 33.0662L31.3365 33.262L32.3046 34.1966C32.4351 34.3077 32.5046 34.4827 32.474 34.6633L32.2351 36.0243L33.4504 35.3743C33.5935 35.2966 33.7699 35.291 33.9226 35.3716L35.1393 36.0229L34.899 34.6633C34.8713 34.5049 34.9213 34.3369 35.0449 34.2175L36.0365 33.262L34.6699 33.0703C34.5101 33.0481 34.3643 32.9495 34.2893 32.7926L34.2907 32.794ZM45.0683 39.9892C45.2641 39.7934 45.5794 39.7934 45.7752 39.9892C45.9711 40.185 45.9711 40.5003 45.7752 40.6961L42.6211 43.8501C42.4183 44.0528 42.096 44.0487 41.8877 43.8209L40.2252 42.1447C40.0308 41.9488 40.0322 41.6336 40.228 41.4391C40.4238 41.2447 40.7391 41.2461 40.9336 41.4405L42.2697 42.7877L45.0697 39.9879L45.0683 39.9892ZM35.9003 39.1032C35.7975 38.4851 36.1225 37.888 36.6947 37.6366C38.5433 36.8227 40.6393 35.8784 42.1475 34.6118C42.6656 34.1771 43.4225 34.1896 43.9267 34.6382C45.5295 36.0672 47.2934 36.8436 49.2586 37.6199C49.8947 37.8699 50.2475 38.5532 50.0808 39.2157C49.1225 43.0319 47.0947 46.9542 43.7989 49.2914C43.3419 49.615 42.7461 49.6303 42.2752 49.3262C38.835 47.1069 36.5615 43.0681 35.9016 39.1018L35.9003 39.1032Z" fill="#2A3F80"/>
<path fill-rule="evenodd" clip-rule="evenodd" d="M49.1111 38.974C49.1569 38.7935 49.0681 38.6171 48.8944 38.549C46.8181 37.731 44.9638 36.9005 43.261 35.384C43.1221 35.259 42.9277 35.259 42.7874 35.377C41.1805 36.7256 39.0541 37.688 37.0971 38.5504C36.9388 38.6199 36.8568 38.774 36.886 38.9421C37.4985 42.6265 39.6179 46.4264 42.8138 48.4874C42.9458 48.5721 43.0916 48.5707 43.2207 48.4791C46.3096 46.2875 48.2124 42.5588 49.1123 38.9743L49.1111 38.974ZM43.8293 27.5163L44.3849 28.6607L45.6502 28.837C46.4085 28.944 46.7127 29.8759 46.1599 30.4078L45.2418 31.2911L45.4655 32.5507C45.5974 33.2951 44.8113 33.8839 44.128 33.5187L43.0016 32.916L41.8724 33.5201C41.1946 33.8826 40.4029 33.3034 40.5349 32.5521L40.7557 31.2911L39.8391 30.4064C39.2849 29.8717 39.596 28.9426 40.3488 28.837L41.6238 28.6565L42.1752 27.5177C42.5057 26.8344 43.4904 26.8205 43.8279 27.5177L43.8293 27.5163ZM43.6029 29.3342L43.0029 28.0982L42.4099 29.3203C42.3404 29.4689 42.2001 29.5814 42.0252 29.605L40.6488 29.7994L41.6168 30.7341C41.7474 30.8452 41.8168 31.0202 41.7863 31.2007L41.5488 32.5618L42.7641 31.9118C42.9057 31.834 43.0835 31.8285 43.2363 31.909L44.453 32.5604L44.2127 31.2007C44.1863 31.0424 44.2349 30.8744 44.3585 30.7549L45.3502 29.7994L43.9835 29.6092C43.8238 29.587 43.678 29.487 43.603 29.3314L43.6029 29.3342ZM54.0264 49.858C53.8889 50.0969 53.5833 50.1774 53.3444 50.0399C53.1056 49.9024 53.025 49.5969 53.1625 49.358L55.525 45.2666C56.0986 44.2749 54.4625 43.3417 53.8931 44.3264L52.3181 47.054C52.2917 47.0998 52.2597 47.1387 52.2222 47.1734L49.6555 49.5163C48.5958 50.4829 47.7097 51.5467 47.7097 53.0244V58.4989C47.7097 58.7752 47.4861 58.9988 47.2097 58.9988C46.9333 58.9988 46.7097 58.7752 46.7097 58.4989V53.0244C46.7097 51.2314 47.7194 49.9329 48.9847 48.779L51.4944 46.4889L53.0305 43.8279C53.5708 42.8933 54.5625 42.7238 55.3944 43.0766L55.4028 38.8145C55.4944 36.7965 58.986 36.7674 58.9889 38.7908L59 50.3972C59.0014 51.729 58.3889 52.9026 57.2681 53.6317L53.7001 55.9524C53.2487 56.2454 53.0028 56.7009 53.0042 57.237L53.0056 58.4967C53.0056 58.7716 52.782 58.9952 52.5084 58.9952C52.2334 58.9952 52.0098 58.7716 52.0098 58.4967L52.0084 57.237C52.007 56.3579 52.4209 55.5941 53.1584 55.1149L56.7264 52.7943C57.5639 52.2499 58.0056 51.3916 58.0042 50.3958L57.9931 38.7895C57.9917 38.0728 56.4167 38.1325 56.4001 38.8561L56.3903 43.9196C56.7028 44.4293 56.775 45.0723 56.407 45.7334L54.0278 49.8568L54.0264 49.858ZM32.8388 49.3581C32.9763 49.5969 32.8958 49.9011 32.6569 50.04C32.418 50.1775 32.1139 50.0969 31.9749 49.858L29.5958 45.7346C29.2277 45.0735 29.2999 44.4319 29.6124 43.9208L29.6027 38.8573C29.5861 38.1351 28.0097 38.074 28.0097 38.7906L27.9985 50.397C27.9972 51.3928 28.4388 52.251 29.2763 52.7954L32.8443 55.1161C33.5804 55.5952 33.9943 56.3577 33.993 57.2382L33.9916 58.4978C33.9916 58.7728 33.768 58.9964 33.493 58.9964C33.218 58.9964 32.9944 58.7728 32.9944 58.4978L32.9958 57.2382C32.9972 56.7021 32.7513 56.2466 32.2999 55.9536L28.7319 53.6329C27.6125 52.9038 27 51.7316 27 50.3984L27.0111 38.792C27.0139 36.7686 30.5055 36.7977 30.5972 38.8156L30.6056 43.0778C31.4375 42.725 32.4306 42.8944 32.9695 43.8291L34.5056 46.49L37.0153 48.7802C38.2806 49.9343 39.2903 51.2341 39.2903 53.0256V58.5C39.2903 58.7764 39.0667 59 38.7903 59C38.5139 59 38.2903 58.7764 38.2903 58.5V53.0256C38.2903 51.5479 37.4028 50.4841 36.3445 49.5175L33.7778 47.1746C33.7403 47.1413 33.7083 47.101 33.6819 47.0551L32.1069 44.3275C31.5375 43.3429 29.9014 44.2762 30.475 45.2677L32.8375 49.3592L32.8388 49.3581ZM54.964 32.2968C55.7223 32.4037 56.0265 33.3356 55.4737 33.8675L54.5557 34.7508L54.7793 36.0105C54.9112 36.7549 54.1251 37.3437 53.4418 36.9785L52.3154 36.3757L51.1862 36.9799C50.5085 37.3423 49.7182 36.7632 49.8487 36.0132L50.0696 34.7522L49.1529 33.8675C48.5974 33.3301 48.9126 32.4037 49.6626 32.2982L50.9362 32.1176L51.4876 30.9788C51.8182 30.2955 52.8029 30.2817 53.1404 30.9788L53.6959 32.1232L54.9612 32.2996L54.964 32.2968ZM49.9628 33.2606L50.9322 34.1953C51.0628 34.3064 51.1322 34.4813 51.1003 34.6619L50.8628 36.0229L52.0781 35.373C52.2197 35.2952 52.3975 35.2896 52.5503 35.3702L53.767 36.0215L53.5253 34.6619C53.4975 34.505 53.5475 34.3355 53.6711 34.2161L54.6628 33.2606L53.2961 33.0689C53.1364 33.0467 52.9906 32.9481 52.9156 32.7912L52.3156 31.5551L51.7225 32.7773C51.6531 32.9259 51.5128 33.0384 51.3378 33.062L49.9614 33.2578L49.9628 33.2606ZM34.5171 30.976L35.0726 32.1204L36.3379 32.2968C37.0962 32.4023 37.4004 33.3356 36.8476 33.8675L35.9296 34.7508L36.1532 36.0105C36.2851 36.7549 35.499 37.3437 34.8157 36.9785L33.6893 36.3757L32.5601 36.9798C31.8824 37.3423 31.0907 36.7632 31.2226 36.0132L31.4435 34.7522L30.5268 33.8675C29.9713 33.3301 30.2865 32.4037 31.0365 32.2982L32.3115 32.1176L32.8629 30.9788C32.9393 30.8205 33.0574 30.6913 33.2004 30.6011C33.6643 30.3108 34.2768 30.4872 34.5157 30.9788L34.5171 30.976ZM34.2907 32.794L33.6907 31.5593L33.0976 32.7814C33.0282 32.9301 32.8879 33.0412 32.7129 33.0662L31.3365 33.262L32.3046 34.1966C32.4351 34.3077 32.5046 34.4827 32.474 34.6633L32.2351 36.0243L33.4504 35.3743C33.5935 35.2966 33.7699 35.291 33.9226 35.3716L35.1393 36.0229L34.899 34.6633C34.8713 34.5049 34.9213 34.3369 35.0449 34.2175L36.0365 33.262L34.6699 33.0703C34.5101 33.0481 34.3643 32.9495 34.2893 32.7926L34.2907 32.794ZM45.0683 39.9892C45.2641 39.7934 45.5794 39.7934 45.7752 39.9892C45.9711 40.185 45.9711 40.5003 45.7752 40.6961L42.6211 43.8501C42.4183 44.0528 42.096 44.0487 41.8877 43.8209L40.2252 42.1447C40.0308 41.9488 40.0322 41.6336 40.228 41.4391C40.4238 41.2447 40.7391 41.2461 40.9336 41.4405L42.2697 42.7877L45.0697 39.9879L45.0683 39.9892ZM35.9003 39.1032C35.7975 38.4851 36.1225 37.888 36.6947 37.6366C38.5433 36.8227 40.6393 35.8784 42.1475 34.6118C42.6656 34.1771 43.4225 34.1896 43.9267 34.6382C45.5295 36.0672 47.2934 36.8436 49.2586 37.6199C49.8947 37.8699 50.2475 38.5532 50.0808 39.2157C49.1225 43.0319 47.0947 46.9542 43.7989 49.2914C43.3419 49.615 42.7461 49.6303 42.2752 49.3262C38.835 47.1069 36.5615 43.0681 35.9016 39.1018L35.9003 39.1032Z" stroke="#2A3F80" stroke-width="0.2" mask="url(#path-3-outside-1_643_2052)"/>
</svg>
