<svg width="153" height="26" viewBox="0 0 153 26" fill="none" xmlns="http://www.w3.org/2000/svg">
<path d="M37.2563 25.472C35.7621 25.472 34.2947 25.2143 32.8581 24.7012C31.4196 24.188 30.1129 23.3986 28.9361 22.3331L31.4855 19.2786C32.3821 20.0062 33.3013 20.5853 34.2452 21.0161C35.1891 21.4468 36.2196 21.6612 37.3408 21.6612C38.2374 21.6612 38.934 21.4984 39.4286 21.1707C39.9233 20.845 40.1706 20.3916 40.1706 19.8125V19.7568C40.1706 19.4765 40.1191 19.2292 40.016 19.0148C39.913 18.8005 39.7151 18.5985 39.4266 18.413C39.136 18.2275 38.7341 18.04 38.2188 17.8524C37.7036 17.6669 37.0337 17.4691 36.2093 17.2651C35.2159 17.0219 34.3173 16.7519 33.5115 16.453C32.7056 16.1542 32.0234 15.7853 31.4608 15.3463C30.8981 14.9073 30.4633 14.3611 30.1541 13.7078C29.845 13.0544 29.6904 12.2424 29.6904 11.2696V11.2139C29.6904 10.3174 29.8573 9.50949 30.1912 8.7902C30.5251 8.07091 30.9929 7.45055 31.5968 6.92705C32.2007 6.40356 32.92 6.00166 33.7588 5.72136C34.5956 5.44106 35.5189 5.30091 36.5288 5.30091C37.9674 5.30091 39.2885 5.51526 40.4942 5.94601C41.6999 6.37676 42.8066 6.993 43.8145 7.79473L41.5721 11.0449C40.6941 10.4473 39.8346 9.97528 38.9938 9.62903C38.1529 9.28278 37.312 9.11172 36.4711 9.11172C35.6302 9.11172 34.9995 9.27454 34.5791 9.60224C34.1586 9.92994 33.9484 10.336 33.9484 10.8203V10.8759C33.9484 11.1933 34.0102 11.4695 34.1318 11.7024C34.2534 11.9353 34.474 12.1455 34.7914 12.3331C35.1088 12.5206 35.5457 12.6979 36.098 12.8648C36.6504 13.0338 37.347 13.2296 38.192 13.4522C39.1854 13.7139 40.0696 14.0087 40.8466 14.3343C41.6236 14.662 42.279 15.0536 42.8128 15.5111C43.3466 15.9687 43.7485 16.5066 44.0206 17.1228C44.2926 17.7391 44.4286 18.4769 44.4286 19.3364V19.392C44.4286 20.3627 44.2514 21.2263 43.899 21.9847C43.5465 22.7411 43.0539 23.3759 42.4233 23.8891C41.7926 24.4023 41.0383 24.796 40.1644 25.066C39.2885 25.3359 38.3198 25.472 37.2543 25.472H37.2563Z" fill="white"/>
<path d="M54.3185 25.472C52.8243 25.472 51.3569 25.2143 49.9204 24.7012C48.4818 24.188 47.1751 23.3986 45.9983 22.3331L48.5477 19.2786C49.4443 20.0062 50.3635 20.5853 51.3074 21.0161C52.2514 21.4468 53.2819 21.6612 54.403 21.6612C55.2996 21.6612 55.9962 21.4984 56.4908 21.1707C56.9855 20.845 57.2328 20.3916 57.2328 19.8125V19.7568C57.2328 19.4765 57.1813 19.2292 57.0782 19.0148C56.9752 18.8005 56.7773 18.5985 56.4888 18.413C56.1982 18.2275 55.7963 18.04 55.281 17.8524C54.7658 17.6669 54.096 17.4691 53.2716 17.2651C52.2781 17.0219 51.3795 16.7519 50.5737 16.453C49.7678 16.1542 49.0857 15.7853 48.523 15.3463C47.9603 14.9073 47.5255 14.3611 47.2163 13.7078C46.9072 13.0544 46.7526 12.2424 46.7526 11.2696V11.2139C46.7526 10.3174 46.9195 9.50949 47.2534 8.7902C47.5873 8.07091 48.0552 7.45055 48.659 6.92705C49.2629 6.40356 49.9822 6.00166 50.821 5.72136C51.6578 5.44106 52.5811 5.30091 53.591 5.30091C55.0296 5.30091 56.3507 5.51526 57.5564 5.94601C58.7621 6.37676 59.8688 6.993 60.8767 7.79473L58.6343 11.0449C57.7563 10.4473 56.8969 9.97528 56.056 9.62903C55.2151 9.28278 54.3742 9.11172 53.5333 9.11172C52.6924 9.11172 52.0617 9.27454 51.6413 9.60224C51.2209 9.92994 51.0106 10.336 51.0106 10.8203V10.8759C51.0106 11.1933 51.0725 11.4695 51.1941 11.7024C51.3157 11.9353 51.5362 12.1455 51.8536 12.3331C52.171 12.5206 52.6079 12.6979 53.1603 12.8648C53.7126 13.0338 54.4092 13.2296 55.2542 13.4522C56.2477 13.7139 57.1318 14.0087 57.9088 14.3343C58.6858 14.662 59.3412 15.0536 59.875 15.5111C60.4088 15.9687 60.8107 16.5066 61.0828 17.1228C61.3548 17.7391 61.4908 18.4769 61.4908 19.3364V19.392C61.4908 20.3627 61.3136 21.2263 60.9612 21.9847C60.6087 22.7411 60.1162 23.3759 59.4855 23.8891C58.8548 24.4023 58.1005 24.796 57.2266 25.066C56.3507 25.3359 55.382 25.472 54.3165 25.472H54.3185Z" fill="white"/>
<path d="M72.5588 25.5008C69.9248 25.5008 67.8515 24.7733 66.3387 23.3162C64.8259 21.859 64.0695 19.6826 64.0695 16.7869V5.57915H68.3853V16.6756C68.3853 18.2832 68.7583 19.4909 69.5064 20.305C70.2525 21.1171 71.2892 21.5231 72.6165 21.5231C73.9438 21.5231 74.9784 21.1315 75.7266 20.3463C76.4726 19.561 76.8477 18.3842 76.8477 16.8158V5.57915H81.1635V16.6468C81.1635 18.141 80.9615 19.4394 80.5617 20.542C80.1598 21.6447 79.5847 22.5639 78.8387 23.3017C78.0905 24.0396 77.1857 24.5899 76.1202 24.9547C75.0547 25.3195 73.8696 25.5008 72.5608 25.5008H72.5588Z" fill="white"/>
<path d="M84.6905 5.57915H93.6558C96.1394 5.57915 98.0458 6.2428 99.371 7.56803C100.492 8.68921 101.053 10.1834 101.053 12.0507V12.1064C101.053 13.6933 100.665 14.9876 99.8904 15.9872C99.1155 16.9868 98.1014 17.7205 96.8504 18.1863L101.642 25.1917H96.599L92.3966 18.9159H89.0062V25.1917H84.6905V5.57915ZM93.3776 15.1051C94.4432 15.1051 95.2593 14.8537 95.8282 14.3487C96.397 13.8438 96.6835 13.1719 96.6835 12.331V12.2754C96.6835 11.3417 96.3846 10.641 95.7869 10.1731C95.1892 9.70734 94.3586 9.47239 93.2931 9.47239H89.0062V15.1051H93.3776Z" fill="white"/>
<path d="M104.277 5.57915H108.593V25.1917H104.277V5.57915Z" fill="white"/>
<path d="M122.153 25.5297C120.64 25.5297 119.249 25.2638 117.978 24.7321C116.708 24.2003 115.61 23.481 114.686 22.5742C113.761 21.6694 113.042 20.6039 112.528 19.3796C112.015 18.1575 111.758 16.8446 111.758 15.4431V15.3875C111.758 13.986 112.019 12.6752 112.543 11.451C113.066 10.2288 113.79 9.15293 114.715 8.2296C115.64 7.30421 116.741 6.57668 118.021 6.04494C119.301 5.5132 120.696 5.24732 122.209 5.24732C123.722 5.24732 125.113 5.5132 126.385 6.04494C127.654 6.57668 128.753 7.29596 129.676 8.2028C130.601 9.10965 131.319 10.1731 131.834 11.3974C132.347 12.6216 132.605 13.9324 132.605 15.3339V15.3895C132.605 16.791 132.343 18.1039 131.819 19.3261C131.296 20.5503 130.572 21.6241 129.647 22.5474C128.722 23.4728 127.621 24.2003 126.341 24.7321C125.061 25.2638 123.666 25.5297 122.153 25.5297ZM122.209 21.5499C123.068 21.5499 123.862 21.3912 124.591 21.0738C125.319 20.7564 125.941 20.3174 126.455 19.7568C126.968 19.1962 127.37 18.547 127.66 17.8091C127.949 17.0713 128.095 16.2819 128.095 15.4411V15.3854C128.095 14.5445 127.951 13.751 127.66 13.0029C127.37 12.2568 126.96 11.6014 126.428 11.0408C125.896 10.4802 125.265 10.0371 124.536 9.7094C123.808 9.38376 123.013 9.21888 122.153 9.21888C121.294 9.21888 120.476 9.37757 119.758 9.69497C119.039 10.0124 118.423 10.4514 117.91 11.012C117.396 11.5725 116.995 12.2218 116.704 12.9596C116.413 13.6974 116.269 14.4868 116.269 15.3277V15.3834C116.269 16.2242 116.413 17.0177 116.704 17.7659C116.993 18.514 117.405 19.1674 117.936 19.728C118.468 20.2885 119.095 20.7317 119.814 21.0594C120.533 21.3871 121.331 21.5499 122.209 21.5499Z" fill="white"/>
<path d="M135.575 5.57915H139.552L148.742 17.6546V5.57915H153V25.1917H149.33L139.831 12.7226V25.1917H135.572V5.57915H135.575Z" fill="white"/>
<path d="M122.266 19.6929C124.479 19.6929 126.273 17.7875 126.273 15.4369C126.273 13.0864 124.479 11.181 122.266 11.181C120.054 11.181 118.26 13.0864 118.26 15.4369C118.26 17.7875 120.054 19.6929 122.266 19.6929Z" fill="#459FD8"/>
<path d="M13.5124 9.21887L11.0805 15.0062L8.97823 20.0062L6.74204 25.3277L1.33602 25.2844L3.69587 19.6723L5.1056 16.5705C5.31789 16.0655 6.27625 14.8702 6.65136 14.4703C8.59901 12.4093 11.1917 10.5606 13.5124 9.22094V9.21887Z" fill="white"/>
<path d="M18.844 4.02102C17.5291 4.5136 16.2657 5.02679 15.0518 5.56265C14.7735 5.68425 14.4994 5.80792 14.2253 5.93364C12.0324 6.93322 9.86008 7.90602 8.04021 9.21064L11.8469 0.278237L11.9602 0.00824578L17.154 0L17.2694 0.276174L18.8419 4.0169L18.844 4.02102Z" fill="white"/>
<path d="M27.8693 25.5008L22.4283 25.4555L20.1385 20.0062H11.0886L13.0693 15.0062H18.0383L15.2086 8.27288C16.7007 7.4629 18.197 6.71682 19.6892 6.0305L23.4629 15.0062L25.4106 19.6414L27.8735 25.5008H27.8693Z" fill="white"/>
<path d="M25.4328 3.01732C25.1793 3.08739 22.6917 3.79019 19.3549 5.23496C17.9678 5.83265 16.4345 6.56225 14.8516 7.42581C14.6002 7.5639 14.3467 7.70611 14.0911 7.84832C11.4056 9.37758 8.62943 11.2943 6.23454 13.6356C5.78318 14.0767 5.34625 14.5342 4.9258 15.0062C4.85779 15.0824 4.78978 15.1587 4.72382 15.237C4.36727 15.6451 4.02514 16.0635 3.69744 16.4963C1.94353 18.8046 0.607997 21.4365 0 24.4229C0 24.4229 0.0638895 21.2799 2.28153 17.3166C2.67724 16.6055 3.14715 15.8656 3.69744 15.1154C3.72423 15.0783 3.75103 15.0412 3.77782 15.0062C4.68878 13.7737 5.82234 12.5103 7.22588 11.2716C9.11377 9.61047 11.4901 7.99464 14.4909 6.57049C14.5466 6.5437 14.6043 6.5169 14.6599 6.49011C16.0202 5.85326 17.5062 5.25351 19.1303 4.70528C21.0346 4.06431 23.1307 3.49341 25.4307 3.01732H25.4328Z" fill="#459FD8"/>
<path d="M26.8896 3.84583C27.5225 3.84583 28.0355 3.33279 28.0355 2.69992C28.0355 2.06704 27.5225 1.554 26.8896 1.554C26.2568 1.554 25.7437 2.06704 25.7437 2.69992C25.7437 3.33279 26.2568 3.84583 26.8896 3.84583Z" fill="#459FD8"/>
</svg>
