<svg width="43" height="44" viewBox="0 0 43 44" fill="none" xmlns="http://www.w3.org/2000/svg">
<path d="M37.7156 22.2241C38.0208 23.3782 39.0677 24.2291 40.3143 24.2291C41.7977 24.2291 43 23.0212 43 21.5434C43 20.06 41.7922 18.8577 40.3143 18.8577C39.0677 18.8577 38.0189 19.7123 37.7156 20.8627H29.211C29.1574 20.2154 29.0372 19.592 28.8485 18.9928H32.1926C32.3757 18.9928 32.5496 18.9206 32.6809 18.7893L37.4789 13.9099C37.8747 14.1374 38.3297 14.2669 38.8125 14.2669C40.2959 14.2669 41.4981 13.059 41.4981 11.5812C41.4981 10.0978 40.2903 8.89553 38.8125 8.89553C37.3346 8.89553 36.1268 10.1033 36.1268 11.5812C36.1268 12.0843 36.2674 12.5523 36.5041 12.9536L31.9097 17.6257H28.29C26.864 14.8661 23.9841 12.9721 20.6694 12.9721C15.9437 12.9721 12.0981 16.8175 12.0981 21.5435C12.0981 26.2694 15.9435 30.1148 20.6694 30.1148C23.984 30.1148 26.8638 28.2208 28.29 25.4612H31.9097L36.5041 30.1333C36.2618 30.5347 36.1268 31.0082 36.1268 31.5057C36.1268 32.9891 37.3346 34.1914 38.8125 34.1914C40.2903 34.1914 41.4981 32.9836 41.4981 31.5057C41.4981 30.0223 40.2903 28.8201 38.8125 28.8201C38.3242 28.8201 37.871 28.9514 37.4789 29.177L32.6809 24.2976C32.5496 24.1663 32.3757 24.0941 32.1926 24.0941H28.8485C29.0372 23.4949 29.1574 22.866 29.211 22.2242L37.7156 22.2241ZM40.3143 20.2191C41.0431 20.2191 41.6387 20.8128 41.6387 21.5434C41.6387 22.2722 41.045 22.8677 40.3143 22.8677C39.5856 22.8677 38.99 22.2722 38.99 21.5434C38.99 20.8146 39.5856 20.2191 40.3143 20.2191ZM38.8124 10.2513C39.5412 10.2513 40.1368 10.8451 40.1368 11.5757C40.1368 12.3045 39.5431 12.9 38.8124 12.9C38.0837 12.9 37.4881 12.3063 37.4881 11.5757C37.4881 10.8451 38.0818 10.2513 38.8124 10.2513ZM40.1349 31.5107C40.1349 32.2394 39.5412 32.835 38.8106 32.835C38.0818 32.835 37.4862 32.2413 37.4862 31.5107C37.4862 30.7819 38.08 30.1863 38.8106 30.1863C39.5412 30.1863 40.1349 30.7819 40.1349 31.5107ZM20.6697 28.7474C16.6986 28.7474 13.4654 25.5142 13.4654 21.543C13.4654 17.5718 16.6985 14.3387 20.6697 14.3387C24.6408 14.3387 27.874 17.5718 27.874 21.543C27.874 25.5142 24.6409 28.7474 20.6697 28.7474ZM28.7377 15.4022C30.2211 15.4022 31.4234 14.1943 31.4234 12.7165C31.4234 11.2387 30.2156 10.0308 28.7377 10.0308C28.0996 10.0308 27.5095 10.2583 27.0472 10.6301C25.1143 9.49999 22.9207 8.90073 20.6644 8.90073C13.693 8.89888 8.02041 14.5719 8.02041 21.5428C8.02041 28.5137 13.693 34.1867 20.6644 34.1867C22.9209 34.1867 25.1145 33.5875 27.0472 32.4574C27.5114 32.8347 28.0959 33.0566 28.7377 33.0566C30.2211 33.0566 31.4234 31.8488 31.4234 30.371C31.4234 28.8931 30.2156 27.6853 28.7377 27.6853C27.2543 27.6853 26.0521 28.8931 26.0521 30.371C26.0521 30.7187 26.1205 31.0479 26.2407 31.3512C24.5502 32.313 22.6358 32.8199 20.6695 32.8199C14.4453 32.8254 9.38686 27.761 9.38686 21.5429C9.38686 15.3249 14.4458 10.2603 20.6695 10.2603C22.6356 10.2603 24.5444 10.7671 26.2407 11.7345C26.1205 12.0396 26.0521 12.367 26.0521 12.7147C26.0521 14.1981 27.2543 15.4022 28.7377 15.4022ZM28.7377 29.0466C29.4665 29.0466 30.0621 29.6403 30.0621 30.371C30.0621 31.0997 29.4683 31.6953 28.7377 31.6953C28.0089 31.6953 27.4134 31.1016 27.4134 30.371C27.4134 29.6403 28.0089 29.0466 28.7377 29.0466ZM30.0621 12.7146C30.0621 13.4433 29.4683 14.0389 28.7377 14.0389C28.0089 14.0389 27.4134 13.4452 27.4134 12.7146C27.4134 11.9858 28.0071 11.3902 28.7377 11.3902C29.4683 11.3921 30.0621 11.9858 30.0621 12.7146ZM34.8066 37.7141C34.3145 37.7141 33.8503 37.8491 33.4545 38.0822L30.5561 35.1838C30.3249 34.9526 29.9661 34.9175 29.696 35.0969C27.9186 36.2806 25.9617 37.0963 23.8696 37.5125C23.5514 37.5754 23.3184 37.8547 23.3184 38.1839V40.8455H18.0175V38.1839C18.0175 37.8602 17.7863 37.5791 17.4663 37.5125C15.38 37.0963 13.4175 36.2843 11.6399 35.0969C11.3698 34.9175 11.0073 34.9526 10.7798 35.1838L8.89501 37.0686L5.14582 33.3194L7.0306 31.4346C7.2618 31.2034 7.29694 30.8446 7.11753 30.5745C5.93377 28.7971 5.11807 26.8402 4.7019 24.7481C4.63902 24.4299 4.35972 24.1969 4.03048 24.1969L1.36148 24.195V18.8904H4.02309C4.34677 18.8904 4.6279 18.6592 4.69452 18.3392C5.11068 16.2528 5.92269 14.2903 7.11014 12.5127C7.28955 12.2427 7.25441 11.8802 7.02321 11.6526L5.13843 9.76787L8.88763 6.01868L10.7724 7.90345C11.0036 8.13465 11.3624 8.1698 11.6325 7.99038C13.41 6.80663 15.3668 5.99466 17.4589 5.57476C17.7771 5.51188 18.0101 5.23258 18.0101 4.90333L18.012 2.23988H23.3166V4.90149C23.3166 5.22517 23.5478 5.50629 23.8678 5.57292C25.9542 5.98908 27.9167 6.80109 29.6943 7.98854C29.9643 8.16795 30.3268 8.13281 30.5544 7.90161L33.4527 5.00325C33.8485 5.23445 34.3128 5.37132 34.8048 5.37132C36.2882 5.37132 37.4905 4.16351 37.4905 2.68566C37.4905 1.20781 36.2827 0 34.8048 0C33.3214 0 32.1191 1.20781 32.1191 2.68566C32.1191 3.17768 32.2542 3.6419 32.4872 4.03775L29.9791 6.54585C28.3366 5.52114 26.5629 4.78688 24.6835 4.3522V1.5537C24.6835 1.17638 24.3783 0.873045 24.0028 0.873045H17.3311C16.9538 0.873045 16.6505 1.17823 16.6505 1.5537V4.35031C14.7713 4.78497 12.9938 5.52483 11.3548 6.54395L9.37943 4.56854C9.11308 4.3022 8.67841 4.3022 8.41391 4.56854L3.69739 9.28506C3.56607 9.41638 3.49948 9.5847 3.49948 9.76779C3.49948 9.95091 3.57162 10.1211 3.69739 10.2505L5.6728 12.2259C4.64809 13.8684 3.91383 15.6422 3.47916 17.5216L0.68066 17.5234C0.303335 17.5234 0 17.8286 0 18.2041V24.8758C0 25.2531 0.305187 25.5564 0.68066 25.5564H3.47726C3.91192 27.4357 4.65179 29.2131 5.67091 30.8521L3.6955 32.8275C3.42915 33.0938 3.42915 33.5285 3.6955 33.793L8.41201 38.5095C8.54333 38.6353 8.71165 38.7074 8.89475 38.7074C9.07786 38.7074 9.24803 38.6353 9.37749 38.5095L11.3529 36.5396C12.9954 37.5644 14.7691 38.2986 16.6485 38.7333V41.5299C16.6485 41.9072 16.9537 42.2106 17.3292 42.2106H24.0028C24.3801 42.2106 24.6834 41.9054 24.6834 41.5299V38.7333C26.5627 38.2986 28.3401 37.5588 29.9791 36.5396L32.4872 39.0477C32.256 39.4436 32.1191 39.9078 32.1191 40.3998C32.1191 41.8832 33.3269 43.0855 34.8048 43.0855C36.2881 43.0855 37.4904 41.8777 37.4904 40.3998C37.4978 38.9183 36.2899 37.7141 34.8066 37.7141ZM34.8066 1.36185C35.5353 1.36185 36.1309 1.95558 36.1309 2.68619C36.1309 3.41496 35.5372 4.01053 34.8066 4.01053C34.0778 4.01053 33.4822 3.41681 33.4822 2.68619C33.4822 1.95558 34.0778 1.36185 34.8066 1.36185ZM34.8066 41.7242C34.0778 41.7242 33.4822 41.1305 33.4822 40.3998C33.4822 39.6711 34.0759 39.0755 34.8066 39.0755C35.5353 39.0755 36.1309 39.6692 36.1309 40.3998C36.1309 41.1305 35.5372 41.7242 34.8066 41.7242ZM20.6701 15.3543C17.2594 15.3543 14.4814 18.1325 14.4814 21.543C14.4814 24.9536 17.2596 27.7317 20.6701 27.7317C24.0807 27.7317 26.8588 24.9536 26.8588 21.543C26.8533 18.1323 24.0807 15.3543 20.6701 15.3543ZM20.6701 26.3652C18.0122 26.3652 15.848 24.2011 15.848 21.543C15.848 18.8849 18.012 16.7209 20.6701 16.7209C23.328 16.7209 25.4923 18.8849 25.4923 21.543C25.4923 24.2011 23.3264 26.3652 20.6701 26.3652Z" fill="black"/>
<path d="M23.8669 19.699C23.8602 19.5491 23.7932 19.4135 23.6926 19.3136C23.592 19.2136 23.4578 19.1637 23.317 19.1779C23.1761 19.1851 23.0487 19.2565 22.9615 19.3635L20.2787 22.5757L19.0514 21.3908C18.9508 21.2908 18.8166 21.2409 18.6758 21.248C18.5349 21.2552 18.4075 21.3194 18.3203 21.4265C18.2264 21.5335 18.1795 21.6763 18.1862 21.8262C18.1929 21.9761 18.2532 22.1117 18.3539 22.2045L19.9702 23.7678C20.0641 23.8606 20.1915 23.9106 20.319 23.9106H20.3458H20.3525C20.4867 23.9034 20.6141 23.8392 20.7147 23.725L23.7462 20.0916C23.8267 19.9846 23.8737 19.8418 23.8669 19.699Z" fill="black"/>
</svg>
