<svg width="53" height="53" viewBox="0 0 53 53" fill="none" xmlns="http://www.w3.org/2000/svg">
<path d="M16.9578 36.6282L11.7259 31.3962C11.5713 31.2416 11.3959 31.1191 11.2047 31.0313C11.0932 30.9802 10.9717 30.954 10.8491 30.954H1.26485C0.567643 30.954 0 31.5211 0 32.2189V51.7351C0 52.4323 0.567643 53 1.26485 53H16.1351C16.8323 53 17.4 52.4329 17.4 51.7351V37.5061C17.4 37.383 17.3733 37.2615 17.3221 37.1494C17.2344 36.9582 17.1124 36.7833 16.9578 36.6282ZM14.5623 36.6509H11.7038V33.7923L14.5623 36.6509ZM1.7099 51.2901V32.6634L9.99389 32.664V37.0402C9.99389 37.7682 10.5865 38.3608 11.3145 38.3608H15.6907V51.2907L1.7099 51.2901ZM13.4997 48.5367C13.4997 49.009 13.1168 49.3913 12.645 49.3913H4.75554C4.28318 49.3913 3.90088 49.0084 3.90088 48.5367C3.90088 48.0643 4.28376 47.682 4.75554 47.682H12.6444C13.1168 47.682 13.4997 48.0643 13.4997 48.5367ZM13.4997 44.5904C13.4997 45.0628 13.1168 45.4451 12.645 45.4451H4.75554C4.28318 45.4451 3.90088 45.0622 3.90088 44.5904C3.90088 44.1181 4.28376 43.7357 4.75554 43.7357H12.6444C13.1168 43.7357 13.4997 44.1186 13.4997 44.5904ZM13.4997 40.6442C13.4997 41.1165 13.1168 41.4988 12.645 41.4988H4.75554C4.28318 41.4988 3.90088 41.116 3.90088 40.6442C3.90088 40.1718 4.28376 39.7895 4.75554 39.7895H12.6444C13.1168 39.7895 13.4997 40.1724 13.4997 40.6442ZM52.4515 7.73096L51.3871 7.32134C51.2198 6.7566 50.9938 6.21161 50.712 5.69335L51.1751 4.65043C51.3186 4.32738 51.2483 3.94914 50.9984 3.69873L49.2996 1.99985C49.0497 1.75001 48.6715 1.67971 48.3479 1.82322L47.3056 2.28687C46.7873 2.00508 46.2429 1.77964 45.6782 1.61231L45.2685 0.547895C45.1419 0.21788 44.8247 0 44.4708 0H42.0689C41.7151 0 41.3985 0.21788 41.2712 0.547895L40.8616 1.61231C40.2969 1.77964 39.7525 2.00566 39.2342 2.28687L38.1907 1.82322C37.8677 1.67971 37.4895 1.75001 37.239 1.99985L35.5408 3.69873C35.2909 3.94856 35.2206 4.3268 35.3641 4.64985L35.8272 5.69276C35.5454 6.21103 35.3194 6.75544 35.1526 7.32018L34.0882 7.7298C33.7582 7.85704 33.5403 8.17369 33.5403 8.52753V10.9294C33.5403 11.2833 33.7582 11.5999 34.0882 11.7272L35.1526 12.1368C35.32 12.7015 35.546 13.2465 35.8278 13.7648L35.3647 14.8077C35.2212 15.1307 35.2915 15.509 35.5413 15.7588L37.2396 17.4577C37.4895 17.7075 37.8683 17.7778 38.1913 17.6343L39.2348 17.1707C39.7531 17.4525 40.2975 17.6779 40.8622 17.8452L41.2718 18.9096C41.399 19.2397 41.7157 19.4575 42.0695 19.4575H44.4714C44.8252 19.4575 45.1419 19.2397 45.2691 18.9096L45.6787 17.8452C46.2435 17.6779 46.7885 17.4519 47.3067 17.1707L48.3496 17.6337C48.6727 17.7773 49.0509 17.707 49.3013 17.4571L50.9996 15.7582C51.2494 15.5084 51.3197 15.1302 51.1762 14.8071L50.7132 13.7636C50.995 13.2454 51.2204 12.7009 51.3877 12.1362L52.4521 11.7266C52.7821 11.5993 53 11.2827 53 10.9289V8.52695C52.9994 8.17485 52.7815 7.85762 52.4515 7.73096ZM51.2895 10.3438L50.3669 10.6994C50.1037 10.8004 49.9079 11.0247 49.8422 11.299C49.6766 11.9938 49.4024 12.6562 49.0265 13.2668C48.8789 13.5068 48.8586 13.8043 48.973 14.0623L49.3751 14.9669L48.5065 15.8355L47.6019 15.434C47.3439 15.3196 47.0464 15.3393 46.8065 15.4875C46.1964 15.8634 45.5341 16.1376 44.8386 16.3032C44.5644 16.3683 44.3401 16.5647 44.2384 16.8279L43.8834 17.7505H42.6552L42.3002 16.8273C42.1991 16.5641 41.9742 16.3683 41.7006 16.3026C41.0057 16.1371 40.3434 15.8628 39.7333 15.4869C39.4933 15.3393 39.1959 15.319 38.9379 15.4334L38.0333 15.8355L37.1647 14.9669L37.5661 14.0628C37.6806 13.8054 37.6608 13.508 37.5127 13.2674C37.1368 12.6574 36.8625 11.995 36.697 11.2995C36.6319 11.0253 36.4355 10.801 36.1723 10.6994L35.2497 10.3444V9.11609L36.1723 8.76109C36.4355 8.66 36.6319 8.43515 36.697 8.16091C36.8625 7.46544 37.1368 6.80366 37.5127 6.1936C37.6603 5.95364 37.6806 5.65616 37.5661 5.39819L37.1641 4.49355L38.0327 3.62494L38.9373 4.027C39.1947 4.14146 39.4922 4.12171 39.7327 3.97355C40.3434 3.59763 41.0051 3.32339 41.7 3.1578C41.9742 3.09273 42.1985 2.89635 42.2996 2.63315L42.6552 1.70992H43.8834L44.2384 2.63315C44.3395 2.89635 44.5638 3.09215 44.838 3.1578C45.5335 3.32339 46.1953 3.59763 46.8053 3.97355C47.0453 4.12112 47.3427 4.14146 47.6007 4.027L48.5053 3.62494L49.3739 4.49355L48.9725 5.39761C48.858 5.655 48.8778 5.95248 49.0259 6.19302C49.4018 6.80308 49.6761 7.46544 49.8417 8.16091C49.9067 8.43515 50.1031 8.65942 50.3663 8.76109L51.2889 9.11609L51.2895 10.3438ZM43.2699 4.68587C40.4886 4.68587 38.2256 6.94833 38.2256 9.73022C38.2256 12.5121 40.4886 14.7746 43.2699 14.7746C46.0512 14.7746 48.3142 12.5121 48.3142 9.73022C48.3142 6.94833 46.0512 4.68587 43.2699 4.68587ZM43.2699 13.0641C41.4316 13.0641 39.9355 11.5685 39.9355 9.72964C39.9355 7.89074 41.431 6.39521 43.2699 6.39521C45.1088 6.39521 46.6043 7.89074 46.6043 9.72964C46.6043 11.5685 45.1082 13.0641 43.2699 13.0641ZM5.20175 28.4272V9.72964C5.20175 9.25728 5.58464 8.87497 6.05641 8.87497H28.6512L28.227 8.54379C27.8552 8.25329 27.789 7.71585 28.0795 7.344C28.37 6.97157 28.9074 6.90592 29.2792 7.19643L31.6602 9.05625C31.8676 9.21835 31.9891 9.46702 31.9891 9.73022C31.9891 9.99342 31.8676 10.2421 31.6602 10.4036L29.2792 12.2634C29.123 12.3855 28.9376 12.4447 28.7534 12.4447C28.499 12.4447 28.248 12.332 28.0789 12.1159C27.7884 11.744 27.8546 11.2066 28.2265 10.9161L28.6506 10.5849H6.91165V28.4278C6.91165 28.9002 6.52877 29.2825 6.05699 29.2825C5.58463 29.2819 5.20175 28.899 5.20175 28.4272ZM44.1245 22.4358V43.2704C44.1245 43.7427 43.7417 44.125 43.2699 44.125H22.8121L23.2362 44.4562C23.608 44.7467 23.6743 45.2841 23.3838 45.656C23.2153 45.8721 22.9637 45.9848 22.7092 45.9848C22.525 45.9848 22.3397 45.9256 22.1834 45.8036L19.8024 43.9438C19.595 43.7816 19.4736 43.533 19.4736 43.2698C19.4736 43.0066 19.595 42.7579 19.8024 42.5958L22.1834 40.7366C22.5558 40.4461 23.0927 40.5123 23.3832 40.8841C23.6737 41.256 23.6075 41.7934 23.2356 42.0839L22.8121 42.4151H42.4146V22.4358C42.4146 21.9635 42.7975 21.5811 43.2693 21.5811C43.7411 21.5811 44.1245 21.9635 44.1245 22.4358ZM26.4997 28.5719C29.8655 28.5719 32.6043 25.8336 32.6043 22.4672C32.6043 19.1008 29.8655 16.3631 26.4997 16.3631C23.1339 16.3631 20.3951 19.1014 20.3951 22.4678C20.3951 25.8342 23.1339 28.5719 26.4997 28.5719ZM26.4997 18.0724C28.9231 18.0724 30.8944 20.0438 30.8944 22.4672C30.8944 24.8906 28.9231 26.8626 26.4997 26.8626C24.0763 26.8626 22.105 24.8912 22.105 22.4678C22.105 20.0444 24.0763 18.0724 26.4997 18.0724ZM24.8264 24.8371L23.3303 23.341C22.9962 23.0069 22.9962 22.466 23.3303 22.1319C23.6644 21.7979 24.2053 21.7984 24.5394 22.1319L25.4597 23.0523L28.4897 20.3023C28.8394 19.9851 29.3798 20.0112 29.697 20.361C30.0142 20.7108 29.9881 21.2511 29.6383 21.5684L26.0053 24.8656C25.842 25.0138 25.6363 25.0876 25.4307 25.0876C25.2122 25.0876 24.9932 25.0039 24.8264 24.8371ZM22.012 36.7955C22.1654 37.0599 22.4478 37.2209 22.7511 37.2209C22.7638 37.2209 22.7772 37.2203 22.79 37.2203C23.1078 37.2057 23.3919 37.0157 23.5261 36.727L25.8763 31.6797C26.1639 31.5961 26.3562 31.5507 26.4997 31.5507C26.7135 31.5507 27.0348 31.6501 27.6176 31.8296C27.6542 31.8407 27.6919 31.8523 27.7303 31.8645L29.4024 35.7468C29.5285 36.0391 29.8062 36.2372 30.124 36.261C30.1455 36.2628 30.1664 36.2633 30.1879 36.2633C30.4819 36.2633 30.7573 36.1117 30.9142 35.859L32.2412 33.7202L34.707 34.2251C35.019 34.2896 35.3409 34.1746 35.5413 33.9271C35.7424 33.6802 35.7894 33.342 35.6633 33.0492L33.8018 28.727C34.8894 28.2314 35.5227 27.113 35.3798 25.9207C35.3554 25.7168 35.3328 25.5355 35.3124 25.3723C35.2363 24.7668 35.1945 24.4333 35.2317 24.2224C35.2688 24.0121 35.4222 23.7129 35.7005 23.1696C35.7755 23.0238 35.8591 22.8605 35.9515 22.6775C36.5029 21.5864 36.2746 20.2913 35.3833 19.4546C35.2334 19.314 35.0992 19.1897 34.9789 19.0781C34.5315 18.6633 34.2852 18.4344 34.1783 18.249C34.0714 18.0643 33.9964 17.736 33.8611 17.141C33.8245 16.9807 33.7838 16.8023 33.7367 16.6024C33.4578 15.4119 32.4504 14.5666 31.2297 14.4986C31.0246 14.487 30.8422 14.4783 30.6777 14.4701C30.0683 14.4399 29.7324 14.4231 29.5314 14.3499C29.3304 14.2766 29.0625 14.0739 28.5762 13.7049C28.4455 13.6056 28.2997 13.4952 28.1347 13.372C27.1562 12.6394 25.8408 12.6394 24.8624 13.372C24.698 13.4952 24.5522 13.6056 24.4209 13.7049C23.9346 14.0733 23.6667 14.2766 23.4657 14.3499C23.2647 14.4231 22.9288 14.4393 22.3194 14.4701C22.1555 14.4783 21.9725 14.4876 21.7674 14.4986C20.5467 14.5666 19.5393 15.4119 19.2604 16.6019C19.2133 16.8017 19.1726 16.9801 19.136 17.1405C19.0001 17.7354 18.9257 18.0631 18.8188 18.2485C18.7119 18.4332 18.4656 18.6621 18.0182 19.077C17.8979 19.1885 17.7637 19.3129 17.6138 19.4541C16.7225 20.2907 16.4942 21.5858 17.0456 22.6769C17.138 22.86 17.2216 23.0232 17.2966 23.1691C17.5749 23.7123 17.7283 24.0115 17.7654 24.2218C17.8026 24.4322 17.7608 24.7657 17.6847 25.3711C17.6643 25.5344 17.6417 25.7156 17.6173 25.9196C17.472 27.1333 18.1297 28.2721 19.2534 28.7537C19.3928 28.8136 19.5207 28.8676 19.6392 28.9176L17.3436 33.8481C17.2094 34.1368 17.2466 34.4761 17.4401 34.7289C17.6341 34.9816 17.9519 35.106 18.2657 35.0508L20.7454 34.6173L22.012 36.7955ZM32.0007 31.9267C31.6498 31.8546 31.2919 32.0092 31.103 32.3136L30.3251 33.5669L29.6569 32.0156C30.2832 31.8453 30.8427 31.4508 31.221 30.8727C31.3337 30.7007 31.4325 30.5473 31.5219 30.4091C31.8531 29.8966 32.0355 29.6136 32.1988 29.4765C32.2133 29.4643 32.2302 29.4527 32.247 29.4405L33.4456 32.223L32.0007 31.9267ZM19.3167 26.1247C19.3405 25.9242 19.3632 25.7458 19.383 25.5861C19.5822 23.9964 19.5509 23.8169 18.8194 22.3911C18.7456 22.2476 18.6637 22.0878 18.573 21.9077C18.3639 21.4934 18.447 21.0205 18.7857 20.7027C18.9327 20.5644 19.0646 20.4424 19.1831 20.3325C20.3579 19.2426 20.4485 19.0851 20.8053 17.5233C20.8413 17.3659 20.8814 17.191 20.9273 16.994C21.033 16.542 21.4008 16.2335 21.8644 16.2074C22.066 16.1963 22.245 16.187 22.4065 16.1795C24.0072 16.0999 24.178 16.0377 25.4551 15.0697C25.5835 14.9721 25.727 14.8635 25.8885 14.7426C26.2603 14.4643 26.7402 14.4643 27.1121 14.7426C27.2736 14.8635 27.4171 14.9721 27.5455 15.0697C28.8226 16.0371 28.9934 16.0993 30.5941 16.1795C30.755 16.1876 30.9345 16.1963 31.1361 16.2074C31.5998 16.2329 31.9676 16.542 32.0733 16.994C32.1192 17.1904 32.1593 17.3653 32.1953 17.5228C32.5521 19.0851 32.6427 19.2426 33.8175 20.3325C33.936 20.4424 34.0673 20.5644 34.2143 20.7027C34.553 21.0205 34.6361 21.4934 34.427 21.9077C34.3357 22.0878 34.2538 22.2476 34.1806 22.3911C33.4491 23.8169 33.4178 23.9964 33.617 25.5861C33.6374 25.7464 33.6595 25.9242 33.6833 26.1247C33.7385 26.5854 33.4985 27.0014 33.0715 27.1844C32.8861 27.264 32.72 27.3338 32.5712 27.3965C31.0949 28.0188 30.9555 28.1356 30.0863 29.4818C29.9985 29.6171 29.9015 29.7682 29.7911 29.9373C29.5372 30.3254 29.0858 30.4898 28.6413 30.3556C28.4484 30.2975 28.2764 30.244 28.1225 30.197C27.3567 29.9605 26.9285 29.8426 26.5003 29.8426C26.0721 29.8426 25.6439 29.9605 24.8781 30.197C24.7242 30.2446 24.5522 30.2975 24.3593 30.3556C23.9148 30.4898 23.4634 30.3254 23.2095 29.9373C23.0991 29.7682 23.0015 29.6177 22.9143 29.4823C22.0451 28.1361 21.9057 28.0193 20.4294 27.3971C20.2806 27.3343 20.115 27.2646 19.9297 27.185C19.5021 27.0014 19.2615 26.5854 19.3167 26.1247ZM21.1004 29.8368C21.2033 29.9843 21.3241 30.1708 21.4775 30.4085C21.5664 30.5468 21.6657 30.7001 21.7785 30.8721C22.2462 31.5873 22.9904 32.0208 23.7963 32.0975L22.668 34.5209L21.9266 33.2456C21.7465 32.9359 21.3938 32.772 21.0406 32.833L19.5875 33.0869L21.1004 29.8368Z" fill="black"/>
</svg>
