<svg width="47" height="47" viewBox="0 0 47 47" fill="none" xmlns="http://www.w3.org/2000/svg">
<path fill-rule="evenodd" clip-rule="evenodd" d="M7.71292 0.212163C7.73122 0.193803 7.74952 0.175442 7.76985 0.159123C7.8166 0.122403 7.86539 0.0897638 7.92028 0.0652808C8.01177 0.0224404 8.11138 0 8.21913 0H31.9212C32.3135 0 32.6307 0.318247 32.6307 0.711979V9.88785L37.3186 7.17259L36.1456 6.85843C35.7675 6.75643 35.5439 6.36678 35.6435 5.98732C35.7451 5.60788 36.1334 5.3835 36.5115 5.48343L39.3333 6.24231C39.7114 6.34431 39.935 6.73396 39.8354 7.11342L39.0792 9.94499C38.9775 10.3244 38.5892 10.5488 38.2111 10.4489C37.833 10.3469 37.6094 9.95722 37.709 9.57777L38.0241 8.40067L32.6287 11.526V18.768C33.4541 17.6419 34.3242 17.0768 35.2411 17.0768C36.1782 17.0768 37.0666 17.6664 37.9083 18.8455C38.9613 18.3477 39.8599 18.2049 40.5348 18.3375C41.0471 18.4395 41.4496 18.6925 41.7241 19.0719C41.9864 19.435 42.1104 19.8961 42.0779 20.4265C42.0331 21.163 41.6733 22.079 40.9374 23.0847C41.1488 23.1948 41.3419 23.3376 41.5087 23.5069C41.9295 23.9292 42.1897 24.5106 42.1897 25.1512C42.1897 25.7918 41.9295 26.3752 41.5087 26.7954C41.3969 26.9076 41.2728 27.0096 41.1387 27.0973C42.4194 28.3846 43.5131 29.9962 44.3425 31.6792C45.4606 33.9436 46.1132 36.3549 46.1132 38.2789C46.1132 39.968 45.6192 41.5572 44.7491 42.9403C43.8567 44.3602 42.5678 45.5577 41.0166 46.4186C40.6649 46.6124 40.3091 46.7572 39.9311 46.8552C39.5509 46.9531 39.1687 47 38.7682 47H31.7117C31.3091 47 30.927 46.9531 30.5488 46.8552C30.1707 46.7572 29.8149 46.6144 29.4632 46.4186C27.9121 45.5577 26.6253 44.3602 25.7308 42.9403C25.6311 42.7832 25.5376 42.6221 25.4482 42.4609L0.711538 42.463C0.319179 42.463 0.00203318 42.1447 0.00203318 41.751L0 8.24572C0 8.04783 0.0813175 7.86831 0.211425 7.73775L7.71085 0.212171L7.71292 0.212163ZM31.2094 1.42393H8.92657V8.24552C8.92657 8.63925 8.60943 8.9575 8.21706 8.9575H1.41918V41.0391H24.8204C24.5236 40.166 24.365 39.2398 24.365 38.2831C24.365 36.3593 25.0176 33.95 26.1357 31.6834C26.9672 30.0004 28.0588 28.3888 29.3396 27.1016C29.2054 27.0138 29.0834 26.9118 28.9696 26.7996C28.5488 26.3773 28.2885 25.7959 28.2885 25.1554C28.2885 24.5148 28.5488 23.9313 28.9696 23.5111C29.1363 23.3439 29.3294 23.2011 29.5408 23.0889C28.8049 22.0831 28.4451 21.1672 28.4004 20.4307C28.3679 19.8983 28.4919 19.4393 28.7541 19.0761C29.0265 18.6967 29.4291 18.4437 29.9434 18.3417C30.3032 18.2703 30.7281 18.2785 31.2059 18.3764V12.3523L23.1288 17.0321C22.8523 17.23 22.466 17.2035 22.216 16.9546L19.3231 14.0516L9.18666 19.9248C8.84919 20.1207 8.41616 20.0023 8.22099 19.6637C8.02583 19.325 8.14374 18.8905 8.48121 18.6947L19.0892 12.5478C19.3717 12.3846 19.7214 12.4397 19.941 12.6621L19.943 12.66L22.8359 15.563L31.2034 10.7138L31.2094 1.42393ZM31.7278 20.017C31.6749 20.0027 31.6261 19.9823 31.5794 19.9558C31.0101 19.7334 30.5527 19.6681 30.2193 19.7354C30.0709 19.766 29.9652 19.8232 29.9063 19.9027C29.8371 19.9986 29.8066 20.1475 29.8188 20.3454C29.8554 20.9574 30.2701 21.8142 31.1504 22.8261H39.3332C40.2114 21.8163 40.6282 20.9574 40.6647 20.3454C40.6769 20.1475 40.6464 19.9986 40.5773 19.9027C40.5204 19.8232 40.4147 19.764 40.2642 19.7354C39.7723 19.6375 39.0079 19.8252 38.0179 20.3842C37.6865 20.5719 37.2677 20.4617 37.0705 20.1394C36.3996 19.048 35.7898 18.5012 35.2429 18.5012C34.696 18.5012 34.0862 19.048 33.4153 20.1394C33.21 20.4719 32.7749 20.5759 32.4415 20.3699L32.4395 20.3678C32.1874 20.2271 31.9516 20.1088 31.73 20.0149L31.7278 20.017ZM13.5434 9.54121H26.5927C26.985 9.54121 27.3022 9.22297 27.3022 8.82923C27.3022 8.4355 26.985 8.11726 26.5927 8.11726H13.5434C13.151 8.11726 12.8339 8.4355 12.8339 8.82923C12.8339 9.22297 13.151 9.54121 13.5434 9.54121ZM17.9589 5.83243H26.595C26.9873 5.83243 27.3045 5.51418 27.3045 5.12045C27.3045 4.72672 26.9873 4.40847 26.595 4.40847H17.9589C17.5666 4.40847 17.2494 4.72671 17.2494 5.12045C17.2494 5.51417 17.5666 5.83243 17.9589 5.83243ZM13.1734 36.3165H21.9885C22.3808 36.3165 22.698 35.9982 22.698 35.6045C22.698 35.2108 22.3808 34.8925 21.9885 34.8925H13.1734C12.781 34.8925 12.4639 35.2108 12.4639 35.6045C12.4639 35.9982 12.781 36.3165 13.1734 36.3165ZM13.1734 32.52H22.8992C23.2916 32.52 23.6087 32.2018 23.6087 31.808C23.6087 31.4143 23.2916 31.0961 22.8992 31.0961H13.1734C12.781 31.0961 12.4639 31.4143 12.4639 31.808C12.4639 32.2018 12.781 32.52 13.1734 32.52ZM13.1734 27.7851H25.875C26.2674 27.7851 26.5846 27.4669 26.5846 27.0731C26.5846 26.6794 26.2674 26.3612 25.875 26.3612H13.1734C12.781 26.3612 12.4639 26.6794 12.4639 27.0731C12.4639 27.4669 12.781 27.7851 13.1734 27.7851ZM13.1734 23.9886H22.8992C23.2916 23.9886 23.6087 23.6704 23.6087 23.2767C23.6087 22.8829 23.2916 22.5647 22.8992 22.5647H13.1734C12.781 22.5647 12.4639 22.8829 12.4639 23.2767C12.4639 23.6704 12.781 23.9886 13.1734 23.9886ZM43.0738 32.3141C42.1631 30.4699 40.9189 28.7237 39.4653 27.4854H31.0125C29.5589 28.7237 28.3168 30.4699 27.404 32.3141C26.3794 34.3868 25.7838 36.5675 25.7838 38.2855C25.7838 39.3891 26.0359 40.4418 26.4912 41.4006C26.5075 41.4291 26.5217 41.4577 26.5339 41.4883C26.6518 41.729 26.784 41.9636 26.9263 42.1901C27.6907 43.4039 28.8007 44.4341 30.1424 45.1787C30.3986 45.3215 30.6466 45.4235 30.8946 45.4868C31.1426 45.55 31.411 45.5806 31.7078 45.5806H38.7643C39.0631 45.5806 39.3315 45.55 39.5775 45.4868C39.8275 45.4235 40.0735 45.3215 40.3297 45.1787C41.6714 44.4341 42.7813 43.4039 43.5458 42.1901C44.2735 41.0313 44.6883 39.7013 44.6883 38.2854C44.6883 36.5698 44.0906 34.389 43.068 32.3141L43.0738 32.3141ZM2.4234 7.53401H7.50776V2.43192L2.4234 7.53401ZM5.37524 31.0962C4.98288 31.0962 4.66574 31.4145 4.66574 31.8082V35.6047C4.66574 35.9984 4.98288 36.3167 5.37524 36.3167H9.15852C9.55088 36.3167 9.86803 35.9984 9.86803 35.6047V31.8082C9.86803 31.4145 9.55089 31.0962 9.15852 31.0962H5.37524ZM8.44902 32.5202H6.08469V34.8927H8.44902V32.5202ZM5.37524 22.5651C4.98288 22.5651 4.66574 22.8834 4.66574 23.2771V27.0736C4.66574 27.4673 4.98288 27.7855 5.37524 27.7855H9.15852C9.55088 27.7855 9.86803 27.4673 9.86803 27.0736V23.2771C9.86803 22.8834 9.55089 22.5651 9.15852 22.5651H5.37524ZM8.44902 23.9891H6.08469V26.3616H8.44902V23.9891ZM39.8701 24.2522H30.6121C30.3641 24.2522 30.1405 24.3542 29.9758 24.5174C29.8132 24.6806 29.7095 24.9071 29.7095 25.156C29.7095 25.4028 29.8111 25.6293 29.9758 25.7945C30.1384 25.9577 30.3641 26.0618 30.6121 26.0618H39.8701C40.1181 26.0618 40.3417 25.9598 40.5064 25.7945C40.6691 25.6313 40.7727 25.4049 40.7727 25.156C40.7727 24.9091 40.6711 24.6827 40.5064 24.5174C40.3438 24.3542 40.1181 24.2522 39.8701 24.2522Z" fill="black"/>
<path d="M31.9238 32.4665C31.9238 32.1672 32.1652 31.9246 32.4631 31.9246H39.3657C39.6636 31.9246 39.905 32.1672 39.905 32.4665C39.905 32.7658 39.6636 33.0084 39.3657 33.0084H37.2621C37.5714 33.4064 37.777 33.8895 37.8372 34.4174H39.3657C39.6636 34.4174 39.905 34.66 39.905 34.9594C39.905 35.2587 39.6636 35.5013 39.3657 35.5013H37.8372C37.6767 36.9044 36.4908 37.9942 35.0516 37.9942H33.6066L36.803 40.7245C37.0301 40.9184 37.0575 41.2601 36.8645 41.4883C36.6715 41.7165 36.3316 41.744 36.1045 41.5501L32.2374 38.2468C31.7024 37.79 32.0242 36.9102 32.7265 36.9102H35.0517C35.8943 36.9102 36.5958 36.3035 36.7471 35.5012H32.4633C32.1654 35.5012 31.924 35.2586 31.924 34.9593C31.924 34.66 32.1654 34.4174 32.4633 34.4174H36.7471C36.5958 33.615 35.8944 33.0083 35.0517 33.0083H32.4633C32.1654 33.0083 31.924 32.7657 31.924 32.4664L31.9238 32.4665Z" fill="black"/>
</svg>
