<svg width="41" height="41" viewBox="0 0 41 41" fill="none" xmlns="http://www.w3.org/2000/svg">
<path d="M40.3279 22.8525H32.9344V7.39344C32.9344 7.21523 32.8635 7.04425 32.7375 6.91823L26.0162 0.196914C25.8902 0.0708896 25.7192 0 25.541 0H0.672131C0.300947 0 0 0.300947 0 0.672131V32.9344C0 33.3056 0.300947 33.6066 0.672131 33.6066H25.541V39.6557C25.541 40.0269 25.8419 40.3279 26.2131 40.3279H40.3279C40.6991 40.3279 41 40.0269 41 39.6557V23.5246C41 23.1534 40.6991 22.8525 40.3279 22.8525ZM25.541 23.5246V32.2623H1.34426V1.34426H25.2627L30.6397 6.72131H26.2131V3.36066H24.8689V7.39344C24.8689 7.76463 25.1698 8.06557 25.541 8.06557H31.5902V22.8525H26.2131C25.8419 22.8525 25.541 23.1534 25.541 23.5246ZM39.6557 38.9836H26.8852V24.1967H39.6557V38.9836Z" fill="black"/>
<path d="M30.9168 30.9178H28.9004V32.2621H30.9168V30.9178Z" fill="black"/>
<path d="M34.2801 30.9178H32.2637V32.2621H34.2801V30.9178Z" fill="black"/>
<path d="M37.6394 30.9178H35.623V32.2621H37.6394V30.9178Z" fill="black"/>
<path d="M30.9168 33.6064H28.9004V34.9507H30.9168V33.6064Z" fill="black"/>
<path d="M34.2801 33.6064H32.2637V34.9507H34.2801V33.6064Z" fill="black"/>
<path d="M37.6394 33.6064H35.623V34.9507H37.6394V33.6064Z" fill="black"/>
<path d="M30.9168 36.295H28.9004V37.6393H30.9168V36.295Z" fill="black"/>
<path d="M34.2801 36.295H32.2637V37.6393H34.2801V36.295Z" fill="black"/>
<path d="M37.6394 36.295H35.623V37.6393H37.6394V36.295Z" fill="black"/>
<path d="M28.9006 29.5739H37.6384C38.0095 29.5739 38.3105 29.273 38.3105 28.9018V26.2133C38.3105 25.8421 38.0095 25.5411 37.6384 25.5411H28.9006C28.5295 25.5411 28.2285 25.8421 28.2285 26.2133V28.9018C28.2285 29.273 28.5295 29.5739 28.9006 29.5739ZM29.5728 26.8854H36.9662V28.2297H29.5728V26.8854Z" fill="black"/>
<path d="M14.1613 13.8839L10.3592 10.0818L14.1613 6.27971C14.4239 6.01717 14.4239 5.59183 14.1613 5.32928C12.8919 4.05952 11.204 3.36047 9.40881 3.36047C7.61362 3.36047 5.92574 4.05952 4.65631 5.32928C3.38654 6.59871 2.6875 8.28659 2.6875 10.0818C2.6875 11.877 3.38654 13.5649 4.65631 14.8343C5.92574 16.1041 7.61362 16.8031 9.40881 16.8031C11.204 16.8031 12.8919 16.1041 14.1613 14.8343C14.4239 14.5717 14.4239 14.1464 14.1613 13.8839ZM9.40881 15.4588C7.97266 15.4588 6.62248 14.8996 5.60674 13.8839C4.591 12.8681 4.03176 11.5179 4.03176 10.0818C4.03176 8.64563 4.591 7.29546 5.60674 6.27971C6.62248 5.26397 7.97266 4.70474 9.40881 4.70474C10.6185 4.70474 11.7672 5.10152 12.7065 5.83371L8.93359 9.60657C8.67105 9.86912 8.67105 10.2945 8.93359 10.557L12.7065 14.3299C11.7672 15.0621 10.6185 15.4588 9.40881 15.4588Z" fill="black"/>
<path d="M13.6383 10.5573L17.9156 14.8346C18.0469 14.9659 18.2189 15.0315 18.3908 15.0315C18.5628 15.0315 18.7348 14.9659 18.866 14.8346C20.1358 13.5652 20.8348 11.8773 20.8348 10.0821C20.8348 8.28691 20.1358 6.59904 18.866 5.3296C18.6035 5.06705 18.1782 5.06705 17.9156 5.3296L13.6383 9.60689C13.3758 9.86944 13.3758 10.2948 13.6383 10.5573ZM18.3616 6.78446C19.0938 7.72374 19.4906 8.8724 19.4906 10.0821C19.4906 11.2918 19.0938 12.4405 18.3616 13.3797L15.064 10.0821L18.3616 6.78446Z" fill="black"/>
<path d="M22.1799 23.5243C22.1799 23.1532 21.8789 22.8522 21.5077 22.8522H19.4914V21.5079C19.4914 21.1368 19.1904 20.8358 18.8192 20.8358H16.1307C15.7595 20.8358 15.4586 21.1368 15.4586 21.5079V24.8686H13.4422C13.071 24.8686 12.77 25.1695 12.77 25.5407V28.9014H11.4258V30.2457H13.4422H16.1307H18.8192H21.5077H23.5241V28.9014H22.1799V23.5243ZM14.1143 26.2129H15.4586V28.9014H14.1143V26.2129ZM16.8028 25.5407V22.1801H18.1471V23.5243V28.9014H16.8028V25.5407ZM19.4914 28.9014V24.1965H20.8356V28.9014H19.4914Z" fill="black"/>
<path d="M4 21.5002C4 21.2241 4.24198 21.0002 4.54054 21.0002H11.4595C11.758 21.0002 12 21.2241 12 21.5002C12 21.7764 11.758 22.0002 11.4595 22.0002H9.35092C9.66089 22.3674 9.86696 22.8131 9.92735 23.3002H11.4595C11.758 23.3002 12 23.5241 12 23.8002C12 24.0764 11.758 24.3002 11.4595 24.3002H9.92735C9.76645 25.5948 8.57773 26.6003 7.13514 26.6003H5.6867L8.8907 29.1194C9.11832 29.2983 9.14577 29.6135 8.95236 29.824C8.75894 30.0346 8.41815 30.06 8.19053 29.8811L4.31431 26.8334C3.778 26.4119 4.10063 25.6002 4.80461 25.6002H7.13531C7.9799 25.6002 8.68299 25.0404 8.83466 24.3002H4.54071C4.24215 24.3002 4.00017 24.0763 4.00017 23.8002C4.00017 23.524 4.24215 23.3002 4.54071 23.3002H8.83466C8.68306 22.5599 7.97994 22.0002 7.13531 22.0002H4.54071C4.24215 22.0002 4.00017 21.7763 4.00017 21.5002L4 21.5002Z" fill="black"/>
<path d="M29.5729 10.7539H22.8516V12.0982H29.5729V10.7539Z" fill="black"/>
<path d="M29.5729 13.4425H22.8516V14.7868H29.5729V13.4425Z" fill="black"/>
<path d="M29.5729 16.1311H22.8516V17.4754H29.5729V16.1311Z" fill="black"/>
<path d="M24.1958 18.8197H22.8516V20.164H24.1958V18.8197Z" fill="black"/>
<path d="M26.8853 18.8197H25.541V20.164H26.8853V18.8197Z" fill="black"/>
<path d="M29.5728 18.8197H28.2285V20.164H29.5728V18.8197Z" fill="black"/>
</svg>
