<svg width="39" height="43" viewBox="0 0 39 43" fill="none" xmlns="http://www.w3.org/2000/svg">
<path d="M4.30202 9.96394C4.30202 9.67552 4.53665 9.43971 4.81964 9.43971H21.0916C21.3763 9.43971 21.6092 9.67734 21.6092 9.96394C21.6092 10.2524 21.3746 10.4882 21.0916 10.4882H4.81964C4.53665 10.4845 4.30202 10.2524 4.30202 9.96394ZM13.5549 6.54643H21.0971C21.3819 6.54643 21.6147 6.3088 21.6147 6.02219C21.6147 5.73378 21.3801 5.49796 21.0971 5.49796L13.5549 5.49615C13.2702 5.49615 13.0373 5.73378 13.0373 6.02038C13.0373 6.3088 13.2666 6.54643 13.5549 6.54643ZM4.81969 14.4264H21.0916C21.3764 14.4264 21.6092 14.1888 21.6092 13.9022C21.6092 13.6137 21.3746 13.3779 21.0916 13.3779H4.81969C4.53491 13.3779 4.30207 13.6156 4.30207 13.9022C4.30207 14.1906 4.5367 14.4264 4.81969 14.4264ZM4.81969 18.3645H21.0916C21.3764 18.3645 21.6092 18.1269 21.6092 17.8403C21.611 17.5519 21.3818 17.3197 21.0934 17.3197H4.81964C4.53486 17.3197 4.30202 17.5573 4.30202 17.8439C4.30202 18.1323 4.5367 18.3645 4.81969 18.3645ZM4.81969 22.3063H21.0916C21.3764 22.3063 21.6092 22.0686 21.6092 21.782C21.6092 21.4936 21.3746 21.2578 21.0916 21.2578H4.81969C4.53491 21.2578 4.30207 21.4954 4.30207 21.782C4.30207 22.0705 4.5367 22.3063 4.81969 22.3063ZM18.5074 25.1959H4.81969C4.53491 25.1959 4.30207 25.4336 4.30207 25.7202C4.30207 26.0086 4.5367 26.2444 4.81969 26.2444H18.5074C18.7922 26.2444 19.025 26.0068 19.025 25.7202C19.025 25.4317 18.7922 25.1959 18.5074 25.1959ZM15.9175 29.1377H4.8218C4.53701 29.1377 4.30417 29.3753 4.30417 29.6619C4.30417 29.9503 4.53881 30.1861 4.8218 30.1861H15.9175C16.2023 30.1861 16.4351 29.9485 16.4351 29.6619C16.4351 29.3753 16.2005 29.1377 15.9175 29.1377ZM38.3616 42.3542C37.9496 42.7715 37.4033 43 36.8158 43C36.2283 43 35.6838 42.7733 35.2701 42.3542L31.8259 38.866C31.482 38.5177 31.4641 37.9645 31.7614 37.589L30.3715 36.1814C30.0455 36.4045 29.6981 36.5986 29.3345 36.7673C29.279 38.0026 28.2795 38.9966 27.0473 38.9966H5.72429C4.45442 38.9966 3.42633 37.9518 3.42633 36.6693V35.6898H2.29796C1.03167 35.6898 0 34.6449 0 33.3625L0.00179131 6.18031C0.00179131 6.04064 0.0573135 5.90641 0.152241 5.80845L5.73334 0.152373C5.83006 0.0544178 5.9626 2.35805e-06 6.10051 2.35805e-06H23.6246C24.8856 -0.00181149 25.9172 1.04303 25.9172 2.32912V3.30505H27.0456C28.3155 3.30505 29.3436 4.34989 29.3436 5.63235L29.3418 23.6812C31.7848 24.824 33.4864 27.3218 33.4864 30.2187C33.4864 31.7188 33.0332 33.1065 32.2577 34.2638L33.6476 35.6714C33.8177 35.5372 34.0183 35.4573 34.2386 35.4573C34.4912 35.4573 34.7294 35.5589 34.9085 35.7403L38.3527 39.2286C39.2143 40.0884 39.2141 41.4908 38.3616 42.3542ZM26.3809 24.0621C23.0298 24.0621 20.3 26.8247 20.3 30.2206C20.3 33.6145 23.0278 36.3791 26.3809 36.3791C29.732 36.3791 32.4618 33.6165 32.4618 30.2206C32.4564 26.8249 29.7322 24.0621 26.3809 24.0621ZM25.917 4.35356V23.0391C26.0675 23.03 26.2251 23.0155 26.3809 23.0155C27.0508 23.0155 27.6974 23.1171 28.3153 23.2948V5.63606C28.3153 4.93044 27.7475 4.35359 27.049 4.35359L25.917 4.35356ZM1.76224 5.65418H4.31096C5.00768 5.65418 5.57725 5.07914 5.57725 4.37172V1.79044L1.76224 5.65418ZM2.29421 34.6358H20.773C19.8327 33.415 19.2685 31.8822 19.2685 30.2188C19.2685 26.7686 21.6811 23.8754 24.8854 23.1789V2.3294C24.8854 1.62378 24.3176 1.04693 23.6191 1.04693L6.61259 1.04875V4.37376C6.61259 5.65622 5.58092 6.70107 4.31463 6.70107L1.03337 6.69925V33.3534C1.03337 34.0608 1.59749 34.6358 2.29421 34.6358ZM28.2042 37.1717C27.6221 37.3295 27.0113 37.422 26.3791 37.422C24.613 37.422 22.9993 36.7617 21.7581 35.686H4.46323V36.6656C4.46323 37.3712 5.03102 37.9481 5.72953 37.9481H27.0562C27.5684 37.9426 28.0125 37.627 28.2042 37.1717ZM31.1846 35.5137L32.4867 36.8325L32.913 36.4007L31.6109 35.082C31.4747 35.2344 31.3315 35.3795 31.1846 35.5137ZM32.621 38.1839L33.0563 38.6247L34.679 36.9812L34.2438 36.5404L32.621 38.1839ZM37.6271 39.967L35.4134 37.7249L33.7906 39.3684L36.0044 41.6105C36.2193 41.8281 36.5095 41.9497 36.8158 41.9497C37.1238 41.9497 37.4122 41.8281 37.6271 41.6105C38.0767 41.1551 38.0767 40.4169 37.6271 39.967ZM26.381 24.9965C29.2235 24.9965 31.5394 27.3419 31.5394 30.2207C31.5394 33.0994 29.2235 35.4449 26.381 35.4449C23.5386 35.4449 21.2227 33.0994 21.2227 30.2207C21.2227 27.3401 23.5368 24.9965 26.381 24.9965ZM26.381 26.0449C24.1064 26.0449 22.2597 27.9169 22.2597 30.2189C22.2597 32.5226 24.1081 34.3928 26.381 34.3928C28.6557 34.3928 30.5024 32.5208 30.5024 30.2189C30.5024 27.917 28.654 26.0449 26.381 26.0449Z" fill="black"/>
</svg>
