<svg width="31" height="44" viewBox="0 0 31 44" fill="none" xmlns="http://www.w3.org/2000/svg">
<mask id="path-1-outside-1_410_1912" maskUnits="userSpaceOnUse" x="-0.800781" y="-0.799927" width="32" height="45" fill="black">
<rect fill="white" x="-0.800781" y="-0.799927" width="32" height="45"/>
<path fill-rule="evenodd" clip-rule="evenodd" d="M6.91286 14.9102H10.6058V18.9284H6.506V14.9102H6.91286ZM6.91286 36.6697H6.50601V35.8467H14.4278V36.6697H6.91286ZM6.91286 33.469H6.50601V32.6441H14.4278V33.4671L6.91286 33.469ZM6.91286 30.2682H6.50601V29.4396H21.5357V30.2645L6.91286 30.2682ZM15.5948 3.30526C15.593 3.17835 15.5175 3.0645 15.4034 3.01598C15.2874 2.96746 15.1548 2.99358 15.0665 3.08316L15.0517 3.09623V3.0981C14.945 3.22314 14.9505 3.40977 15.0665 3.52735L15.0794 3.54228C15.1714 3.6244 15.3021 3.64306 15.4126 3.59267C15.5249 3.54042 15.5948 3.42844 15.5948 3.30339L15.5948 3.30526ZM16.0771 2.50087C16.5061 2.94133 16.5079 3.64678 16.0863 4.0891C15.6629 4.53329 14.967 4.55382 14.5197 4.13576L14.4921 4.10963C14.0631 3.67665 14.0521 2.97677 14.4663 2.53072L14.4921 2.50272V2.50086C14.7019 2.2881 14.9873 2.16865 15.2855 2.16865C15.5819 2.16865 15.8673 2.28811 16.0771 2.50087ZM8.34523 8.61692L5.72556 8.56093C5.15856 8.5628 4.61546 8.79422 4.21784 9.20483L4.19759 9.2235V9.22536C3.80547 9.63596 3.58638 10.1865 3.58454 10.7595V37.42C3.58454 37.9948 3.81098 38.5492 4.21229 38.956C4.61362 39.3628 5.15853 39.5924 5.72553 39.5905H20.2302V34.6952C20.2302 33.4597 21.2188 32.4556 22.4375 32.4556L26.8668 32.4295L26.8686 10.7335C26.8686 10.1587 26.6422 9.60626 26.2408 9.19943C25.8395 8.79257 25.2964 8.56489 24.7276 8.56489H24.7L22.0086 8.62274H8.34516L8.34523 8.61692ZM5.73659 7.74163L8.03041 7.79202L8.27342 5.77264L3.20903 5.72039H3.21087C2.62912 5.72412 2.07315 5.95928 1.66261 6.37547C1.25024 6.78046 1.01644 7.33662 1.01276 7.91893V40.2383C1.0146 40.8057 1.24472 41.3488 1.64975 41.7407C2.06948 42.1513 2.62728 42.3789 3.21087 42.3789H27.2462C27.8132 42.3808 28.36 42.1569 28.765 41.7519C29.1645 41.3525 29.3873 40.8056 29.3854 40.2383V7.89309C29.3854 7.31641 29.159 6.76395 28.7577 6.35712C28.3564 5.95026 27.8133 5.72258 27.2444 5.72258L22.1673 5.73565L22.3735 7.79421L24.682 7.74568H24.7262L24.7281 7.74755C26.3573 7.74755 27.6809 9.08758 27.6809 10.7411V32.8384C27.6772 33.1277 27.6183 33.4151 27.5097 33.6838C27.4048 33.9563 27.2501 34.2064 27.055 34.4229L22.2833 39.6412C22.066 39.8764 21.8083 40.0667 21.5211 40.2049C21.245 40.3392 20.943 40.412 20.6356 40.4158H5.72569C4.94327 40.4158 4.19219 40.1003 3.63805 39.5386C3.08392 38.9768 2.77283 38.2154 2.77467 37.4222V10.7616C2.77467 9.97405 3.07658 9.21816 3.61784 8.65266L3.63993 8.6284H3.64177C4.19039 8.06104 4.94147 7.74002 5.72573 7.74002L5.73659 7.74163ZM26.8024 33.2507C26.7895 33.2937 26.7748 33.3366 26.7582 33.3776C26.6883 33.5568 26.5889 33.721 26.4618 33.8647L21.6882 39.0811C21.5446 39.2398 21.3697 39.3704 21.1783 39.4637C21.1341 39.4843 21.0881 39.5048 21.0421 39.5197V34.6951C21.0421 34.32 21.1893 33.9598 21.4508 33.6947C21.7122 33.4297 22.0675 33.2804 22.4375 33.2804L26.8024 33.2543L26.8024 33.2507ZM8.40781 4.95331L3.21099 4.89919C2.4157 4.90292 1.65355 5.22393 1.09022 5.7913C0.523225 6.35307 0.202895 7.1201 0.199219 7.92076V40.2382C0.20106 41.0295 0.521382 41.7873 1.08655 42.3341C1.65722 42.8903 2.41754 43.2001 3.21099 43.2001H27.2464C28.0269 43.2019 28.778 42.8921 29.334 42.336C29.8881 41.7816 30.1992 41.0258 30.1992 40.2382V7.89305C30.1992 7.09798 29.8881 6.33654 29.334 5.77477C28.7799 5.21299 28.0288 4.89761 27.2464 4.89948L22.0458 4.91254C21.8543 4.3769 21.3683 4.00925 20.8068 3.9738C20.0907 3.95327 19.3451 3.97007 18.6235 3.97007H18.6253C18.5719 3.9738 18.5204 3.96447 18.4707 3.9458C18.4228 3.92714 18.3768 3.89728 18.34 3.85995C18.2663 3.78343 18.2295 3.67705 18.2387 3.57067C18.2755 3.15075 18.224 2.7271 18.0896 2.32768C17.9534 1.92269 17.7343 1.54756 17.4508 1.22841C17.1709 0.911133 16.8322 0.655454 16.4511 0.476287C16.0756 0.298988 15.6669 0.205668 15.2527 0.200073H15.2416C14.3874 0.211271 13.5774 0.584537 13.0049 1.2284C12.7287 1.54007 12.5226 1.90775 12.4011 2.30713C12.2796 2.70652 12.2372 3.12642 12.2722 3.54448V3.57061C12.2777 3.62286 12.2704 3.67699 12.2519 3.72738C12.2151 3.82816 12.1378 3.90654 12.0402 3.94574C11.9905 3.9644 11.939 3.97373 11.8856 3.97C11.1492 3.95134 10.3852 3.97186 9.64517 3.97186L9.64701 3.97373C9.30275 3.99799 8.98057 4.15103 8.74309 4.40485C8.59397 4.56162 8.47961 4.74803 8.40781 4.95331ZM9.32644 4.97757C9.42217 4.87119 9.55472 4.80774 9.69462 4.79468L11.843 4.79094V4.79281C12.1817 4.81147 12.5131 4.68083 12.7506 4.43634C12.9881 4.18998 13.1096 3.85403 13.0838 3.51065L13.0801 3.47519C13.0525 3.16537 13.0838 2.85183 13.174 2.55321C13.2605 2.2658 13.4097 2.00081 13.6085 1.77682C14.0264 1.30464 14.621 1.03216 15.2469 1.02098C15.5452 1.02471 15.8397 1.09376 16.1122 1.22067C16.392 1.35318 16.6424 1.54168 16.8485 1.77686C17.0584 2.01202 17.2204 2.28822 17.3235 2.5887C17.4211 2.88171 17.4597 3.19151 17.4321 3.49944V3.50504C17.4063 3.84844 17.5278 4.18626 17.7653 4.43074C18.0028 4.67709 18.3323 4.80587 18.6711 4.7872L20.7624 4.79094C21.0606 4.8096 21.2981 5.04849 21.3184 5.34898L21.5614 7.79574H8.84761L9.13479 5.4143L9.13663 5.3807L9.13847 5.38257C9.1532 5.22766 9.21948 5.08396 9.32625 4.97384L9.32644 4.97757ZM23.0803 23.9545C23.0785 25.4401 21.9537 26.6756 20.4938 26.7969C19.0321 26.9182 17.725 25.8824 17.4857 24.4173H18.6418C18.8075 25.0052 19.2695 25.4587 19.8531 25.608C20.4386 25.7573 21.0571 25.5763 21.475 25.1358C21.8947 24.6954 22.0475 24.0608 21.88 23.4748C21.7106 22.8869 21.2449 22.4371 20.6595 22.2934L20.6282 21.1232H20.6263C22.0292 21.308 23.0785 22.5192 23.0785 23.9544L23.0803 23.9545ZM19.8182 21.1364L19.8495 22.2991V22.2972C19.5549 22.3737 19.2861 22.5268 19.0726 22.7451L19.0487 22.7713H19.0505C18.8333 22.9989 18.6842 23.2845 18.6179 23.5925H17.471C17.6293 22.3364 18.5847 21.3361 19.8182 21.1345L19.8182 21.1364ZM22.8299 21.3528C23.6823 22.2151 24.056 23.4524 23.8277 24.6525C23.5994 25.8525 22.7986 26.8585 21.6904 27.3381C20.5821 27.8178 19.31 27.7095 18.2975 27.047C17.285 26.3844 16.6627 25.2553 16.637 24.0329V24.0049V23.9526C16.637 22.4651 17.5225 21.1251 18.8774 20.5559C20.2324 19.9867 21.7935 20.3002 22.8299 21.3528ZM21.1381 23.9545C21.1363 24.2456 20.9927 24.52 20.7534 24.6842C20.514 24.8484 20.2103 24.8802 19.9433 24.7719C19.6745 24.6637 19.4757 24.4285 19.4131 24.143C19.3505 23.8574 19.4315 23.5588 19.6285 23.346L19.6469 23.3292V23.3274C19.8955 23.0736 20.2728 22.997 20.5987 23.1333C20.9264 23.2714 21.1381 23.5943 21.1381 23.9545ZM10.49 21.1214C11.8965 21.3043 12.9495 22.5174 12.9495 23.9545C12.9495 25.3916 11.8965 26.6028 10.49 26.7857V25.623C10.8066 25.5539 11.0957 25.3934 11.3239 25.1601C11.7602 24.7178 11.9222 24.0702 11.7492 23.4711C11.5743 22.8702 11.0901 22.4148 10.4881 22.2841V21.1214L10.49 21.1214ZM10.1181 23.068H10.1347C10.4863 23.068 10.8048 23.2845 10.941 23.6148C11.0754 23.9451 11.0018 24.3259 10.7514 24.5778C10.5489 24.7831 10.2598 24.8746 9.9782 24.8223C9.69653 24.7719 9.45903 24.5834 9.33938 24.3202C9.22156 24.0552 9.23628 23.7492 9.38172 23.501C9.52899 23.2509 9.78489 23.0904 10.0702 23.068H10.0813H10.1144L10.1181 23.068ZM9.67629 22.3103C8.95278 22.5193 8.45204 23.1912 8.45204 23.9545C8.45204 24.7178 8.95278 25.3878 9.67629 25.5969V26.7708C8.31584 26.5431 7.31804 25.3505 7.31804 23.9526C7.31804 22.5566 8.31584 21.364 9.67629 21.1364V22.3103ZM10.1015 27.6313H10.085C10.0758 27.6332 10.0666 27.6332 10.0574 27.6313C8.06545 27.6089 6.46568 25.9609 6.47671 23.9415C6.48775 21.924 8.10593 20.2929 10.0978 20.2929C12.0879 20.2929 13.7061 21.9241 13.7172 23.9415C13.7282 25.9609 12.1284 27.6089 10.1365 27.6313H10.1015ZM20.1992 10.6066H23.894L23.8921 18.9285H19.7924V10.6066H20.1992ZM23.0803 11.4315V18.1056H20.6042V11.4315H23.0803ZM16.5064 13.2362L16.5046 18.1053H13.8941V13.2362H16.5064ZM13.491 12.4113H17.3201V18.9287H13.0841V12.4113H13.491ZM9.79432 15.7352H7.31825V18.1054H9.79432V15.7352Z"/>
</mask>
<path fill-rule="evenodd" clip-rule="evenodd" d="M6.91286 14.9102H10.6058V18.9284H6.506V14.9102H6.91286ZM6.91286 36.6697H6.50601V35.8467H14.4278V36.6697H6.91286ZM6.91286 33.469H6.50601V32.6441H14.4278V33.4671L6.91286 33.469ZM6.91286 30.2682H6.50601V29.4396H21.5357V30.2645L6.91286 30.2682ZM15.5948 3.30526C15.593 3.17835 15.5175 3.0645 15.4034 3.01598C15.2874 2.96746 15.1548 2.99358 15.0665 3.08316L15.0517 3.09623V3.0981C14.945 3.22314 14.9505 3.40977 15.0665 3.52735L15.0794 3.54228C15.1714 3.6244 15.3021 3.64306 15.4126 3.59267C15.5249 3.54042 15.5948 3.42844 15.5948 3.30339L15.5948 3.30526ZM16.0771 2.50087C16.5061 2.94133 16.5079 3.64678 16.0863 4.0891C15.6629 4.53329 14.967 4.55382 14.5197 4.13576L14.4921 4.10963C14.0631 3.67665 14.0521 2.97677 14.4663 2.53072L14.4921 2.50272V2.50086C14.7019 2.2881 14.9873 2.16865 15.2855 2.16865C15.5819 2.16865 15.8673 2.28811 16.0771 2.50087ZM8.34523 8.61692L5.72556 8.56093C5.15856 8.5628 4.61546 8.79422 4.21784 9.20483L4.19759 9.2235V9.22536C3.80547 9.63596 3.58638 10.1865 3.58454 10.7595V37.42C3.58454 37.9948 3.81098 38.5492 4.21229 38.956C4.61362 39.3628 5.15853 39.5924 5.72553 39.5905H20.2302V34.6952C20.2302 33.4597 21.2188 32.4556 22.4375 32.4556L26.8668 32.4295L26.8686 10.7335C26.8686 10.1587 26.6422 9.60626 26.2408 9.19943C25.8395 8.79257 25.2964 8.56489 24.7276 8.56489H24.7L22.0086 8.62274H8.34516L8.34523 8.61692ZM5.73659 7.74163L8.03041 7.79202L8.27342 5.77264L3.20903 5.72039H3.21087C2.62912 5.72412 2.07315 5.95928 1.66261 6.37547C1.25024 6.78046 1.01644 7.33662 1.01276 7.91893V40.2383C1.0146 40.8057 1.24472 41.3488 1.64975 41.7407C2.06948 42.1513 2.62728 42.3789 3.21087 42.3789H27.2462C27.8132 42.3808 28.36 42.1569 28.765 41.7519C29.1645 41.3525 29.3873 40.8056 29.3854 40.2383V7.89309C29.3854 7.31641 29.159 6.76395 28.7577 6.35712C28.3564 5.95026 27.8133 5.72258 27.2444 5.72258L22.1673 5.73565L22.3735 7.79421L24.682 7.74568H24.7262L24.7281 7.74755C26.3573 7.74755 27.6809 9.08758 27.6809 10.7411V32.8384C27.6772 33.1277 27.6183 33.4151 27.5097 33.6838C27.4048 33.9563 27.2501 34.2064 27.055 34.4229L22.2833 39.6412C22.066 39.8764 21.8083 40.0667 21.5211 40.2049C21.245 40.3392 20.943 40.412 20.6356 40.4158H5.72569C4.94327 40.4158 4.19219 40.1003 3.63805 39.5386C3.08392 38.9768 2.77283 38.2154 2.77467 37.4222V10.7616C2.77467 9.97405 3.07658 9.21816 3.61784 8.65266L3.63993 8.6284H3.64177C4.19039 8.06104 4.94147 7.74002 5.72573 7.74002L5.73659 7.74163ZM26.8024 33.2507C26.7895 33.2937 26.7748 33.3366 26.7582 33.3776C26.6883 33.5568 26.5889 33.721 26.4618 33.8647L21.6882 39.0811C21.5446 39.2398 21.3697 39.3704 21.1783 39.4637C21.1341 39.4843 21.0881 39.5048 21.0421 39.5197V34.6951C21.0421 34.32 21.1893 33.9598 21.4508 33.6947C21.7122 33.4297 22.0675 33.2804 22.4375 33.2804L26.8024 33.2543L26.8024 33.2507ZM8.40781 4.95331L3.21099 4.89919C2.4157 4.90292 1.65355 5.22393 1.09022 5.7913C0.523225 6.35307 0.202895 7.1201 0.199219 7.92076V40.2382C0.20106 41.0295 0.521382 41.7873 1.08655 42.3341C1.65722 42.8903 2.41754 43.2001 3.21099 43.2001H27.2464C28.0269 43.2019 28.778 42.8921 29.334 42.336C29.8881 41.7816 30.1992 41.0258 30.1992 40.2382V7.89305C30.1992 7.09798 29.8881 6.33654 29.334 5.77477C28.7799 5.21299 28.0288 4.89761 27.2464 4.89948L22.0458 4.91254C21.8543 4.3769 21.3683 4.00925 20.8068 3.9738C20.0907 3.95327 19.3451 3.97007 18.6235 3.97007H18.6253C18.5719 3.9738 18.5204 3.96447 18.4707 3.9458C18.4228 3.92714 18.3768 3.89728 18.34 3.85995C18.2663 3.78343 18.2295 3.67705 18.2387 3.57067C18.2755 3.15075 18.224 2.7271 18.0896 2.32768C17.9534 1.92269 17.7343 1.54756 17.4508 1.22841C17.1709 0.911133 16.8322 0.655454 16.4511 0.476287C16.0756 0.298988 15.6669 0.205668 15.2527 0.200073H15.2416C14.3874 0.211271 13.5774 0.584537 13.0049 1.2284C12.7287 1.54007 12.5226 1.90775 12.4011 2.30713C12.2796 2.70652 12.2372 3.12642 12.2722 3.54448V3.57061C12.2777 3.62286 12.2704 3.67699 12.2519 3.72738C12.2151 3.82816 12.1378 3.90654 12.0402 3.94574C11.9905 3.9644 11.939 3.97373 11.8856 3.97C11.1492 3.95134 10.3852 3.97186 9.64517 3.97186L9.64701 3.97373C9.30275 3.99799 8.98057 4.15103 8.74309 4.40485C8.59397 4.56162 8.47961 4.74803 8.40781 4.95331ZM9.32644 4.97757C9.42217 4.87119 9.55472 4.80774 9.69462 4.79468L11.843 4.79094V4.79281C12.1817 4.81147 12.5131 4.68083 12.7506 4.43634C12.9881 4.18998 13.1096 3.85403 13.0838 3.51065L13.0801 3.47519C13.0525 3.16537 13.0838 2.85183 13.174 2.55321C13.2605 2.2658 13.4097 2.00081 13.6085 1.77682C14.0264 1.30464 14.621 1.03216 15.2469 1.02098C15.5452 1.02471 15.8397 1.09376 16.1122 1.22067C16.392 1.35318 16.6424 1.54168 16.8485 1.77686C17.0584 2.01202 17.2204 2.28822 17.3235 2.5887C17.4211 2.88171 17.4597 3.19151 17.4321 3.49944V3.50504C17.4063 3.84844 17.5278 4.18626 17.7653 4.43074C18.0028 4.67709 18.3323 4.80587 18.6711 4.7872L20.7624 4.79094C21.0606 4.8096 21.2981 5.04849 21.3184 5.34898L21.5614 7.79574H8.84761L9.13479 5.4143L9.13663 5.3807L9.13847 5.38257C9.1532 5.22766 9.21948 5.08396 9.32625 4.97384L9.32644 4.97757ZM23.0803 23.9545C23.0785 25.4401 21.9537 26.6756 20.4938 26.7969C19.0321 26.9182 17.725 25.8824 17.4857 24.4173H18.6418C18.8075 25.0052 19.2695 25.4587 19.8531 25.608C20.4386 25.7573 21.0571 25.5763 21.475 25.1358C21.8947 24.6954 22.0475 24.0608 21.88 23.4748C21.7106 22.8869 21.2449 22.4371 20.6595 22.2934L20.6282 21.1232H20.6263C22.0292 21.308 23.0785 22.5192 23.0785 23.9544L23.0803 23.9545ZM19.8182 21.1364L19.8495 22.2991V22.2972C19.5549 22.3737 19.2861 22.5268 19.0726 22.7451L19.0487 22.7713H19.0505C18.8333 22.9989 18.6842 23.2845 18.6179 23.5925H17.471C17.6293 22.3364 18.5847 21.3361 19.8182 21.1345L19.8182 21.1364ZM22.8299 21.3528C23.6823 22.2151 24.056 23.4524 23.8277 24.6525C23.5994 25.8525 22.7986 26.8585 21.6904 27.3381C20.5821 27.8178 19.31 27.7095 18.2975 27.047C17.285 26.3844 16.6627 25.2553 16.637 24.0329V24.0049V23.9526C16.637 22.4651 17.5225 21.1251 18.8774 20.5559C20.2324 19.9867 21.7935 20.3002 22.8299 21.3528ZM21.1381 23.9545C21.1363 24.2456 20.9927 24.52 20.7534 24.6842C20.514 24.8484 20.2103 24.8802 19.9433 24.7719C19.6745 24.6637 19.4757 24.4285 19.4131 24.143C19.3505 23.8574 19.4315 23.5588 19.6285 23.346L19.6469 23.3292V23.3274C19.8955 23.0736 20.2728 22.997 20.5987 23.1333C20.9264 23.2714 21.1381 23.5943 21.1381 23.9545ZM10.49 21.1214C11.8965 21.3043 12.9495 22.5174 12.9495 23.9545C12.9495 25.3916 11.8965 26.6028 10.49 26.7857V25.623C10.8066 25.5539 11.0957 25.3934 11.3239 25.1601C11.7602 24.7178 11.9222 24.0702 11.7492 23.4711C11.5743 22.8702 11.0901 22.4148 10.4881 22.2841V21.1214L10.49 21.1214ZM10.1181 23.068H10.1347C10.4863 23.068 10.8048 23.2845 10.941 23.6148C11.0754 23.9451 11.0018 24.3259 10.7514 24.5778C10.5489 24.7831 10.2598 24.8746 9.9782 24.8223C9.69653 24.7719 9.45903 24.5834 9.33938 24.3202C9.22156 24.0552 9.23628 23.7492 9.38172 23.501C9.52899 23.2509 9.78489 23.0904 10.0702 23.068H10.0813H10.1144L10.1181 23.068ZM9.67629 22.3103C8.95278 22.5193 8.45204 23.1912 8.45204 23.9545C8.45204 24.7178 8.95278 25.3878 9.67629 25.5969V26.7708C8.31584 26.5431 7.31804 25.3505 7.31804 23.9526C7.31804 22.5566 8.31584 21.364 9.67629 21.1364V22.3103ZM10.1015 27.6313H10.085C10.0758 27.6332 10.0666 27.6332 10.0574 27.6313C8.06545 27.6089 6.46568 25.9609 6.47671 23.9415C6.48775 21.924 8.10593 20.2929 10.0978 20.2929C12.0879 20.2929 13.7061 21.9241 13.7172 23.9415C13.7282 25.9609 12.1284 27.6089 10.1365 27.6313H10.1015ZM20.1992 10.6066H23.894L23.8921 18.9285H19.7924V10.6066H20.1992ZM23.0803 11.4315V18.1056H20.6042V11.4315H23.0803ZM16.5064 13.2362L16.5046 18.1053H13.8941V13.2362H16.5064ZM13.491 12.4113H17.3201V18.9287H13.0841V12.4113H13.491ZM9.79432 15.7352H7.31825V18.1054H9.79432V15.7352Z" fill="black"/>
<path d="M16.079 2.50087V2.40087H16.0771V2.50087V2.60087H16.079V2.50087ZM9.67813 22.3103V22.2103H9.67629V22.3103V22.4103H9.67813V22.3103ZM10.6058 14.9102H10.8058V14.7102H10.6058V14.9102ZM10.6058 18.9284V19.1284H10.8058V18.9284H10.6058ZM6.506 18.9284H6.306V19.1284H6.506V18.9284ZM6.506 14.9102V14.7102H6.306V14.9102H6.506ZM6.50601 36.6697H6.30601V36.8697H6.50601V36.6697ZM6.50601 35.8467V35.6467H6.30601V35.8467H6.50601ZM14.4278 35.8467H14.6278V35.6467H14.4278V35.8467ZM14.4278 36.6697V36.8697H14.6278V36.6697H14.4278ZM6.91286 33.469L6.91286 33.669L6.91291 33.669L6.91286 33.469ZM6.50601 33.469H6.30601V33.669H6.50601V33.469ZM6.50601 32.6441V32.4441H6.30601V32.6441H6.50601ZM14.4278 32.6441H14.6278V32.4441H14.4278V32.6441ZM14.4278 33.4671L14.4278 33.6671L14.6278 33.6671V33.4671H14.4278ZM6.91286 30.2682L6.91286 30.4682L6.91291 30.4682L6.91286 30.2682ZM6.50601 30.2682H6.30601V30.4682H6.50601V30.2682ZM6.50601 29.4396V29.2396H6.30601V29.4396H6.50601ZM21.5357 29.4396H21.7357V29.2396H21.5357V29.4396ZM21.5357 30.2645L21.5357 30.4645L21.7357 30.4645V30.2645H21.5357ZM15.5948 3.30526L15.3948 3.30816L15.7948 3.30546L15.5948 3.30526ZM15.4034 3.01598L15.4816 2.83192L15.4805 2.83148L15.4034 3.01598ZM15.0665 3.08316L15.1995 3.23312L15.2088 3.22362L15.0665 3.08316ZM15.0517 3.09623L14.919 2.94661L14.8517 3.00629V3.09623H15.0517ZM15.0517 3.0981L15.2038 3.22797L15.2517 3.17187V3.0981H15.0517ZM15.0665 3.52735L15.2182 3.39638L15.2089 3.3869L15.0665 3.52735ZM15.0794 3.54228L14.9279 3.67296L14.9365 3.68284L14.9462 3.69152L15.0794 3.54228ZM15.4126 3.59267L15.4956 3.77464L15.4969 3.774L15.4126 3.59267ZM15.5948 3.30339H15.7948L15.3948 3.30319L15.5948 3.30339ZM16.0771 2.50087L16.2204 2.36133L16.2195 2.36042L16.0771 2.50087ZM16.0863 4.0891L16.2311 4.2271L16.2311 4.22709L16.0863 4.0891ZM14.5197 4.13576L14.3822 4.28104L14.3831 4.28189L14.5197 4.13576ZM14.4921 4.10963L14.3499 4.25046L14.3546 4.25491L14.4921 4.10963ZM14.4663 2.53072L14.6129 2.66681L14.6134 2.66618L14.4663 2.53072ZM14.4921 2.50272L14.6392 2.63818L14.6921 2.58077V2.50272H14.4921ZM14.4921 2.50086L14.3497 2.36041L14.2921 2.41882V2.50086H14.4921ZM8.34523 8.61692L8.54521 8.61938L8.54765 8.4212L8.3495 8.41697L8.34523 8.61692ZM5.72556 8.56093L5.72984 8.36092L5.7249 8.36093L5.72556 8.56093ZM4.21784 9.20483L4.3536 9.35213L4.36151 9.34396L4.21784 9.20483ZM4.19759 9.2235L4.06204 9.07644L3.99759 9.13584V9.2235H4.19759ZM4.19759 9.22536L4.34222 9.36349L4.39759 9.30552V9.22536H4.19759ZM3.58454 10.7595L3.38454 10.7588V10.7595H3.58454ZM4.21229 38.956L4.35468 38.8155L4.35467 38.8155L4.21229 38.956ZM5.72553 39.5905L5.72553 39.3905L5.72487 39.3905L5.72553 39.5905ZM20.2302 39.5905V39.7905H20.4302V39.5905H20.2302ZM22.4375 32.4556L22.4375 32.6556L22.4386 32.6556L22.4375 32.4556ZM26.8668 32.4295L26.8679 32.6295L27.0667 32.6283L27.0668 32.4295L26.8668 32.4295ZM26.8686 10.7335L27.0686 10.7335V10.7335H26.8686ZM26.2408 9.19943L26.0985 9.33988L26.0985 9.33988L26.2408 9.19943ZM24.7 8.56489V8.36484L24.6957 8.36493L24.7 8.56489ZM22.0086 8.62274V8.82279L22.0129 8.8227L22.0086 8.62274ZM8.34516 8.62274L8.14517 8.62028L8.14268 8.82274H8.34516V8.62274ZM5.73659 7.74163L5.70717 7.93945L5.71961 7.94131L5.7322 7.94158L5.73659 7.74163ZM8.03041 7.79202L8.02602 7.99197L8.20731 7.99596L8.22898 7.81592L8.03041 7.79202ZM8.27342 5.77264L8.47199 5.79654L8.49865 5.57495L8.27548 5.57265L8.27342 5.77264ZM3.20903 5.72039V5.52039L3.20696 5.92038L3.20903 5.72039ZM3.21087 5.72039L3.21215 5.92038L3.21087 5.52039V5.72039ZM1.66261 6.37547L1.80277 6.51818L1.805 6.51592L1.66261 6.37547ZM1.01276 7.91893L0.812761 7.91767V7.91893H1.01276ZM1.01276 40.2383L0.81276 40.2383L0.812762 40.239L1.01276 40.2383ZM1.64975 41.7407L1.7896 41.5977L1.78882 41.597L1.64975 41.7407ZM27.2462 42.3789L27.2469 42.1789H27.2462V42.3789ZM28.765 41.7519L28.6236 41.6104L28.6236 41.6104L28.765 41.7519ZM29.3854 40.2383H29.1854L29.1854 40.2389L29.3854 40.2383ZM28.7577 6.35712L28.6153 6.49757L28.6153 6.49757L28.7577 6.35712ZM27.2444 5.72258V5.52258L27.2439 5.52258L27.2444 5.72258ZM22.1673 5.73565L22.1668 5.53565L21.9463 5.53622L21.9683 5.75558L22.1673 5.73565ZM22.3735 7.79421L22.1745 7.81414L22.1929 7.99805L22.3777 7.99416L22.3735 7.79421ZM24.682 7.74568L24.682 7.54564L24.6778 7.54573L24.682 7.74568ZM24.7262 7.74568L24.8686 7.60525L24.8099 7.54568H24.7262V7.74568ZM24.7281 7.74755L24.5857 7.88799L24.6444 7.94755H24.7281V7.74755ZM27.6809 32.8384L27.8809 32.841V32.8384H27.6809ZM27.5097 33.6838L27.3243 33.6089L27.3231 33.612L27.5097 33.6838ZM27.055 34.4229L27.2026 34.5579L27.2036 34.5568L27.055 34.4229ZM22.2833 39.6412L22.4302 39.7769L22.4309 39.7762L22.2833 39.6412ZM21.5211 40.2049L21.4344 40.0246L21.4336 40.025L21.5211 40.2049ZM20.6356 40.4158V40.6158L20.6381 40.6157L20.6356 40.4158ZM3.63805 39.5386L3.49567 39.679L3.49567 39.6791L3.63805 39.5386ZM2.77467 37.4222L2.97467 37.4226V37.4222H2.77467ZM3.61784 8.65266L3.76236 8.79099L3.76572 8.78731L3.61784 8.65266ZM3.63993 8.6284V8.4284H3.55155L3.49205 8.49375L3.63993 8.6284ZM3.64177 8.6284V8.8284H3.72659L3.78554 8.76742L3.64177 8.6284ZM5.72573 7.74002L5.75515 7.54219L5.74052 7.54002H5.72573V7.74002ZM26.8024 33.2507L27.0024 33.2516L26.6109 33.1932L26.8024 33.2507ZM26.7582 33.3776L26.5727 33.3028L26.5719 33.3049L26.7582 33.3776ZM26.4618 33.8647L26.6094 33.9998L26.6117 33.9972L26.4618 33.8647ZM21.6882 39.0811L21.5407 38.9461L21.5399 38.9469L21.6882 39.0811ZM21.1783 39.4637L21.2626 39.6451L21.2659 39.6435L21.1783 39.4637ZM21.0421 39.5197H20.8421V39.7949L21.1038 39.71L21.0421 39.5197ZM21.4508 33.6947L21.3084 33.5543L21.3084 33.5543L21.4508 33.6947ZM22.4375 33.2804L22.4375 33.4804L22.4387 33.4804L22.4375 33.2804ZM26.8024 33.2543L26.8036 33.4543L27.0015 33.4531L27.0024 33.2551L26.8024 33.2543ZM8.40781 4.95331L8.40573 5.1533L8.54922 5.1548L8.5966 5.01934L8.40781 4.95331ZM3.21099 4.89919L3.21307 4.69918L3.21005 4.69919L3.21099 4.89919ZM1.09022 5.7913L1.23099 5.93338L1.23215 5.93221L1.09022 5.7913ZM0.199219 7.92076L-0.000781253 7.91984V7.92076H0.199219ZM0.199219 40.2382L-0.000781794 40.2382L-0.000780712 40.2387L0.199219 40.2382ZM1.08655 42.3341L1.22614 42.1909L1.22562 42.1904L1.08655 42.3341ZM27.2464 43.2001L27.2468 43.0001H27.2464V43.2001ZM29.334 42.336L29.1925 42.1946L29.1925 42.1946L29.334 42.336ZM29.334 5.77477L29.4764 5.63432L29.4764 5.63432L29.334 5.77477ZM27.2464 4.89948L27.2459 4.69948L27.2459 4.69948L27.2464 4.89948ZM22.0458 4.91254L21.8574 4.97986L21.905 5.11289L22.0463 5.11254L22.0458 4.91254ZM20.8068 3.9738L20.8194 3.77408L20.8125 3.77388L20.8068 3.9738ZM18.6253 3.97007L18.6392 4.16958L18.6253 3.77007V3.97007ZM18.4707 3.9458L18.398 4.13215L18.4004 4.13304L18.4707 3.9458ZM18.34 3.85995L18.1958 3.99864L18.1976 4.00039L18.34 3.85995ZM18.2387 3.57067L18.0395 3.5532L18.0394 3.55343L18.2387 3.57067ZM18.0896 2.32768L17.9 2.39144L17.9 2.39146L18.0896 2.32768ZM17.4508 1.22841L17.3008 1.3607L17.3012 1.36123L17.4508 1.22841ZM16.4511 0.476287L16.3657 0.657145L16.366 0.657281L16.4511 0.476287ZM15.2527 0.200073L15.2554 7.32392e-05H15.2527V0.200073ZM15.2416 0.200073L15.2416 5.60538e-05L15.239 9.04231e-05L15.2416 0.200073ZM13.0049 1.2284L12.8554 1.09549L12.8552 1.09577L13.0049 1.2284ZM12.4011 2.30713L12.2097 2.24892L12.2097 2.24892L12.4011 2.30713ZM12.2722 3.54448H12.4722V3.53613L12.4715 3.5278L12.2722 3.54448ZM12.2722 3.57061H12.0722V3.58115L12.0733 3.59163L12.2722 3.57061ZM12.2519 3.72738L12.0641 3.65874L12.0641 3.65875L12.2519 3.72738ZM12.0402 3.94574L12.1106 4.13302L12.1148 4.13132L12.0402 3.94574ZM11.8856 3.97L11.8996 3.77029L11.8907 3.77006L11.8856 3.97ZM9.64517 3.97186V3.77186H9.16712L9.50275 4.11228L9.64517 3.97186ZM9.64701 3.97373L9.66107 4.17324L10.0945 4.14269L9.78943 3.83331L9.64701 3.97373ZM8.74309 4.40485L8.88801 4.5427L8.88914 4.54149L8.74309 4.40485ZM9.32644 4.97757L9.12668 4.98738L9.15046 5.47212L9.4751 5.11136L9.32644 4.97757ZM9.69462 4.79468L9.69428 4.59468L9.68514 4.59469L9.67603 4.59554L9.69462 4.79468ZM11.843 4.79094H12.043V4.59059L11.8427 4.59094L11.843 4.79094ZM11.843 4.79281H11.643V4.98209L11.832 4.99251L11.843 4.79281ZM12.7506 4.43634L12.8941 4.57569L12.8946 4.57515L12.7506 4.43634ZM13.0838 3.51065L13.2833 3.49567L13.2827 3.48999L13.0838 3.51065ZM13.0801 3.47519L12.8809 3.49294L12.8812 3.49584L13.0801 3.47519ZM13.174 2.55321L13.3655 2.61105L13.3655 2.61087L13.174 2.55321ZM13.6085 1.77682L13.7581 1.9096L13.7583 1.90937L13.6085 1.77682ZM15.2469 1.02098L15.2494 0.8209L15.2434 0.821009L15.2469 1.02098ZM16.1122 1.22067L16.1978 1.03991L16.1966 1.03938L16.1122 1.22067ZM16.8485 1.77686L16.6982 1.90871L16.6993 1.91003L16.8485 1.77686ZM17.3235 2.5887L17.5133 2.52551L17.5127 2.5238L17.3235 2.5887ZM17.4321 3.49944L17.2329 3.48158L17.2321 3.49049V3.49944H17.4321ZM17.4321 3.50504L17.6316 3.52001L17.6321 3.51254V3.50504H17.4321ZM17.7653 4.43074L17.9093 4.29193L17.9088 4.29138L17.7653 4.43074ZM18.6711 4.7872L18.6714 4.58688L18.6601 4.58751L18.6711 4.7872ZM20.7624 4.79094L20.7749 4.59096L20.7628 4.59094L20.7624 4.79094ZM21.3184 5.34898L21.1187 5.36245L21.1194 5.36875L21.3184 5.34898ZM21.5614 7.79574V7.99574H21.7822L21.7604 7.77597L21.5614 7.79574ZM8.84761 7.79574L8.64905 7.77179L8.62204 7.99574H8.84761V7.79574ZM9.13479 5.4143L9.33378 5.43829L9.33449 5.42524L9.13479 5.4143ZM9.13663 5.3807L9.27902 5.24025L8.96167 4.91854L8.93693 5.36975L9.13663 5.3807ZM9.13847 5.38257L8.99609 5.52302L9.29702 5.82808L9.33758 5.4015L9.13847 5.38257ZM9.32625 4.97384L9.52601 4.96404L9.50343 4.50382L9.18267 4.83462L9.32625 4.97384ZM23.0803 23.9545L23.2803 23.9547L23.2806 23.7586L23.0844 23.7545L23.0803 23.9545ZM20.4938 26.7969L20.5103 26.9962L20.5103 26.9962L20.4938 26.7969ZM17.4857 24.4173V24.2173H17.2504L17.2883 24.4495L17.4857 24.4173ZM18.6418 24.4173L18.8343 24.3631L18.7932 24.2173H18.6418V24.4173ZM19.8531 25.608L19.8036 25.8018L19.8037 25.8018L19.8531 25.608ZM21.475 25.1358L21.3302 24.9979L21.3299 24.9982L21.475 25.1358ZM21.88 23.4748L22.0723 23.4198L22.0722 23.4194L21.88 23.4748ZM20.6595 22.2934L20.4595 22.2987L20.4636 22.4513L20.6118 22.4876L20.6595 22.2934ZM20.6282 21.1232L20.8281 21.1179L20.8229 20.9232H20.6282V21.1232ZM20.6263 21.1232V20.9232L20.6002 21.3215L20.6263 21.1232ZM23.0785 23.9544H22.8785V24.1504L23.0743 24.1544L23.0785 23.9544ZM19.8182 21.1364L19.618 21.1332L19.6182 21.1417L19.8182 21.1364ZM19.8495 22.2991L19.6495 22.3045L20.0495 22.2991H19.8495ZM19.8495 22.2972H20.0495V22.0386L19.7992 22.1036L19.8495 22.2972ZM19.0726 22.7451L18.9295 22.6052L18.9251 22.61L19.0726 22.7451ZM19.0487 22.7713L18.9012 22.6362L18.5942 22.9713H19.0487V22.7713ZM19.0505 22.7713L19.1952 22.9093L19.5177 22.5713H19.0505V22.7713ZM18.6179 23.5925V23.7925H18.7794L18.8134 23.6345L18.6179 23.5925ZM17.471 23.5925L17.2725 23.5674L17.2442 23.7925H17.471V23.5925ZM19.8182 21.1345L20.0182 21.1377L20.0219 20.8986L19.7859 20.9371L19.8182 21.1345ZM22.8299 21.3528L22.6874 21.4932L22.6877 21.4934L22.8299 21.3528ZM23.8277 24.6525L23.6312 24.6151L23.6312 24.6151L23.8277 24.6525ZM18.2975 27.047L18.407 26.8796L18.407 26.8796L18.2975 27.047ZM16.637 24.0329H16.437L16.437 24.0371L16.637 24.0329ZM21.1381 23.9545L21.3381 23.9558V23.9545H21.1381ZM20.7534 24.6842L20.6402 24.5193L20.6402 24.5193L20.7534 24.6842ZM19.9433 24.7719L20.0185 24.5866L20.018 24.5864L19.9433 24.7719ZM19.4131 24.143L19.2178 24.1858L19.2178 24.1858L19.4131 24.143ZM19.6285 23.346L19.4937 23.1983L19.4875 23.204L19.4818 23.2102L19.6285 23.346ZM19.6469 23.3292L19.7817 23.477L19.8469 23.4175V23.3292H19.6469ZM19.6469 23.3274L19.504 23.1875L19.4469 23.2458V23.3274H19.6469ZM20.5987 23.1333L20.6764 22.949L20.6758 22.9488L20.5987 23.1333ZM10.49 21.1214L10.5158 20.9231L10.5042 20.9216L10.4924 20.9214L10.49 21.1214ZM10.49 26.7857H10.29V27.0134L10.5158 26.9841L10.49 26.7857ZM10.49 25.623L10.4474 25.4276L10.29 25.4619V25.623H10.49ZM11.3239 25.1601L11.1815 25.0197L11.181 25.0203L11.3239 25.1601ZM11.7492 23.4711L11.9413 23.4156L11.9412 23.4152L11.7492 23.4711ZM10.4881 22.2841H10.2881V22.4454L10.4457 22.4796L10.4881 22.2841ZM10.4881 21.1214L10.4906 20.9214L10.2881 20.9189V21.1214H10.4881ZM10.1181 23.068L10.1174 23.268H10.1181V23.068ZM10.941 23.6148L11.1263 23.5394L11.1259 23.5386L10.941 23.6148ZM10.7514 24.5778L10.6095 24.4368L10.609 24.4374L10.7514 24.5778ZM9.9782 24.8223L10.0147 24.6256L10.0134 24.6254L9.9782 24.8223ZM9.33938 24.3202L9.15662 24.4015L9.15731 24.403L9.33938 24.3202ZM9.38172 23.501L9.20938 23.3995L9.20916 23.3998L9.38172 23.501ZM10.0702 23.068V22.868H10.0624L10.0546 22.8686L10.0702 23.068ZM10.1144 23.068L10.1151 22.868H10.1144V23.068ZM9.67629 22.3103L9.7318 22.5024L9.87629 22.4607V22.3103H9.67629ZM9.67629 25.5969H9.87629V25.4465L9.7318 25.4047L9.67629 25.5969ZM9.67629 26.7708L9.64327 26.968L9.87629 27.007V26.7708H9.67629ZM9.67629 21.1364H9.87629V20.9001L9.64328 20.9391L9.67629 21.1364ZM10.085 27.6313V27.4313H10.0649L10.0452 27.4353L10.085 27.6313ZM10.0574 27.6313L10.0971 27.4353L10.0786 27.4315L10.0596 27.4313L10.0574 27.6313ZM6.47671 23.9415L6.27671 23.9405L6.27671 23.9405L6.47671 23.9415ZM13.7172 23.9415L13.9171 23.9405L13.9171 23.9405L13.7172 23.9415ZM10.1365 27.6313L10.1365 27.8313L10.1387 27.8313L10.1365 27.6313ZM23.894 10.6066L24.094 10.6066L24.094 10.4066H23.894V10.6066ZM23.8921 18.9285V19.1285H24.0921L24.0921 18.9286L23.8921 18.9285ZM19.7924 18.9285H19.5924V19.1285H19.7924V18.9285ZM19.7924 10.6066V10.4066H19.5924V10.6066H19.7924ZM23.0803 11.4315H23.2803V11.2315H23.0803V11.4315ZM23.0803 18.1056V18.3056H23.2803V18.1056H23.0803ZM20.6042 18.1056H20.4042V18.3056H20.6042V18.1056ZM20.6042 11.4315V11.2315H20.4042V11.4315H20.6042ZM16.5064 13.2362L16.7064 13.2363L16.7065 13.0362H16.5064V13.2362ZM16.5046 18.1053V18.3053H16.7045L16.7046 18.1054L16.5046 18.1053ZM13.8941 18.1053H13.6941V18.3053H13.8941V18.1053ZM13.8941 13.2362V13.0362H13.6941V13.2362H13.8941ZM17.3201 12.4113H17.5201V12.2113H17.3201V12.4113ZM17.3201 18.9287V19.1287H17.5201V18.9287H17.3201ZM13.0841 18.9287H12.8841V19.1287H13.0841V18.9287ZM13.0841 12.4113V12.2113H12.8841V12.4113H13.0841ZM9.79432 15.7352H9.99432V15.5352H9.79432V15.7352ZM7.31825 15.7352V15.5352H7.11825V15.7352H7.31825ZM7.31825 18.1054H7.11825V18.3054H7.31825V18.1054ZM9.79432 18.1054V18.3054H9.99432V18.1054H9.79432ZM6.91286 14.9102V15.1102H10.6058V14.9102V14.7102H6.91286V14.9102ZM10.6058 14.9102H10.4058V18.9284H10.6058H10.8058V14.9102H10.6058ZM10.6058 18.9284V18.7284H6.506V18.9284V19.1284H10.6058V18.9284ZM6.506 18.9284H6.706V14.9102H6.506H6.306V18.9284H6.506ZM6.506 14.9102V15.1102H6.91286V14.9102V14.7102H6.506V14.9102ZM6.91286 36.6697V36.4697H6.50601V36.6697V36.8697H6.91286V36.6697ZM6.50601 36.6697H6.70601V35.8467H6.50601H6.30601V36.6697H6.50601ZM6.50601 35.8467V36.0467H14.4278V35.8467V35.6467H6.50601V35.8467ZM14.4278 35.8467H14.2278V36.6697H14.4278H14.6278V35.8467H14.4278ZM14.4278 36.6697V36.4697H6.91286V36.6697V36.8697H14.4278V36.6697ZM6.91286 33.469V33.269H6.50601V33.469V33.669H6.91286V33.469ZM6.50601 33.469H6.70601V32.6441H6.50601H6.30601V33.469H6.50601ZM6.50601 32.6441V32.8441H14.4278V32.6441V32.4441H6.50601V32.6441ZM14.4278 32.6441H14.2278V33.4671H14.4278H14.6278V32.6441H14.4278ZM14.4278 33.4671L14.4277 33.2671L6.91281 33.269L6.91286 33.469L6.91291 33.669L14.4278 33.6671L14.4278 33.4671ZM6.91286 30.2682V30.0682H6.50601V30.2682V30.4682H6.91286V30.2682ZM6.50601 30.2682H6.70601V29.4396H6.50601H6.30601V30.2682H6.50601ZM6.50601 29.4396V29.6396H21.5357V29.4396V29.2396H6.50601V29.4396ZM21.5357 29.4396H21.3357V30.2645H21.5357H21.7357V29.4396H21.5357ZM21.5357 30.2645L21.5356 30.0645L6.91281 30.0682L6.91286 30.2682L6.91291 30.4682L21.5357 30.4645L21.5357 30.2645ZM15.5948 3.30526L15.7948 3.30236C15.7918 3.09847 15.6706 2.91226 15.4816 2.83192L15.4034 3.01598L15.3251 3.20004C15.3644 3.21675 15.3941 3.25824 15.3948 3.30816L15.5948 3.30526ZM15.4034 3.01598L15.4805 2.83148C15.2898 2.75166 15.0702 2.7946 14.9241 2.94271L15.0665 3.08316L15.2088 3.22362C15.2395 3.19257 15.285 3.18325 15.3262 3.20048L15.4034 3.01598ZM15.0665 3.08316L14.9337 2.93355L14.919 2.94661L15.0517 3.09623L15.1845 3.24585L15.1992 3.23278L15.0665 3.08316ZM15.0517 3.09623H14.8517V3.0981H15.0517H15.2517V3.09623H15.0517ZM15.0517 3.0981L14.8996 2.96822C14.7262 3.1714 14.7344 3.47551 14.9241 3.6678L15.0665 3.52735L15.2089 3.3869C15.1666 3.34403 15.1638 3.27488 15.2038 3.22797L15.0517 3.0981ZM15.0665 3.52735L14.9151 3.65803L14.9279 3.67296L15.0794 3.54228L15.2308 3.4116L15.2179 3.39667L15.0665 3.52735ZM15.0794 3.54228L14.9462 3.69152C15.098 3.82697 15.3137 3.85762 15.4956 3.77463L15.4126 3.59267L15.3295 3.41071C15.2905 3.42851 15.2448 3.42184 15.2125 3.39304L15.0794 3.54228ZM15.4126 3.59267L15.4969 3.774C15.6816 3.68807 15.7948 3.50416 15.7948 3.30339H15.5948H15.3948C15.3948 3.35272 15.3681 3.39277 15.3282 3.41134L15.4126 3.59267ZM15.5948 3.30339L15.3948 3.30319L15.3948 3.30506L15.5948 3.30526L15.7948 3.30546L15.7948 3.3036L15.5948 3.30339ZM16.0771 2.50087L15.9338 2.64041C16.2876 3.00366 16.2891 3.5865 15.9415 3.95112L16.0863 4.0891L16.2311 4.22709C16.7267 3.70706 16.7245 2.879 16.2204 2.36134L16.0771 2.50087ZM16.0863 4.0891L15.9416 3.95111C15.5936 4.31612 15.0232 4.3326 14.6562 3.98964L14.5197 4.13576L14.3831 4.28189C14.9108 4.77504 15.7322 4.75046 16.2311 4.2271L16.0863 4.0891ZM14.5197 4.13576L14.6571 3.99049L14.6295 3.96436L14.4921 4.10963L14.3546 4.25491L14.3822 4.28104L14.5197 4.13576ZM14.4921 4.10963L14.6342 3.96888C14.2807 3.61206 14.2716 3.0343 14.6129 2.66681L14.4663 2.53072L14.3197 2.39462C13.8326 2.91924 13.8456 3.74124 14.35 4.25039L14.4921 4.10963ZM14.4663 2.53072L14.6134 2.66618L14.6392 2.63818L14.4921 2.50272L14.3449 2.36726L14.3192 2.39526L14.4663 2.53072ZM14.4921 2.50272H14.6921V2.50086H14.4921H14.2921V2.50272H14.4921ZM14.4921 2.50086L14.6345 2.64131C14.8068 2.46657 15.0409 2.36865 15.2855 2.36865V2.16865V1.96865C14.9337 1.96865 14.5971 2.10962 14.3497 2.36041L14.4921 2.50086ZM15.2855 2.16865V2.36865C15.5281 2.36865 15.7622 2.46646 15.9347 2.64132L16.0771 2.50087L16.2195 2.36042C15.9723 2.10977 15.6357 1.96865 15.2855 1.96865V2.16865ZM8.34523 8.61692L8.3495 8.41697L5.72984 8.36098L5.72556 8.56093L5.72129 8.76089L8.34095 8.81688L8.34523 8.61692ZM5.72556 8.56093L5.7249 8.36093C5.10368 8.36298 4.50909 8.61656 4.07416 9.0657L4.21784 9.20483L4.36151 9.34396C4.72182 8.97188 5.21345 8.76262 5.72622 8.76093L5.72556 8.56093ZM4.21784 9.20483L4.08229 9.05777L4.06204 9.07644L4.19759 9.2235L4.33313 9.37056L4.35338 9.3519L4.21784 9.20483ZM4.19759 9.2235H3.99759V9.22536H4.19759H4.39759V9.2235H4.19759ZM4.19759 9.22536L4.05295 9.08723C3.62485 9.5355 3.38654 10.1355 3.38454 10.7588L3.58454 10.7595L3.78454 10.7601C3.78622 10.2375 3.98608 9.73642 4.34222 9.36349L4.19759 9.22536ZM3.58454 10.7595H3.38454V37.42H3.58454H3.78454V10.7595H3.58454ZM3.58454 37.42H3.38454C3.38454 38.047 3.63141 38.6519 4.06991 39.0964L4.21229 38.956L4.35467 38.8155C3.99055 38.4464 3.78454 37.9427 3.78454 37.42H3.58454ZM4.21229 38.956L4.0699 39.0964C4.50836 39.5409 5.10457 39.7926 5.72619 39.7905L5.72553 39.5905L5.72487 39.3905C5.21249 39.3922 4.71887 39.1847 4.35468 38.8155L4.21229 38.956ZM5.72553 39.5905V39.7905H20.2302V39.5905V39.3905H5.72553V39.5905ZM20.2302 39.5905H20.4302V34.6952H20.2302H20.0302V39.5905H20.2302ZM20.2302 34.6952H20.4302C20.4302 33.5674 21.332 32.6556 22.4375 32.6556V32.4556V32.2556C21.1055 32.2556 20.0302 33.3521 20.0302 34.6952H20.2302ZM22.4375 32.4556L22.4386 32.6556L26.8679 32.6295L26.8668 32.4295L26.8656 32.2295L22.4363 32.2556L22.4375 32.4556ZM26.8668 32.4295L27.0668 32.4295L27.0686 10.7335L26.8686 10.7335L26.6686 10.7335L26.6668 32.4295L26.8668 32.4295ZM26.8686 10.7335H27.0686C27.0686 10.1063 26.8216 9.50338 26.3832 9.05897L26.2408 9.19943L26.0985 9.33988C26.4627 9.70913 26.6686 10.2111 26.6686 10.7335H26.8686ZM26.2408 9.19943L26.3832 9.05898C25.9445 8.61421 25.3502 8.36489 24.7276 8.36489V8.56489V8.76489C25.2427 8.76489 25.7345 8.97093 26.0985 9.33988L26.2408 9.19943ZM24.7276 8.56489V8.36489H24.7V8.56489V8.76489H24.7276V8.56489ZM24.7 8.56489L24.6957 8.36493L22.0043 8.42279L22.0086 8.62274L22.0129 8.8227L24.7043 8.76484L24.7 8.56489ZM22.0086 8.62274V8.42274H8.34516V8.62274V8.82274H22.0086V8.62274ZM8.34516 8.62274L8.54514 8.6252L8.54521 8.61938L8.34523 8.61692L8.14524 8.61446L8.14517 8.62028L8.34516 8.62274ZM5.73659 7.74163L5.7322 7.94158L8.02602 7.99197L8.03041 7.79202L8.0348 7.59207L5.74098 7.54168L5.73659 7.74163ZM8.03041 7.79202L8.22898 7.81592L8.47199 5.79654L8.27342 5.77264L8.07485 5.74875L7.83184 7.76813L8.03041 7.79202ZM8.27342 5.77264L8.27548 5.57265L3.21109 5.5204L3.20903 5.72039L3.20696 5.92038L8.27136 5.97263L8.27342 5.77264ZM3.20903 5.72039V5.92039H3.21087V5.72039V5.52039H3.20903V5.72039ZM3.21087 5.72039L3.20958 5.52039C2.5745 5.52447 1.96785 5.78123 1.52023 6.23502L1.66261 6.37547L1.805 6.51592C2.17845 6.13732 2.68373 5.92377 3.21215 5.92038L3.21087 5.72039ZM1.66261 6.37547L1.52247 6.23278C1.07171 6.67548 0.816774 7.28271 0.812765 7.91767L1.01276 7.91893L1.21276 7.9202C1.2161 7.39053 1.42877 6.88545 1.80275 6.51816L1.66261 6.37547ZM1.01276 7.91893H0.812761V40.2383H1.01276H1.21276V7.91893H1.01276ZM1.01276 40.2383L0.812762 40.239C0.814777 40.8598 1.06654 41.4546 1.51067 41.8844L1.64975 41.7407L1.78882 41.597C1.42291 41.2429 1.21443 40.7515 1.21276 40.2377L1.01276 40.2383ZM1.64975 41.7407L1.50989 41.8836C1.96684 42.3306 2.57478 42.5789 3.21087 42.5789V42.3789V42.1789C2.67978 42.1789 2.17212 41.9719 1.7896 41.5977L1.64975 41.7407ZM3.21087 42.3789V42.5789H27.2462V42.3789V42.1789H3.21087V42.3789ZM27.2462 42.3789L27.2456 42.5789C27.8658 42.581 28.4637 42.336 28.9064 41.8933L28.765 41.7519L28.6236 41.6104C28.2563 41.9777 27.7607 42.1806 27.2469 42.1789L27.2462 42.3789ZM28.765 41.7519L28.9064 41.8933C29.3442 41.4557 29.5874 40.8575 29.5854 40.2376L29.3854 40.2383L29.1854 40.2389C29.1871 40.7538 28.9849 41.2493 28.6236 41.6104L28.765 41.7519ZM29.3854 40.2383H29.5854V7.89309H29.3854H29.1854V40.2383H29.3854ZM29.3854 7.89309H29.5854C29.5854 7.26414 29.3385 6.66114 28.9001 6.21667L28.7577 6.35712L28.6153 6.49757C28.9795 6.86677 29.1854 7.36868 29.1854 7.89309H29.3854ZM28.7577 6.35712L28.9001 6.21667C28.4613 5.7719 27.8671 5.52258 27.2444 5.52258V5.72258V5.92258C27.7595 5.92258 28.2514 6.12863 28.6153 6.49757L28.7577 6.35712ZM27.2444 5.72258L27.2439 5.52258L22.1668 5.53565L22.1673 5.73565L22.1678 5.93565L27.245 5.92258L27.2444 5.72258ZM22.1673 5.73565L21.9683 5.75558L22.1745 7.81414L22.3735 7.79421L22.5725 7.77428L22.3663 5.71572L22.1673 5.73565ZM22.3735 7.79421L22.3777 7.99416L24.6862 7.94564L24.682 7.74568L24.6778 7.54573L22.3693 7.59425L22.3735 7.79421ZM24.682 7.74568V7.94568H24.7262V7.74568V7.54568H24.682V7.74568ZM24.7262 7.74568L24.5838 7.88612L24.5857 7.88799L24.7281 7.74755L24.8705 7.60711L24.8686 7.60525L24.7262 7.74568ZM24.7281 7.74755V7.94755C26.2443 7.94755 27.4809 9.19553 27.4809 10.7411H27.6809H27.8809C27.8809 8.97963 26.4702 7.54755 24.7281 7.54755V7.74755ZM27.6809 10.7411H27.4809V32.8384H27.6809H27.8809V10.7411H27.6809ZM27.6809 32.8384L27.4809 32.8359C27.4776 33.0998 27.4238 33.3627 27.3243 33.6089L27.5097 33.6838L27.6951 33.7588C27.8129 33.4675 27.8769 33.1556 27.8809 32.841L27.6809 32.8384ZM27.5097 33.6838L27.3231 33.612C27.2271 33.8612 27.0855 34.0904 26.9064 34.289L27.055 34.4229L27.2036 34.5568C27.4148 34.3225 27.5825 34.0514 27.6964 33.7557L27.5097 33.6838ZM27.055 34.4229L26.9074 34.2879L22.1357 39.5063L22.2833 39.6412L22.4309 39.7762L27.2026 34.5579L27.055 34.4229ZM22.2833 39.6412L22.1364 39.5055C21.9362 39.7222 21.6989 39.8974 21.4344 40.0246L21.5211 40.2049L21.6078 40.3851C21.9177 40.2361 22.1959 40.0306 22.4302 39.7769L22.2833 39.6412ZM21.5211 40.2049L21.4336 40.025C21.1835 40.1467 20.9106 40.2124 20.6332 40.2158L20.6356 40.4158L20.6381 40.6157C20.9755 40.6116 21.3065 40.5317 21.6086 40.3847L21.5211 40.2049ZM20.6356 40.4158V40.2158H5.72569V40.4158V40.6158H20.6356V40.4158ZM5.72569 40.4158V40.2158C4.99725 40.2158 4.29731 39.9221 3.78044 39.3981L3.63805 39.5386L3.49567 39.6791C4.08706 40.2786 4.88929 40.6158 5.72569 40.6158V40.4158ZM3.63805 39.5386L3.78044 39.3981C3.26347 38.874 2.97295 38.1633 2.97466 37.4226L2.77467 37.4222L2.57467 37.4217C2.57271 38.2675 2.90438 39.0796 3.49567 39.679L3.63805 39.5386ZM2.77467 37.4222H2.97467V10.7616H2.77467H2.57467V37.4222H2.77467ZM2.77467 10.7616H2.97467C2.97467 10.0251 3.25699 9.31891 3.76232 8.79095L3.61784 8.65266L3.47335 8.51437C2.89617 9.1174 2.57467 9.92296 2.57467 10.7616H2.77467ZM3.61784 8.65266L3.76572 8.78731L3.78781 8.76305L3.63993 8.6284L3.49205 8.49375L3.46995 8.51801L3.61784 8.65266ZM3.63993 8.6284V8.8284H3.64177V8.6284V8.4284H3.63993V8.6284ZM3.64177 8.6284L3.78554 8.76742C4.29691 8.23859 4.99629 7.94002 5.72573 7.94002V7.74002V7.54002C4.88665 7.54002 4.08386 7.88348 3.49799 8.48937L3.64177 8.6284ZM5.72573 7.74002L5.6963 7.93784L5.70717 7.93945L5.73659 7.74163L5.76601 7.54381L5.75515 7.54219L5.72573 7.74002ZM26.8024 33.2507L26.6109 33.1932C26.5994 33.2313 26.5867 33.2683 26.5728 33.3028L26.7582 33.3776L26.9437 33.4525C26.9629 33.4049 26.9796 33.356 26.994 33.3082L26.8024 33.2507ZM26.7582 33.3776L26.5719 33.3049C26.5103 33.4627 26.4231 33.6066 26.312 33.7323L26.4618 33.8647L26.6117 33.9972C26.7546 33.8355 26.8662 33.6509 26.9445 33.4504L26.7582 33.3776ZM26.4618 33.8647L26.3143 33.7297L21.5407 38.9461L21.6882 39.0811L21.8358 39.2162L26.6094 33.9998L26.4618 33.8647ZM21.6882 39.0811L21.5399 38.9469C21.4137 39.0864 21.2595 39.2017 21.0907 39.2839L21.1783 39.4637L21.2659 39.6435C21.48 39.5392 21.6756 39.3931 21.8365 39.2153L21.6882 39.0811ZM21.1783 39.4637L21.094 39.2824C21.0505 39.3026 21.0139 39.3186 20.9803 39.3295L21.0421 39.5197L21.1038 39.71C21.1623 39.691 21.2177 39.6659 21.2626 39.6451L21.1783 39.4637ZM21.0421 39.5197H21.2421V34.6951H21.0421H20.8421V39.5197H21.0421ZM21.0421 34.6951H21.2421C21.2421 34.3721 21.3689 34.0625 21.5931 33.8352L21.4508 33.6947L21.3084 33.5543C21.0098 33.857 20.8421 34.2678 20.8421 34.6951H21.0421ZM21.4508 33.6947L21.5931 33.8352C21.8173 33.608 22.1214 33.4804 22.4375 33.4804V33.2804V33.0804C22.0135 33.0804 21.6071 33.2515 21.3084 33.5543L21.4508 33.6947ZM22.4375 33.2804L22.4387 33.4804L26.8036 33.4543L26.8024 33.2543L26.8012 33.0543L22.4363 33.0804L22.4375 33.2804ZM26.8024 33.2543L27.0024 33.2551L27.0024 33.2516L26.8024 33.2507L26.6024 33.2499L26.6024 33.2534L26.8024 33.2543ZM8.40781 4.95331L8.4099 4.75332L3.21307 4.6992L3.21099 4.89919L3.20891 5.09918L8.40573 5.1533L8.40781 4.95331ZM3.21099 4.89919L3.21005 4.69919C2.36138 4.70317 1.54864 5.04573 0.948298 5.65038L1.09022 5.7913L1.23215 5.93221C1.75845 5.40213 2.47003 5.10267 3.21193 5.09919L3.21099 4.89919ZM1.09022 5.7913L0.949459 5.64922C0.344531 6.24858 0.00313879 7.06648 -0.000779145 7.91984L0.199219 7.92076L0.399217 7.92168C0.402651 7.17371 0.701919 6.45757 1.23099 5.93337L1.09022 5.7913ZM0.199219 7.92076H-0.000781253V40.2382H0.199219H0.399219V7.92076H0.199219ZM0.199219 40.2382L-0.000780712 40.2387C0.0011846 41.0835 0.343118 41.8931 0.947478 42.4778L1.08655 42.3341L1.22562 42.1904C0.699645 41.6815 0.400935 40.9755 0.399218 40.2378L0.199219 40.2382ZM1.08655 42.3341L0.946956 42.4773C1.55482 43.0698 2.36517 43.4001 3.21099 43.4001V43.2001V43.0001C2.46991 43.0001 1.75962 42.7108 1.22614 42.1909L1.08655 42.3341ZM3.21099 43.2001V43.4001H27.2464V43.2001V43.0001H3.21099V43.2001ZM27.2464 43.2001L27.2459 43.4001C28.0798 43.4021 28.8819 43.071 29.4754 42.4773L29.334 42.336L29.1925 42.1946C28.6741 42.7132 27.974 43.0018 27.2468 43.0001L27.2464 43.2001ZM29.334 42.336L29.4754 42.4774C30.0674 41.8852 30.3992 41.0784 30.3992 40.2382H30.1992H29.9992C29.9992 40.9732 29.7089 41.6781 29.1925 42.1946L29.334 42.336ZM30.1992 40.2382H30.3992V7.89305H30.1992H29.9992V40.2382H30.1992ZM30.1992 7.89305H30.3992C30.3992 7.04583 30.0677 6.23382 29.4764 5.63432L29.334 5.77477L29.1916 5.91521C29.7085 6.43926 29.9992 7.15012 29.9992 7.89305H30.1992ZM29.334 5.77477L29.4764 5.63432C28.885 5.03478 28.0826 4.69748 27.2459 4.69948L27.2464 4.89948L27.2468 5.09948C27.9749 5.09774 28.6747 5.3912 29.1916 5.91522L29.334 5.77477ZM27.2464 4.89948L27.2459 4.69948L22.0453 4.71254L22.0458 4.91254L22.0463 5.11254L27.2469 5.09947L27.2464 4.89948ZM22.0458 4.91254L22.2341 4.84522C22.0161 4.23522 21.4616 3.81474 20.8194 3.7742L20.8068 3.9738L20.7942 4.1734C21.275 4.20376 21.6926 4.51858 21.8574 4.97986L22.0458 4.91254ZM20.8068 3.9738L20.8125 3.77388C20.0928 3.75325 19.3387 3.77007 18.6235 3.77007V3.97007V4.17007C19.3515 4.17007 20.0886 4.15329 20.8011 4.17372L20.8068 3.9738ZM18.6235 3.97007V4.17007H18.6253V3.97007V3.77007H18.6235V3.97007ZM18.6253 3.97007L18.6113 3.77055C18.591 3.77198 18.5683 3.76881 18.541 3.75857L18.4707 3.9458L18.4004 4.13304C18.4725 4.16012 18.5528 4.17562 18.6392 4.16958L18.6253 3.97007ZM18.4707 3.9458L18.5433 3.75947C18.5211 3.75079 18.499 3.73635 18.4823 3.71951L18.34 3.85995L18.1976 4.00039C18.2546 4.05821 18.3245 4.10349 18.398 4.13214L18.4707 3.9458ZM18.34 3.85995L18.4841 3.72127C18.4513 3.68722 18.4336 3.63803 18.438 3.58791L18.2387 3.57067L18.0394 3.55343C18.0254 3.71608 18.0813 3.87964 18.1958 3.99863L18.34 3.85995ZM18.2387 3.57067L18.4379 3.58814C18.4772 3.14041 18.4222 2.68912 18.2791 2.2639L18.0896 2.32768L17.9 2.39146C18.0257 2.76509 18.0739 3.16108 18.0395 3.5532L18.2387 3.57067ZM18.0896 2.32768L18.2791 2.26392C18.1342 1.83304 17.9014 1.43451 17.6003 1.09558L17.4508 1.22841L17.3012 1.36123C17.5672 1.66061 17.7725 2.01233 17.9 2.39144L18.0896 2.32768ZM17.4508 1.22841L17.6008 1.09612C17.3032 0.758683 16.9424 0.486281 16.5362 0.295293L16.4511 0.476287L16.366 0.657281C16.722 0.824627 17.0387 1.06358 17.3008 1.3607L17.4508 1.22841ZM16.4511 0.476287L16.5365 0.295428C16.1348 0.105763 15.6978 0.00606795 15.2554 9.14811e-05L15.2527 0.200073L15.25 0.400055C15.6359 0.405268 16.0164 0.492212 16.3657 0.657145L16.4511 0.476287ZM15.2527 0.200073V7.32392e-05H15.2416V0.200073V0.400073H15.2527V0.200073ZM15.2416 0.200073L15.239 9.04231e-05C14.3278 0.0120353 13.4648 0.410213 12.8554 1.09549L13.0049 1.2284L13.1543 1.3613C13.69 0.758862 14.447 0.410508 15.2442 0.400056L15.2416 0.200073ZM13.0049 1.2284L12.8552 1.09577C12.56 1.4289 12.3396 1.82195 12.2097 2.24892L12.4011 2.30713L12.5924 2.36534C12.7055 1.99355 12.8974 1.65124 13.1546 1.36103L13.0049 1.2284ZM12.4011 2.30713L12.2097 2.24892C12.0806 2.67331 12.0359 3.11867 12.0729 3.56115L12.2722 3.54448L12.4715 3.5278C12.4386 3.13418 12.4785 2.73973 12.5924 2.36534L12.4011 2.30713ZM12.2722 3.54448H12.0722V3.57061H12.2722H12.4722V3.54448H12.2722ZM12.2722 3.57061L12.0733 3.59163C12.0754 3.61149 12.0728 3.635 12.0641 3.65874L12.2519 3.72738L12.4398 3.79601C12.4679 3.71898 12.48 3.63423 12.4711 3.54959L12.2722 3.57061ZM12.2519 3.72738L12.0641 3.65875C12.047 3.7055 12.0113 3.74181 11.9657 3.76015L12.0402 3.94574L12.1148 4.13132C12.2643 4.07128 12.3832 3.95082 12.4398 3.79601L12.2519 3.72738ZM12.0402 3.94574L11.9699 3.7585C11.9426 3.76875 11.9199 3.77191 11.8995 3.77049L11.8856 3.97L11.8716 4.16951C11.9581 4.17555 12.0384 4.16005 12.1105 4.13297L12.0402 3.94574ZM11.8856 3.97L11.8907 3.77006C11.1515 3.75133 10.3773 3.77186 9.64517 3.77186V3.97186V4.17186C10.3932 4.17186 11.1469 4.15134 11.8805 4.16993L11.8856 3.97ZM9.64517 3.97186L9.50275 4.11228L9.50459 4.11415L9.64701 3.97373L9.78943 3.83331L9.78759 3.83145L9.64517 3.97186ZM9.64701 3.97373L9.63295 3.77423C9.23831 3.80204 8.86899 3.97755 8.59705 4.26821L8.74309 4.40485L8.88914 4.54149C9.09215 4.32451 9.3672 4.19395 9.66107 4.17324L9.64701 3.97373ZM8.74309 4.40485L8.59818 4.26701C8.42963 4.4442 8.30025 4.65506 8.21903 4.88728L8.40781 4.95331L8.5966 5.01934C8.65897 4.84101 8.75831 4.67904 8.88801 4.54269L8.74309 4.40485ZM9.32644 4.97757L9.4751 5.11136C9.53564 5.04408 9.62093 5.00243 9.71322 4.99381L9.69462 4.79468L9.67603 4.59554C9.4885 4.61305 9.30869 4.6983 9.17777 4.84379L9.32644 4.97757ZM9.69462 4.79468L9.69497 4.99468L11.8434 4.99094L11.843 4.79094L11.8427 4.59094L9.69428 4.59468L9.69462 4.79468ZM11.843 4.79094H11.643V4.79281H11.843H12.043V4.79094H11.843ZM11.843 4.79281L11.832 4.99251C12.2292 5.01439 12.6167 4.86124 12.8941 4.57569L12.7506 4.43634L12.6071 4.29699C12.4096 4.50041 12.1343 4.60856 11.854 4.59311L11.843 4.79281ZM12.7506 4.43634L12.8946 4.57515C13.1717 4.28774 13.3133 3.89583 13.2833 3.49568L13.0838 3.51065L12.8844 3.52562C12.9059 3.81222 12.8045 4.09223 12.6066 4.29754L12.7506 4.43634ZM13.0838 3.51065L13.2827 3.48999L13.2791 3.45453L13.0801 3.47519L12.8812 3.49584L12.8849 3.5313L13.0838 3.51065ZM13.0801 3.47519L13.2793 3.45743C13.254 3.17274 13.2828 2.88487 13.3655 2.61105L13.174 2.55321L12.9826 2.49538C12.8849 2.81879 12.8511 3.15801 12.8809 3.49294L13.0801 3.47519ZM13.174 2.55321L13.3655 2.61087C13.4436 2.35166 13.5782 2.1122 13.7581 1.9096L13.6085 1.77682L13.4589 1.64405C13.2411 1.88941 13.0775 2.17995 12.9825 2.49556L13.174 2.55321ZM13.6085 1.77682L13.7583 1.90937C14.1389 1.47927 14.6804 1.23113 15.2505 1.22095L15.2469 1.02098L15.2434 0.821009C14.5615 0.833187 13.9139 1.13002 13.4587 1.64427L13.6085 1.77682ZM15.2469 1.02098L15.2444 1.22096C15.5134 1.22433 15.7801 1.28662 16.0277 1.40197L16.1122 1.22067L16.1966 1.03938C15.8994 0.900907 15.577 0.825091 15.2494 0.820993L15.2469 1.02098ZM16.1122 1.22067L16.0266 1.40143C16.2817 1.52225 16.51 1.69412 16.6982 1.90871L16.8485 1.77686L16.9989 1.64501C16.7747 1.38925 16.5023 1.18411 16.1978 1.03992L16.1122 1.22067ZM16.8485 1.77686L16.6993 1.91003C16.8915 2.12533 17.0399 2.37833 17.1343 2.6536L17.3235 2.5887L17.5127 2.5238C17.4009 2.19812 17.2254 1.8987 16.9978 1.64369L16.8485 1.77686ZM17.3235 2.5887L17.1337 2.65189C17.223 2.91988 17.258 3.20212 17.2329 3.48158L17.4321 3.49944L17.6313 3.5173C17.6615 3.1809 17.6192 2.84354 17.5133 2.52551L17.3235 2.5887ZM17.4321 3.49944H17.2321V3.50504H17.4321H17.6321V3.49944H17.4321ZM17.4321 3.50504L17.2327 3.49007C17.2027 3.88982 17.344 4.28402 17.6219 4.57009L17.7653 4.43074L17.9088 4.29138C17.7117 4.08849 17.61 3.80707 17.6316 3.52001L17.4321 3.50504ZM17.7653 4.43074L17.6213 4.56954C17.8992 4.85777 18.2853 5.00877 18.6821 4.9869L18.6711 4.7872L18.6601 4.58751C18.3794 4.60298 18.1064 4.49641 17.9093 4.29193L17.7653 4.43074ZM18.6711 4.7872L18.6707 4.9872L20.762 4.99094L20.7624 4.79094L20.7628 4.59094L18.6714 4.5872L18.6711 4.7872ZM20.7624 4.79094L20.7499 4.99055C20.9463 5.00283 21.1052 5.16053 21.1188 5.36244L21.3184 5.34898L21.5179 5.33553C21.491 4.93645 21.175 4.61637 20.7749 4.59133L20.7624 4.79094ZM21.3184 5.34898L21.1194 5.36875L21.3624 7.8155L21.5614 7.79574L21.7604 7.77597L21.5174 5.32922L21.3184 5.34898ZM21.5614 7.79574V7.59574H8.84761V7.79574V7.99574H21.5614V7.79574ZM8.84761 7.79574L9.04617 7.81968L9.33335 5.43824L9.13479 5.4143L8.93623 5.39035L8.64905 7.77179L8.84761 7.79574ZM9.13479 5.4143L9.33449 5.42524L9.33633 5.39165L9.13663 5.3807L8.93693 5.36975L8.93509 5.40335L9.13479 5.4143ZM9.13663 5.3807L8.99425 5.52116L8.99609 5.52302L9.13847 5.38257L9.28086 5.24211L9.27902 5.24025L9.13663 5.3807ZM9.13847 5.38257L9.33758 5.4015C9.34804 5.29145 9.39496 5.19028 9.46984 5.11307L9.32625 4.97384L9.18267 4.83462C9.044 4.97763 8.95837 5.16387 8.93937 5.36364L9.13847 5.38257ZM9.32625 4.97384L9.12649 4.98365L9.12668 4.98738L9.32644 4.97757L9.5262 4.96777L9.52601 4.96404L9.32625 4.97384ZM23.0803 23.9545L22.8803 23.9542C22.8786 25.3382 21.8313 26.4851 20.4772 26.5976L20.4938 26.7969L20.5103 26.9962C22.076 26.8661 23.2784 25.542 23.2803 23.9547L23.0803 23.9545ZM20.4938 26.7969L20.4772 26.5976C19.1218 26.7101 17.906 25.7495 17.6831 24.3851L17.4857 24.4173L17.2883 24.4495C17.5441 26.0152 18.9423 27.1263 20.5103 26.9962L20.4938 26.7969ZM17.4857 24.4173V24.6173H18.6418V24.4173V24.2173H17.4857V24.4173ZM18.6418 24.4173L18.4493 24.4716C18.634 25.1271 19.1499 25.6345 19.8036 25.8018L19.8531 25.608L19.9027 25.4143C19.3892 25.2829 18.9809 24.8833 18.8343 24.3631L18.6418 24.4173ZM19.8531 25.608L19.8037 25.8018C20.4602 25.9692 21.1529 25.7659 21.6201 25.2735L21.475 25.1358L21.3299 24.9982C20.9613 25.3867 20.4169 25.5454 19.9026 25.4142L19.8531 25.608ZM21.475 25.1358L21.6198 25.2738C22.0891 24.7813 22.259 24.0732 22.0723 23.4198L21.88 23.4748L21.6877 23.5298C21.836 24.0485 21.7004 24.6094 21.3302 24.9979L21.475 25.1358ZM21.88 23.4748L22.0722 23.4194C21.8833 22.7637 21.3631 22.2602 20.7072 22.0992L20.6595 22.2934L20.6118 22.4876C21.1266 22.614 21.538 23.0101 21.6878 23.5302L21.88 23.4748ZM20.6595 22.2934L20.8594 22.2881L20.8281 21.1179L20.6282 21.1232L20.4283 21.1286L20.4595 22.2987L20.6595 22.2934ZM20.6282 21.1232V20.9232H20.6263V21.1232V21.3232H20.6282V21.1232ZM20.6263 21.1232L20.6002 21.3215C21.9014 21.4929 22.8785 22.6174 22.8785 23.9544H23.0785H23.2785C23.2785 22.4211 22.1569 21.1231 20.6525 20.9249L20.6263 21.1232ZM23.0785 23.9544L23.0743 24.1544L23.0762 24.1544L23.0803 23.9545L23.0844 23.7545L23.0826 23.7545L23.0785 23.9544ZM19.8182 21.1364L19.6182 21.1417L19.6495 22.3045L19.8495 22.2991L20.0494 22.2937L20.0181 21.131L19.8182 21.1364ZM19.8495 22.2991H20.0495V22.2972H19.8495H19.6495V22.2991H19.8495ZM19.8495 22.2972L19.7992 22.1036C19.4704 22.189 19.1693 22.3602 18.9296 22.6053L19.0726 22.7451L19.2156 22.885C19.403 22.6933 19.6394 22.5584 19.8997 22.4908L19.8495 22.2972ZM19.0726 22.7451L18.9251 22.61L18.9012 22.6362L19.0487 22.7713L19.1961 22.9063L19.2201 22.8802L19.0726 22.7451ZM19.0487 22.7713V22.9713H19.0505V22.7713V22.5713H19.0487V22.7713ZM19.0505 22.7713L18.9058 22.6332C18.6625 22.8882 18.4962 23.2072 18.4224 23.5504L18.6179 23.5925L18.8134 23.6345C18.8721 23.3618 19.004 23.1097 19.1952 22.9093L19.0505 22.7713ZM18.6179 23.5925V23.3925H17.471V23.5925V23.7925H18.6179V23.5925ZM17.471 23.5925L17.6694 23.6175C17.8168 22.4478 18.706 21.5189 19.8504 21.3319L19.8182 21.1345L19.7859 20.9371C18.4635 21.1532 17.4417 22.2251 17.2725 23.5674L17.471 23.5925ZM19.8182 21.1345L19.6182 21.1314L19.6182 21.1332L19.8182 21.1364L20.0181 21.1395L20.0182 21.1377L19.8182 21.1345ZM22.8299 21.3528L22.6877 21.4934C23.4933 22.3084 23.8474 23.479 23.6312 24.6151L23.8277 24.6525L24.0242 24.6899C24.2647 23.4259 23.8713 22.1218 22.9722 21.2122L22.8299 21.3528ZM23.8277 24.6525L23.6312 24.6151C23.4152 25.7509 22.6576 26.7016 21.6109 27.1546L21.6904 27.3381L21.7698 27.5217C22.9397 27.0154 23.7837 25.9541 24.0242 24.6899L23.8277 24.6525ZM21.6904 27.3381L21.6109 27.1546C20.5643 27.6075 19.3633 27.5053 18.407 26.8796L18.2975 27.047L18.188 27.2143C19.2568 27.9137 20.5999 28.028 21.7698 27.5217L21.6904 27.3381ZM18.2975 27.047L18.407 26.8796C17.4504 26.2536 16.8613 25.1859 16.837 24.0287L16.637 24.0329L16.437 24.0371C16.4642 25.3247 17.1196 26.5152 18.188 27.2143L18.2975 27.047ZM16.637 24.0329H16.837V24.0049H16.637H16.437V24.0329H16.637ZM16.637 24.0049H16.837V23.9526H16.637H16.437V24.0049H16.637ZM16.637 23.9526H16.837C16.837 22.5446 17.6751 21.2779 18.9549 20.7403L18.8774 20.5559L18.8 20.3715C17.3698 20.9723 16.437 22.3856 16.437 23.9526H16.637ZM18.8774 20.5559L18.9549 20.7403C20.2341 20.2029 21.7081 20.4986 22.6874 21.4932L22.8299 21.3528L22.9724 21.2125C21.8788 20.1018 20.2306 19.7704 18.8 20.3715L18.8774 20.5559ZM21.1381 23.9545L20.9381 23.9532C20.9367 24.18 20.8247 24.3927 20.6402 24.5193L20.7534 24.6842L20.8665 24.8491C21.1607 24.6473 21.3359 24.3113 21.3381 23.9558L21.1381 23.9545ZM20.7534 24.6842L20.6402 24.5193C20.4566 24.6453 20.2236 24.6697 20.0185 24.5866L19.9433 24.7719L19.8682 24.9573C20.197 25.0906 20.5715 25.0516 20.8665 24.8491L20.7534 24.6842ZM19.9433 24.7719L20.018 24.5864C19.8109 24.503 19.657 24.3214 19.6085 24.1002L19.4131 24.143L19.2178 24.1858C19.2944 24.5356 19.5382 24.8244 19.8686 24.9574L19.9433 24.7719ZM19.4131 24.143L19.6085 24.1002C19.5598 23.8781 19.623 23.6463 19.7753 23.4819L19.6285 23.346L19.4818 23.2102C19.24 23.4712 19.1413 23.8367 19.2178 24.1858L19.4131 24.143ZM19.6285 23.346L19.7633 23.4938L19.7817 23.477L19.6469 23.3292L19.5121 23.1815L19.4937 23.1983L19.6285 23.346ZM19.6469 23.3292H19.8469V23.3274H19.6469H19.4469V23.3292H19.6469ZM19.6469 23.3274L19.7898 23.4673C19.9813 23.2718 20.2715 23.2133 20.5215 23.3178L20.5987 23.1333L20.6758 22.9488C20.2742 22.7808 19.8097 22.8753 19.504 23.1875L19.6469 23.3274ZM20.5987 23.1333L20.521 23.3176C20.7731 23.4238 20.9381 23.6731 20.9381 23.9545H21.1381H21.3381C21.3381 23.5154 21.0796 23.1189 20.6764 22.949L20.5987 23.1333ZM10.49 21.1214L10.4642 21.3197C11.769 21.4894 12.7495 22.6158 12.7495 23.9545H12.9495H13.1495C13.1495 22.419 12.024 21.1192 10.5158 20.9231L10.49 21.1214ZM12.9495 23.9545H12.7495C12.7495 25.293 11.7692 26.4177 10.4642 26.5874L10.49 26.7857L10.5158 26.9841C12.0238 26.788 13.1495 25.4901 13.1495 23.9545H12.9495ZM10.49 26.7857H10.69V25.623H10.49H10.29V26.7857H10.49ZM10.49 25.623L10.5326 25.8184C10.8877 25.741 11.2116 25.561 11.4669 25.3L11.3239 25.1601L11.181 25.0203C10.9798 25.2259 10.7255 25.3669 10.4474 25.4276L10.49 25.623ZM11.3239 25.1601L11.4663 25.3006C11.9539 24.8062 12.1342 24.0835 11.9413 23.4156L11.7492 23.4711L11.557 23.5266C11.7102 24.057 11.5665 24.6294 11.1815 25.0197L11.3239 25.1601ZM11.7492 23.4711L11.9412 23.4152C11.7462 22.7451 11.2056 22.2352 10.5305 22.0887L10.4881 22.2841L10.4457 22.4796C10.9747 22.5944 11.4024 22.9952 11.5571 23.527L11.7492 23.4711ZM10.4881 22.2841H10.6881V21.1214H10.4881H10.2881V22.2841H10.4881ZM10.4881 21.1214L10.4857 21.3214L10.4875 21.3214L10.49 21.1214L10.4924 20.9214L10.4906 20.9214L10.4881 21.1214ZM10.1181 23.068V23.268H10.1347V23.068V22.868H10.1181V23.068ZM10.1347 23.068V23.268C10.4033 23.268 10.65 23.4337 10.7561 23.691L10.941 23.6148L11.1259 23.5386C10.9596 23.1352 10.5693 22.868 10.1347 22.868V23.068ZM10.941 23.6148L10.7557 23.6902C10.8605 23.9475 10.8023 24.2428 10.6095 24.4368L10.7514 24.5778L10.8932 24.7188C11.2012 24.4089 11.2903 23.9427 11.1263 23.5394L10.941 23.6148ZM10.7514 24.5778L10.609 24.4374C10.4527 24.5958 10.2305 24.6657 10.0147 24.6257L9.9782 24.8223L9.94171 25.0189C10.2892 25.0834 10.6451 24.9704 10.8938 24.7183L10.7514 24.5778ZM9.9782 24.8223L10.0134 24.6254C9.7985 24.587 9.61474 24.4427 9.52144 24.2375L9.33938 24.3202L9.15731 24.403C9.30333 24.7242 9.59457 24.9568 9.94298 25.0192L9.9782 24.8223ZM9.33938 24.3202L9.52213 24.239C9.42985 24.0314 9.4422 23.7933 9.55428 23.6021L9.38172 23.501L9.20916 23.3998C9.03037 23.705 9.01326 24.079 9.15662 24.4015L9.33938 24.3202ZM9.38172 23.501L9.55406 23.6024C9.66861 23.4079 9.86639 23.2846 10.0859 23.2674L10.0702 23.068L10.0546 22.8686C9.70338 22.8961 9.38938 23.0938 9.20938 23.3995L9.38172 23.501ZM10.0702 23.068V23.268H10.0813V23.068V22.868H10.0702V23.068ZM10.0813 23.068V23.268H10.1144V23.068V22.868H10.0813V23.068ZM10.1144 23.068L10.1137 23.268L10.1174 23.268L10.1181 23.068L10.1188 22.868L10.1151 22.868L10.1144 23.068ZM9.67629 22.3103L9.62078 22.1181C8.81021 22.3523 8.25204 23.1037 8.25204 23.9545H8.45204H8.65204C8.65204 23.2787 9.09534 22.6863 9.7318 22.5024L9.67629 22.3103ZM8.45204 23.9545H8.25204C8.25204 24.8056 8.81046 25.5549 9.62078 25.789L9.67629 25.5969L9.7318 25.4047C9.0951 25.2208 8.65204 24.63 8.65204 23.9545H8.45204ZM9.67629 25.5969H9.47629V26.7708H9.67629H9.87629V25.5969H9.67629ZM9.67629 26.7708L9.7093 26.5735C8.4472 26.3623 7.51804 25.2548 7.51804 23.9526H7.31804H7.11804C7.11804 25.4462 8.18448 26.7239 9.64327 26.968L9.67629 26.7708ZM7.31804 23.9526H7.51804C7.51804 22.6524 8.44712 21.5448 9.7093 21.3336L9.67629 21.1364L9.64328 20.9391C8.18456 21.1832 7.11804 22.4608 7.11804 23.9526H7.31804ZM9.67629 21.1364H9.47629V22.3103H9.67629H9.87629V21.1364H9.67629ZM10.1015 27.6313V27.4313H10.085V27.6313V27.8313H10.1015V27.6313ZM10.085 27.6313L10.0452 27.4353C10.0623 27.4318 10.0801 27.4318 10.0971 27.4353L10.0574 27.6313L10.0176 27.8273C10.0531 27.8345 10.0893 27.8345 10.1247 27.8273L10.085 27.6313ZM10.0574 27.6313L10.0596 27.4313C8.18017 27.4102 6.66627 25.8545 6.67671 23.9426L6.47671 23.9415L6.27671 23.9405C6.2651 26.0674 7.95073 27.8076 10.0551 27.8313L10.0574 27.6313ZM6.47671 23.9415L6.67671 23.9426C6.68716 22.0327 8.21843 20.4929 10.0978 20.4929V20.2929V20.0929C7.99343 20.0929 6.28835 21.8154 6.27671 23.9405L6.47671 23.9415ZM10.0978 20.2929V20.4929C11.9754 20.4929 13.5067 22.0326 13.5172 23.9426L13.7172 23.9415L13.9171 23.9405C13.9055 21.8155 12.2005 20.0929 10.0978 20.0929V20.2929ZM13.7172 23.9415L13.5172 23.9426C13.5276 25.8545 12.0137 27.4102 10.1342 27.4313L10.1365 27.6313L10.1387 27.8313C12.2431 27.8076 13.9288 26.0674 13.9171 23.9405L13.7172 23.9415ZM10.1365 27.6313V27.4313H10.1015V27.6313V27.8313H10.1365V27.6313ZM20.1992 10.6066V10.8066H23.894V10.6066V10.4066H20.1992V10.6066ZM23.894 10.6066L23.694 10.6065L23.6921 18.9285L23.8921 18.9285L24.0921 18.9286L24.094 10.6066L23.894 10.6066ZM23.8921 18.9285V18.7285H19.7924V18.9285V19.1285H23.8921V18.9285ZM19.7924 18.9285H19.9924V10.6066H19.7924H19.5924V18.9285H19.7924ZM19.7924 10.6066V10.8066H20.1992V10.6066V10.4066H19.7924V10.6066ZM23.0803 11.4315H22.8803V18.1056H23.0803H23.2803V11.4315H23.0803ZM23.0803 18.1056V17.9056H20.6042V18.1056V18.3056H23.0803V18.1056ZM20.6042 18.1056H20.8042V11.4315H20.6042H20.4042V18.1056H20.6042ZM20.6042 11.4315V11.6315H23.0803V11.4315V11.2315H20.6042V11.4315ZM16.5064 13.2362L16.3064 13.2362L16.3046 18.1052L16.5046 18.1053L16.7046 18.1054L16.7064 13.2363L16.5064 13.2362ZM16.5046 18.1053V17.9053H13.8941V18.1053V18.3053H16.5046V18.1053ZM13.8941 18.1053H14.0941V13.2362H13.8941H13.6941V18.1053H13.8941ZM13.8941 13.2362V13.4362H16.5064V13.2362V13.0362H13.8941V13.2362ZM13.491 12.4113V12.6113H17.3201V12.4113V12.2113H13.491V12.4113ZM17.3201 12.4113H17.1201V18.9287H17.3201H17.5201V12.4113H17.3201ZM17.3201 18.9287V18.7287H13.0841V18.9287V19.1287H17.3201V18.9287ZM13.0841 18.9287H13.2841V12.4113H13.0841H12.8841V18.9287H13.0841ZM13.0841 12.4113V12.6113H13.491V12.4113V12.2113H13.0841V12.4113ZM9.79432 15.7352V15.5352H7.31825V15.7352V15.9352H9.79432V15.7352ZM7.31825 15.7352H7.11825V18.1054H7.31825H7.51825V15.7352H7.31825ZM7.31825 18.1054V18.3054H9.79432V18.1054V17.9054H7.31825V18.1054ZM9.79432 18.1054H9.99432V15.7352H9.79432H9.59432V18.1054H9.79432Z" fill="black" mask="url(#path-1-outside-1_410_1912)"/>
</svg>
