<svg width="38" height="38" viewBox="0 0 38 38" fill="none" xmlns="http://www.w3.org/2000/svg">
<path d="M24.764 32.4391C22.5814 34.0422 20.0777 35.5266 17.869 36.8366C17.2269 37.217 16.62 37.5769 16.0298 37.9351C15.9574 37.9796 15.8758 38 15.7941 38C15.7124 38 15.6308 37.9777 15.5584 37.9351C14.9664 37.5769 14.3595 37.217 13.7173 36.8366C9.07191 34.0812 3.80676 30.9603 1.46062 27.0115C0.476974 25.3564 0 23.5974 0 21.6344V6.59565C0 6.38784 0.141054 6.20785 0.341493 6.1559C4.55263 5.08157 10.6103 3.1537 15.5511 0.068191C15.6977 -0.0227303 15.8851 -0.0227303 16.0317 0.068191C20.972 3.15204 27.0298 5.08191 31.2413 6.1559C31.4417 6.20785 31.5828 6.38784 31.5828 6.59565V19.8256C31.5828 20.0761 31.3786 20.2802 31.1281 20.2802C30.8775 20.2802 30.6734 20.0761 30.6734 19.8256V6.94859C26.4882 5.86124 20.6493 3.96681 15.7907 0.988653C10.9302 3.96672 5.09289 5.85939 0.908022 6.94859V21.6349C0.908022 23.431 1.34417 25.0379 2.24245 26.5484C4.46957 30.2965 9.62915 33.3562 14.1818 36.0562C14.7404 36.3883 15.2731 36.7037 15.7946 37.0173C16.3142 36.7037 16.8469 36.3883 17.4055 36.058C19.7031 34.6961 22.0806 33.2859 24.2259 31.7087C24.4282 31.5603 24.7121 31.603 24.8606 31.8052C25.009 32.0075 24.9664 32.2913 24.7641 32.4398L24.764 32.4391ZM29.0122 20.9239C29.2628 20.9239 29.4669 20.7198 29.4669 20.4693V8.22501C29.4669 8.02091 29.3315 7.84093 29.1347 7.78711C24.0348 6.37691 19.6228 4.60864 16.0223 2.53257C15.8813 2.45092 15.7087 2.45092 15.5676 2.53257C11.9671 4.61073 7.55568 6.37905 2.45526 7.78711C2.25853 7.84092 2.12305 8.02091 2.12305 8.22501V21.6331C2.12305 23.2047 2.50352 24.6111 3.28671 25.9286C5.39877 29.4837 10.8981 32.7217 14.9124 35.0853C15.1352 35.2152 15.3523 35.3432 15.5639 35.4694C15.6344 35.5121 15.7142 35.5325 15.794 35.5325C15.8738 35.5325 15.9536 35.5121 16.0242 35.4694C16.2357 35.3451 16.4529 35.2171 16.6737 35.0853C18.9324 33.7549 21.7442 32.0998 24.0866 30.2944C24.2852 30.1422 24.3223 29.8565 24.1701 29.658C24.0161 29.4594 23.7321 29.4223 23.5335 29.5745C21.2359 31.3446 18.4521 32.9849 16.2138 34.3004C16.0709 34.3839 15.9317 34.4674 15.7925 34.5472C15.6552 34.4656 15.5141 34.3821 15.3712 34.2986C11.4404 31.9848 6.0579 28.8174 4.06477 25.461C3.35765 24.2717 3.02915 23.0545 3.02915 21.6294V8.56479C7.95663 7.18057 12.2474 5.45866 15.7923 3.44373C19.3371 5.45881 23.628 7.18071 28.5555 8.56479V20.4642C28.5555 20.7147 28.7596 20.9188 29.0102 20.9188L29.0122 20.9239ZM18.7487 23.8407V24.1989H19.196C19.8957 24.1989 20.4636 24.7666 20.4636 25.4662V26.2789C20.4636 26.5294 20.2594 26.7335 20.0089 26.7335H8.60219C8.35163 26.7335 8.14748 26.5294 8.14748 26.2789V25.4662C8.14748 24.7666 8.71539 24.1989 9.4151 24.1989H9.86239V23.8407C9.86239 23.1412 10.4303 22.5734 11.13 22.5734H17.4809C18.1807 22.5734 18.7487 23.1412 18.7487 23.8407ZM10.77 24.1989H17.8393V23.8407C17.8393 23.6422 17.6778 23.4826 17.4811 23.4826H11.1302C10.9316 23.4826 10.7701 23.6441 10.7701 23.8407L10.77 24.1989ZM19.1939 25.1062H9.41304C9.21631 25.1062 9.05484 25.2676 9.05484 25.4643V25.8224H19.5541V25.4643C19.5541 25.2658 19.3926 25.1062 19.1959 25.1062H19.1939ZM24.385 22.2562L16.6401 17.7862C16.499 18.0497 16.3617 18.3151 16.2262 18.5804L16.3097 18.6287C16.499 18.7381 16.6345 18.9144 16.6921 19.1259C16.7496 19.3375 16.7199 19.5583 16.6104 19.7475L15.5897 21.514C15.4375 21.7775 15.1609 21.9241 14.8788 21.9241C14.7396 21.9241 14.5986 21.8888 14.4705 21.8146L8.83226 18.56C8.43509 18.3318 8.2996 17.8215 8.52788 17.4245L9.53751 15.6766C9.76579 15.2795 10.2762 15.144 10.6733 15.3723L10.7476 15.415C11.7442 13.8786 12.6666 12.2791 13.4999 10.6482L13.4257 10.6056C13.0285 10.3773 12.8931 9.86707 13.1213 9.47001L14.131 7.72212C14.2423 7.531 14.4205 7.39369 14.6358 7.33617C14.8511 7.27866 15.0738 7.30834 15.2668 7.41967L20.9051 10.6742C21.0944 10.7837 21.2298 10.96 21.2874 11.1715C21.3449 11.3831 21.3152 11.6039 21.2057 11.7931L20.185 13.5596C20.0755 13.7488 19.8991 13.8843 19.6876 13.9418C19.617 13.9604 19.5447 13.9697 19.4741 13.9697C19.3312 13.9697 19.192 13.9325 19.0658 13.8602L18.9823 13.8119C18.819 14.0624 18.6594 14.3148 18.5016 14.5671L26.2466 19.037C26.4489 19.1539 26.5955 19.3432 26.6549 19.5714C26.7161 19.7978 26.6846 20.0353 26.5676 20.2375L25.5896 21.9316C25.4726 22.1338 25.2833 22.2804 25.0551 22.3398C24.979 22.3602 24.9029 22.3695 24.8249 22.3695C24.6727 22.3695 24.5224 22.3287 24.3869 22.2526L24.385 22.2562ZM13.9471 9.86129L19.4405 13.0324L20.3721 11.4181L14.8788 8.24703L13.9471 9.86129ZM15.7808 19.3724L10.2874 16.2013L9.35578 17.8156L14.8491 20.9867L15.7808 19.3724ZM15.4393 18.1273C16.2745 16.4964 17.1969 14.8988 18.1917 13.3606L14.2887 11.108C13.4535 12.739 12.5311 14.3366 11.5363 15.8748L15.4393 18.1273ZM17.0744 16.9881L24.8136 21.4561L25.762 19.8122L18.0228 15.3441C17.6961 15.8859 17.3806 16.4333 17.0744 16.9862V16.9881ZM36.5339 30.6574C36.6675 31.4497 36.4782 32.0917 35.9511 32.6168C35.8862 32.6818 35.8175 32.743 35.7488 32.7987L37.2447 35.9567C37.3208 36.12 37.2948 36.313 37.1779 36.4484C37.0591 36.5839 36.8717 36.6377 36.6991 36.5839L34.8134 35.9975L33.8966 37.7473C33.8186 37.8976 33.6627 37.9903 33.4938 37.9903C33.4827 37.9903 33.4734 37.9903 33.4623 37.9885C33.2822 37.9755 33.1263 37.8586 33.0651 37.6879L31.9088 34.4668C31.6286 34.6022 31.3205 34.6709 30.979 34.6709C30.645 34.6709 30.3406 34.6059 30.0659 34.4742L28.9152 37.6916C28.8539 37.8605 28.6999 37.9792 28.5199 37.9922C28.5087 37.9941 28.4976 37.9941 28.4883 37.9941C28.3213 37.9941 28.1654 37.9013 28.0856 37.751L27.1669 36.0031L25.2812 36.5913C25.1086 36.6451 24.9212 36.5913 24.8024 36.4559C24.6836 36.3204 24.6576 36.1274 24.7337 35.9641L26.2259 32.8042C26.1517 32.7467 26.0793 32.6818 26.0088 32.6113C25.4835 32.0861 25.2924 31.4442 25.426 30.6518C25.5076 30.1676 25.3258 29.726 24.9249 29.442C24.2697 28.9763 23.9505 28.3881 23.9505 27.6459C23.9505 26.9019 24.2697 26.3137 24.9249 25.8498C25.3258 25.5659 25.5076 25.1244 25.426 24.64C25.2923 23.8477 25.4817 23.2058 26.0088 22.6806C26.534 22.1555 27.1761 21.9644 27.9686 22.098C28.453 22.1796 28.8947 21.9978 29.1787 21.597C29.6446 20.942 30.2329 20.6228 30.9752 20.6228C31.7195 20.6228 32.3078 20.942 32.7718 21.597C33.0557 21.9978 33.4974 22.1796 33.9819 22.098C34.7744 21.9644 35.4165 22.1537 35.9417 22.6806C36.467 23.2058 36.6581 23.8477 36.5245 24.64C36.4428 25.1243 36.6247 25.5659 37.0256 25.8498C37.6808 26.3156 38 26.9038 38 27.6459C38 28.39 37.6808 28.9782 37.0256 29.442C36.6247 29.7259 36.4428 30.1675 36.5245 30.6518L36.5339 30.6574ZM29.3216 33.8748C29.2752 33.8192 29.2306 33.7616 29.1861 33.7004C28.9021 33.2996 28.4604 33.1178 27.976 33.1994C27.6438 33.2551 27.3375 33.2532 27.0555 33.1957L26.005 35.4205L27.2633 35.0271C27.473 34.9622 27.6995 35.0549 27.8015 35.2498L28.414 36.415L29.3216 33.8748ZM34.9304 33.192C34.6446 33.2551 34.3328 33.2569 33.9931 33.1994C33.5087 33.1178 33.067 33.2996 32.783 33.7004C32.744 33.7561 32.7013 33.808 32.6605 33.86L33.5755 36.4095L34.1861 35.2424C34.2882 35.0475 34.5146 34.9548 34.7244 35.0197L35.9827 35.4112L34.9304 33.192ZM37.1018 27.6515C37.1018 27.2062 36.9255 26.8889 36.5098 26.5957C35.8231 26.1077 35.4983 25.3228 35.6393 24.4934C35.7247 23.9924 35.6264 23.6436 35.3108 23.3282C34.9953 23.0127 34.6464 22.9144 34.1453 22.9997C33.3157 23.1408 32.5288 22.8142 32.0425 22.1295C31.7474 21.7139 31.4319 21.5376 30.9865 21.5376C30.5411 21.5376 30.2237 21.7139 29.9304 22.1295C29.4442 22.8161 28.6572 23.1408 27.8276 22.9997C27.3247 22.9144 26.9776 23.0127 26.6621 23.3282C26.3466 23.6436 26.2483 23.9924 26.3336 24.4934C26.4747 25.3228 26.148 26.1095 25.4632 26.5957C25.0475 26.8907 24.8711 27.2062 24.8711 27.6515C24.8711 28.0968 25.0475 28.4141 25.4632 28.7073C26.1499 29.1934 26.4747 29.9802 26.3336 30.8096C26.2482 31.3106 26.3466 31.6594 26.6621 31.9748C26.9776 32.2903 27.3265 32.3886 27.8276 32.3033C27.9557 32.281 28.0819 32.2717 28.2063 32.2717C28.8929 32.2717 29.5184 32.5946 29.9323 33.1753C30.2274 33.591 30.5429 33.7672 30.9883 33.7672C31.4338 33.7672 31.7511 33.591 32.0444 33.1753C32.5306 32.4888 33.3176 32.1641 34.1472 32.3051C34.6483 32.3905 34.9972 32.2921 35.3127 31.9767C35.6282 31.6613 35.7266 31.3124 35.6412 30.8114C35.5001 29.982 35.8268 29.1953 36.5116 28.7092C36.9273 28.4141 37.1037 28.0987 37.1037 27.6534L37.1018 27.6515ZM35.1716 27.6515C35.1716 29.9598 33.2934 31.8375 30.9846 31.8375C28.6758 31.8375 26.7976 29.9598 26.7976 27.6515C26.7976 25.3433 28.6758 23.4655 30.9846 23.4655C33.2934 23.4655 35.1716 25.3433 35.1716 27.6515ZM34.2641 27.6515C34.2641 25.8442 32.7923 24.3729 30.9846 24.3729C29.1769 24.3729 27.7052 25.8443 27.7052 27.6515C27.7052 29.4588 29.177 30.9302 30.9846 30.9302C32.7923 30.9302 34.2641 29.4587 34.2641 27.6515ZM32.2337 26.2933L30.4817 28.0449L29.7374 27.3008C29.5611 27.1245 29.2716 27.1245 29.0953 27.3008C28.9171 27.4771 28.9171 27.7665 29.0953 27.9428L30.1606 29.0079C30.246 29.0932 30.361 29.1415 30.4817 29.1415C30.6023 29.1415 30.7174 29.0932 30.8027 29.0079L32.8758 26.9353C33.0521 26.759 33.0521 26.4696 32.8758 26.2933C32.6995 26.117 32.41 26.117 32.2337 26.2933Z" fill="black"/>
</svg>
