<svg width="43" height="43" viewBox="0 0 43 43" fill="none" xmlns="http://www.w3.org/2000/svg">
<path d="M34.4513 10.0098L28.9277 4.52145V8.69852C28.9277 9.41834 29.517 10.0079 30.2364 10.0079L34.4513 10.0098ZM24.9744 19.5813V14.9716L22.4871 17.2765L24.9744 19.5813ZM26.1243 14.4052V20.1484H33.858V14.4052H26.1243ZM35.0061 14.4052V20.1484H37.0151V14.4052H35.0061ZM38.1631 14.4052V20.1484H40.2448C41.1364 20.1484 41.8501 19.3903 41.8501 18.525L41.8539 16.0134C41.8539 15.1347 41.123 14.4054 40.2467 14.4054L38.1631 14.4052ZM40.2448 13.2605C41.9783 13.2605 42.9885 14.7345 43 16.0133L42.9962 18.5421C42.9962 20.0583 41.7602 21.295 40.2448 21.295H36.4181V39.805C36.4181 41.5604 34.9812 42.9981 33.2267 42.9981L3.19142 43C1.435 43 0 41.5623 0 39.8069V5.76407C0 4.00673 1.435 2.57096 3.19142 2.57096H8.88941V1.55064C8.88941 0.696833 9.58587 0 10.4392 0H21.46C22.3114 0 23.0098 0.696833 23.0098 1.55064V2.57096H28.3556C28.501 2.57096 28.6484 2.6284 28.7593 2.73943L36.2192 10.1478C36.3416 10.255 36.4201 10.4082 36.4201 10.5843V13.2605L40.2448 13.2605ZM35.2683 21.2966L25.3609 21.2909C25.2231 21.2947 25.0854 21.2411 24.9744 21.1378C23.8302 20.0772 22.2498 18.7716 21.2281 17.6652C21.0138 17.4316 21.0272 17.0717 21.2606 16.8573L24.9591 13.4306C25.0624 13.3273 25.2059 13.2622 25.3628 13.2622L35.2703 13.2584V11.1564H30.2399C28.8872 11.1564 27.7794 10.0518 27.7794 8.69838V3.71926H23.0094V4.87935C23.0094 5.73316 22.313 6.42999 21.4596 6.42999H10.4388C9.58547 6.42999 8.88901 5.73316 8.88901 4.87935V3.71926H3.19102C2.06788 3.71926 1.14757 4.64196 1.14757 5.76379V39.8066C1.14757 40.9303 2.06979 41.8492 3.19102 41.8492H33.2283C34.3514 41.8492 35.2698 40.9303 35.2698 39.8066L35.2683 21.2966ZM16.9479 11.2081C20.2943 14.2558 20.5373 19.4472 17.4951 22.7993C14.449 26.1475 9.25643 26.3906 5.91003 23.3449C2.56364 20.2972 2.32064 15.1058 5.36282 11.7557C8.4069 8.40943 13.5995 8.16243 16.9479 11.2081ZM16.1749 12.06C13.2953 9.43735 8.83162 9.64794 6.2121 12.529C3.59273 15.412 3.80129 19.8762 6.68278 22.4991C9.56234 25.1198 14.026 24.9073 16.6475 22.0281C19.2688 19.1451 19.0564 14.6809 16.1749 12.06ZM11.6747 32.5989H16.2017V28.6592C16.2017 28.3414 16.4581 28.0849 16.7757 28.0849H21.8805C22.1981 28.0849 22.4526 28.3414 22.4526 28.6592V30.4338H26.4094V23.636C26.4094 23.3182 26.6638 23.0617 26.9815 23.0617H32.0863C32.4039 23.0617 32.6584 23.3182 32.6584 23.636V38.7361C32.6584 39.0539 32.4039 39.3104 32.0863 39.3104H11.6768C11.3592 39.3104 11.1028 39.0539 11.1028 38.7361V33.1728C11.1009 32.855 11.3571 32.5989 11.6747 32.5989ZM16.2017 33.7475H12.2487V38.1582H16.2017V33.7475ZM21.3045 29.2297H17.3516V38.1583H21.3045V29.2297ZM26.4074 31.5805H22.4507V38.1602H26.4074V31.5805ZM31.5083 24.2123H27.5554V38.1602H31.5083V24.2123ZM21.4593 1.14657H10.4385C10.2185 1.14657 10.0367 1.32843 10.0367 1.5505V4.87955C10.0367 5.0997 10.2185 5.28156 10.4385 5.28156H21.4593C21.6794 5.28156 21.8611 5.0997 21.8611 4.87955V1.5505C21.8611 1.32843 21.6794 1.14657 21.4593 1.14657Z" fill="black"/>
<path d="M8 14.4444C8 14.199 8.21173 14 8.47297 14H14.527C14.7883 14 15 14.199 15 14.4444C15 14.6899 14.7883 14.8889 14.527 14.8889H12.6821C12.9533 15.2153 13.1336 15.6115 13.1864 16.0444H14.527C14.7883 16.0444 15 16.2434 15 16.4889C15 16.7344 14.7883 16.9333 14.527 16.9333H13.1864C13.0456 18.084 12.0055 18.9778 10.7432 18.9778H9.47586L12.2794 21.217C12.4785 21.376 12.5026 21.6562 12.3333 21.8434C12.1641 22.0305 11.8659 22.0531 11.6667 21.8941L8.27503 19.185C7.80575 18.8104 8.08805 18.0888 8.70403 18.0888H10.7434C11.4824 18.0888 12.0976 17.5913 12.2303 16.9333H8.47313C8.21188 16.9333 8.00015 16.7343 8.00015 16.4888C8.00015 16.2433 8.21188 16.0444 8.47313 16.0444H12.2303C12.0977 15.3864 11.4824 14.8888 10.7434 14.8888H8.47313C8.21188 14.8888 8.00015 14.6899 8.00015 14.4444L8 14.4444Z" fill="black"/>
</svg>
