<svg width="39" height="39" viewBox="0 0 39 39" fill="none" xmlns="http://www.w3.org/2000/svg">
<path d="M37.6409 0H1.35909C0.590909 0 0 0.590909 0 1.35909V37.6409C0 38.4091 0.590909 39 1.35909 39H37.6409C38.4091 39 39 38.4091 39 37.6409V1.35909C39 0.590909 38.4091 0 37.6409 0ZM1.35909 1.18182H37.6409C37.7591 1.18182 37.8182 1.24091 37.8182 1.35909V8.98182H1.18182V1.35909C1.18182 1.24091 1.24091 1.18182 1.35909 1.18182ZM37.6409 37.8182H1.35909C1.24091 37.8182 1.18182 37.7591 1.18182 37.6409V10.1636H37.8182V37.5818C37.8182 37.7591 37.7591 37.8182 37.6409 37.8182Z" fill="#010101"/>
<path d="M20.1495 7.44532H35.8677C36.2222 7.44532 36.4586 7.20895 36.4586 6.85441V3.13168C36.4586 2.77714 36.2222 2.54077 35.8677 2.54077H20.1495C19.795 2.54077 19.5586 2.77714 19.5586 3.13168V6.79532C19.5586 7.14986 19.795 7.44532 20.1495 7.44532ZM20.7404 3.72259H35.2768V6.20441H20.7404V3.72259Z" fill="#010101"/>
<path d="M4.60973 7.44529C5.90973 7.44529 6.97337 6.38165 6.97337 5.08165C6.97337 3.78165 5.90973 2.71802 4.60973 2.71802C3.30973 2.71802 2.24609 3.78165 2.24609 5.08165C2.24609 6.38165 3.30973 7.44529 4.60973 7.44529ZM4.60973 3.89984C5.25973 3.89984 5.79155 4.43165 5.79155 5.08165C5.79155 5.73165 5.25973 6.26347 4.60973 6.26347C3.95973 6.26347 3.42791 5.73165 3.42791 5.08165C3.42791 4.43165 3.95973 3.89984 4.60973 3.89984Z" fill="#010101"/>
<path d="M10.1644 7.44529C11.4644 7.44529 12.5281 6.38165 12.5281 5.08165C12.5281 3.78165 11.4644 2.71802 10.1644 2.71802C8.86442 2.71802 7.80078 3.78165 7.80078 5.08165C7.80078 6.38165 8.86442 7.44529 10.1644 7.44529ZM10.1644 3.89984C10.8144 3.89984 11.3462 4.43165 11.3462 5.08165C11.3462 5.73165 10.8144 6.26347 10.1644 6.26347C9.51442 6.26347 8.9826 5.73165 8.9826 5.08165C8.9826 4.43165 9.51442 3.89984 10.1644 3.89984Z" fill="#010101"/>
<path d="M15.7172 7.44529C17.0172 7.44529 18.0808 6.38165 18.0808 5.08165C18.0808 3.78165 17.0172 2.71802 15.7172 2.71802C14.4172 2.71802 13.3535 3.78165 13.3535 5.08165C13.3535 6.38165 14.4172 7.44529 15.7172 7.44529ZM15.7172 3.89984C16.3672 3.89984 16.899 4.43165 16.899 5.08165C16.899 5.73165 16.3672 6.26347 15.7172 6.26347C15.0672 6.26347 14.5353 5.73165 14.5353 5.08165C14.5353 4.43165 15.0672 3.89984 15.7172 3.89984Z" fill="#010101"/>
<path d="M4.66708 21.8045H13.6489C14.0034 21.8045 14.2398 21.5682 14.2398 21.2136V18.2C14.2398 17.8454 14.0034 17.6091 13.6489 17.6091C13.2944 17.6091 13.058 17.8454 13.058 18.2V20.6227H5.25799V12.7045H13.6489C14.0034 12.7045 14.2398 12.4682 14.2398 12.1136C14.2398 11.7591 14.0034 11.5227 13.6489 11.5227H4.66708C4.31254 11.5227 4.07617 11.7591 4.07617 12.1136V21.1545C4.07617 21.5091 4.37163 21.8045 4.66708 21.8045Z" fill="#010101"/>
<path d="M13.7074 14.3592L8.9801 17.7865L7.85737 15.4819C7.73919 15.1865 7.38464 15.0683 7.08919 15.2456C6.79373 15.3638 6.67555 15.7183 6.85282 16.0138L8.3301 18.9092C8.38919 19.0865 8.56646 19.2047 8.74373 19.2047C8.921 19.2638 9.09828 19.2047 9.21646 19.0865L14.5346 15.2456C14.771 15.0683 14.8301 14.7138 14.6528 14.4183C14.3574 14.1819 14.0028 14.1228 13.7074 14.3592Z" fill="#010101"/>
<path d="M14.9501 23.8132H3.13192C2.77738 23.8132 2.54102 24.0496 2.54102 24.4041C2.54102 24.7587 2.77738 24.9951 3.13192 24.9951H14.9501C15.3047 24.9951 15.541 24.7587 15.541 24.4041C15.541 24.1087 15.2456 23.8132 14.9501 23.8132Z" fill="#010101"/>
<path d="M14.9501 27.4182H3.13192C2.77738 27.4182 2.54102 27.6546 2.54102 28.0091C2.54102 28.3637 2.77738 28.6 3.13192 28.6H14.9501C15.3047 28.6 15.541 28.3637 15.541 28.0091C15.541 27.6546 15.2456 27.4182 14.9501 27.4182Z" fill="#010101"/>
<path d="M14.9501 30.9636H3.13192C2.77738 30.9636 2.54102 31.2 2.54102 31.5545C2.54102 31.9091 2.77738 32.1454 3.13192 32.1454H14.9501C15.3047 32.1454 15.541 31.9091 15.541 31.5545C15.541 31.2 15.2456 30.9636 14.9501 30.9636Z" fill="#010101"/>
<path d="M14.9501 34.5088H3.13192C2.77738 34.5088 2.54102 34.7452 2.54102 35.0997C2.54102 35.4542 2.77738 35.6906 3.13192 35.6906H14.9501C15.3047 35.6906 15.541 35.4542 15.541 35.0997C15.541 34.8042 15.2456 34.5088 14.9501 34.5088Z" fill="#010101"/>
<path d="M35.2781 12.4092H18.1417C17.7871 12.4092 17.5508 12.6455 17.5508 13.0001V35.6319C17.5508 35.9865 17.7871 36.2228 18.1417 36.2228H35.2781C35.6326 36.2228 35.869 35.9865 35.869 35.6319V13.0001C35.869 12.6455 35.5735 12.4092 35.2781 12.4092ZM34.6871 35.041H18.7326V13.591H34.6871V35.041Z" fill="#010101"/>
<path d="M20.6827 20.15H32.6782C33.0327 20.15 33.2691 19.9136 33.2691 19.5591V15.1864C33.2691 14.8318 33.0327 14.5955 32.6782 14.5955H20.6827C20.3282 14.5955 20.0918 14.8318 20.0918 15.1864V19.5591C20.0918 19.9136 20.3873 20.15 20.6827 20.15ZM21.2736 15.7773H32.0873V18.9682H21.2736V15.7773Z" fill="#010101"/>
<path d="M20.503 25.3497H23.103C23.4576 25.3497 23.6939 25.1133 23.6939 24.7588V22.1588C23.6939 21.8042 23.4576 21.5679 23.103 21.5679H20.503C20.1485 21.5679 19.9121 21.8042 19.9121 22.1588V24.7588C19.9121 25.0542 20.2076 25.3497 20.503 25.3497ZM21.0939 22.6906H22.5121V24.1088H21.0939V22.6906Z" fill="#010101"/>
<path d="M28.0073 21.509H25.4073C25.0528 21.509 24.8164 21.7454 24.8164 22.0999V24.6999C24.8164 25.0545 25.0528 25.2908 25.4073 25.2908H28.0073C28.3619 25.2908 28.5982 25.0545 28.5982 24.6999V22.0999C28.5982 21.8045 28.3028 21.509 28.0073 21.509ZM27.4164 24.1681H25.9982V22.7499H27.4164V24.1681Z" fill="#010101"/>
<path d="M32.853 21.509H30.253C29.8985 21.509 29.6621 21.7454 29.6621 22.0999V24.6999C29.6621 25.0545 29.8985 25.2908 30.253 25.2908H32.853C33.2076 25.2908 33.4439 25.0545 33.4439 24.6999V22.0999C33.4439 21.8045 33.1485 21.509 32.853 21.509ZM32.2621 24.1681H30.8439V22.7499H32.2621V24.1681Z" fill="#010101"/>
<path d="M20.503 29.7821H23.103C23.4576 29.7821 23.6939 29.5457 23.6939 29.1912V26.5912C23.6939 26.2366 23.4576 26.0002 23.103 26.0002H20.503C20.1485 26.0002 19.9121 26.2366 19.9121 26.5912V29.1912C19.9121 29.4866 20.2076 29.7821 20.503 29.7821ZM21.0939 27.123H22.5121V28.5412H21.0939V27.123Z" fill="#010101"/>
<path d="M28.0073 25.9407H25.4073C25.0528 25.9407 24.8164 26.177 24.8164 26.5316V29.1316C24.8164 29.4861 25.0528 29.7225 25.4073 29.7225H28.0073C28.3619 29.7225 28.5982 29.4861 28.5982 29.1316V26.5316C28.5982 26.2361 28.3028 25.9407 28.0073 25.9407ZM27.4164 28.5998H25.9982V27.1816H27.4164V28.5998Z" fill="#010101"/>
<path d="M32.853 25.9407H30.253C29.8985 25.9407 29.6621 26.177 29.6621 26.5316V33.6225C29.6621 33.977 29.8985 34.2134 30.253 34.2134H32.853C33.2076 34.2134 33.4439 33.977 33.4439 33.6225V26.5316C33.4439 26.2361 33.1485 25.9407 32.853 25.9407ZM32.2621 33.0316H30.8439V27.1225H32.2621V33.0316Z" fill="#010101"/>
<path d="M20.503 34.2137H23.103C23.4576 34.2137 23.6939 33.9773 23.6939 33.6228V31.0228C23.6939 30.6682 23.4576 30.4319 23.103 30.4319H20.503C20.1485 30.4319 19.9121 30.6682 19.9121 31.0228V33.6228C19.9121 33.9773 20.2076 34.2137 20.503 34.2137ZM21.0939 31.6137H22.5121V33.0319H21.0939V31.6137Z" fill="#010101"/>
<path d="M28.0073 30.4319H25.4073C25.0528 30.4319 24.8164 30.6682 24.8164 31.0228V33.6228C24.8164 33.9773 25.0528 34.2137 25.4073 34.2137H28.0073C28.3619 34.2137 28.5982 33.9773 28.5982 33.6228V31.0228C28.5982 30.6682 28.3028 30.4319 28.0073 30.4319ZM27.4164 33.0319H25.9982V31.6137H27.4164V33.0319Z" fill="#010101"/>
</svg>
