<svg width="43" height="38" viewBox="0 0 43 38" fill="none" xmlns="http://www.w3.org/2000/svg">
<path d="M2.01484 37.2073H28.0062C29.148 37.2073 30.0211 36.3342 30.0211 35.1925V28.6779C30.827 28.2077 31.5658 27.6704 32.3046 27.066L33.5135 28.2749L32.5732 29.2151C32.3046 29.4838 32.3046 29.8868 32.5732 30.1554L38.4834 36.0656C39.4908 37.073 41.1699 37.073 42.2444 36.0656C43.2519 35.0582 43.2519 33.3792 42.2444 32.3046L36.3342 26.3944C36.0656 26.1257 35.6626 26.1257 35.394 26.3944L34.4537 27.3346L33.2448 26.1257C37.4088 21.4244 37.2745 14.2382 32.7747 9.73838C31.9688 8.93245 31.0285 8.19367 30.0211 7.65638V2.01484C30.0211 0.873096 29.148 0 28.0062 0H8.73096C8.59664 0 8.39516 0.0671611 8.26084 0.201484L0.201484 8.26084C0.0671612 8.328 0 8.52948 0 8.73096V35.2597C0 36.3342 0.873096 37.2073 2.01484 37.2073ZM35.8641 27.8719L41.3042 33.312C41.8415 33.8493 41.8415 34.6552 41.3042 35.1925C40.834 35.6626 39.961 35.6626 39.4237 35.1925L33.9836 29.7524L34.9239 28.8122L35.8641 27.8719ZM31.7673 25.6556C27.6033 29.8196 20.9543 29.8196 16.7903 25.6556C12.6263 21.4916 12.6263 14.7755 16.7903 10.6786C20.9543 6.51464 27.6033 6.51464 31.7673 10.6786C35.9313 14.8426 35.9313 21.5588 31.7673 25.6556ZM9.40258 1.34323H28.0062C28.4092 1.34323 28.6779 1.61187 28.6779 2.01484V7.11909C24.3124 5.44006 19.3424 6.38032 15.9172 9.80554C11.2831 14.4397 11.2831 22.0289 15.9172 26.663C19.3424 30.0882 24.3795 31.0285 28.6779 29.3495V35.2597C28.6779 35.6626 28.4092 35.9313 28.0062 35.9313H2.01484C1.61187 35.9313 1.34323 35.6626 1.34323 35.2597V9.40258H8.73096C9.13393 9.40258 9.40258 9.13393 9.40258 8.73096V1.34323ZM8.05935 2.28348V8.05935H2.28348L8.05935 2.28348Z" fill="black"/>
<path d="M22 17.085C22 16.9316 22.121 16.8073 22.2703 16.8073H25.7297C25.879 16.8073 26 16.9316 26 17.085C26 17.2385 25.879 17.3628 25.7297 17.3628H24.6755C24.8304 17.5668 24.9335 17.8144 24.9637 18.085H25.7297C25.879 18.085 26 18.2094 26 18.3628C26 18.5162 25.879 18.6406 25.7297 18.6406H24.9637C24.8832 19.3598 24.2889 19.9184 23.5676 19.9184H22.8434L24.4454 21.3179C24.5592 21.4173 24.5729 21.5924 24.4762 21.7094C24.3795 21.8263 24.2091 21.8404 24.0953 21.741L22.1572 20.0479C21.889 19.8137 22.0503 19.3628 22.4023 19.3628H23.5677C23.99 19.3628 24.3415 19.0518 24.4173 18.6405H22.2704C22.1211 18.6405 22.0001 18.5162 22.0001 18.3628C22.0001 18.2093 22.1211 18.085 22.2704 18.085H24.4173C24.3415 17.6737 23.99 17.3628 23.5677 17.3628H22.2704C22.1211 17.3628 22.0001 17.2384 22.0001 17.085L22 17.085Z" fill="black"/>
<path d="M23.6416 12.089V13.5665C22.9028 13.6337 22.164 13.8352 21.4253 14.1038L20.888 12.5591C20.7536 12.2233 20.4178 12.0218 20.0149 12.089C19.6791 12.2233 19.4776 12.5591 19.5447 12.9621L20.082 14.7083C18.6045 15.6485 17.2613 17.0589 16.1867 18.9394C16.0524 19.1409 16.0524 19.4096 16.1867 19.611C18.0672 23.0363 20.9551 24.9839 24.1789 24.9839C27.3354 24.9839 30.2905 23.0363 32.1711 19.611C32.3054 19.4096 32.3054 19.1409 32.1711 18.9394C31.1636 17.0589 29.8204 15.6485 28.2757 14.7754L28.813 13.0292C28.9473 12.6934 28.7458 12.2905 28.3429 12.1561C28.0071 12.0218 27.6041 12.2233 27.4698 12.6263L26.9996 14.171C26.2609 13.9023 25.5221 13.7009 24.7833 13.6337V12.1561C24.7833 11.7532 24.5147 11.4845 24.1117 11.4845C23.9102 11.4174 23.6416 11.686 23.6416 12.089ZM30.895 19.2752C29.216 22.0288 26.8653 23.6407 24.3132 23.6407C21.7611 23.6407 19.3433 22.0288 17.7314 19.2752C19.3433 16.5216 21.7611 14.9098 24.3132 14.9098C26.8653 14.9098 29.2831 16.4545 30.895 19.2752Z" fill="black"/>
<path d="M4.90403 13.7677C4.50107 13.7677 4.23242 14.0363 4.23242 14.4393C4.23242 14.8423 4.50107 15.1109 4.90403 15.1109H8.93371C9.33668 15.1109 9.60532 14.8423 9.60532 14.4393C9.60532 14.0363 9.33668 13.7677 8.93371 13.7677H4.90403Z" fill="black"/>
<path d="M4.90403 20.5512H8.93371C9.33668 20.5512 9.60532 20.2826 9.60532 19.8796C9.60532 19.4767 9.33668 19.208 8.93371 19.208H4.90403C4.50107 19.208 4.23242 19.4767 4.23242 19.8796C4.23242 20.2826 4.50107 20.5512 4.90403 20.5512Z" fill="black"/>
<path d="M4.90403 26.0584H8.93371C9.33668 26.0584 9.60532 25.7898 9.60532 25.3868C9.60532 24.9839 9.33668 24.7152 8.93371 24.7152H4.90403C4.50107 24.7152 4.23242 24.9839 4.23242 25.3868C4.23242 25.7226 4.50107 26.0584 4.90403 26.0584Z" fill="black"/>
<path d="M4.23242 30.827C4.23242 31.23 4.50107 31.4986 4.90403 31.4986H14.3066C14.7096 31.4986 14.9782 31.23 14.9782 30.827C14.9782 30.424 14.7096 30.1554 14.3066 30.1554H4.90403C4.50107 30.1554 4.23242 30.424 4.23242 30.827Z" fill="black"/>
<path d="M13.9682 4.02966H12.625V5.37289H13.9682V4.02966Z" fill="black"/>
<path d="M18.6714 4.02966H17.3281V5.37289H18.6714V4.02966Z" fill="black"/>
</svg>
