<svg width="35" height="41" viewBox="0 0 35 41" fill="none" xmlns="http://www.w3.org/2000/svg">
<path d="M21.8317 31.0942C21.8317 30.7882 21.5814 30.5396 21.2734 30.5396H19.3049C18.9968 30.5396 18.7466 30.7882 18.7466 31.0942V33.8958H17.9717V27.5564C17.9717 27.2505 17.7214 27.0019 17.4134 27.0019H15.4449C15.1368 27.0019 14.8866 27.2505 14.8866 27.5564V33.8958H14.1117V24.4633C14.1117 24.1573 13.8614 23.9087 13.5534 23.9087H11.5848C11.2768 23.9087 11.0265 24.1573 11.0265 24.4633V33.8958H10.2516V29.7317C10.2516 29.4257 10.0014 29.1771 9.69334 29.1771H7.72965C7.42162 29.1771 7.17134 29.4257 7.17134 29.7317V33.8958H5.89109C5.58306 33.8958 5.33278 34.1444 5.33278 34.4503C5.33278 34.7563 5.58306 35.0049 5.89109 35.0049H23.1071C23.4152 35.0049 23.6654 34.7563 23.6654 34.4503C23.6654 34.1444 23.4152 33.8958 23.1071 33.8958H21.8317V31.0942ZM19.8632 31.6488H20.7151V33.8958H19.8632V31.6488ZM16.008 28.111H16.8599V33.8958H16.008V28.111ZM12.148 25.0178H12.9999V33.9005H12.148V25.0178ZM8.28795 30.2863H9.13985V33.8958H8.28795V30.2863ZM5.2269 14.6531C5.2269 16.8284 7.0077 18.602 9.20242 18.602C11.3971 18.602 13.1779 16.8331 13.1779 14.6531C13.1779 12.4731 11.3971 10.7042 9.20242 10.7042C7.0077 10.7042 5.2269 12.4778 5.2269 14.6531ZM12.0613 14.6531C12.0613 16.2212 10.7811 17.4929 9.20242 17.4929C7.81628 17.4929 6.66117 16.508 6.39645 15.2077H9.20242C9.51045 15.2077 9.76073 14.9591 9.76073 14.6531V11.8659C11.0699 12.1241 12.0613 13.2762 12.0613 14.6531ZM8.64411 11.8659V14.0985H6.39645C6.62266 12.975 7.51788 12.0906 8.64411 11.8659ZM14.2512 12.4348C14.2512 12.1289 14.5015 11.8802 14.8095 11.8802H23.2178C23.5259 11.8802 23.7761 12.1289 23.7761 12.4348C23.7761 12.7408 23.5259 12.9894 23.2178 12.9894H14.8095C14.5015 12.9894 14.2512 12.7408 14.2512 12.4348ZM23.7761 14.6531C23.7761 14.9591 23.5259 15.2077 23.2178 15.2077H15.2331C14.9251 15.2077 14.6748 14.9591 14.6748 14.6531C14.6748 14.3471 14.9251 14.0985 15.2331 14.0985H23.2178C23.5259 14.0985 23.7761 14.3471 23.7761 14.6531ZM14.2512 16.8666C14.2512 16.5606 14.5015 16.312 14.8095 16.312H23.2178C23.5259 16.312 23.7761 16.5606 23.7761 16.8666C23.7761 17.1726 23.5259 17.4212 23.2178 17.4212H14.8095C14.5015 17.4212 14.2512 17.1726 14.2512 16.8666ZM13.2598 18.5303H21.4418C21.7499 18.5303 22.0001 18.7789 22.0001 19.0849C22.0001 19.3909 21.7499 19.6395 21.4418 19.6395H13.2598C12.9517 19.6395 12.7015 19.3909 12.7015 19.0849C12.7015 18.7789 12.9517 18.5303 13.2598 18.5303ZM7.07508 21.8577C6.76705 21.8577 6.51678 21.6091 6.51678 21.3032C6.51678 20.9972 6.76705 20.7486 7.07508 20.7486H20.3108C20.6188 20.7486 20.8691 20.9972 20.8691 21.3032C20.8691 21.6091 20.6188 21.8577 20.3108 21.8577H7.07508ZM27.3185 23.5023C27.3185 23.8752 27.8479 24.1238 28.6613 24.4585C29.5661 24.8314 30.6924 25.2951 30.6924 26.4377C30.6924 27.3795 29.9752 28.1732 29.0078 28.3979V29.4018C29.0078 29.7078 28.7576 29.9564 28.4495 29.9564C28.1415 29.9564 27.8912 29.7078 27.8912 29.4018V28.3979C26.9238 28.1732 26.2067 27.3795 26.2067 26.4377C26.2067 26.1318 26.457 25.8832 26.765 25.8832C27.073 25.8832 27.3233 26.1318 27.3233 26.4377C27.3233 26.9397 27.8287 27.3509 28.4495 27.3509C29.0704 27.3509 29.5758 26.9397 29.5758 26.4377C29.5758 26.0648 29.0463 25.8162 28.233 25.4816C27.3281 25.1087 26.2019 24.6449 26.2019 23.5023C26.2019 22.5605 26.919 21.7669 27.8864 21.5422V20.5335C27.8864 20.2275 28.1367 19.9789 28.4447 19.9789C28.7527 19.9789 29.003 20.2275 29.003 20.5335V21.5422C29.9704 21.7669 30.6876 22.5605 30.6876 23.5023C30.6876 23.8083 30.4373 24.0569 30.1293 24.0569C29.8212 24.0569 29.571 23.8083 29.571 23.5023C29.571 23.0004 29.0656 22.5892 28.4447 22.5892C27.8238 22.5892 27.3185 22.9956 27.3185 23.5023ZM35 24.97C35 21.5661 32.3577 18.7694 29.003 18.4873V5.26364C29.003 4.95767 28.7527 4.70907 28.4447 4.70907H20.4648V3.184C20.4648 2.87803 20.2145 2.62943 19.9065 2.62943H17.5626C17.3123 1.11392 16.0609 0 14.5063 0C12.9517 0 11.6955 1.1187 11.4501 2.62943H9.10616C8.79813 2.62943 8.54785 2.87803 8.54785 3.184V4.70907H0.558306C0.250275 4.70907 0 4.95767 0 5.26364V40.4454C0 40.7514 0.250275 41 0.558306 41H28.4495C28.7576 41 29.0078 40.7514 29.0078 40.4454V31.4528C32.3577 31.1707 35 28.3692 35 24.97ZM27.8912 5.81821V18.4825C27.4099 18.5208 26.9431 18.6116 26.4955 18.7502V7.75443C26.4955 7.44846 26.2452 7.19986 25.9372 7.19986H20.4648V5.81343H27.8912V5.81821ZM9.65484 3.73857H11.9554C12.2635 3.73857 12.5138 3.48997 12.5138 3.184C12.5138 1.99837 13.3656 1.10436 14.5015 1.10436C15.6374 1.10436 16.4893 1.99837 16.4893 3.184C16.4893 3.48997 16.7395 3.73857 17.0476 3.73857H19.3482V8.06996H9.65484V3.73857ZM19.9065 9.17432C20.2145 9.17432 20.4648 8.92572 20.4648 8.61975V8.309H25.3789V19.214C23.3093 20.3088 21.8943 22.4745 21.8943 24.9653C21.8943 27.456 23.3093 29.6217 25.3789 30.7165V37.3953H3.62417V8.309H8.53823V8.61975C8.53823 8.92572 8.7885 9.17432 9.09653 9.17432H19.9065ZM1.11661 39.8909V5.81821H8.54304V7.20464H3.06587C2.75784 7.20464 2.50756 7.45324 2.50756 7.75921V37.9546C2.50756 38.2606 2.75784 38.5092 3.06587 38.5092H25.9372C26.2452 38.5092 26.4955 38.2606 26.4955 37.9546V31.1851C26.9431 31.3237 27.4099 31.4145 27.8912 31.4528V39.8909H1.11661ZM28.4447 30.3675C25.4462 30.3675 23.0061 27.9437 23.0061 24.9653C23.0061 21.9868 25.4462 19.563 28.4447 19.563C31.4432 19.563 33.8834 21.9868 33.8834 24.9653C33.8834 27.9437 31.4432 30.3675 28.4447 30.3675Z" fill="black"/>
</svg>
