<svg width="33" height="39" viewBox="0 0 33 39" fill="none" xmlns="http://www.w3.org/2000/svg">
<path d="M22 25.3889C22 25.1741 22.1815 25 22.4054 25H27.5946C27.8185 25 28 25.1741 28 25.3889C28 25.6037 27.8185 25.7778 27.5946 25.7778H26.0132C26.2457 26.0634 26.4002 26.41 26.4455 26.7889H27.5946C27.8185 26.7889 28 26.963 28 27.1778C28 27.3926 27.8185 27.5667 27.5946 27.5667H26.4455C26.3248 28.5735 25.4333 29.3556 24.3514 29.3556H23.265L25.668 31.3149C25.8387 31.454 25.8593 31.6992 25.7143 31.863C25.5692 32.0267 25.3136 32.0465 25.1429 31.9073L22.2357 29.5369C21.8335 29.2091 22.0755 28.5777 22.6035 28.5777H24.3515C24.9849 28.5777 25.5122 28.1423 25.626 27.5666H22.4055C22.1816 27.5666 22.0001 27.3925 22.0001 27.1777C22.0001 26.9629 22.1816 26.7888 22.4055 26.7888H25.626C25.5123 26.2131 24.985 25.7777 24.3515 25.7777H22.4055C22.1816 25.7777 22.0001 25.6036 22.0001 25.3888L22 25.3889Z" fill="black"/>
<path d="M32.4374 28.4535C32.4374 24.3999 29.305 21.0673 25.333 20.7397L25.3347 2.80162C25.3347 2.05114 25.0265 1.32331 24.478 0.788764C23.9539 0.280336 23.2626 0 22.5348 0L2.79988 0.00174102C2.07031 0.00174102 1.38077 0.280338 0.846222 0.799242C0.309934 1.32162 0 2.05119 0 2.80167V36.2088C0 36.9662 0.31342 37.7011 0.860174 38.2234C1.38256 38.7249 2.06857 39 2.79119 39H22.5435C23.2679 39 23.9539 38.7249 24.4728 38.2251C25.0195 37.701 25.333 36.968 25.333 36.2088V36.167C29.3047 35.8362 32.4374 32.5073 32.4374 28.4535ZM23.5834 37.2973C23.3013 37.5672 22.9322 37.7152 22.5422 37.7152H2.78985C2.39981 37.7152 2.02894 37.5672 1.74861 37.2973C1.4526 37.0152 1.28542 36.6182 1.28542 36.2108L1.28368 2.80184C1.28368 2.39613 1.45084 2.00434 1.7486 1.71183C2.03243 1.43672 2.40681 1.28523 2.80032 1.28523H22.5353C22.9288 1.28523 23.3014 1.43672 23.5939 1.72054C23.8847 2.00262 24.0501 2.39439 24.0501 2.80012V20.7382C22.0895 20.9001 20.3378 21.7951 19.0617 23.1481L4.97177 23.1498C4.61656 23.1498 4.32926 23.4371 4.32926 23.7923C4.32926 24.1475 4.61656 24.4348 4.97177 24.4348H18.0832C17.3867 25.5753 16.9758 26.9039 16.9531 28.3282H4.97168C4.61647 28.3282 4.32917 28.6155 4.32917 28.9707C4.32917 29.3259 4.61648 29.6132 4.97168 29.6132H17.0419C17.2647 31.0898 17.9003 32.4271 18.8353 33.5067L4.97142 33.5084C4.6162 33.5084 4.32891 33.7957 4.32891 34.1509C4.32891 34.5061 4.61621 34.7934 4.97142 34.7934H20.2559C21.3494 35.5596 22.6449 36.0506 24.0501 36.1672V36.209C24.0501 36.6165 23.8794 37.0135 23.5834 37.2973ZM24.6908 34.9135C21.1283 34.9135 18.2292 32.0161 18.2292 28.4536C18.2292 24.8911 21.1266 21.992 24.6908 21.992C28.2551 21.992 31.1525 24.8894 31.1525 28.4536C31.1525 32.0162 28.2534 34.9135 24.6908 34.9135Z" fill="black"/>
<path d="M4.97064 19.2563H20.3595C20.7147 19.2563 21.002 18.969 21.002 18.6138C21.002 18.2586 20.7147 17.9713 20.3595 17.9713H4.97064C4.61542 17.9713 4.32812 18.2586 4.32812 18.6138C4.32812 18.9673 4.61543 19.2563 4.97064 19.2563Z" fill="black"/>
<path d="M8.53935 13.6321C8.66124 13.7435 8.81795 13.7992 8.97117 13.7992C9.1453 13.7992 9.31942 13.7296 9.44479 13.5903L16.8327 5.47621C17.0713 5.21502 17.0521 4.80758 16.791 4.56727C16.5298 4.33046 16.1241 4.34787 15.8837 4.60906L8.4958 12.7231C8.25899 12.9878 8.27816 13.3918 8.53935 13.6321Z" fill="black"/>
<path d="M9.77627 8.73415C10.3927 8.73415 11.0056 8.48341 11.4513 7.99589C12.2906 7.07304 12.2227 5.63825 11.3016 4.79898C10.377 3.95971 8.94394 4.0276 8.10467 4.94872C7.69722 5.39622 7.48828 5.97432 7.51614 6.5785C7.544 7.18098 7.80692 7.73817 8.2544 8.14733C8.68797 8.53911 9.23124 8.73415 9.77627 8.73415ZM9.05366 5.81236C9.24693 5.59993 9.51158 5.49197 9.77801 5.49197C10.0131 5.49197 10.2481 5.57555 10.4362 5.74619C10.835 6.11011 10.8646 6.72823 10.5006 7.12875C10.1367 7.52923 9.51859 7.55709 9.11808 7.19491C8.71934 6.83099 8.68974 6.21113 9.05366 5.81236Z" fill="black"/>
<path d="M13.8808 10.2052C13.0415 11.128 13.1094 12.5628 14.0305 13.4038C14.4623 13.7973 15.0091 13.9923 15.5524 13.9923C16.1688 13.9923 16.7817 13.7416 17.2274 13.2541C18.0667 12.3312 17.9988 10.8964 17.0777 10.0572C16.1548 9.21616 14.72 9.28404 13.8808 10.2052ZM16.2123 11.0044C16.6128 11.3683 16.6406 11.9899 16.2785 12.387C15.9145 12.7874 15.2964 12.8153 14.8959 12.4531C14.4954 12.0892 14.4676 11.4676 14.8297 11.0706C15.023 10.8581 15.2894 10.7502 15.5541 10.7502C15.7892 10.7519 16.026 10.8355 16.2123 11.0044Z" fill="black"/>
</svg>
