<svg width="131" height="115" viewBox="0 0 131 115" fill="none" xmlns="http://www.w3.org/2000/svg">
<circle cx="57.5" cy="57.5" r="57.5" fill="#D4DEFC"/>
<circle cx="58.5" cy="56.5" r="47.5" fill="white"/>
<g filter="url(#filter0_ii_643_2122)">
<circle cx="110.5" cy="57.5" r="20.5" fill="#233A7C"/>
</g>
<circle cx="110.5" cy="57.5" r="19.5" stroke="white" stroke-width="2"/>
<path d="M109.9 67V50.75L111.325 52.225H106.2V49.5H113.15V67H109.9Z" fill="white"/>
<path d="M75.6051 57.8227L64.4331 39.1109C63.3952 37.3724 61.5701 36.3345 59.5475 36.3345C57.5251 36.3345 55.6982 37.3724 54.6619 39.1109L46.9464 52.038C46.716 52.4251 46.8414 52.9266 47.2285 53.1589C47.6157 53.3856 48.1171 53.2621 48.3475 52.875L56.063 39.9478C56.8022 38.7071 58.1056 37.9679 59.5473 37.9679C60.9889 37.9679 62.2923 38.7071 63.0316 39.9478L74.2035 58.6596C74.9649 59.9335 74.9833 61.46 74.2533 62.7468C73.5233 64.0336 72.2052 64.8006 70.7266 64.8006H53.1725C52.7208 64.8006 52.3557 65.1656 52.3557 65.6173C52.3557 66.0671 52.7208 66.434 53.1725 66.434H70.7266C72.8006 66.434 74.6515 65.3574 75.6745 63.5543C76.6977 61.7477 76.6719 59.6073 75.6063 57.8244L75.6051 57.8227Z" fill="#233A7C"/>
<path d="M49.8228 67.3056C50.5086 65.9801 50.9031 64.4794 50.9031 62.8848C50.9031 57.5607 46.5708 53.2263 41.2447 53.2263C35.9207 53.2263 31.5882 57.5587 31.5882 62.8848C31.5882 68.2088 35.9205 72.5413 41.2466 72.5413C42.8413 72.5413 44.3419 72.1468 45.6674 71.461L50.3685 76.8313C50.9805 77.5392 51.8783 77.9613 52.8315 77.9872C52.8591 78.0001 52.8997 78.0001 52.9402 78.0001C53.838 78.0001 54.7229 77.6332 55.3627 76.9935C56.03 76.3261 56.384 75.4025 56.3564 74.4623C56.3287 73.5239 55.9084 72.6261 55.1857 71.9993L49.8228 67.3056ZM33.2215 62.8848C33.2215 58.4584 36.822 54.8597 41.2465 54.8597C45.6711 54.8597 49.2716 58.4602 49.2716 62.8848C49.2716 67.3111 45.6711 70.9098 41.2465 70.9098C36.822 70.9098 33.2215 67.3093 33.2215 62.8848ZM54.723 74.5711C54.723 75.0468 54.5461 75.4966 54.205 75.8377C53.851 76.1916 53.3754 76.4221 52.885 76.3686C52.3817 76.341 51.919 76.1234 51.5927 75.7565L47.0594 70.5778C47.7691 70.0395 48.4015 69.409 48.9379 68.6993L54.1091 73.2251C54.4907 73.5662 54.7082 74.0142 54.7212 74.5175V74.5709L54.723 74.5711Z" fill="#233A7C"/>
<path d="M41.2464 57.12C40.7947 57.12 40.4297 57.485 40.4297 57.9367C40.4297 58.3865 40.7947 58.7534 41.2464 58.7534C43.525 58.7534 45.3778 60.608 45.3778 62.8866C45.3778 63.3365 45.7428 63.7034 46.1945 63.7034C46.6462 63.7034 47.0112 63.3383 47.0112 62.8866C47.0112 59.7084 44.4247 57.1218 41.2463 57.1218L41.2464 57.12Z" fill="#233A7C"/>
<path d="M59.5469 54.9449C60.972 54.9449 62.1316 53.7871 62.1316 52.362V43.8302C62.1316 42.4051 60.972 41.2455 59.5469 41.2455C58.1219 41.2455 56.9734 42.4032 56.9734 43.8302V52.362C56.9734 53.7871 58.1274 54.9449 59.5469 54.9449ZM58.6049 43.83C58.6049 43.3046 59.0271 42.8769 59.5451 42.8769C60.0687 42.8769 60.4964 43.3046 60.4964 43.83V52.3619C60.4964 52.8873 60.0705 53.3132 59.5451 53.3132C59.0252 53.3132 58.6049 52.8873 58.6049 52.3619V43.83Z" fill="#233A7C"/>
<path d="M59.548 62.0943C61.1888 62.0943 62.5235 60.7632 62.5235 59.1299C62.5235 57.4947 61.1888 56.1636 59.548 56.1636C57.9073 56.1636 56.5818 57.4946 56.5818 59.1299C56.5818 60.7651 57.9128 62.0943 59.548 62.0943ZM59.548 57.7951C60.2873 57.7951 60.8902 58.3942 60.8902 59.1298C60.8902 59.8654 60.2874 60.4627 59.548 60.4627C58.8125 60.4627 58.2152 59.8654 58.2152 59.1298C58.2152 58.3942 58.8125 57.7951 59.548 57.7951Z" fill="#233A7C"/>
<defs>
<filter id="filter0_ii_643_2122" x="90" y="35" width="43" height="47" filterUnits="userSpaceOnUse" color-interpolation-filters="sRGB">
<feFlood flood-opacity="0" result="BackgroundImageFix"/>
<feBlend mode="normal" in="SourceGraphic" in2="BackgroundImageFix" result="shape"/>
<feColorMatrix in="SourceAlpha" type="matrix" values="0 0 0 0 0 0 0 0 0 0 0 0 0 0 0 0 0 0 127 0" result="hardAlpha"/>
<feOffset dy="4"/>
<feGaussianBlur stdDeviation="2"/>
<feComposite in2="hardAlpha" operator="arithmetic" k2="-1" k3="1"/>
<feColorMatrix type="matrix" values="0 0 0 0 0.521855 0 0 0 0 0.627134 0 0 0 0 0.925424 0 0 0 1 0"/>
<feBlend mode="normal" in2="shape" result="effect1_innerShadow_643_2122"/>
<feColorMatrix in="SourceAlpha" type="matrix" values="0 0 0 0 0 0 0 0 0 0 0 0 0 0 0 0 0 0 127 0" result="hardAlpha"/>
<feOffset dx="2" dy="-2"/>
<feGaussianBlur stdDeviation="2"/>
<feComposite in2="hardAlpha" operator="arithmetic" k2="-1" k3="1"/>
<feColorMatrix type="matrix" values="0 0 0 0 0.0484865 0 0 0 0 0.113937 0 0 0 0 0.160231 0 0 0 1 0"/>
<feBlend mode="normal" in2="effect1_innerShadow_643_2122" result="effect2_innerShadow_643_2122"/>
</filter>
</defs>
</svg>
