<svg width="131" height="115" viewBox="0 0 131 115" fill="none" xmlns="http://www.w3.org/2000/svg">
<g filter="url(#filter0_ii_2001_101)">
<circle cx="57.5" cy="57.5" r="57.5" fill="#243C80"/>
</g>
<g filter="url(#filter1_ii_2001_101)">
<circle cx="110.5" cy="57.5" r="20.5" fill="black"/>
</g>
<circle cx="110.5" cy="57.5" r="19.5" stroke="white" stroke-width="2"/>
<path d="M101.85 63.025V60.775L110.475 49.5H113.95L105.45 60.775L103.825 60.275H117.7V63.025H101.85ZM111.45 67V63.025L111.55 60.275V56.75H114.6V67H111.45Z" fill="white"/>
<path fill-rule="evenodd" clip-rule="evenodd" d="M53.1956 45.0412C54.924 45.0412 56.4875 45.7473 57.62 46.8909C58.7525 48.0345 59.4517 49.6134 59.4517 51.3588C59.4517 53.1042 58.7503 54.6831 57.62 55.8267C56.4875 56.9703 54.924 57.6787 53.1956 57.6787C51.4673 57.6787 49.9038 56.9703 48.7713 55.8267C47.6388 54.6831 46.9396 53.1042 46.9396 51.3588C46.9396 49.6134 47.641 48.0345 48.7713 46.8909C49.9038 45.7495 51.4673 45.0412 53.1956 45.0412ZM50.9901 62.9573C54.4073 61.1764 57.4199 59.1556 60.028 56.8996C60.1819 56.7664 60.3337 56.6331 60.4854 56.4977C60.7009 56.3 60.912 56.1024 61.1231 55.9003C63.1198 53.9928 64.9251 51.8788 66.5062 49.5914C66.2335 49.5181 65.9323 49.4404 65.6662 49.3715C65.3781 49.2982 65.123 49.2316 64.9625 49.1872L64.9383 49.1805C64.8767 49.165 64.8108 49.1472 64.7404 49.1295C64.5887 49.0917 64.4303 49.0517 64.2742 48.9962V48.9984C63.6915 48.7964 63.6519 48.6631 63.509 48.1768L63.487 48.1035C63.4826 48.0902 63.4782 48.0747 63.476 48.0614C63.3836 47.7616 63.2891 47.4973 63.1989 47.2642C63.1923 47.2464 63.1857 47.2264 63.1791 47.2087C63.1065 47.0288 63.0318 46.8711 62.9636 46.7312C62.8867 46.5736 62.8405 46.4892 62.8031 46.4226C62.6184 46.0873 62.5216 45.9096 62.559 45.5498C62.592 45.2456 62.7239 45.0147 63.0032 44.5283L63.1791 44.2197L63.1901 44.2019L64.0389 42.6275L61.807 40.3691C61.4288 40.5756 60.8614 40.9087 60.4942 41.1241C60.4612 41.1441 60.4788 41.1352 60.2039 41.2929V41.2951C60.017 41.4039 59.9159 41.4639 59.8323 41.5149C59.4057 41.7703 59.2034 41.8924 58.867 41.8969C58.5657 41.9013 58.3832 41.8103 58.0468 41.6349L58.0446 41.6371C57.8907 41.5594 57.6928 41.455 57.4883 41.3617C57.0595 41.1685 56.7648 41.0797 56.5581 41.0198C55.8874 40.8221 55.6851 40.7622 55.4784 40.0027C55.4256 39.8073 55.3685 39.583 55.3003 39.3188C55.1464 38.717 54.944 37.922 54.8055 37.4557H51.562C51.4719 37.7644 51.3663 38.204 51.2652 38.6326C51.0695 39.4542 50.8804 40.2537 50.6341 40.5557C50.6187 40.5734 50.6033 40.5934 50.5857 40.6089C50.3306 40.8643 49.7853 41.0508 49.3125 41.213L49.2795 41.2241C49.0948 41.2862 48.9277 41.344 48.8419 41.3839C48.6022 41.4928 48.3911 41.5993 48.2394 41.6793C48.0305 41.7881 47.9074 41.8503 47.727 41.888C47.3444 41.968 47.1993 41.8814 46.8343 41.6704C46.8211 41.6637 46.8101 41.6549 46.7969 41.6482L46.7925 41.646L46.7903 41.6438V41.646L46.566 41.515L46.5638 41.5127V41.515C46.0734 41.2241 45.1037 40.6534 44.5737 40.3691L42.3264 42.6342C42.4715 42.9051 42.6232 43.1738 42.7771 43.4447C42.9509 43.7512 43.1246 44.062 43.2411 44.2774L43.2609 44.3152C43.3379 44.4595 43.4236 44.6083 43.494 44.7304C43.7139 45.119 43.8195 45.3033 43.8239 45.6253C43.8283 45.9207 43.7403 46.0894 43.5754 46.4136C43.5116 46.5424 43.4236 46.7112 43.2961 47.0043C43.1048 47.4396 43.019 47.7327 42.9597 47.9414C42.7618 48.6209 42.7002 48.8297 41.957 49.0362C41.7503 49.0939 41.515 49.1539 41.2467 49.2249C40.6486 49.3804 39.8811 49.5825 39.4172 49.7224L39.4238 52.9911C39.7932 53.1043 40.3429 53.242 40.8487 53.3686C41.3632 53.4974 41.8338 53.6129 42.1087 53.7106L42.1527 53.7261C42.7112 53.9371 42.8211 54.2902 43.008 54.8942C43.074 55.1096 43.1576 55.376 43.2983 55.6981C43.4258 55.9912 43.5116 56.1599 43.5776 56.2888C43.7491 56.6241 43.8371 56.8017 43.8283 57.1059C43.8195 57.4279 43.7073 57.6167 43.472 58.0142C43.3885 58.1541 43.2851 58.3295 43.2037 58.4761L43.2059 58.4783C43.1598 58.5605 43.0498 58.747 42.9245 58.958C42.72 59.3022 42.4671 59.733 42.3022 60.0461L44.5759 62.3467C44.8244 62.2112 45.1344 62.0247 45.3698 61.8848L45.3742 61.8825L45.5941 61.7515L45.616 61.7382C45.9613 61.5339 46.1878 61.394 46.3659 61.2808C46.8431 60.9832 47.0717 60.8389 47.4016 60.8055C47.76 60.77 47.9579 60.8722 48.3362 61.072C48.5077 61.1608 48.7386 61.283 49.0728 61.4251L49.0948 61.4362C49.1696 61.4651 49.2949 61.5028 49.429 61.545C49.8381 61.6716 50.3086 61.8181 50.5879 62.0957C50.6033 62.1113 50.6187 62.1268 50.6319 62.1446C50.7616 62.3022 50.8738 62.5732 50.9727 62.9107L50.9901 62.9573ZM42.6209 76.5655H47.1661V71.7956H42.6209V76.5655ZM47.8786 78H41.9103C41.5189 78 41.2001 77.678 41.2001 77.2828V71.0784C41.2001 70.6831 41.5189 70.3611 41.9103 70.3611H47.8786C48.27 70.3611 48.5889 70.6831 48.5889 71.0784V77.2828C48.5889 77.6802 48.27 78 47.8786 78ZM52.4261 76.5655H56.9735L56.9713 67.0611H52.4239L52.4261 76.5655ZM57.6816 78H51.7156C51.3242 78 51.0053 77.678 51.0053 77.2828V66.3418C51.0053 65.9466 51.3242 65.6246 51.7156 65.6246H57.6838C58.0752 65.6246 58.3941 65.9466 58.3941 66.3418V77.2828C58.3941 77.6802 58.0752 78 57.6816 78ZM62.229 76.5655V61.0347H66.7743V76.5655H62.229ZM67.4868 78H61.5185C61.1271 78 60.8082 77.678 60.8082 77.2828V60.3171C60.8082 59.9218 61.1271 59.5999 61.5185 59.5999H67.4868C67.8782 59.5999 68.197 59.9219 68.197 60.3171V77.2828C68.197 77.6802 67.8782 78 67.4868 78ZM72.0342 76.5655H76.5795V52.6406H72.0342V76.5655ZM77.2897 78H71.3215C70.9301 78 70.6112 77.678 70.6112 77.2828V51.9235C70.6112 51.5283 70.9301 51.2063 71.3215 51.2063H77.2897C77.6812 51.2063 78 51.5283 78 51.9235V77.2828C78 77.6802 77.6834 78 77.2897 78ZM41.6288 67.6895C44.8283 67.03 47.896 66.0063 50.7878 64.6628H50.79C50.8054 64.6562 50.8208 64.6495 50.8362 64.6406L50.8714 64.6229C54.6558 62.853 58.1366 60.5325 61.2108 57.7591C63.9969 55.3075 66.3323 52.585 68.2211 49.5895L68.2277 49.5784C70.4311 46.2275 72.1792 42.5344 73.3798 38.5863L75.6756 42.8011C75.8647 43.1475 76.2957 43.274 76.6387 43.0831C76.9817 42.8921 77.1071 42.4568 76.9179 42.1105L73.791 36.3723C73.7008 36.2057 73.5469 36.0769 73.3512 36.0236C73.1643 35.9748 72.9774 36.0036 72.8213 36.0925L67.4976 38.7261C67.1457 38.8993 67.0006 39.3279 67.1721 39.681C67.3436 40.034 67.768 40.1828 68.1177 40.0074L72.056 38.0599C70.9455 41.7417 69.3491 45.1949 67.337 48.3414C66.9324 48.217 66.4355 48.0905 66.0089 47.9816C65.7428 47.915 65.5097 47.8529 65.3513 47.8084L65.314 47.7996C65.2436 47.7796 65.1622 47.7596 65.0787 47.7374C64.9951 47.7174 64.9094 47.6952 64.839 47.6752L64.8258 47.6397C64.7092 47.2622 64.6081 46.969 64.5179 46.7381C64.5113 46.7181 64.5025 46.6981 64.4915 46.6804C64.3904 46.425 64.3046 46.2385 64.2343 46.0942C64.1771 45.9765 64.1023 45.841 64.0408 45.73C64.0012 45.6567 63.9594 45.7899 63.9682 45.7033L64.2299 45.2481L64.4058 44.9395C64.4146 44.9239 64.4234 44.9061 64.4322 44.8884L65.536 42.8432C65.69 42.5589 65.6306 42.2147 65.4173 41.9971L62.4619 39.0059C62.253 38.795 61.9451 38.7417 61.6878 38.8505C61.2766 39.0059 60.3245 39.5678 59.7791 39.8875C59.5768 40.0074 59.6472 39.9697 59.5043 40.0518L59.5021 40.0541V40.0518C59.3899 40.1162 59.2404 40.2073 59.1128 40.2828C58.8995 40.4094 58.893 40.4671 58.8468 40.4693C58.8006 40.4693 58.8226 40.4316 58.6906 40.3649H58.6884L58.6906 40.3627C58.5521 40.2917 58.3762 40.2006 58.0661 40.0585C57.556 39.8276 57.2041 39.7232 56.9578 39.6499C56.8721 39.6255 56.8545 39.6455 56.8501 39.6321C56.8193 39.5189 56.7533 39.2613 56.6785 38.9637C56.4432 38.0466 56.1024 36.7165 55.9265 36.3945C55.7968 36.1591 55.5549 36.0281 55.3086 36.0259H51.0822C50.7853 36.0259 50.5324 36.2102 50.4246 36.47C50.2355 36.863 50.0618 37.5936 49.8925 38.3087C49.754 38.8905 49.6198 39.4589 49.5626 39.6144C49.4637 39.6566 49.1448 39.7654 48.8634 39.8609L48.8304 39.8742C48.6127 39.9475 48.4148 40.0163 48.2696 40.083C47.9288 40.2362 47.7375 40.3361 47.599 40.4072L47.5462 40.436L47.511 40.4161L47.5066 40.4116V40.4094L47.2845 40.2784V40.2762C46.594 39.8698 45.0174 38.9393 44.6128 38.8261C44.3599 38.755 44.0982 38.8327 43.9245 39.0082L40.9646 41.9927C40.7316 42.2258 40.6942 42.5834 40.8503 42.8565C41.0922 43.3406 41.3187 43.7425 41.5496 44.1511C41.6749 44.3731 41.8047 44.6019 41.9982 44.9638C42.0048 44.9771 42.0114 44.9882 42.0202 45.0016C42.1323 45.2103 42.2071 45.3391 42.2664 45.4479C42.3676 45.6233 42.4138 45.5878 42.4138 45.6478C42.4138 45.7055 42.3808 45.6522 42.3214 45.7699C42.2357 45.9409 42.1191 46.1696 42.0026 46.4339C41.7805 46.938 41.6771 47.2933 41.6046 47.5442C41.576 47.6397 41.609 47.6574 41.5892 47.6619C41.4616 47.6974 41.1977 47.7662 40.8943 47.844C39.9839 48.0816 38.7151 48.4124 38.3831 48.5857C38.1214 48.7233 37.9785 49.0031 38.0026 49.2829L38.0136 53.4866C38.0136 53.7597 38.1654 53.9973 38.3875 54.1172C38.7789 54.3282 39.7002 54.5569 40.5138 54.759C40.9998 54.8811 41.4462 54.9921 41.6441 55.061L41.6573 55.0654C41.7167 55.0943 41.6001 55.1476 41.6551 55.3208C41.7343 55.5739 41.831 55.887 42.0003 56.2757C42.1147 56.5377 42.2312 56.7664 42.3192 56.9396C42.3808 57.0618 42.416 57.0085 42.4138 57.0662C42.4116 57.1195 42.3654 57.0995 42.2576 57.2794C42.1917 57.3927 42.1103 57.5281 41.9718 57.7746V57.7768L41.9696 57.7746C41.886 57.9234 41.8046 58.0633 41.7101 58.2209C41.3648 58.8027 40.8965 59.5955 40.7821 60.0152C40.7118 60.2705 40.7887 60.5348 40.9625 60.7102L43.9179 63.7014C44.107 63.8924 44.3753 63.9546 44.615 63.8857V63.8879C44.9866 63.7813 45.6551 63.3794 46.0971 63.1129V63.1152L46.317 62.9841L46.3301 62.9775C46.6292 62.802 46.8997 62.6333 47.1108 62.5C47.3988 62.3202 47.533 62.2336 47.5352 62.2336C47.5902 62.2291 47.5506 62.2758 47.6891 62.3468C47.8804 62.4467 48.1399 62.5822 48.5203 62.7443C48.5357 62.751 48.5511 62.7554 48.5643 62.7621C48.7007 62.8176 48.8524 62.8642 49.0151 62.9153C49.2284 62.9819 49.4659 63.0552 49.5561 63.0952C49.5649 63.1329 49.5824 63.2062 49.6154 63.3172C49.6396 63.4038 49.666 63.4971 49.6924 63.5948C47.047 64.7806 44.2521 65.6911 41.3452 66.2906C40.9625 66.3684 40.7141 66.7481 40.7932 67.1345C40.8724 67.5187 41.2462 67.7673 41.6288 67.6895ZM56.6148 47.9082C55.7396 47.0244 54.5301 46.4782 53.1954 46.4782C51.8606 46.4782 50.6512 47.0244 49.776 47.9082C48.9008 48.792 48.3599 50.0133 48.3599 51.3613C48.3599 52.7092 48.9008 53.9305 49.776 54.8143C50.6512 55.6981 51.8606 56.2444 53.1954 56.2444C54.5301 56.2444 55.7396 55.6981 56.6148 54.8143C57.49 53.9305 58.0309 52.7092 58.0309 51.3613C58.0309 50.0111 57.4899 48.7898 56.6148 47.9082Z" fill="white"/>
<defs>
<filter id="filter0_ii_2001_101" x="0" y="-2" width="117" height="121" filterUnits="userSpaceOnUse" color-interpolation-filters="sRGB">
<feFlood flood-opacity="0" result="BackgroundImageFix"/>
<feBlend mode="normal" in="SourceGraphic" in2="BackgroundImageFix" result="shape"/>
<feColorMatrix in="SourceAlpha" type="matrix" values="0 0 0 0 0 0 0 0 0 0 0 0 0 0 0 0 0 0 127 0" result="hardAlpha"/>
<feOffset dy="4"/>
<feGaussianBlur stdDeviation="2"/>
<feComposite in2="hardAlpha" operator="arithmetic" k2="-1" k3="1"/>
<feColorMatrix type="matrix" values="0 0 0 0 0.521855 0 0 0 0 0.627134 0 0 0 0 0.925424 0 0 0 1 0"/>
<feBlend mode="normal" in2="shape" result="effect1_innerShadow_2001_101"/>
<feColorMatrix in="SourceAlpha" type="matrix" values="0 0 0 0 0 0 0 0 0 0 0 0 0 0 0 0 0 0 127 0" result="hardAlpha"/>
<feOffset dx="2" dy="-2"/>
<feGaussianBlur stdDeviation="2"/>
<feComposite in2="hardAlpha" operator="arithmetic" k2="-1" k3="1"/>
<feColorMatrix type="matrix" values="0 0 0 0 0.0484865 0 0 0 0 0.113937 0 0 0 0 0.160231 0 0 0 1 0"/>
<feBlend mode="normal" in2="effect1_innerShadow_2001_101" result="effect2_innerShadow_2001_101"/>
</filter>
<filter id="filter1_ii_2001_101" x="90" y="35" width="43" height="47" filterUnits="userSpaceOnUse" color-interpolation-filters="sRGB">
<feFlood flood-opacity="0" result="BackgroundImageFix"/>
<feBlend mode="normal" in="SourceGraphic" in2="BackgroundImageFix" result="shape"/>
<feColorMatrix in="SourceAlpha" type="matrix" values="0 0 0 0 0 0 0 0 0 0 0 0 0 0 0 0 0 0 127 0" result="hardAlpha"/>
<feOffset dy="4"/>
<feGaussianBlur stdDeviation="2"/>
<feComposite in2="hardAlpha" operator="arithmetic" k2="-1" k3="1"/>
<feColorMatrix type="matrix" values="0 0 0 0 0.521855 0 0 0 0 0.627134 0 0 0 0 0.925424 0 0 0 1 0"/>
<feBlend mode="normal" in2="shape" result="effect1_innerShadow_2001_101"/>
<feColorMatrix in="SourceAlpha" type="matrix" values="0 0 0 0 0 0 0 0 0 0 0 0 0 0 0 0 0 0 127 0" result="hardAlpha"/>
<feOffset dx="2" dy="-2"/>
<feGaussianBlur stdDeviation="2"/>
<feComposite in2="hardAlpha" operator="arithmetic" k2="-1" k3="1"/>
<feColorMatrix type="matrix" values="0 0 0 0 0.0484865 0 0 0 0 0.113937 0 0 0 0 0.160231 0 0 0 1 0"/>
<feBlend mode="normal" in2="effect1_innerShadow_2001_101" result="effect2_innerShadow_2001_101"/>
</filter>
</defs>
</svg>
