<svg width="30" height="30" viewBox="0 0 30 30" fill="none" xmlns="http://www.w3.org/2000/svg">
<circle cx="15" cy="15" r="15" fill="white"/>
<path d="M1.80078 10.3333H28.2014C26.2799 4.89947 21.1021 1.00467 15.0115 1H14.9903C8.89971 1.00467 3.72158 4.89947 1.80078 10.3333Z" fill="#FF9933"/>
<path d="M28.201 19.6667H1.80078C3.72314 25.1037 8.90563 29.0001 15.0009 29.0001C21.0962 29.0001 26.2787 25.1037 28.201 19.6667Z" fill="#128807"/>
<path d="M28.2001 19.6666C28.7163 18.2065 29 16.6367 29 14.9999C29 13.3632 28.7166 11.7933 28.2001 10.3333H1.79987C1.28342 11.7933 1 13.3632 1 14.9999C1 16.6367 1.28373 18.2069 1.79987 19.6666H28.2001Z" fill="#F3F4F5"/>
<path d="M14.9983 11.1111C12.8504 11.1111 11.1094 12.8521 11.1094 15C11.1094 17.1479 12.8504 18.8889 14.9983 18.8889C17.1462 18.8889 18.8872 17.1479 18.8872 15C18.8872 12.8521 17.1462 11.1111 14.9983 11.1111ZM18.0736 13.5424C17.9893 13.5798 17.9495 13.6771 17.9849 13.763C18.0204 13.8485 18.1175 13.8896 18.2033 13.8563C18.2341 13.9425 18.2612 14.0302 18.2852 14.1195L16.2828 14.5352L15.6457 14.7906C15.6345 14.7561 15.6205 14.7228 15.604 14.6907L16.2356 14.4207L17.9451 13.2991C17.9908 13.3782 18.0341 13.4594 18.0736 13.5424ZM16.9324 12.2009C16.8786 12.2753 16.8929 12.3792 16.9664 12.4355C17.0395 12.4918 17.1437 12.4787 17.2016 12.4078C17.2716 12.4672 17.3397 12.5291 17.4047 12.5942C17.4697 12.6592 17.5313 12.7273 17.5911 12.7973C17.5201 12.8552 17.5071 12.9591 17.5634 13.0325C17.6197 13.1059 17.7236 13.1202 17.798 13.0664C17.8502 13.1417 17.8991 13.2195 17.9451 13.2991L16.1189 14.2188L15.5692 14.6307C15.5496 14.6002 15.5272 14.5719 15.5029 14.5451L16.0433 14.1205L17.4047 12.5942L15.8781 13.9553L15.4534 14.4957C15.4267 14.4714 15.398 14.4493 15.3679 14.4294L15.7798 13.8797L16.6994 12.0534C16.7791 12.0995 16.8568 12.1486 16.9324 12.2009ZM16.2352 12.0133C16.3208 12.0488 16.4185 12.009 16.4558 11.9246C16.5392 11.9642 16.6201 12.0074 16.6994 12.0534L15.5779 13.763L15.3078 14.3946C15.2758 14.3781 15.2425 14.3641 15.208 14.3529L15.4634 13.7157L15.879 11.7134C15.9683 11.737 16.056 11.7644 16.1422 11.7952C16.1089 11.8808 16.1497 11.9778 16.2352 12.0133ZM14.5764 11.7949C14.6679 11.7828 14.7323 11.7003 14.7229 11.6092C14.8138 11.602 14.9056 11.597 14.9983 11.597C15.091 11.597 15.1828 11.6017 15.2736 11.6092C15.2643 11.7003 15.3287 11.7828 15.4201 11.7949C15.5116 11.807 15.5953 11.7436 15.6099 11.653C15.7008 11.6695 15.7907 11.6898 15.8787 11.7131L15.2375 13.655L15.1401 14.3345C15.1053 14.327 15.0692 14.323 15.0328 14.3211L15.1146 13.6389L14.9983 11.597L14.8816 13.6392L14.9634 14.3214C14.9267 14.3233 14.8909 14.3274 14.8561 14.3348L14.7587 13.6554L14.1175 11.7134C14.2059 11.6901 14.2955 11.6698 14.3863 11.6534C14.4009 11.7436 14.4846 11.807 14.5764 11.7949ZM13.5407 11.9246C13.578 12.009 13.6757 12.0488 13.7613 12.0133C13.8468 11.9778 13.8879 11.8808 13.8546 11.7949C13.9408 11.7641 14.0285 11.737 14.1178 11.7131L14.5335 13.7154L14.7889 14.3526C14.7544 14.3637 14.7211 14.3778 14.689 14.3942L14.419 13.7627L13.2974 12.0531C13.3764 12.0074 13.4576 11.9642 13.5407 11.9246ZM12.1992 13.0658C12.2736 13.1196 12.3775 13.1053 12.4338 13.0319C12.4901 12.9588 12.477 12.8546 12.4061 12.7967C12.4655 12.7267 12.5274 12.6586 12.5924 12.5935C12.6575 12.5285 12.7256 12.4669 12.7956 12.4072C12.8535 12.4781 12.9574 12.4912 13.0308 12.4349C13.1042 12.3786 13.1185 12.2746 13.0647 12.2003C13.14 12.148 13.2178 12.0992 13.2974 12.0531L14.2171 13.8794L14.629 14.4291C14.5985 14.4487 14.5702 14.4711 14.5434 14.4953L14.1188 13.955L12.5924 12.5935L13.9536 14.1202L14.494 14.5448C14.4697 14.5716 14.4476 14.6002 14.4277 14.6304L13.878 14.2185L12.0517 13.2988C12.0978 13.2192 12.1469 13.1414 12.1992 13.0658ZM11.9239 16.4572C12.0076 16.4199 12.0471 16.3225 12.0116 16.2373C11.9761 16.1517 11.8794 16.1109 11.7935 16.1439C11.7322 15.9725 11.6843 15.7949 11.651 15.6119C11.7419 15.5976 11.8053 15.5136 11.7932 15.4222C11.7811 15.3307 11.6983 15.266 11.6068 15.2756C11.5994 15.1848 11.5953 15.093 11.5953 15.0003C11.5953 14.9076 11.5994 14.8158 11.6068 14.725C11.6983 14.7346 11.7811 14.6699 11.7932 14.5784C11.8053 14.4866 11.7419 14.403 11.651 14.3886C11.6843 14.2057 11.7322 14.0281 11.7935 13.8566C11.8794 13.8896 11.9761 13.8486 12.0116 13.7633C12.0471 13.6781 12.0076 13.5807 11.9239 13.5434C11.9634 13.4603 12.006 13.3785 12.0517 13.2994L13.7613 14.421L14.3928 14.691C14.3764 14.7231 14.3624 14.7564 14.3512 14.7909L13.714 14.5355L11.7117 14.1198L13.6536 14.761L14.3331 14.8584C14.3256 14.8933 14.3216 14.9294 14.3197 14.9658L13.6375 14.8839L11.5956 15L13.6375 15.1166L14.3197 15.0348C14.3216 15.0715 14.3256 15.1073 14.3331 15.1422L13.6536 15.2395L11.7117 15.8807L13.714 15.4651L14.3512 15.2097C14.3624 15.2442 14.3764 15.2775 14.3928 15.3095L13.7613 15.5796L12.0517 16.7011C12.0057 16.6218 11.9634 16.5403 11.9239 16.4572ZM13.0641 17.799C13.1179 17.7247 13.1036 17.6208 13.0302 17.5645C12.9571 17.5082 12.8528 17.5212 12.795 17.5922C12.725 17.5327 12.6568 17.4708 12.5918 17.4058C12.5268 17.3408 12.4652 17.2726 12.4055 17.2026C12.4764 17.1448 12.4895 17.0409 12.4332 16.9674C12.3768 16.894 12.2729 16.8797 12.1986 16.9335C12.1463 16.8582 12.0975 16.7805 12.0514 16.7008L13.8776 15.7812L14.4274 15.3693C14.447 15.3998 14.4694 15.4281 14.4936 15.4548L13.9532 15.8795L12.5918 17.4058L14.1184 16.0447L14.5431 15.5043C14.5699 15.5285 14.5985 15.5506 14.6287 15.5706L14.2168 16.1203L13.2971 17.9465C13.2175 17.9005 13.1397 17.8513 13.0641 17.799ZM15.4201 18.205C15.3287 18.2172 15.2643 18.2996 15.2736 18.3908C15.1828 18.3979 15.091 18.4029 14.9983 18.4029C14.9056 18.4029 14.8138 18.3982 14.7229 18.3908C14.7323 18.2996 14.6679 18.2172 14.5764 18.205C14.4849 18.1929 14.4012 18.2564 14.3866 18.3469C14.2037 18.3136 14.026 18.2663 13.8546 18.205C13.8879 18.1192 13.8468 18.0218 13.7613 17.9866C13.6757 17.9512 13.578 17.991 13.5407 18.0753C13.4573 18.0358 13.3764 17.9926 13.2971 17.9465L14.4187 16.237L14.6887 15.6054C14.7208 15.6219 14.754 15.6359 14.7886 15.6471L14.5332 16.2842L14.1175 18.2866L14.7587 16.3446L14.8561 15.6651C14.8909 15.6726 14.927 15.6766 14.9634 15.6785L14.8816 16.3608L14.9983 18.4029L15.1149 16.3614L15.0331 15.6791C15.0698 15.6773 15.1056 15.6732 15.1404 15.6658L15.2378 16.3452L15.879 18.2872C15.7907 18.3105 15.7011 18.3307 15.6102 18.3472C15.5956 18.2564 15.5119 18.1929 15.4201 18.205ZM16.4558 18.0753C16.4185 17.991 16.3208 17.9512 16.2352 17.9866C16.1497 18.0221 16.1086 18.1192 16.1419 18.205C16.0557 18.2358 15.968 18.2629 15.8787 18.2869L15.4631 16.2846L15.2076 15.6474C15.2422 15.6362 15.2755 15.6222 15.3075 15.6057L15.5776 16.2373L16.6991 17.9468C16.6201 17.9926 16.5389 18.0358 16.4558 18.0753ZM17.7973 16.9342C17.723 16.8803 17.6191 16.8946 17.5628 16.9681C17.5064 17.0412 17.5195 17.1454 17.5904 17.2033C17.531 17.2733 17.4691 17.3414 17.4041 17.4064C17.3391 17.4714 17.2709 17.533 17.2009 17.5928C17.1431 17.5218 17.0392 17.5088 16.9657 17.5651C16.8923 17.6214 16.878 17.7253 16.9318 17.7997C16.8565 17.8519 16.7788 17.9008 16.6991 17.9468L15.7795 16.1206L15.3676 15.5709C15.398 15.5513 15.4264 15.5289 15.4531 15.5046L15.8778 16.045L17.4041 17.4064L16.043 15.8798L15.5026 15.4551C15.5268 15.4284 15.5489 15.3998 15.5688 15.3696L16.1186 15.7815L17.9448 16.7011C17.8988 16.7808 17.8496 16.8586 17.7973 16.9342ZM17.9849 16.237C17.9495 16.3225 17.9893 16.4202 18.0736 16.4575C18.0341 16.5409 17.9908 16.6218 17.9448 16.7011L16.2352 15.5796L15.6037 15.3095C15.6202 15.2775 15.6342 15.2442 15.6454 15.2097L16.2825 15.4651L18.2848 15.8807C18.2612 15.97 18.2338 16.0577 18.203 16.1439C18.1175 16.1106 18.0204 16.1514 17.9849 16.237ZM18.2033 15.4218C18.1912 15.5133 18.2547 15.597 18.3452 15.6116C18.3287 15.7025 18.3085 15.7924 18.2852 15.8804L16.3432 15.2392L15.6637 15.1418C15.6712 15.107 15.6752 15.0709 15.6771 15.0345L16.3594 15.1163L18.4012 15L16.3597 14.8833L15.6774 14.9651C15.6756 14.9284 15.6715 14.8926 15.664 14.8578L16.3435 14.7604L18.2855 14.1192C18.3088 14.2076 18.329 14.2972 18.3455 14.388C18.255 14.4026 18.1915 14.4863 18.2036 14.5778C18.2158 14.6693 18.2982 14.7337 18.3894 14.7243C18.3965 14.8152 18.4015 14.907 18.4015 14.9997C18.4015 15.0924 18.3968 15.1842 18.3894 15.275C18.2979 15.266 18.2152 15.3304 18.2033 15.4218Z" fill="#000088"/>
</svg>
