<svg width="1122" height="43" viewBox="0 0 1122 43" fill="none" xmlns="http://www.w3.org/2000/svg">
<path d="M240.549 36.017H234.772V21.2474H230.837V16.4387H234.772V13.017C234.772 8.96224 236.513 6.0542 242.274 6.0542C243.492 6.0542 245.405 6.30609 245.405 6.30609V10.7712H243.396C241.349 10.7712 240.549 11.4099 240.549 13.1756V16.4387H245.329L244.903 21.2474H240.549L240.549 36.017ZM253.804 16.0544C253.72 16.0544 253.634 16.0576 253.548 16.0598C248.191 16.0598 245.74 20.1922 245.74 26.0583C245.74 33.448 248.919 36.4055 253.59 36.4055C256.262 36.4055 258.017 35.2521 259.084 33.0995V36.0191H264.579V16.4408H259.084V19.4516C258.213 17.5145 256.409 16.0774 253.804 16.0544ZM255.201 20.6807C257.451 20.6807 258.802 22.2902 258.802 25.0278L258.807 27.8239C258.807 29.669 257.692 31.8277 255.201 31.8277C251.373 31.8277 251.476 27.5883 251.476 26.1764C251.476 21.4268 253.515 20.6807 255.201 20.6807ZM266.798 26.2309C266.798 23.8518 266.687 16.0672 276.576 16.0672C280.546 16.0672 282.203 17.3617 282.203 17.3617L280.871 21.5996C280.871 21.5996 279.216 20.6647 277.059 20.6647C274.296 20.6647 272.533 22.3073 272.533 25.1974L272.536 27.2698C272.536 30.0468 274.237 31.9006 277.064 31.9006C279.029 31.9006 280.841 30.9569 280.841 30.9569L282.17 35.1063C282.17 35.1063 280.654 36.409 276.604 36.409C267.188 36.409 266.798 29.4247 266.798 26.2309H266.798ZM314.421 16.0598C319.777 16.0598 322.267 20.1922 322.267 26.0583C322.267 33.448 319.088 36.4055 314.417 36.4055C311.745 36.4055 309.77 35.2522 308.703 33.0995V36.0191L303.278 36.0169V6.64949L309.038 6.13423V19.1864C309.869 16.9029 312.602 16.0598 314.421 16.0598H314.421ZM312.806 20.6807C310.556 20.6807 309.038 22.2902 309.038 25.0278L309.033 27.8239C309.029 29.669 310.084 31.8277 312.806 31.8277C316.634 31.8277 316.532 27.5883 316.532 26.1764C316.532 21.4268 314.492 20.6807 312.806 20.6807ZM292.198 16.076C286.123 16.076 282.915 19.4733 282.915 25.5108V26.6325C282.915 34.4686 287.42 36.486 292.79 36.486C298.009 36.486 300.372 34.9887 300.372 34.9887L299.294 31.0012C299.294 31.0012 296.515 32.214 293.48 32.214C290.334 32.214 288.981 31.3917 288.635 28.291H300.833V25.0921C300.833 18.543 297.233 16.0758 292.198 16.0758L292.198 16.076ZM292.345 20.0688C294.448 20.0688 295.811 21.3914 295.736 24.4589H288.645C288.768 21.2304 290.238 20.0689 292.345 20.0689V20.0688ZM333.753 16.0491C327.514 16.0491 324.229 19.6551 324.229 26.1172C324.229 34.9837 329.891 36.4109 333.764 36.4109C339.432 36.4109 343.204 33.2808 343.204 26.1978C343.204 18.8255 338.963 16.0491 333.753 16.0491V16.0491ZM333.675 20.6968C336.418 20.6968 337.505 22.8026 337.505 25.1996V27.2605C337.505 30.1643 335.984 31.8439 333.664 31.8439C331.495 31.8439 329.97 30.2728 329.97 27.2605V25.1996C329.97 21.987 331.784 20.6968 333.675 20.6968V20.6968ZM354.68 16.0491C348.44 16.0491 345.156 19.6551 345.156 26.1172C345.156 34.9837 350.818 36.4109 354.69 36.4109C360.359 36.4109 364.13 33.2808 364.13 26.1978C364.13 18.8255 359.89 16.0491 354.68 16.0491V16.0491ZM354.601 20.6968C357.345 20.6968 358.432 22.8026 358.432 25.1996V27.2605C358.432 30.1643 356.911 31.8439 354.591 31.8439C352.421 31.8439 350.896 30.2728 350.896 27.2605V25.1996C350.896 21.987 352.711 20.6968 354.601 20.6968V20.6968ZM366.307 36.017V6.64949L372.084 6.13423V25.8182L377.816 16.4387H383.917L377.938 26.1531L384.148 36.017H378.029L372.084 26.4393V36.017H366.307Z" fill="#A0A3BD"/>
<path d="M15.4259 0.305176H16.5397C20.4065 0.391388 24.2103 1.98632 26.9422 4.80977C25.9335 5.86588 24.9038 6.87887 23.916 7.93498C22.3819 6.51247 20.5326 5.41326 18.5151 5.02531C15.5309 4.37871 12.3156 4.96065 9.81476 6.70645C7.08277 8.53846 5.23342 11.6421 4.83413 14.9613C4.39281 18.2374 5.29647 21.6859 7.37699 24.2291C9.37344 26.7077 12.4207 28.2596 15.573 28.3673C18.5151 28.5397 21.5833 27.613 23.7269 25.5008C25.4081 24.0136 26.1857 21.7505 26.4379 19.5521C22.9493 19.5521 19.4608 19.5737 15.9722 19.5521V15.1122H30.662C31.4185 19.8754 30.3257 25.2421 26.7951 28.6475C24.4414 31.0615 21.184 32.484 17.8636 32.7642C14.6483 33.0875 11.3279 32.4624 8.46978 30.8675C5.04429 28.9924 2.3123 25.8241 0.967316 22.0954C-0.293603 18.6684 -0.314618 14.7889 0.862239 11.3404C1.93402 8.19361 3.99352 5.41326 6.64145 3.47348C9.1843 1.55526 12.2736 0.499154 15.4259 0.305176Z" fill="#A0A3BD"/>
<path d="M99.6973 1.42603H104.195V32.2038C102.702 32.2038 101.189 32.2254 99.6973 32.1823C99.7183 21.9445 99.6973 11.6853 99.6973 1.42603V1.42603Z" fill="#A0A3BD"/>
<path d="M40.6653 12.0948C43.4394 11.5559 46.4446 12.1594 48.7352 13.8621C50.8157 15.3708 52.2658 17.7416 52.7071 20.328C53.2745 23.3238 52.56 26.5999 50.6686 28.9707C48.6301 31.6217 45.2887 33.0442 42.0313 32.8287C39.0472 32.6563 36.147 31.126 34.3818 28.6259C32.3853 25.8671 31.9019 22.0738 32.9947 18.8408C34.0875 15.3708 37.1768 12.7198 40.6653 12.0948V12.0948ZM41.2958 16.1898C40.161 16.4916 39.1102 17.1597 38.3536 18.108C36.3152 20.6082 36.4413 24.6817 38.6899 27.0094C39.9718 28.3457 41.9052 28.9707 43.6915 28.6043C45.3518 28.3026 46.8018 27.1603 47.6004 25.6516C48.9874 23.0868 48.5881 19.5521 46.4656 17.5476C45.0996 16.2545 43.1031 15.7156 41.2958 16.1898Z" fill="#A0A3BD"/>
<path d="M62.939 12.0946C66.1123 11.4696 69.5798 12.3748 71.9546 14.6595C75.8214 18.2157 76.2417 24.8756 72.9423 28.9707C70.9458 31.5571 67.7095 32.9796 64.5152 32.8288C61.4679 32.7425 58.4627 31.1907 56.6554 28.6259C54.6169 25.8024 54.1756 21.9229 55.3314 18.6252C56.4873 15.2629 59.5135 12.6981 62.939 12.0946V12.0946ZM63.5695 16.1897C62.4346 16.4915 61.3839 17.1596 60.6273 18.0864C58.6098 20.5435 58.6939 24.5524 60.8585 26.9016C62.1404 28.3026 64.1369 28.9923 65.9862 28.6043C67.6254 28.281 69.0965 27.1603 69.8951 25.6516C71.2611 23.0652 70.8618 19.5305 68.7182 17.526C67.3522 16.2328 65.3558 15.7156 63.5695 16.1897Z" fill="#A0A3BD"/>
<path d="M81.8339 13.3449C84.2507 11.7931 87.4661 11.362 90.072 12.6983C90.8916 13.0647 91.5641 13.6897 92.2155 14.3148C92.2365 13.7328 92.2155 13.1294 92.2365 12.5259C93.6446 12.5474 95.0526 12.5259 96.4816 12.5474V31.5572C96.4606 34.4238 95.7461 37.4628 93.7286 39.5534C91.522 41.8596 88.1386 42.5708 85.0913 42.0967C81.8339 41.601 78.9969 39.1655 77.736 36.0834C78.9969 35.4583 80.3208 34.9626 81.6238 34.3807C82.3593 36.148 83.8514 37.6567 85.7218 38.0016C87.5922 38.3464 89.7567 37.8723 90.9756 36.2774C92.2786 34.6393 92.2786 32.3978 92.2155 30.3934C91.2488 31.3633 90.135 32.2254 88.79 32.5487C85.8689 33.3892 82.6535 32.3547 80.4049 30.3287C78.1352 28.3027 76.7903 25.1775 76.9164 22.0739C76.9794 18.5607 78.9128 15.1769 81.8339 13.3449V13.3449ZM86.1841 16.1037C84.9022 16.3192 83.7043 17.052 82.8847 18.065C80.9093 20.479 80.9093 24.337 82.9057 26.7078C84.0406 28.1087 85.8689 28.8847 87.6342 28.6907C89.2944 28.5183 90.8285 27.4406 91.6481 25.9534C93.0351 23.4317 92.804 20.0048 90.9336 17.8064C89.7778 16.4485 87.9284 15.7804 86.1841 16.1037V16.1037Z" fill="#A0A3BD"/>
<path d="M109.593 14.4441C112.114 12.0302 116.002 11.2112 119.239 12.4828C122.307 13.6682 124.261 16.6641 125.249 19.7462C120.689 21.686 116.149 23.6042 111.589 25.544C112.22 26.7725 113.186 27.8933 114.489 28.3459C116.318 29.014 118.503 28.7769 120.037 27.5269C120.647 27.0527 121.13 26.4276 121.592 25.8242C122.748 26.6216 123.904 27.3975 125.06 28.195C123.421 30.7167 120.668 32.4841 117.705 32.7643C114.426 33.1738 110.938 31.8806 108.815 29.2511C105.326 25.1129 105.663 18.1728 109.593 14.4441V14.4441ZM111.841 18.4314C111.127 19.4876 110.833 20.7807 110.854 22.0524C113.901 20.7592 116.948 19.466 119.995 18.1513C119.491 16.9443 118.272 16.2115 117.032 16.0175C115.036 15.6511 112.955 16.7503 111.841 18.4314V18.4314Z" fill="#A0A3BD"/>
<path d="M753.49 1.87981C751.442 2.11523 748.37 3.09314 746.622 4.07106C741.925 6.66072 738.746 10.6991 737.157 16.0777C736.839 17.128 736.468 19.9893 736.486 21.3294C736.486 22.5065 736.839 25.3859 737.051 26.0741C737.157 26.4001 737.387 27.1788 737.581 27.7764C737.899 28.7905 739.435 31.9778 739.7 32.1951C739.753 32.2494 740.035 32.6116 740.3 33.0281C740.953 34.0242 742.666 35.7989 743.955 36.813C744.944 37.5917 747.734 39.2397 748.087 39.2578C748.175 39.2578 748.193 38.5697 748.14 37.6642C748.016 35.654 748.387 32.9195 749.182 30.1306C749.323 29.6598 749.429 29.0441 749.429 28.7724C749.429 28.5008 749.5 28.211 749.588 28.1205C749.676 28.0118 749.835 27.4866 749.923 26.9434C750.029 26.4001 750.206 25.567 750.33 25.0962C750.506 24.3899 750.489 24.1183 750.241 23.3577C749.888 22.1987 749.871 20.3153 750.224 19.4098C751.054 17.2548 751.972 16.4398 753.526 16.4398C755.397 16.4398 756.298 17.8886 755.945 20.3153C755.786 21.42 755.344 23.1585 755.062 23.7018C754.991 23.8647 754.868 24.3175 754.815 24.6978C754.744 25.0962 754.603 25.6576 754.515 25.9654C754.267 26.6717 754.744 28.048 755.38 28.5732C755.98 29.0622 757.234 29.207 758.382 28.9354C759.194 28.7543 759.529 28.537 760.377 27.704C761.383 26.6898 762.143 25.5127 762.143 24.9513C762.143 24.7883 762.231 24.571 762.337 24.4624C762.831 23.9553 763.096 20.0074 762.725 18.3413C762.319 16.5123 761.066 14.7194 759.441 13.6691C757.817 12.6006 754.462 12.2928 752.396 13.0171C750.948 13.5242 749.659 14.3754 748.829 15.3714C748.087 16.2588 747.31 17.7075 747.31 18.2146C747.31 18.3957 747.222 18.6311 747.116 18.7398C747.01 18.8484 746.886 19.5366 746.833 20.2791C746.745 21.3837 746.816 21.8908 747.134 22.9774C747.345 23.7199 747.734 24.5891 747.963 24.9151C748.44 25.567 748.44 25.8206 747.999 27.5591C747.875 28.0299 747.663 28.4646 747.54 28.5189C746.427 28.9535 744.167 26.219 743.408 23.5025C743.125 22.4703 743.108 18.7941 743.39 17.7075C743.514 17.2548 743.726 16.6391 743.867 16.3131C744.008 16.0052 744.132 15.6974 744.132 15.6249C744.132 15.5525 744.485 14.9368 744.926 14.2667C747.222 10.7172 750.948 8.83386 755.662 8.83386C756.739 8.83386 757.852 8.90629 758.152 8.99684C760.589 9.77555 761.242 10.0291 762.196 10.6086C764.05 11.7495 765.392 13.3069 766.734 15.9147C766.822 16.0777 766.946 16.5123 766.999 16.8745C767.069 17.2367 767.193 17.5807 767.281 17.6351C767.369 17.6894 767.44 18.8665 767.44 20.2609C767.44 22.7782 767.263 23.7923 766.522 25.8568C765.692 28.1205 763.555 30.6196 761.613 31.5975C760.5 32.1408 758.417 32.7384 757.587 32.7384C756.475 32.7384 754.285 31.7967 753.685 31.0361C753.402 30.692 753.137 30.8188 753.137 31.3077C753.137 31.4888 753.067 31.7967 752.961 31.9778C752.872 32.1408 752.713 32.6478 752.625 33.1006C752.113 35.491 751.389 37.4288 750.277 39.2397C749.941 39.8011 750.224 40.1271 751.142 40.2538C751.601 40.3263 752.219 40.453 752.502 40.5436C753.208 40.779 757.04 40.7428 758.329 40.5074C759.494 40.2901 761.383 39.7468 762.231 39.3846C767.564 37.139 771.607 32.5754 773.355 26.7623C774.291 23.6655 774.344 20.0617 773.497 16.4398C773.214 15.2627 773.126 14.9911 772.366 13.1801C771.272 10.5361 768.8 7.43942 766.292 5.53793C764.138 3.90807 762.019 2.96638 758.717 2.15145C757.799 1.93414 754.532 1.75304 753.49 1.87981ZM800.584 8.41734C799.895 8.52599 798.8 9.685 798.518 10.5905C798.217 11.5865 798.518 12.655 799.365 13.488C801.237 15.3533 804.486 13.5967 804.08 10.9164C803.833 9.21416 802.314 8.12759 800.584 8.41734ZM781.337 9.4858C781.178 9.66689 781.178 31.507 781.354 31.7605C781.443 31.9054 782.202 31.9597 783.685 31.9416L785.892 31.9235L785.981 28.2472C786.051 25.2592 786.122 24.5348 786.334 24.408C786.475 24.3175 787.676 24.2269 789 24.2269C791.896 24.2269 793.114 24.0096 794.439 23.2852C796.169 22.3254 797.176 20.9491 797.723 18.7579C798.058 17.3815 798.058 16.3855 797.705 14.973C797.387 13.7053 797.246 13.3974 796.487 12.3652C795.551 11.0794 794.598 10.3732 793.044 9.81177C792.178 9.52202 791.455 9.46769 786.775 9.41336C783.862 9.37714 781.407 9.41336 781.337 9.4858ZM791.031 13.9951C792.214 14.3754 792.796 14.9186 793.061 15.8966C793.397 17.1823 793.15 18.3776 792.408 19.1019C791.596 19.8806 790.872 20.0617 788.506 20.0617C786.952 20.0617 786.475 20.0074 786.263 19.772C786.034 19.5547 785.981 19.0295 785.981 16.965C785.981 13.7053 785.963 13.7234 788.417 13.7234C789.477 13.7234 790.501 13.8321 791.031 13.9951ZM822.002 12.9266C822.002 14.1762 821.914 15.3533 821.826 15.5525C821.702 15.7879 821.455 15.8966 821.031 15.8966C820.713 15.8966 820.413 15.969 820.378 16.0777C820.36 16.1682 820.36 16.802 820.413 17.4721C820.501 18.6673 820.519 18.6854 821.049 18.8122C821.349 18.8665 821.685 18.9752 821.79 19.0476C821.949 19.1382 822.002 20.5688 822.002 24.1907C822.002 29.0622 822.02 29.2433 822.409 29.9676C823.221 31.5069 824.492 32.0502 827.07 31.9778L828.801 31.9235L828.854 30.1668L828.907 28.3921H828.465C827.794 28.3921 826.805 27.8488 826.699 27.4142C826.646 27.1969 826.593 25.2773 826.593 23.1223C826.593 20.1523 826.646 19.1563 826.823 19.0114C826.947 18.9027 827.441 18.7941 827.918 18.7579L828.801 18.7035V15.9871L827.829 15.9328C827.3 15.8966 826.805 15.7698 826.735 15.6611C826.664 15.5344 826.593 14.3573 826.593 13.0353V10.6448H822.002V12.9266ZM887.636 10.7535C887.566 10.8259 887.513 11.9668 887.513 13.2888C887.513 15.8603 887.495 15.8966 886.524 15.8966C886.082 15.8966 886.082 15.9147 886.135 17.291C886.188 18.6673 886.206 18.7035 886.665 18.7579C886.912 18.7941 887.212 18.9208 887.301 19.0295C887.407 19.1563 887.513 21.3475 887.566 24.1364C887.619 26.8166 887.707 29.2614 887.777 29.5511C887.989 30.3479 889.084 31.3621 890.126 31.7062C891.291 32.1046 894.258 32.1408 894.558 31.7605C894.699 31.5975 894.752 30.9456 894.717 30.0039L894.664 28.4827L894.046 28.374C893.375 28.2653 892.616 27.9032 892.421 27.5953C892.351 27.4866 892.28 25.5127 892.28 23.2128C892.28 18.4862 892.174 18.7941 893.71 18.7941C894.717 18.7941 894.805 18.613 894.717 16.965L894.664 15.9871L893.516 15.8966L892.368 15.806L892.28 13.2707L892.192 10.7354L889.967 10.681C888.749 10.6629 887.707 10.6991 887.636 10.7535ZM813.262 15.4619C812.397 15.6974 811.39 16.295 810.719 17.0012C809.907 17.8705 809.695 17.8162 809.607 16.7115L809.554 15.9871H805.139V31.9235L807.364 31.9597C809.554 32.014 809.607 31.9959 809.713 31.5975C809.766 31.3802 809.819 29.0803 809.819 26.4725C809.819 21.3113 809.836 21.1664 810.878 20.1523C811.337 19.6996 811.584 19.609 812.573 19.5547L813.721 19.4822L814.41 20.2247C815.222 21.094 815.134 20.261 815.204 27.7583C815.222 29.7503 815.239 31.5069 815.257 31.688C815.292 31.9416 815.575 31.9778 817.553 31.9416L819.795 31.9235V19.2106L819.283 18.1784C818.4 16.3855 817.041 15.5344 814.957 15.4257C814.215 15.4076 813.456 15.4076 813.262 15.4619ZM835.334 15.4619C833.427 15.9871 832.509 16.5123 831.326 17.7075C829.736 19.3555 829.013 21.2751 829.013 23.8647C829.03 28.4102 831.802 31.7786 835.899 32.177C839.395 32.5211 842.097 31.4707 843.827 29.0984C844.075 28.7543 844.604 27.6496 844.604 27.4504C844.604 27.378 843.58 27.3055 842.344 27.3055H840.084L839.554 27.8669C838.936 28.5189 838.071 28.9354 837.276 28.9354C836.482 28.9354 835.263 28.3559 834.698 27.7402C834.275 27.2512 833.656 25.8387 833.656 25.3497C833.656 25.1867 834.946 25.1324 839.095 25.1324C842.079 25.1324 844.604 25.06 844.728 24.9875C844.993 24.8064 844.746 21.927 844.357 20.8767C843.562 18.6854 842.062 16.8383 840.543 16.1863C840.102 16.0052 839.589 15.7698 839.413 15.6792C839.042 15.48 835.899 15.3171 835.334 15.4619ZM838.777 19.4279C839.466 19.9169 840.066 21.0759 839.978 21.7278C839.925 22.1443 839.89 22.1443 836.906 22.1987C833.462 22.253 833.445 22.2349 833.992 20.931C834.38 20.0255 835.157 19.2106 835.881 18.9752C836.711 18.7035 838.053 18.9208 838.777 19.4279ZM861.467 15.4619C859.419 16.0233 857.989 16.9469 856.876 18.3776C856.435 18.9571 856.082 19.5003 856.082 19.609C856.082 19.6996 855.958 20.0255 855.799 20.3334C855.64 20.6231 855.411 21.5286 855.287 22.3435C854.669 26.219 856.364 29.8409 859.543 31.4707L860.761 32.1046H863.322C865.97 32.1046 866.2 32.0502 867.824 31.1629C869.007 30.5109 870.95 27.9756 870.649 27.4685C870.579 27.378 869.572 27.3055 868.389 27.3055H866.217L865.776 27.8307C864.01 29.8771 860.708 28.8267 860.002 25.9836C859.896 25.6033 859.896 25.2773 859.984 25.2048C860.072 25.1505 862.598 25.1143 865.617 25.1324C869.925 25.1324 871.091 25.0962 871.109 24.9151C871.267 22.6514 870.208 19.3011 868.884 17.8524C868.142 17.0375 866.853 16.132 866.217 15.969C865.935 15.8966 865.617 15.7698 865.493 15.6792C865.246 15.48 862.015 15.3171 861.467 15.4619ZM864.222 18.9933C865.017 19.283 865.935 20.2972 866.076 21.0759C866.288 22.253 866.306 22.253 863.021 22.1987C860.072 22.1443 860.055 22.1443 860.002 21.7278C859.931 21.2208 860.549 19.9712 861.079 19.5004C861.838 18.8484 863.163 18.6311 864.222 18.9933ZM876.83 15.4619C873.21 16.3493 871.903 17.6713 871.886 20.4239C871.886 23.3939 873.333 24.6434 877.624 25.4222C880.573 25.9473 881.421 26.4182 881.385 27.5591C881.368 28.374 880.82 28.8992 879.726 29.1346C878.348 29.4425 877.271 29.0984 876.406 28.1024L875.717 27.3055H873.581C871.85 27.3055 871.444 27.3599 871.444 27.5591C871.444 28.0843 872.15 29.4606 872.733 30.1487C873.28 30.7463 873.704 31.0361 875.364 31.851C875.523 31.9416 876.388 32.0865 877.253 32.1951C878.86 32.3943 881.65 32.2132 882.357 31.851C882.515 31.7786 882.975 31.5432 883.363 31.3621C884.37 30.8731 885.323 29.7684 885.676 28.7181C886.065 27.5229 885.959 25.8568 885.411 24.6978C884.758 23.3396 883.028 22.3617 880.45 21.8908C877.13 21.2932 877.077 21.2751 876.547 20.7499C875.911 20.0799 875.911 19.8444 876.547 19.1201C877.059 18.5405 877.095 18.5224 878.507 18.5224C879.92 18.5224 879.955 18.5405 880.467 19.1201C880.75 19.446 880.979 19.8263 880.979 19.9712C880.979 20.1885 881.35 20.2428 883.186 20.2428C885.623 20.2428 885.553 20.2972 885.129 19.0114C884.352 16.7296 882.357 15.5706 879.037 15.4438C878.013 15.4076 877.024 15.4076 876.83 15.4619ZM853.345 15.8422C852.568 16.1139 851.491 17.0193 851.155 17.6713C850.82 18.3232 850.52 18.0516 850.431 16.965L850.343 15.9871H845.929L845.876 23.5931C845.858 27.7764 845.876 31.3802 845.929 31.6156C846.017 32.014 846.07 32.014 848.189 31.9778C849.407 31.9597 850.396 31.851 850.467 31.7424C850.537 31.6518 850.608 29.7322 850.608 27.4866C850.608 23.9372 850.643 23.3033 850.943 22.5065C851.561 20.8586 852.886 19.8807 854.546 19.8807C855.005 19.8807 855.199 19.7901 855.252 19.5547C855.376 19.0295 855.393 16.5847 855.287 16.0414C855.181 15.6068 855.093 15.5344 854.616 15.5525C854.298 15.5706 853.733 15.6974 853.345 15.8422ZM798.959 16.1139C798.906 16.2406 798.888 19.8082 798.906 24.0458L798.959 31.7424L801.06 31.8329C802.332 31.8872 803.25 31.851 803.391 31.7424C803.585 31.5975 803.638 30.0582 803.638 23.901C803.656 19.6996 803.603 16.1682 803.55 16.0777C803.373 15.806 799.047 15.8422 798.959 16.1139Z" fill="#A0A3BD"/>
<path d="M513.278 37.2236L504.028 37.05C501.032 36.9896 498.03 37.1104 495.093 36.484C490.626 35.5481 490.31 30.9591 489.979 27.1099C489.522 21.6983 489.699 16.1886 490.56 10.8223C491.046 7.81078 492.959 6.01446 495.918 5.81822C505.904 5.10875 515.957 5.19178 525.922 5.52387C526.974 5.55406 528.034 5.72011 529.071 5.9088C534.193 6.8296 534.319 12.0299 534.65 16.4074C534.981 20.8303 534.841 25.2758 534.208 29.6685C533.7 33.3064 532.729 36.3556 528.63 36.65C523.493 37.0349 518.474 37.3444 513.322 37.2463C513.322 37.2236 513.293 37.2236 513.278 37.2236V37.2236ZM507.84 28.0156C511.711 25.7362 515.508 23.4946 519.357 21.2303C515.479 18.951 511.689 16.7094 507.84 14.4451V28.0156Z" fill="#A0A3BD"/>
<path d="M608.848 33.0878C608.672 33.8275 608.517 34.4086 608.363 35.0275H604.742V6.38428H608.966V16.951C609.187 16.6642 609.297 16.5434 609.393 16.4151C610.114 15.3962 611.049 14.732 612.256 14.4753C614.177 14.0904 615.818 14.9584 616.399 16.8528C616.774 18.0303 617.017 19.2907 617.047 20.521C617.106 23.6835 617.061 26.8384 616.951 30.0008C616.907 30.9669 616.62 31.9557 616.259 32.8614C615.074 35.8502 611.203 36.3031 609.283 33.7143C609.165 33.5558 609.054 33.3822 608.848 33.0878V33.0878ZM609.054 25.2081V30.4461C609.054 31.299 609.496 31.8198 610.328 32.016C611.145 32.2123 611.807 31.8877 612.138 31.1103C612.278 30.7858 612.418 30.4461 612.425 30.1065C612.506 26.9063 612.58 23.7061 612.602 20.4984C612.602 19.9021 612.462 19.2832 612.285 18.702C611.954 17.6529 611.041 17.3434 610.144 17.9548C609.467 18.4228 609.054 19.0869 609.054 19.97V25.2081ZM597.574 14.8829H601.997V35.0426H598.545C598.42 34.2803 598.295 33.4954 598.148 32.5746C597.913 32.9293 597.773 33.1557 597.626 33.3822C596.477 35.0804 594.851 35.6615 592.93 35.3521C591.289 35.0804 590.303 33.7822 590.082 31.6538C590.016 31.0198 589.987 30.3782 589.987 29.7442C589.972 25.0269 589.987 20.2946 589.987 15.5773V14.8678H594.461V15.6905C594.461 20.2493 594.446 24.8005 594.476 29.3593C594.476 30.0084 594.542 30.6801 594.652 31.3292C594.777 31.9934 595.248 32.2349 595.881 32.1896C596.904 32.1066 597.611 31.3292 597.611 30.2876V15.7735C597.574 15.4792 597.574 15.2075 597.574 14.8829V14.8829ZM567.121 14.8678H571.566V15.7207C571.566 20.2568 571.552 24.7854 571.581 29.3064C571.581 29.9555 571.64 30.6273 571.772 31.2613C571.942 32.0085 572.368 32.25 573.097 32.1519C574.105 32.0085 574.716 31.2915 574.723 30.2423V15.8037V14.898H579.146V35.0426H575.71C575.584 34.2954 575.459 33.5256 575.297 32.5519C575.077 32.8916 574.952 33.0878 574.826 33.2916C573.678 35.02 572.067 35.654 570.102 35.3445C568.527 35.103 567.563 33.9105 567.268 31.9557C567.188 31.3443 567.129 30.7405 567.129 30.1291C567.114 25.2307 567.114 20.3097 567.114 15.4112L567.121 14.8678ZM564.84 25.6307C564.825 26.31 564.781 26.9893 564.744 27.6686C564.575 29.7065 564.494 32.5972 562.89 34.0841C561.867 35.02 560.572 35.3596 559.232 35.4049C558.636 35.42 558.033 35.42 557.436 35.337C554.618 34.8992 553.308 33.6237 552.837 30.4461C552.3 26.778 552.256 23.0495 552.896 19.3813C553.558 15.5848 555.84 14.2414 559.387 14.4904C562.698 14.732 564.178 16.9585 564.568 20.1285C564.781 21.9475 564.884 23.7891 564.84 25.6307V25.6307ZM560.336 24.9364C560.336 23.6457 560.365 22.3475 560.321 21.0569C560.292 20.3097 560.196 19.5549 560.042 18.8152C559.865 17.9623 559.335 17.5548 558.673 17.5699C558.025 17.585 557.569 17.9925 557.333 18.785C557.252 19.0794 557.164 19.3813 557.164 19.6757C557.164 21.6984 557.149 23.7287 557.135 25.7515C557.12 27.6384 556.885 29.6159 557.466 31.4198C557.643 31.9708 558.099 32.2727 558.695 32.2727C559.276 32.2727 559.659 31.9783 559.872 31.45C560.042 31.0424 560.189 30.5971 560.189 30.1593C560.24 28.4234 560.336 26.6799 560.336 24.9364ZM546.346 21.1399C546.736 19.1851 547.104 17.2755 547.509 15.3584C548.017 12.9205 548.583 10.4826 549.084 8.03721C549.209 7.44095 549.444 7.29754 549.996 7.31264C551.181 7.35792 552.388 7.32773 553.654 7.32773C553.242 8.88254 552.837 10.3619 552.44 11.8186C551.181 16.3924 549.923 20.9814 548.679 25.5704C548.583 25.9251 548.539 26.31 548.539 26.6874C548.524 29.1932 548.539 31.6915 548.539 34.1973V35.0124H544.219C544.204 34.786 544.175 34.5596 544.175 34.3332C544.175 32.9142 544.065 31.4877 544.19 30.0838C544.506 26.7101 543.461 23.608 542.615 20.4682C541.496 16.317 540.363 12.1507 539.244 7.99947C539.185 7.80323 539.163 7.5919 539.104 7.35037H543.513C544.44 11.9318 545.375 16.5132 546.346 21.1399ZM630.867 26.4006H623.42C623.501 27.9328 623.53 29.3895 623.685 30.8311C623.795 31.8349 624.332 32.2651 625.179 32.2727C626.062 32.2878 626.577 31.8349 626.783 30.8386C626.849 30.5141 626.893 30.1895 626.923 29.8574C626.952 29.5631 626.967 29.2461 626.989 28.8234C628.248 28.8913 629.477 28.9668 630.691 29.0196C631.397 31.1707 630.124 33.9331 627.983 34.786C626.297 35.4653 624.568 35.4653 622.846 34.9445C621.573 34.5596 620.623 33.7294 620.196 32.4538C619.799 31.2613 619.424 30.0159 619.343 28.7706C619.122 25.6987 619.041 22.5966 619.497 19.5172C619.578 19.0039 619.718 18.5133 619.873 18.0152C620.491 15.9622 621.838 14.7018 623.92 14.4904C625.054 14.3772 626.224 14.4225 627.342 14.6187C629.153 14.9433 630.117 16.2792 630.536 18.0303C630.728 18.853 630.867 19.6983 630.897 20.5361C630.904 22.4607 630.867 24.3703 630.867 26.4006ZM626.636 23.7514C626.636 22.2343 626.651 20.8078 626.621 19.3738C626.621 19.0341 626.496 18.6794 626.371 18.3548C626.121 17.7208 625.598 17.5472 624.973 17.5472C624.347 17.5472 623.95 17.8718 623.795 18.4529C623.324 20.1964 623.479 21.9777 623.493 23.7665C624.619 23.7514 625.642 23.7514 626.636 23.7514V23.7514Z" fill="#A0A3BD"/>
<path d="M582.56 11.0264H578.182V7.38843H591.252V11.0037H586.902V35.0128H582.568L582.56 11.0264Z" fill="#A0A3BD"/>
<path d="M1116.51 8.29075H1111.19V0.719238H1099.48L1094.1 8.29075H1084.54L1081.34 11.5357V8.29075H1073.88V0.719238H1050.43V8.29075H1017.44L1012.05 0.719238H1000.33V26.6787L1015.25 41.8217H1030.18V37.4951L1034.44 41.8217H1063.22V37.4951L1067.48 41.8217H1081.34V37.4951L1085.6 41.8217H1112.25L1121.84 32.0869V13.699L1116.51 8.29075ZM1018.45 19.1072H1010.99V21.2705H1018.45V29.9236H1006.72L1002.46 25.597V2.88253H1010.99V10.454H1018.45V19.1072ZM1050.43 29.9236H1024.85L1020.58 25.597V10.454H1029.11V21.2705H1031.24V10.454H1039.77V21.2705H1041.9V10.454H1050.43V29.9236ZM1061.09 29.9236H1052.56V10.454H1061.09V29.9236ZM1061.09 8.29075H1052.56V2.88253H1061.09V8.29075ZM1079.21 19.1072H1071.75V21.2705H1079.21V29.9236H1067.48L1063.22 25.597V2.88253H1071.75V10.454H1079.21V19.1072ZM1098.39 19.1072H1089.87V21.2705H1098.39V29.9236H1085.6L1081.34 25.597V14.7806L1085.6 10.454H1098.39V19.1072ZM1119.71 29.9236H1111.19V19.1072H1109.05V29.9236H1100.53V2.88253H1109.05V10.454H1115.45L1119.71 14.7806V29.9236Z" fill="#A0A3BD"/>
</svg>
