<svg width="131" height="115" viewBox="0 0 131 115" fill="none" xmlns="http://www.w3.org/2000/svg">
<g filter="url(#filter0_ii_2001_100)">
<circle cx="57.5" cy="57.5" r="57.5" fill="#243C80"/>
</g>
<g filter="url(#filter1_ii_2001_100)">
<circle cx="110.5" cy="57.5" r="20.5" fill="black"/>
</g>
<circle cx="110.5" cy="57.5" r="19.5" stroke="white" stroke-width="2"/>
<path d="M110.6 67.25C109.367 67.25 108.158 67.075 106.975 66.725C105.808 66.3583 104.825 65.8583 104.025 65.225L105.425 62.7C106.058 63.2167 106.825 63.6333 107.725 63.95C108.625 64.2667 109.567 64.425 110.55 64.425C111.717 64.425 112.625 64.1917 113.275 63.725C113.925 63.2417 114.25 62.5917 114.25 61.775C114.25 60.975 113.95 60.3417 113.35 59.875C112.75 59.4083 111.783 59.175 110.45 59.175H108.85V56.95L113.85 51L114.275 52.225H104.875V49.5H116.8V51.675L111.8 57.625L110.1 56.625H111.075C113.225 56.625 114.833 57.1083 115.9 58.075C116.983 59.025 117.525 60.25 117.525 61.75C117.525 62.7333 117.275 63.6417 116.775 64.475C116.275 65.3083 115.508 65.9833 114.475 66.5C113.458 67 112.167 67.25 110.6 67.25Z" fill="white"/>
<path d="M81.9977 40.4552C81.9977 37.9978 79.9886 36 77.5216 36H38.4761C36.0072 36 34 37.9978 34 40.4552V66.1119C34 68.5693 36.0091 70.5671 38.4761 70.5671H51.3678L50.3495 74.484H49.0923C47.5647 74.484 46.3213 75.7216 46.3213 77.242C46.3213 78.7624 47.5647 80 49.0923 80H66.9101C68.4376 80 69.681 78.7625 69.681 77.242C69.681 75.7216 68.4377 74.484 66.9101 74.484H65.6529L64.6345 70.5671H74.2477L76.4838 72.7927C77.0937 73.3997 77.9048 73.7337 78.7692 73.7356C79.6593 73.7356 80.4862 73.384 81.102 72.7436C82.2132 71.5885 82.2684 69.7735 81.2915 68.5163C81.7513 67.8013 82.002 66.9625 82 66.11L81.9977 40.4552ZM38.4758 37.3653H77.5213C79.2344 37.3653 80.6257 38.7521 80.6257 40.4552V61.9099L72.5894 61.8902L72.1374 61.4404C73.4755 59.6077 74.2669 57.3526 74.2669 54.9186C74.2669 48.786 69.254 43.7985 63.0945 43.7985C56.9331 43.7985 51.9222 48.788 51.9222 54.9186C51.9222 57.539 52.8379 59.9494 54.3655 61.8508H35.3715V40.4549C35.3715 38.7518 36.7647 37.3653 38.4758 37.3653ZM80.2981 67.4946L77.535 64.7465C76.9252 64.1395 76.1121 63.8036 75.2496 63.8036C75.0207 63.8036 74.7977 63.8271 74.5786 63.8743L73.9628 63.2614L80.6259 63.2771V66.1156C80.6259 66.5949 80.5112 67.0683 80.2981 67.4946ZM72.964 64.7444C72.8713 64.8368 72.7844 64.935 72.7035 65.0371L70.7062 63.0492C70.8977 62.8724 71.0812 62.6878 71.2589 62.4992L73.2561 64.4871C73.1555 64.5676 73.0568 64.6521 72.964 64.7444ZM53.2895 54.9188C53.2895 49.5385 57.6866 45.162 63.0921 45.162C68.4976 45.162 72.8948 49.5385 72.8948 54.9188C72.8948 60.299 68.4976 64.6756 63.0921 64.6756C57.6866 64.6756 53.2895 60.299 53.2895 54.9188ZM35.3711 66.1138V63.2183H55.6616C57.6372 64.9725 60.2423 66.0411 63.0921 66.0411C65.5374 66.0411 67.8031 65.2534 69.6446 63.9216L72.0879 66.3535C72.0425 66.5715 72.0188 66.7935 72.0188 67.0213C72.0188 67.8385 72.3227 68.6085 72.8773 69.2037H38.4755C36.7644 69.2037 35.3711 67.8169 35.3711 66.1138ZM68.3067 77.2439C68.3067 78.012 67.6791 78.6367 66.9075 78.6367H49.0897C48.318 78.6367 47.6904 78.012 47.6904 77.2439C47.6904 76.4759 48.318 75.8512 49.0897 75.8512H66.9054C67.6791 75.8512 68.3067 76.4759 68.3067 77.2439ZM64.2332 74.486H51.7639L52.7823 70.569H63.2129L64.2332 74.486ZM80.1089 71.8007C79.7536 72.168 79.276 72.3723 78.7648 72.3723C78.2675 72.3723 77.7997 72.1778 77.4484 71.8302L73.9335 68.3317C73.5822 67.982 73.3888 67.5165 73.3888 67.0214C73.3888 66.5264 73.5822 66.0608 73.9335 65.7112C74.2848 65.3615 74.7525 65.169 75.2499 65.169C75.7472 65.169 76.215 65.3615 76.5663 65.7112L80.0437 69.1724C80.7759 69.8992 80.8036 71.0798 80.1089 71.8007ZM70.3118 55.2355C70.4144 55.0371 70.4144 54.8013 70.3118 54.6029C68.9026 51.9137 66.1357 50.2421 63.0924 50.2421C60.0491 50.2421 57.2821 51.9118 55.873 54.6029C55.7704 54.8013 55.7704 55.0371 55.873 55.2355C57.2822 57.9247 60.0491 59.5964 63.0924 59.5964C66.1357 59.5964 68.9006 57.9247 70.3118 55.2355ZM57.2644 54.9192C58.4822 52.8684 60.6827 51.6073 63.0924 51.6073C65.5021 51.6073 67.7027 52.8665 68.9203 54.9192C67.7026 56.97 65.5021 58.2311 63.0924 58.2311C60.6827 58.2311 58.4821 56.97 57.2644 54.9192ZM66.2739 54.9192C66.2739 53.1729 64.847 51.7526 63.0924 51.7526C61.3379 51.7526 59.911 53.1729 59.911 54.9192C59.911 56.6655 61.3379 58.0858 63.0924 58.0858C64.847 58.0877 66.2739 56.6655 66.2739 54.9192ZM61.2827 54.9192C61.2827 53.9252 62.0938 53.1179 63.0924 53.1179C64.0911 53.1179 64.9022 53.9253 64.9022 54.9192C64.9022 55.9132 64.091 56.7205 63.0924 56.7205C62.0938 56.7205 61.2827 55.9131 61.2827 54.9192ZM49.0761 56.4121C49.0761 56.7893 48.7702 57.0938 48.3912 57.0938H45.3479C44.969 57.0938 44.6631 56.7893 44.6631 56.4121C44.6631 56.035 44.969 55.7305 45.3479 55.7305H48.3912C48.7682 55.7305 49.0761 56.035 49.0761 56.4121ZM37.5702 51.6996C37.3018 51.4325 37.3018 51.0003 37.5702 50.7351L41.401 46.9223C41.5292 46.7946 41.7049 46.7219 41.8865 46.7219C42.068 46.7219 42.2417 46.7946 42.372 46.9223L44.1462 48.6883L49.2678 43.5906H48.6639C48.285 43.5906 47.9791 43.2861 47.9791 42.909C47.9791 42.5318 48.285 42.2273 48.6639 42.2273H50.9237H50.9336C50.9533 42.2273 50.9711 42.2293 50.9908 42.2312C51.0027 42.2332 51.0145 42.2352 51.0244 42.2371C51.0342 42.2391 51.0461 42.2411 51.0559 42.243C51.0678 42.245 51.0816 42.2489 51.0934 42.2528C51.1033 42.2548 51.1112 42.2568 51.1211 42.2607C51.1329 42.2646 51.1448 42.2686 51.1566 42.2725C51.1665 42.2764 51.1744 42.2784 51.1842 42.2823C51.1961 42.2862 51.2059 42.2921 51.2178 42.298C51.2276 42.302 51.2375 42.3059 51.2454 42.3118C51.2553 42.3177 51.2651 42.3236 51.277 42.3295C51.2869 42.3354 51.2948 42.3393 51.3046 42.3452C51.3165 42.353 51.3283 42.3609 51.3401 42.3707C51.3461 42.3766 51.354 42.3805 51.3599 42.3845C51.3954 42.4139 51.427 42.4454 51.4566 42.4807C51.4625 42.4866 51.4665 42.4925 51.4704 42.5004C51.4783 42.5121 51.4882 42.5239 51.4961 42.5357C51.502 42.5436 51.5059 42.5534 51.5118 42.5613C51.5178 42.5711 51.5237 42.5809 51.5296 42.5927C51.5355 42.6025 51.5395 42.6104 51.5434 42.6202C51.5493 42.63 51.5533 42.6418 51.5592 42.6536C51.5632 42.6634 51.5651 42.6713 51.5691 42.6811C51.573 42.6929 51.577 42.7047 51.5809 42.7164C51.5829 42.7263 51.5849 42.7341 51.5888 42.7439C51.5928 42.7557 51.5947 42.7695 51.5987 42.7813C51.6007 42.7911 51.6026 42.8009 51.6026 42.8127C51.6046 42.8245 51.6066 42.8363 51.6086 42.8481C51.6105 42.8657 51.6105 42.8834 51.6105 42.9011V42.9148V45.1641C51.6105 45.5412 51.3046 45.8457 50.9257 45.8457C50.5467 45.8457 50.2408 45.5412 50.2408 45.1641L50.2369 44.5551L44.6297 50.134C44.5014 50.2617 44.3258 50.3344 44.1442 50.3344C43.9626 50.3344 43.789 50.2617 43.6587 50.134L41.8845 48.3681L38.5392 51.6977C38.405 51.8312 38.2294 51.898 38.0537 51.898C37.88 51.898 37.7044 51.8313 37.5702 51.6996ZM41.8628 56.4121C41.8628 56.7893 41.5569 57.0938 41.1779 57.0938H38.0557C37.6768 57.0938 37.3709 56.7893 37.3709 56.4121C37.3709 56.035 37.6768 55.7305 38.0557 55.7305H41.1779C41.5549 55.7305 41.8628 56.035 41.8628 56.4121Z" fill="white"/>
<defs>
<filter id="filter0_ii_2001_100" x="0" y="-2" width="117" height="121" filterUnits="userSpaceOnUse" color-interpolation-filters="sRGB">
<feFlood flood-opacity="0" result="BackgroundImageFix"/>
<feBlend mode="normal" in="SourceGraphic" in2="BackgroundImageFix" result="shape"/>
<feColorMatrix in="SourceAlpha" type="matrix" values="0 0 0 0 0 0 0 0 0 0 0 0 0 0 0 0 0 0 127 0" result="hardAlpha"/>
<feOffset dy="4"/>
<feGaussianBlur stdDeviation="2"/>
<feComposite in2="hardAlpha" operator="arithmetic" k2="-1" k3="1"/>
<feColorMatrix type="matrix" values="0 0 0 0 0.521855 0 0 0 0 0.627134 0 0 0 0 0.925424 0 0 0 1 0"/>
<feBlend mode="normal" in2="shape" result="effect1_innerShadow_2001_100"/>
<feColorMatrix in="SourceAlpha" type="matrix" values="0 0 0 0 0 0 0 0 0 0 0 0 0 0 0 0 0 0 127 0" result="hardAlpha"/>
<feOffset dx="2" dy="-2"/>
<feGaussianBlur stdDeviation="2"/>
<feComposite in2="hardAlpha" operator="arithmetic" k2="-1" k3="1"/>
<feColorMatrix type="matrix" values="0 0 0 0 0.0484865 0 0 0 0 0.113937 0 0 0 0 0.160231 0 0 0 1 0"/>
<feBlend mode="normal" in2="effect1_innerShadow_2001_100" result="effect2_innerShadow_2001_100"/>
</filter>
<filter id="filter1_ii_2001_100" x="90" y="35" width="43" height="47" filterUnits="userSpaceOnUse" color-interpolation-filters="sRGB">
<feFlood flood-opacity="0" result="BackgroundImageFix"/>
<feBlend mode="normal" in="SourceGraphic" in2="BackgroundImageFix" result="shape"/>
<feColorMatrix in="SourceAlpha" type="matrix" values="0 0 0 0 0 0 0 0 0 0 0 0 0 0 0 0 0 0 127 0" result="hardAlpha"/>
<feOffset dy="4"/>
<feGaussianBlur stdDeviation="2"/>
<feComposite in2="hardAlpha" operator="arithmetic" k2="-1" k3="1"/>
<feColorMatrix type="matrix" values="0 0 0 0 0.521855 0 0 0 0 0.627134 0 0 0 0 0.925424 0 0 0 1 0"/>
<feBlend mode="normal" in2="shape" result="effect1_innerShadow_2001_100"/>
<feColorMatrix in="SourceAlpha" type="matrix" values="0 0 0 0 0 0 0 0 0 0 0 0 0 0 0 0 0 0 127 0" result="hardAlpha"/>
<feOffset dx="2" dy="-2"/>
<feGaussianBlur stdDeviation="2"/>
<feComposite in2="hardAlpha" operator="arithmetic" k2="-1" k3="1"/>
<feColorMatrix type="matrix" values="0 0 0 0 0.0484865 0 0 0 0 0.113937 0 0 0 0 0.160231 0 0 0 1 0"/>
<feBlend mode="normal" in2="effect1_innerShadow_2001_100" result="effect2_innerShadow_2001_100"/>
</filter>
</defs>
</svg>
