<svg width="131" height="115" viewBox="0 0 131 115" fill="none" xmlns="http://www.w3.org/2000/svg">
<circle cx="57.5" cy="57.5" r="57.5" fill="#D4DEFC"/>
<circle cx="58.5" cy="56.5" r="47.5" fill="white"/>
<g filter="url(#filter0_ii_2001_98)">
<circle cx="110.5" cy="57.5" r="20.5" fill="#233A7C"/>
</g>
<circle cx="110.5" cy="57.5" r="19.5" stroke="white" stroke-width="2"/>
<path d="M110.6 67.25C109.367 67.25 108.158 67.075 106.975 66.725C105.808 66.3583 104.825 65.8583 104.025 65.225L105.425 62.7C106.058 63.2167 106.825 63.6333 107.725 63.95C108.625 64.2667 109.567 64.425 110.55 64.425C111.717 64.425 112.625 64.1917 113.275 63.725C113.925 63.2417 114.25 62.5917 114.25 61.775C114.25 60.975 113.95 60.3417 113.35 59.875C112.75 59.4083 111.783 59.175 110.45 59.175H108.85V56.95L113.85 51L114.275 52.225H104.875V49.5H116.8V51.675L111.8 57.625L110.1 56.625H111.075C113.225 56.625 114.833 57.1083 115.9 58.075C116.983 59.025 117.525 60.25 117.525 61.75C117.525 62.7333 117.275 63.6417 116.775 64.475C116.275 65.3083 115.508 65.9833 114.475 66.5C113.458 67 112.167 67.25 110.6 67.25Z" fill="white"/>
<mask id="path-6-outside-1_2001_98" maskUnits="userSpaceOnUse" x="33" y="36" width="50" height="46" fill="black">
<rect fill="white" x="33" y="36" width="50" height="46"/>
<path d="M81.9977 41.4552C81.9977 38.9978 79.9886 37 77.5216 37H38.4761C36.0072 37 34 38.9978 34 41.4552V67.1119C34 69.5693 36.0091 71.5671 38.4761 71.5671H51.3678L50.3495 75.484H49.0923C47.5647 75.484 46.3213 76.7216 46.3213 78.242C46.3213 79.7624 47.5647 81 49.0923 81H66.9101C68.4376 81 69.681 79.7625 69.681 78.242C69.681 76.7216 68.4377 75.484 66.9101 75.484H65.6529L64.6345 71.5671H74.2477L76.4838 73.7927C77.0937 74.3997 77.9048 74.7337 78.7692 74.7356C79.6593 74.7356 80.4862 74.384 81.102 73.7436C82.2132 72.5885 82.2684 70.7735 81.2915 69.5163C81.7513 68.8013 82.002 67.9625 82 67.11L81.9977 41.4552ZM38.4758 38.3653H77.5213C79.2344 38.3653 80.6257 39.7521 80.6257 41.4552V62.9099L72.5894 62.8902L72.1374 62.4404C73.4755 60.6077 74.2669 58.3526 74.2669 55.9186C74.2669 49.786 69.254 44.7985 63.0945 44.7985C56.9331 44.7985 51.9222 49.788 51.9222 55.9186C51.9222 58.539 52.8379 60.9494 54.3655 62.8508H35.3715V41.4549C35.3715 39.7518 36.7647 38.3653 38.4758 38.3653ZM80.2981 68.4946L77.535 65.7465C76.9252 65.1395 76.1121 64.8036 75.2496 64.8036C75.0207 64.8036 74.7977 64.8271 74.5786 64.8743L73.9628 64.2614L80.6259 64.2771V67.1156C80.6259 67.5949 80.5112 68.0683 80.2981 68.4946ZM72.964 65.7444C72.8713 65.8368 72.7844 65.935 72.7035 66.0371L70.7062 64.0492C70.8977 63.8724 71.0812 63.6878 71.2589 63.4992L73.2561 65.4871C73.1555 65.5676 73.0568 65.6521 72.964 65.7444ZM53.2895 55.9188C53.2895 50.5385 57.6866 46.162 63.0921 46.162C68.4976 46.162 72.8948 50.5385 72.8948 55.9188C72.8948 61.299 68.4976 65.6756 63.0921 65.6756C57.6866 65.6756 53.2895 61.299 53.2895 55.9188ZM35.3711 67.1138V64.2183H55.6616C57.6372 65.9725 60.2423 67.0411 63.0921 67.0411C65.5374 67.0411 67.8031 66.2534 69.6446 64.9216L72.0879 67.3535C72.0425 67.5715 72.0188 67.7935 72.0188 68.0213C72.0188 68.8385 72.3227 69.6085 72.8773 70.2037H38.4755C36.7644 70.2037 35.3711 68.8169 35.3711 67.1138ZM68.3067 78.2439C68.3067 79.012 67.6791 79.6367 66.9075 79.6367H49.0897C48.318 79.6367 47.6904 79.012 47.6904 78.2439C47.6904 77.4759 48.318 76.8512 49.0897 76.8512H66.9054C67.6791 76.8512 68.3067 77.4759 68.3067 78.2439ZM64.2332 75.486H51.7639L52.7823 71.569H63.2129L64.2332 75.486ZM80.1089 72.8007C79.7536 73.168 79.276 73.3723 78.7648 73.3723C78.2675 73.3723 77.7997 73.1778 77.4484 72.8302L73.9335 69.3317C73.5822 68.982 73.3888 68.5165 73.3888 68.0214C73.3888 67.5264 73.5822 67.0608 73.9335 66.7112C74.2848 66.3615 74.7525 66.169 75.2499 66.169C75.7472 66.169 76.215 66.3615 76.5663 66.7112L80.0437 70.1724C80.7759 70.8992 80.8036 72.0798 80.1089 72.8007ZM70.3118 56.2355C70.4144 56.0371 70.4144 55.8013 70.3118 55.6029C68.9026 52.9137 66.1357 51.2421 63.0924 51.2421C60.0491 51.2421 57.2821 52.9118 55.873 55.6029C55.7704 55.8013 55.7704 56.0371 55.873 56.2355C57.2822 58.9247 60.0491 60.5964 63.0924 60.5964C66.1357 60.5964 68.9006 58.9247 70.3118 56.2355ZM57.2644 55.9192C58.4822 53.8684 60.6827 52.6073 63.0924 52.6073C65.5021 52.6073 67.7027 53.8665 68.9203 55.9192C67.7026 57.97 65.5021 59.2311 63.0924 59.2311C60.6827 59.2311 58.4821 57.97 57.2644 55.9192ZM66.2739 55.9192C66.2739 54.1729 64.847 52.7526 63.0924 52.7526C61.3379 52.7526 59.911 54.1729 59.911 55.9192C59.911 57.6655 61.3379 59.0858 63.0924 59.0858C64.847 59.0877 66.2739 57.6655 66.2739 55.9192ZM61.2827 55.9192C61.2827 54.9252 62.0938 54.1179 63.0924 54.1179C64.0911 54.1179 64.9022 54.9253 64.9022 55.9192C64.9022 56.9132 64.091 57.7205 63.0924 57.7205C62.0938 57.7205 61.2827 56.9131 61.2827 55.9192ZM49.0761 57.4121C49.0761 57.7893 48.7702 58.0938 48.3912 58.0938H45.3479C44.969 58.0938 44.6631 57.7893 44.6631 57.4121C44.6631 57.035 44.969 56.7305 45.3479 56.7305H48.3912C48.7682 56.7305 49.0761 57.035 49.0761 57.4121ZM37.5702 52.6996C37.3018 52.4325 37.3018 52.0003 37.5702 51.7351L41.401 47.9223C41.5292 47.7946 41.7049 47.7219 41.8865 47.7219C42.068 47.7219 42.2417 47.7946 42.372 47.9223L44.1462 49.6883L49.2678 44.5906H48.6639C48.285 44.5906 47.9791 44.2861 47.9791 43.909C47.9791 43.5318 48.285 43.2273 48.6639 43.2273H50.9237H50.9336C50.9533 43.2273 50.9711 43.2293 50.9908 43.2312C51.0027 43.2332 51.0145 43.2352 51.0244 43.2371C51.0342 43.2391 51.0461 43.2411 51.0559 43.243C51.0678 43.245 51.0816 43.2489 51.0934 43.2528C51.1033 43.2548 51.1112 43.2568 51.1211 43.2607C51.1329 43.2646 51.1448 43.2686 51.1566 43.2725C51.1665 43.2764 51.1744 43.2784 51.1842 43.2823C51.1961 43.2862 51.2059 43.2921 51.2178 43.298C51.2276 43.302 51.2375 43.3059 51.2454 43.3118C51.2553 43.3177 51.2651 43.3236 51.277 43.3295C51.2869 43.3354 51.2948 43.3393 51.3046 43.3452C51.3165 43.353 51.3283 43.3609 51.3401 43.3707C51.3461 43.3766 51.354 43.3805 51.3599 43.3845C51.3954 43.4139 51.427 43.4454 51.4566 43.4807C51.4625 43.4866 51.4665 43.4925 51.4704 43.5004C51.4783 43.5121 51.4882 43.5239 51.4961 43.5357C51.502 43.5436 51.5059 43.5534 51.5118 43.5613C51.5178 43.5711 51.5237 43.5809 51.5296 43.5927C51.5355 43.6025 51.5395 43.6104 51.5434 43.6202C51.5493 43.63 51.5533 43.6418 51.5592 43.6536C51.5632 43.6634 51.5651 43.6713 51.5691 43.6811C51.573 43.6929 51.577 43.7047 51.5809 43.7164C51.5829 43.7263 51.5849 43.7341 51.5888 43.7439C51.5928 43.7557 51.5947 43.7695 51.5987 43.7813C51.6007 43.7911 51.6026 43.8009 51.6026 43.8127C51.6046 43.8245 51.6066 43.8363 51.6086 43.8481C51.6105 43.8657 51.6105 43.8834 51.6105 43.9011V43.9148V46.1641C51.6105 46.5412 51.3046 46.8457 50.9257 46.8457C50.5467 46.8457 50.2408 46.5412 50.2408 46.1641L50.2369 45.5551L44.6297 51.134C44.5014 51.2617 44.3258 51.3344 44.1442 51.3344C43.9626 51.3344 43.789 51.2617 43.6587 51.134L41.8845 49.3681L38.5392 52.6977C38.405 52.8312 38.2294 52.898 38.0537 52.898C37.88 52.898 37.7044 52.8313 37.5702 52.6996ZM41.8628 57.4121C41.8628 57.7893 41.5569 58.0938 41.1779 58.0938H38.0557C37.6768 58.0938 37.3709 57.7893 37.3709 57.4121C37.3709 57.035 37.6768 56.7305 38.0557 56.7305H41.1779C41.5549 56.7305 41.8628 57.035 41.8628 57.4121Z"/>
</mask>
<path d="M81.9977 41.4552C81.9977 38.9978 79.9886 37 77.5216 37H38.4761C36.0072 37 34 38.9978 34 41.4552V67.1119C34 69.5693 36.0091 71.5671 38.4761 71.5671H51.3678L50.3495 75.484H49.0923C47.5647 75.484 46.3213 76.7216 46.3213 78.242C46.3213 79.7624 47.5647 81 49.0923 81H66.9101C68.4376 81 69.681 79.7625 69.681 78.242C69.681 76.7216 68.4377 75.484 66.9101 75.484H65.6529L64.6345 71.5671H74.2477L76.4838 73.7927C77.0937 74.3997 77.9048 74.7337 78.7692 74.7356C79.6593 74.7356 80.4862 74.384 81.102 73.7436C82.2132 72.5885 82.2684 70.7735 81.2915 69.5163C81.7513 68.8013 82.002 67.9625 82 67.11L81.9977 41.4552ZM38.4758 38.3653H77.5213C79.2344 38.3653 80.6257 39.7521 80.6257 41.4552V62.9099L72.5894 62.8902L72.1374 62.4404C73.4755 60.6077 74.2669 58.3526 74.2669 55.9186C74.2669 49.786 69.254 44.7985 63.0945 44.7985C56.9331 44.7985 51.9222 49.788 51.9222 55.9186C51.9222 58.539 52.8379 60.9494 54.3655 62.8508H35.3715V41.4549C35.3715 39.7518 36.7647 38.3653 38.4758 38.3653ZM80.2981 68.4946L77.535 65.7465C76.9252 65.1395 76.1121 64.8036 75.2496 64.8036C75.0207 64.8036 74.7977 64.8271 74.5786 64.8743L73.9628 64.2614L80.6259 64.2771V67.1156C80.6259 67.5949 80.5112 68.0683 80.2981 68.4946ZM72.964 65.7444C72.8713 65.8368 72.7844 65.935 72.7035 66.0371L70.7062 64.0492C70.8977 63.8724 71.0812 63.6878 71.2589 63.4992L73.2561 65.4871C73.1555 65.5676 73.0568 65.6521 72.964 65.7444ZM53.2895 55.9188C53.2895 50.5385 57.6866 46.162 63.0921 46.162C68.4976 46.162 72.8948 50.5385 72.8948 55.9188C72.8948 61.299 68.4976 65.6756 63.0921 65.6756C57.6866 65.6756 53.2895 61.299 53.2895 55.9188ZM35.3711 67.1138V64.2183H55.6616C57.6372 65.9725 60.2423 67.0411 63.0921 67.0411C65.5374 67.0411 67.8031 66.2534 69.6446 64.9216L72.0879 67.3535C72.0425 67.5715 72.0188 67.7935 72.0188 68.0213C72.0188 68.8385 72.3227 69.6085 72.8773 70.2037H38.4755C36.7644 70.2037 35.3711 68.8169 35.3711 67.1138ZM68.3067 78.2439C68.3067 79.012 67.6791 79.6367 66.9075 79.6367H49.0897C48.318 79.6367 47.6904 79.012 47.6904 78.2439C47.6904 77.4759 48.318 76.8512 49.0897 76.8512H66.9054C67.6791 76.8512 68.3067 77.4759 68.3067 78.2439ZM64.2332 75.486H51.7639L52.7823 71.569H63.2129L64.2332 75.486ZM80.1089 72.8007C79.7536 73.168 79.276 73.3723 78.7648 73.3723C78.2675 73.3723 77.7997 73.1778 77.4484 72.8302L73.9335 69.3317C73.5822 68.982 73.3888 68.5165 73.3888 68.0214C73.3888 67.5264 73.5822 67.0608 73.9335 66.7112C74.2848 66.3615 74.7525 66.169 75.2499 66.169C75.7472 66.169 76.215 66.3615 76.5663 66.7112L80.0437 70.1724C80.7759 70.8992 80.8036 72.0798 80.1089 72.8007ZM70.3118 56.2355C70.4144 56.0371 70.4144 55.8013 70.3118 55.6029C68.9026 52.9137 66.1357 51.2421 63.0924 51.2421C60.0491 51.2421 57.2821 52.9118 55.873 55.6029C55.7704 55.8013 55.7704 56.0371 55.873 56.2355C57.2822 58.9247 60.0491 60.5964 63.0924 60.5964C66.1357 60.5964 68.9006 58.9247 70.3118 56.2355ZM57.2644 55.9192C58.4822 53.8684 60.6827 52.6073 63.0924 52.6073C65.5021 52.6073 67.7027 53.8665 68.9203 55.9192C67.7026 57.97 65.5021 59.2311 63.0924 59.2311C60.6827 59.2311 58.4821 57.97 57.2644 55.9192ZM66.2739 55.9192C66.2739 54.1729 64.847 52.7526 63.0924 52.7526C61.3379 52.7526 59.911 54.1729 59.911 55.9192C59.911 57.6655 61.3379 59.0858 63.0924 59.0858C64.847 59.0877 66.2739 57.6655 66.2739 55.9192ZM61.2827 55.9192C61.2827 54.9252 62.0938 54.1179 63.0924 54.1179C64.0911 54.1179 64.9022 54.9253 64.9022 55.9192C64.9022 56.9132 64.091 57.7205 63.0924 57.7205C62.0938 57.7205 61.2827 56.9131 61.2827 55.9192ZM49.0761 57.4121C49.0761 57.7893 48.7702 58.0938 48.3912 58.0938H45.3479C44.969 58.0938 44.6631 57.7893 44.6631 57.4121C44.6631 57.035 44.969 56.7305 45.3479 56.7305H48.3912C48.7682 56.7305 49.0761 57.035 49.0761 57.4121ZM37.5702 52.6996C37.3018 52.4325 37.3018 52.0003 37.5702 51.7351L41.401 47.9223C41.5292 47.7946 41.7049 47.7219 41.8865 47.7219C42.068 47.7219 42.2417 47.7946 42.372 47.9223L44.1462 49.6883L49.2678 44.5906H48.6639C48.285 44.5906 47.9791 44.2861 47.9791 43.909C47.9791 43.5318 48.285 43.2273 48.6639 43.2273H50.9237H50.9336C50.9533 43.2273 50.9711 43.2293 50.9908 43.2312C51.0027 43.2332 51.0145 43.2352 51.0244 43.2371C51.0342 43.2391 51.0461 43.2411 51.0559 43.243C51.0678 43.245 51.0816 43.2489 51.0934 43.2528C51.1033 43.2548 51.1112 43.2568 51.1211 43.2607C51.1329 43.2646 51.1448 43.2686 51.1566 43.2725C51.1665 43.2764 51.1744 43.2784 51.1842 43.2823C51.1961 43.2862 51.2059 43.2921 51.2178 43.298C51.2276 43.302 51.2375 43.3059 51.2454 43.3118C51.2553 43.3177 51.2651 43.3236 51.277 43.3295C51.2869 43.3354 51.2948 43.3393 51.3046 43.3452C51.3165 43.353 51.3283 43.3609 51.3401 43.3707C51.3461 43.3766 51.354 43.3805 51.3599 43.3845C51.3954 43.4139 51.427 43.4454 51.4566 43.4807C51.4625 43.4866 51.4665 43.4925 51.4704 43.5004C51.4783 43.5121 51.4882 43.5239 51.4961 43.5357C51.502 43.5436 51.5059 43.5534 51.5118 43.5613C51.5178 43.5711 51.5237 43.5809 51.5296 43.5927C51.5355 43.6025 51.5395 43.6104 51.5434 43.6202C51.5493 43.63 51.5533 43.6418 51.5592 43.6536C51.5632 43.6634 51.5651 43.6713 51.5691 43.6811C51.573 43.6929 51.577 43.7047 51.5809 43.7164C51.5829 43.7263 51.5849 43.7341 51.5888 43.7439C51.5928 43.7557 51.5947 43.7695 51.5987 43.7813C51.6007 43.7911 51.6026 43.8009 51.6026 43.8127C51.6046 43.8245 51.6066 43.8363 51.6086 43.8481C51.6105 43.8657 51.6105 43.8834 51.6105 43.9011V43.9148V46.1641C51.6105 46.5412 51.3046 46.8457 50.9257 46.8457C50.5467 46.8457 50.2408 46.5412 50.2408 46.1641L50.2369 45.5551L44.6297 51.134C44.5014 51.2617 44.3258 51.3344 44.1442 51.3344C43.9626 51.3344 43.789 51.2617 43.6587 51.134L41.8845 49.3681L38.5392 52.6977C38.405 52.8312 38.2294 52.898 38.0537 52.898C37.88 52.898 37.7044 52.8313 37.5702 52.6996ZM41.8628 57.4121C41.8628 57.7893 41.5569 58.0938 41.1779 58.0938H38.0557C37.6768 58.0938 37.3709 57.7893 37.3709 57.4121C37.3709 57.035 37.6768 56.7305 38.0557 56.7305H41.1779C41.5549 56.7305 41.8628 57.035 41.8628 57.4121Z" fill="#233A7C"/>
<path d="M81.9977 41.4552C81.9977 38.9978 79.9886 37 77.5216 37H38.4761C36.0072 37 34 38.9978 34 41.4552V67.1119C34 69.5693 36.0091 71.5671 38.4761 71.5671H51.3678L50.3495 75.484H49.0923C47.5647 75.484 46.3213 76.7216 46.3213 78.242C46.3213 79.7624 47.5647 81 49.0923 81H66.9101C68.4376 81 69.681 79.7625 69.681 78.242C69.681 76.7216 68.4377 75.484 66.9101 75.484H65.6529L64.6345 71.5671H74.2477L76.4838 73.7927C77.0937 74.3997 77.9048 74.7337 78.7692 74.7356C79.6593 74.7356 80.4862 74.384 81.102 73.7436C82.2132 72.5885 82.2684 70.7735 81.2915 69.5163C81.7513 68.8013 82.002 67.9625 82 67.11L81.9977 41.4552ZM38.4758 38.3653H77.5213C79.2344 38.3653 80.6257 39.7521 80.6257 41.4552V62.9099L72.5894 62.8902L72.1374 62.4404C73.4755 60.6077 74.2669 58.3526 74.2669 55.9186C74.2669 49.786 69.254 44.7985 63.0945 44.7985C56.9331 44.7985 51.9222 49.788 51.9222 55.9186C51.9222 58.539 52.8379 60.9494 54.3655 62.8508H35.3715V41.4549C35.3715 39.7518 36.7647 38.3653 38.4758 38.3653ZM80.2981 68.4946L77.535 65.7465C76.9252 65.1395 76.1121 64.8036 75.2496 64.8036C75.0207 64.8036 74.7977 64.8271 74.5786 64.8743L73.9628 64.2614L80.6259 64.2771V67.1156C80.6259 67.5949 80.5112 68.0683 80.2981 68.4946ZM72.964 65.7444C72.8713 65.8368 72.7844 65.935 72.7035 66.0371L70.7062 64.0492C70.8977 63.8724 71.0812 63.6878 71.2589 63.4992L73.2561 65.4871C73.1555 65.5676 73.0568 65.6521 72.964 65.7444ZM53.2895 55.9188C53.2895 50.5385 57.6866 46.162 63.0921 46.162C68.4976 46.162 72.8948 50.5385 72.8948 55.9188C72.8948 61.299 68.4976 65.6756 63.0921 65.6756C57.6866 65.6756 53.2895 61.299 53.2895 55.9188ZM35.3711 67.1138V64.2183H55.6616C57.6372 65.9725 60.2423 67.0411 63.0921 67.0411C65.5374 67.0411 67.8031 66.2534 69.6446 64.9216L72.0879 67.3535C72.0425 67.5715 72.0188 67.7935 72.0188 68.0213C72.0188 68.8385 72.3227 69.6085 72.8773 70.2037H38.4755C36.7644 70.2037 35.3711 68.8169 35.3711 67.1138ZM68.3067 78.2439C68.3067 79.012 67.6791 79.6367 66.9075 79.6367H49.0897C48.318 79.6367 47.6904 79.012 47.6904 78.2439C47.6904 77.4759 48.318 76.8512 49.0897 76.8512H66.9054C67.6791 76.8512 68.3067 77.4759 68.3067 78.2439ZM64.2332 75.486H51.7639L52.7823 71.569H63.2129L64.2332 75.486ZM80.1089 72.8007C79.7536 73.168 79.276 73.3723 78.7648 73.3723C78.2675 73.3723 77.7997 73.1778 77.4484 72.8302L73.9335 69.3317C73.5822 68.982 73.3888 68.5165 73.3888 68.0214C73.3888 67.5264 73.5822 67.0608 73.9335 66.7112C74.2848 66.3615 74.7525 66.169 75.2499 66.169C75.7472 66.169 76.215 66.3615 76.5663 66.7112L80.0437 70.1724C80.7759 70.8992 80.8036 72.0798 80.1089 72.8007ZM70.3118 56.2355C70.4144 56.0371 70.4144 55.8013 70.3118 55.6029C68.9026 52.9137 66.1357 51.2421 63.0924 51.2421C60.0491 51.2421 57.2821 52.9118 55.873 55.6029C55.7704 55.8013 55.7704 56.0371 55.873 56.2355C57.2822 58.9247 60.0491 60.5964 63.0924 60.5964C66.1357 60.5964 68.9006 58.9247 70.3118 56.2355ZM57.2644 55.9192C58.4822 53.8684 60.6827 52.6073 63.0924 52.6073C65.5021 52.6073 67.7027 53.8665 68.9203 55.9192C67.7026 57.97 65.5021 59.2311 63.0924 59.2311C60.6827 59.2311 58.4821 57.97 57.2644 55.9192ZM66.2739 55.9192C66.2739 54.1729 64.847 52.7526 63.0924 52.7526C61.3379 52.7526 59.911 54.1729 59.911 55.9192C59.911 57.6655 61.3379 59.0858 63.0924 59.0858C64.847 59.0877 66.2739 57.6655 66.2739 55.9192ZM61.2827 55.9192C61.2827 54.9252 62.0938 54.1179 63.0924 54.1179C64.0911 54.1179 64.9022 54.9253 64.9022 55.9192C64.9022 56.9132 64.091 57.7205 63.0924 57.7205C62.0938 57.7205 61.2827 56.9131 61.2827 55.9192ZM49.0761 57.4121C49.0761 57.7893 48.7702 58.0938 48.3912 58.0938H45.3479C44.969 58.0938 44.6631 57.7893 44.6631 57.4121C44.6631 57.035 44.969 56.7305 45.3479 56.7305H48.3912C48.7682 56.7305 49.0761 57.035 49.0761 57.4121ZM37.5702 52.6996C37.3018 52.4325 37.3018 52.0003 37.5702 51.7351L41.401 47.9223C41.5292 47.7946 41.7049 47.7219 41.8865 47.7219C42.068 47.7219 42.2417 47.7946 42.372 47.9223L44.1462 49.6883L49.2678 44.5906H48.6639C48.285 44.5906 47.9791 44.2861 47.9791 43.909C47.9791 43.5318 48.285 43.2273 48.6639 43.2273H50.9237H50.9336C50.9533 43.2273 50.9711 43.2293 50.9908 43.2312C51.0027 43.2332 51.0145 43.2352 51.0244 43.2371C51.0342 43.2391 51.0461 43.2411 51.0559 43.243C51.0678 43.245 51.0816 43.2489 51.0934 43.2528C51.1033 43.2548 51.1112 43.2568 51.1211 43.2607C51.1329 43.2646 51.1448 43.2686 51.1566 43.2725C51.1665 43.2764 51.1744 43.2784 51.1842 43.2823C51.1961 43.2862 51.2059 43.2921 51.2178 43.298C51.2276 43.302 51.2375 43.3059 51.2454 43.3118C51.2553 43.3177 51.2651 43.3236 51.277 43.3295C51.2869 43.3354 51.2948 43.3393 51.3046 43.3452C51.3165 43.353 51.3283 43.3609 51.3401 43.3707C51.3461 43.3766 51.354 43.3805 51.3599 43.3845C51.3954 43.4139 51.427 43.4454 51.4566 43.4807C51.4625 43.4866 51.4665 43.4925 51.4704 43.5004C51.4783 43.5121 51.4882 43.5239 51.4961 43.5357C51.502 43.5436 51.5059 43.5534 51.5118 43.5613C51.5178 43.5711 51.5237 43.5809 51.5296 43.5927C51.5355 43.6025 51.5395 43.6104 51.5434 43.6202C51.5493 43.63 51.5533 43.6418 51.5592 43.6536C51.5632 43.6634 51.5651 43.6713 51.5691 43.6811C51.573 43.6929 51.577 43.7047 51.5809 43.7164C51.5829 43.7263 51.5849 43.7341 51.5888 43.7439C51.5928 43.7557 51.5947 43.7695 51.5987 43.7813C51.6007 43.7911 51.6026 43.8009 51.6026 43.8127C51.6046 43.8245 51.6066 43.8363 51.6086 43.8481C51.6105 43.8657 51.6105 43.8834 51.6105 43.9011V43.9148V46.1641C51.6105 46.5412 51.3046 46.8457 50.9257 46.8457C50.5467 46.8457 50.2408 46.5412 50.2408 46.1641L50.2369 45.5551L44.6297 51.134C44.5014 51.2617 44.3258 51.3344 44.1442 51.3344C43.9626 51.3344 43.789 51.2617 43.6587 51.134L41.8845 49.3681L38.5392 52.6977C38.405 52.8312 38.2294 52.898 38.0537 52.898C37.88 52.898 37.7044 52.8313 37.5702 52.6996ZM41.8628 57.4121C41.8628 57.7893 41.5569 58.0938 41.1779 58.0938H38.0557C37.6768 58.0938 37.3709 57.7893 37.3709 57.4121C37.3709 57.035 37.6768 56.7305 38.0557 56.7305H41.1779C41.5549 56.7305 41.8628 57.035 41.8628 57.4121Z" stroke="#233A7C" stroke-width="0.2" mask="url(#path-6-outside-1_2001_98)"/>
<defs>
<filter id="filter0_ii_2001_98" x="90" y="35" width="43" height="47" filterUnits="userSpaceOnUse" color-interpolation-filters="sRGB">
<feFlood flood-opacity="0" result="BackgroundImageFix"/>
<feBlend mode="normal" in="SourceGraphic" in2="BackgroundImageFix" result="shape"/>
<feColorMatrix in="SourceAlpha" type="matrix" values="0 0 0 0 0 0 0 0 0 0 0 0 0 0 0 0 0 0 127 0" result="hardAlpha"/>
<feOffset dy="4"/>
<feGaussianBlur stdDeviation="2"/>
<feComposite in2="hardAlpha" operator="arithmetic" k2="-1" k3="1"/>
<feColorMatrix type="matrix" values="0 0 0 0 0.521855 0 0 0 0 0.627134 0 0 0 0 0.925424 0 0 0 1 0"/>
<feBlend mode="normal" in2="shape" result="effect1_innerShadow_2001_98"/>
<feColorMatrix in="SourceAlpha" type="matrix" values="0 0 0 0 0 0 0 0 0 0 0 0 0 0 0 0 0 0 127 0" result="hardAlpha"/>
<feOffset dx="2" dy="-2"/>
<feGaussianBlur stdDeviation="2"/>
<feComposite in2="hardAlpha" operator="arithmetic" k2="-1" k3="1"/>
<feColorMatrix type="matrix" values="0 0 0 0 0.0484865 0 0 0 0 0.113937 0 0 0 0 0.160231 0 0 0 1 0"/>
<feBlend mode="normal" in2="effect1_innerShadow_2001_98" result="effect2_innerShadow_2001_98"/>
</filter>
</defs>
</svg>
