<svg width="85" height="85" viewBox="0 0 85 85" fill="none" xmlns="http://www.w3.org/2000/svg">
<circle cx="42.5" cy="42.5" r="42.5" fill="#D4DEFC"/>
<circle cx="43.0744" cy="43.0743" r="37.3311" fill="white"/>
<path d="M42.0499 57.507H30.1053C29.6603 57.507 29.2994 57.146 29.2994 56.7011V27.6875C29.2994 27.2426 29.6604 26.8816 30.1053 26.8816H51.0595C51.5045 26.8816 51.8655 27.2426 51.8655 27.6875V43.2018C51.8655 43.6468 52.2265 44.0077 52.6714 44.0077C53.1163 44.0077 53.4773 43.6468 53.4773 43.2018V27.6875C53.4773 26.3543 52.3927 25.2697 51.0595 25.2697H30.1053C28.7721 25.2697 27.6875 26.3543 27.6875 27.6875V56.7011C27.6875 58.0342 28.7721 59.1189 30.1053 59.1189H42.0499C42.4948 59.1189 42.8558 58.7579 42.8558 58.3129C42.8558 57.868 42.4948 57.507 42.0499 57.507Z" fill="#2A3F80"/>
<path d="M35.7469 37.6072C35.8611 37.5686 35.9769 37.54 36.0877 37.4863C36.8601 37.1068 37.3587 36.3781 37.3587 35.6293C37.3587 34.2424 36.1179 33.7454 35.5219 33.5053C35.4329 33.4701 35.3506 33.4365 35.2784 33.4046C35.1945 33.366 35.0954 33.3257 34.9846 33.282C34.4205 33.057 34.135 32.8975 34.135 32.644C34.135 32.5483 34.2492 32.3585 34.5044 32.2326C34.7176 32.1285 35.2969 31.9472 36.0592 32.5348C36.4135 32.8068 36.9188 32.7414 37.1892 32.3888C37.4612 32.0362 37.3957 31.5308 37.0448 31.2588C36.6351 30.9414 36.1935 30.7282 35.7469 30.6107V30.107C35.7469 29.662 35.3859 29.301 34.941 29.301C34.496 29.301 34.135 29.662 34.135 30.107V30.6493C34.0192 30.6879 33.905 30.7315 33.7942 30.7853C33.0218 31.1647 32.5232 31.8934 32.5232 32.6423C32.5232 34.0342 33.7824 34.5362 34.3886 34.778C34.4691 34.8099 34.5413 34.8385 34.6018 34.867C34.6958 34.9107 34.805 34.9543 34.9208 35.0013C35.5689 35.2599 35.7452 35.3959 35.7452 35.6293C35.7452 35.725 35.631 35.9147 35.3758 36.0406C35.1626 36.1447 34.5816 36.3261 33.821 35.7384C33.4668 35.4647 32.9614 35.5319 32.6911 35.8845C32.4191 36.2371 32.4845 36.7425 32.8355 37.0145C33.2451 37.3318 33.6884 37.5383 34.1333 37.6542V38.1663C34.1333 38.6112 34.4943 38.9722 34.9393 38.9722C35.3842 38.9722 35.7452 38.6112 35.7452 38.1663V37.6088L35.7469 37.6072Z" fill="#2A3F80"/>
<path d="M34.9409 40.5825H33.329C32.884 40.5825 32.5231 40.9434 32.5231 41.3884C32.5231 41.8333 32.8841 42.1943 33.329 42.1943H34.9409C35.3858 42.1943 35.7468 41.8333 35.7468 41.3884C35.7468 40.9434 35.3858 40.5825 34.9409 40.5825Z" fill="#2A3F80"/>
<path d="M34.9409 44.6121H33.329C32.884 44.6121 32.5231 44.9731 32.5231 45.4181C32.5231 45.863 32.8841 46.224 33.329 46.224H34.9409C35.3858 46.224 35.7468 45.863 35.7468 45.4181C35.7468 44.9731 35.3858 44.6121 34.9409 44.6121Z" fill="#2A3F80"/>
<path d="M34.9409 48.6418H33.329C32.884 48.6418 32.5231 49.0028 32.5231 49.4477C32.5231 49.8927 32.8841 50.2536 33.329 50.2536H34.9409C35.3858 50.2536 35.7468 49.8927 35.7468 49.4477C35.7468 49.0028 35.3858 48.6418 34.9409 48.6418Z" fill="#2A3F80"/>
<path d="M34.9409 52.6714H33.329C32.884 52.6714 32.5231 53.0324 32.5231 53.4774C32.5231 53.9223 32.8841 54.2833 33.329 54.2833H34.9409C35.3858 54.2833 35.7468 53.9223 35.7468 53.4774C35.7468 53.0324 35.3858 52.6714 34.9409 52.6714Z" fill="#2A3F80"/>
<path d="M48.6417 41.3884C48.6417 40.9434 48.2807 40.5825 47.8358 40.5825H38.1646C37.7196 40.5825 37.3586 40.9434 37.3586 41.3884C37.3586 41.8333 37.7196 42.1943 38.1646 42.1943H47.8358C48.2807 42.1943 48.6417 41.8333 48.6417 41.3884Z" fill="#2A3F80"/>
<path d="M44.9176 45.4181C44.9176 44.9731 44.5567 44.6121 44.1117 44.6121H38.1646C37.7196 44.6121 37.3586 44.9731 37.3586 45.4181C37.3586 45.863 37.7196 46.224 38.1646 46.224H44.1117C44.5567 46.224 44.9176 45.863 44.9176 45.4181Z" fill="#2A3F80"/>
<path d="M42.0649 49.4477C42.0649 49.0028 41.704 48.6418 41.259 48.6418H38.1646C37.7196 48.6418 37.3586 49.0028 37.3586 49.4477C37.3586 49.8927 37.7196 50.2536 38.1646 50.2536H41.259C41.704 50.2536 42.0649 49.8927 42.0649 49.4477Z" fill="#2A3F80"/>
<path d="M40.5975 52.6714H38.1646C37.7196 52.6714 37.3586 53.0324 37.3586 53.4774C37.3586 53.9223 37.7196 54.2833 38.1646 54.2833H40.5975C41.0425 54.2833 41.4034 53.9223 41.4034 53.4774C41.4034 53.0324 41.0424 52.6714 40.5975 52.6714Z" fill="#2A3F80"/>
<path d="M47.8356 35.7468H40.1795C39.7345 35.7468 39.3735 36.1078 39.3735 36.5528C39.3735 36.9977 39.7345 37.3587 40.1795 37.3587H47.8356C48.2806 37.3587 48.6415 36.9977 48.6415 36.5528C48.6415 36.1078 48.2806 35.7468 47.8356 35.7468Z" fill="#2A3F80"/>
<path d="M47.8356 31.7172H40.1795C39.7345 31.7172 39.3735 32.0782 39.3735 32.5231C39.3735 32.968 39.7345 33.329 40.1795 33.329H47.8356C48.2806 33.329 48.6415 32.968 48.6415 32.5231C48.6415 32.0782 48.2806 31.7172 47.8356 31.7172Z" fill="#2A3F80"/>
<path d="M50.6564 45.418C46.4353 45.418 43.0002 48.8533 43.0002 53.0742C43.0002 57.295 46.4355 60.7303 50.6564 60.7303C54.8772 60.7303 58.3125 57.295 58.3125 53.0742C58.3125 48.8533 54.8772 45.418 50.6564 45.418ZM50.6564 59.1189C47.3235 59.1189 44.6121 56.4073 44.6121 53.0746C44.6121 49.742 47.3237 47.0303 50.6564 47.0303C53.989 47.0303 56.7007 49.742 56.7007 53.0746C56.7007 56.4073 53.989 59.1189 50.6564 59.1189Z" fill="#2A3F80"/>
<path d="M52.1027 50.4905L48.073 54.5202C47.759 54.8341 47.759 55.3446 48.073 55.6602C48.2308 55.818 48.4374 55.8969 48.6422 55.8969C48.8487 55.8969 49.0552 55.818 49.2114 55.6602L53.241 51.6305C53.555 51.3165 53.555 50.8061 53.241 50.4905C52.9271 50.1765 52.4166 50.1765 52.101 50.4905H52.1027Z" fill="#2A3F80"/>
<path d="M49.4477 51.0596C49.4477 52.1342 47.8358 52.1342 47.8358 51.0596C47.8358 49.985 49.4477 49.985 49.4477 51.0596Z" fill="#2A3F80"/>
<path d="M53.4773 55.0893C53.4773 56.1638 51.8655 56.1638 51.8655 55.0893C51.8655 54.0147 53.4773 54.0147 53.4773 55.0893Z" fill="#2A3F80"/>
</svg>
