<svg width="131" height="115" viewBox="0 0 131 115" fill="none" xmlns="http://www.w3.org/2000/svg">
<g filter="url(#filter0_ii_2001_98)">
<circle cx="57.5" cy="57.5" r="57.5" fill="#243C80"/>
</g>
<g filter="url(#filter1_ii_2001_98)">
<circle cx="110.5" cy="57.5" r="20.5" fill="black"/>
</g>
<circle cx="110.5" cy="57.5" r="19.5" stroke="white" stroke-width="2"/>
<path d="M103.875 67V64.825L110.825 58.225C111.408 57.675 111.842 57.1917 112.125 56.775C112.408 56.3583 112.592 55.975 112.675 55.625C112.775 55.2583 112.825 54.9167 112.825 54.6C112.825 53.8 112.55 53.1833 112 52.75C111.45 52.3 110.642 52.075 109.575 52.075C108.725 52.075 107.95 52.225 107.25 52.525C106.567 52.825 105.975 53.2833 105.475 53.9L103.2 52.15C103.883 51.2333 104.8 50.525 105.95 50.025C107.117 49.5083 108.417 49.25 109.85 49.25C111.117 49.25 112.217 49.4583 113.15 49.875C114.1 50.275 114.825 50.85 115.325 51.6C115.842 52.35 116.1 53.2417 116.1 54.275C116.1 54.8417 116.025 55.4083 115.875 55.975C115.725 56.525 115.442 57.1083 115.025 57.725C114.608 58.3417 114 59.0333 113.2 59.8L107.225 65.475L106.55 64.25H116.775V67H103.875Z" fill="white"/>
<path d="M42.705 48.5028C42.7053 48.3476 42.7674 48.1988 42.8778 48.0892C42.9882 47.9795 43.1378 47.9179 43.2938 47.9179H51.9233C52.002 47.9158 52.0803 47.9293 52.1536 47.9578C52.2268 47.9862 52.2937 48.029 52.35 48.0836C52.4064 48.1382 52.4513 48.2035 52.4819 48.2756C52.5125 48.3477 52.5282 48.4252 52.5282 48.5034C52.5282 48.5817 52.5125 48.6592 52.4819 48.7313C52.4513 48.8034 52.4064 48.8687 52.35 48.9233C52.2937 48.9778 52.2268 49.0206 52.1536 49.0491C52.0803 49.0776 52.002 49.0911 51.9233 49.089H43.2938C43.2164 49.089 43.1398 49.0739 43.0683 49.0445C42.9968 49.015 42.9319 48.9718 42.8772 48.9174C42.8225 48.8629 42.7791 48.7983 42.7496 48.7271C42.7201 48.656 42.7049 48.5798 42.705 48.5028ZM43.2938 52.5718H52.3617C52.5179 52.5718 52.6676 52.5101 52.778 52.4002C52.8884 52.2904 52.9505 52.1414 52.9505 51.986C52.9505 51.8307 52.8884 51.6817 52.778 51.5718C52.6676 51.462 52.5179 51.4003 52.3617 51.4003H43.2938C43.1376 51.4003 42.9879 51.462 42.8775 51.5718C42.7671 51.6817 42.705 51.8307 42.705 51.986C42.705 52.1414 42.7671 52.2904 42.8775 52.4002C42.9879 52.5101 43.1376 52.5718 43.2938 52.5718ZM43.2938 56.055H54.2346C54.3907 56.055 54.5405 55.9933 54.6509 55.8835C54.7613 55.7736 54.8233 55.6246 54.8233 55.4693C54.8233 55.3139 54.7613 55.165 54.6509 55.0551C54.5405 54.9453 54.3907 54.8835 54.2346 54.8835H43.2938C43.1376 54.8835 42.9879 54.9453 42.8775 55.0551C42.7671 55.165 42.705 55.3139 42.705 55.4693C42.705 55.6246 42.7671 55.7736 42.8775 55.8835C42.9879 55.9933 43.1376 56.055 43.2938 56.055ZM43.2938 59.5383H57.8662C57.9448 59.5405 58.0231 59.5269 58.0964 59.4984C58.1697 59.47 58.2365 59.4272 58.2929 59.3726C58.3492 59.318 58.3941 59.2527 58.4247 59.1806C58.4553 59.1085 58.471 59.0311 58.471 58.9528C58.471 58.8745 58.4553 58.797 58.4247 58.7249C58.3941 58.6528 58.3492 58.5875 58.2929 58.533C58.2365 58.4784 58.1697 58.4356 58.0964 58.4071C58.0231 58.3787 57.9448 58.3651 57.8662 58.3673H43.2938C43.2151 58.3651 43.1369 58.3787 43.0636 58.4071C42.9903 58.4356 42.9235 58.4784 42.8671 58.533C42.8107 58.5875 42.7659 58.6528 42.7353 58.7249C42.7047 58.797 42.6889 58.8745 42.6889 58.9528C42.6889 59.0311 42.7047 59.1085 42.7353 59.1806C42.7659 59.2527 42.8107 59.318 42.8671 59.3726C42.9235 59.4272 42.9903 59.47 43.0636 59.4984C43.1369 59.5269 43.2151 59.5405 43.2938 59.5383ZM43.2938 63.0216H66.1883C66.267 63.0237 66.3452 63.0102 66.4185 62.9817C66.4918 62.9532 66.5586 62.9105 66.615 62.8559C66.6714 62.8013 66.7162 62.736 66.7468 62.6639C66.7774 62.5918 66.7932 62.5143 66.7932 62.436C66.7932 62.3578 66.7774 62.2803 66.7468 62.2082C66.7162 62.1361 66.6714 62.0708 66.615 62.0162C66.5586 61.9616 66.4918 61.9188 66.4185 61.8904C66.3452 61.8619 66.267 61.8484 66.1883 61.8505H43.2938C43.2151 61.8484 43.1369 61.8619 43.0636 61.8904C42.9903 61.9188 42.9235 61.9616 42.8671 62.0162C42.8107 62.0708 42.7659 62.1361 42.7353 62.2082C42.7047 62.2803 42.6889 62.3578 42.6889 62.436C42.6889 62.5143 42.7047 62.5918 42.7353 62.6639C42.7659 62.736 42.8107 62.8013 42.8671 62.8559C42.9235 62.9105 42.9903 62.9532 43.0636 62.9817C43.1369 63.0102 43.2151 63.0237 43.2938 63.0216ZM43.2938 66.5053H66.1883C66.3445 66.5053 66.4942 66.4436 66.6046 66.3337C66.715 66.2239 66.7771 66.0749 66.7771 65.9195C66.7771 65.7642 66.715 65.6152 66.6046 65.5053C66.4942 65.3955 66.3445 65.3338 66.1883 65.3338H43.2938C43.1376 65.3338 42.9879 65.3955 42.8775 65.5053C42.7671 65.6152 42.705 65.7642 42.705 65.9195C42.705 66.0749 42.7671 66.2239 42.8775 66.3337C42.9879 66.4436 43.1376 66.5053 43.2938 66.5053ZM43.2938 69.9885H66.1883C66.3445 69.9885 66.4942 69.9268 66.6046 69.817C66.715 69.7071 66.7771 69.5581 66.7771 69.4028C66.7771 69.2474 66.715 69.0984 66.6046 68.9886C66.4942 68.8787 66.3445 68.817 66.1883 68.817H43.2938C43.1376 68.817 42.9879 68.8787 42.8775 68.9886C42.7671 69.0984 42.705 69.2474 42.705 69.4028C42.705 69.5581 42.7671 69.7071 42.8775 69.817C42.9879 69.9268 43.1376 69.9885 43.2938 69.9885ZM58.6969 45.7536C59.1038 45.4351 59.6212 45.2903 60.1354 45.351C60.6495 45.4116 61.1185 45.6727 61.4394 46.077L62.9875 48.0341L69.7398 42.3645C70.1357 42.0327 70.6476 41.8708 71.1633 41.9141C71.679 41.9574 72.1564 42.2025 72.4907 42.5955C72.8376 42.9861 73.0395 43.4831 73.0627 44.0038C73.0649 44.283 73.0036 44.5591 72.8834 44.8115C72.7633 45.0638 72.5873 45.2858 72.3687 45.4609L63.7431 52.7038C63.44 52.9634 63.0531 53.1057 62.6531 53.1047C62.592 53.1047 62.5309 53.1016 62.47 53.0955C62.2417 53.0746 62.0202 53.0071 61.8193 52.8972C61.6184 52.7873 61.4424 52.6375 61.3022 52.4569L58.2355 48.5842C57.526 47.6882 57.7149 46.5233 58.6969 45.7536ZM59.1622 47.8616L62.2285 51.7343C62.2726 51.7896 62.3273 51.8355 62.3895 51.8694C62.4517 51.9033 62.5201 51.9244 62.5907 51.9315C62.6612 51.9387 62.7325 51.9317 62.8003 51.9109C62.8681 51.8902 62.931 51.8562 62.9853 51.8109L71.6109 44.568C71.6964 44.5052 71.766 44.4234 71.814 44.3291C71.862 44.2348 71.8871 44.1306 71.8874 44.0249C71.8685 43.7739 71.7649 43.5366 71.5932 43.3516C71.4604 43.1956 71.2708 43.0983 71.066 43.0811C70.8613 43.0638 70.658 43.128 70.5007 43.2596L63.2826 49.32C63.2223 49.3705 63.1525 49.4084 63.0772 49.4315C63.0019 49.4546 62.9227 49.4624 62.8443 49.4545C62.7659 49.4466 62.6899 49.4231 62.6208 49.3854C62.5518 49.3477 62.491 49.2966 62.4421 49.2351L60.5153 46.8023C60.4523 46.7227 60.3742 46.6563 60.2854 46.6068C60.1966 46.5572 60.0989 46.5256 59.9978 46.5137C59.8967 46.5017 59.7942 46.5097 59.6962 46.5372C59.5983 46.5647 59.5067 46.6111 59.4267 46.6738C59.3257 46.7296 59.2377 46.8062 59.1686 46.8983C59.0995 46.9905 59.0509 47.0962 59.0259 47.2085C59.0009 47.3207 59.0001 47.437 59.0236 47.5496C59.0471 47.6622 59.0944 47.7685 59.1622 47.8616ZM73.3214 55.9274V77.9835C73.3209 78.5182 73.1071 79.0307 72.7272 79.4087C72.3472 79.7868 71.832 79.9994 71.2947 80H44.1077C43.5704 79.9993 43.0552 79.7866 42.6753 79.4086C42.2953 79.0306 42.0816 78.5181 42.0809 77.9835V76.9348H41.0272C40.4898 76.9344 39.9745 76.7218 39.5944 76.3437C39.2144 75.9657 39.0006 75.4531 39 74.9184V44.1521C39 44.1468 39 44.1415 39 44.1363V44.116C39.0015 44.094 39.0042 44.0722 39.008 44.0505V44.0408C39.013 44.0154 39.0196 43.9904 39.0279 43.966L39.0323 43.9541C39.0402 43.9321 39.0495 43.9106 39.0602 43.8898L39.0646 43.8806C39.0765 43.8579 39.09 43.836 39.1048 43.815L39.1141 43.8027C39.1278 43.7838 39.1426 43.7657 39.1584 43.7486L39.1628 43.7433L45.31 37.4844C45.3283 37.4659 45.348 37.4487 45.3688 37.4329L45.3821 37.4232C45.4245 37.392 45.4711 37.3668 45.5205 37.3484L45.5333 37.3436C45.5826 37.326 45.6341 37.3153 45.6864 37.3119H45.7058H45.7297H60.0672C62.5482 36.0203 65.4158 35.6677 68.1382 36.3196C70.8605 36.9714 73.2529 38.5835 74.8714 40.8568C76.49 43.1301 77.2249 45.9102 76.9399 48.6816C76.6549 51.4529 75.3692 54.0274 73.3214 55.9274ZM65.4363 37.1631C63.3804 37.1631 61.3706 37.7697 59.6612 38.9061C57.9518 40.0425 56.6194 41.6577 55.8327 43.5474C55.0459 45.4372 54.84 47.5166 55.2411 49.5227C55.6422 51.5289 56.6322 53.3716 58.086 54.818C59.5398 56.2643 61.392 57.2493 63.4084 57.6484C65.4248 58.0474 67.5149 57.8426 69.4143 57.0598C71.3137 56.2771 72.9372 54.9515 74.0794 53.2508C75.2216 51.5501 75.8313 49.5506 75.8313 47.5051C75.8276 44.7634 74.7313 42.1349 72.7827 40.1962C70.834 38.2575 68.1921 37.1668 65.4363 37.1631ZM40.9861 43.5668H44.8234C44.9075 43.5658 44.9879 43.5321 45.0474 43.4729C45.1069 43.4137 45.1408 43.3337 45.1419 43.2499V39.3319L40.9861 43.5668ZM41.0272 75.7638H68.2138C68.4391 75.7635 68.6551 75.6744 68.8144 75.5159C68.9737 75.3574 69.0633 75.1425 69.0635 74.9184V58.4421C66.481 59.2909 63.6805 59.2076 61.1536 58.2068C58.6268 57.2059 56.535 55.3515 55.2455 52.969C53.9561 50.5866 53.5514 47.8283 54.1024 45.1785C54.6535 42.5288 56.1251 40.1568 58.259 38.479H46.3185V43.2499C46.318 43.6443 46.1604 44.0225 45.8801 44.3014C45.5998 44.5803 45.2198 44.7373 44.8234 44.7379H40.1788V74.9184C40.1791 75.1423 40.2685 75.357 40.4275 75.5154C40.5865 75.6739 40.8022 75.7632 41.0272 75.7638ZM72.1444 56.8842C71.5467 57.3087 70.9099 57.6758 70.2423 57.9804V74.9184C70.2418 75.453 70.028 75.9655 69.6481 76.3436C69.2681 76.7216 68.7529 76.9342 68.2155 76.9348H43.2584V77.9835C43.2586 78.2076 43.3482 78.4223 43.5074 78.5808C43.6666 78.7392 43.8825 78.8283 44.1077 78.8285H71.2947C71.5199 78.8283 71.7358 78.7392 71.8951 78.5808C72.0544 78.4224 72.144 78.2076 72.1444 77.9835V56.8842Z" fill="white"/>
<defs>
<filter id="filter0_ii_2001_98" x="0" y="-2" width="117" height="121" filterUnits="userSpaceOnUse" color-interpolation-filters="sRGB">
<feFlood flood-opacity="0" result="BackgroundImageFix"/>
<feBlend mode="normal" in="SourceGraphic" in2="BackgroundImageFix" result="shape"/>
<feColorMatrix in="SourceAlpha" type="matrix" values="0 0 0 0 0 0 0 0 0 0 0 0 0 0 0 0 0 0 127 0" result="hardAlpha"/>
<feOffset dy="4"/>
<feGaussianBlur stdDeviation="2"/>
<feComposite in2="hardAlpha" operator="arithmetic" k2="-1" k3="1"/>
<feColorMatrix type="matrix" values="0 0 0 0 0.521855 0 0 0 0 0.627134 0 0 0 0 0.925424 0 0 0 1 0"/>
<feBlend mode="normal" in2="shape" result="effect1_innerShadow_2001_98"/>
<feColorMatrix in="SourceAlpha" type="matrix" values="0 0 0 0 0 0 0 0 0 0 0 0 0 0 0 0 0 0 127 0" result="hardAlpha"/>
<feOffset dx="2" dy="-2"/>
<feGaussianBlur stdDeviation="2"/>
<feComposite in2="hardAlpha" operator="arithmetic" k2="-1" k3="1"/>
<feColorMatrix type="matrix" values="0 0 0 0 0.0484865 0 0 0 0 0.113937 0 0 0 0 0.160231 0 0 0 1 0"/>
<feBlend mode="normal" in2="effect1_innerShadow_2001_98" result="effect2_innerShadow_2001_98"/>
</filter>
<filter id="filter1_ii_2001_98" x="90" y="35" width="43" height="47" filterUnits="userSpaceOnUse" color-interpolation-filters="sRGB">
<feFlood flood-opacity="0" result="BackgroundImageFix"/>
<feBlend mode="normal" in="SourceGraphic" in2="BackgroundImageFix" result="shape"/>
<feColorMatrix in="SourceAlpha" type="matrix" values="0 0 0 0 0 0 0 0 0 0 0 0 0 0 0 0 0 0 127 0" result="hardAlpha"/>
<feOffset dy="4"/>
<feGaussianBlur stdDeviation="2"/>
<feComposite in2="hardAlpha" operator="arithmetic" k2="-1" k3="1"/>
<feColorMatrix type="matrix" values="0 0 0 0 0.521855 0 0 0 0 0.627134 0 0 0 0 0.925424 0 0 0 1 0"/>
<feBlend mode="normal" in2="shape" result="effect1_innerShadow_2001_98"/>
<feColorMatrix in="SourceAlpha" type="matrix" values="0 0 0 0 0 0 0 0 0 0 0 0 0 0 0 0 0 0 127 0" result="hardAlpha"/>
<feOffset dx="2" dy="-2"/>
<feGaussianBlur stdDeviation="2"/>
<feComposite in2="hardAlpha" operator="arithmetic" k2="-1" k3="1"/>
<feColorMatrix type="matrix" values="0 0 0 0 0.0484865 0 0 0 0 0.113937 0 0 0 0 0.160231 0 0 0 1 0"/>
<feBlend mode="normal" in2="effect1_innerShadow_2001_98" result="effect2_innerShadow_2001_98"/>
</filter>
</defs>
</svg>
