<svg width="131" height="115" viewBox="0 0 131 115" fill="none" xmlns="http://www.w3.org/2000/svg">
<circle cx="57.5" cy="57.5" r="57.5" fill="#D4DEFC"/>
<circle cx="58.5" cy="56.5" r="47.5" fill="white"/>
<g filter="url(#filter0_ii_643_2133)">
<circle cx="110.5" cy="57.5" r="20.5" fill="#233A7C"/>
</g>
<circle cx="110.5" cy="57.5" r="19.5" stroke="white" stroke-width="2"/>
<path d="M104.875 67V64.825L111.825 58.225C112.408 57.675 112.842 57.1917 113.125 56.775C113.408 56.3583 113.592 55.975 113.675 55.625C113.775 55.2583 113.825 54.9167 113.825 54.6C113.825 53.8 113.55 53.1833 113 52.75C112.45 52.3 111.642 52.075 110.575 52.075C109.725 52.075 108.95 52.225 108.25 52.525C107.567 52.825 106.975 53.2833 106.475 53.9L104.2 52.15C104.883 51.2333 105.8 50.525 106.95 50.025C108.117 49.5083 109.417 49.25 110.85 49.25C112.117 49.25 113.217 49.4583 114.15 49.875C115.1 50.275 115.825 50.85 116.325 51.6C116.842 52.35 117.1 53.2417 117.1 54.275C117.1 54.8417 117.025 55.4083 116.875 55.975C116.725 56.525 116.442 57.1083 116.025 57.725C115.608 58.3417 115 59.0333 114.2 59.8L108.225 65.475L107.55 64.25H117.775V67H104.875Z" fill="white"/>
<mask id="path-6-outside-1_643_2133" maskUnits="userSpaceOnUse" x="39.0059" y="34.1672" width="40" height="46" fill="black">
<rect fill="white" x="39.0059" y="34.1672" width="40" height="46"/>
<path d="M43.7109 47.67C43.7111 47.5148 43.7732 47.3661 43.8836 47.2564C43.994 47.1467 44.1436 47.0851 44.2996 47.0851H52.9292C53.0079 47.083 53.0861 47.0966 53.1594 47.125C53.2327 47.1535 53.2995 47.1963 53.3559 47.2508C53.4123 47.3054 53.4571 47.3707 53.4877 47.4428C53.5183 47.5149 53.5341 47.5924 53.5341 47.6707C53.5341 47.7489 53.5183 47.8264 53.4877 47.8985C53.4571 47.9706 53.4123 48.0359 53.3559 48.0905C53.2995 48.1451 53.2327 48.1879 53.1594 48.2163C53.0861 48.2448 53.0079 48.2583 52.9292 48.2562H44.2996C44.2223 48.2563 44.1456 48.2411 44.0742 48.2117C44.0027 48.1822 43.9377 48.1391 43.883 48.0846C43.8283 48.0302 43.785 47.9655 43.7555 47.8944C43.7259 47.8232 43.7108 47.747 43.7109 47.67ZM44.2996 51.739H53.3676C53.5237 51.739 53.6735 51.6773 53.7839 51.5675C53.8943 51.4576 53.9563 51.3086 53.9563 51.1533C53.9563 50.9979 53.8943 50.8489 53.7839 50.7391C53.6735 50.6292 53.5237 50.5675 53.3676 50.5675H44.2996C44.1435 50.5675 43.9937 50.6292 43.8833 50.7391C43.7729 50.8489 43.7109 50.9979 43.7109 51.1533C43.7109 51.3086 43.7729 51.4576 43.8833 51.5675C43.9937 51.6773 44.1435 51.739 44.2996 51.739ZM44.2996 55.2223H55.2404C55.3966 55.2223 55.5463 55.1606 55.6567 55.0507C55.7671 54.9409 55.8292 54.7919 55.8292 54.6365C55.8292 54.4812 55.7671 54.3322 55.6567 54.2223C55.5463 54.1125 55.3966 54.0508 55.2404 54.0508H44.2996C44.1435 54.0508 43.9937 54.1125 43.8833 54.2223C43.7729 54.3322 43.7109 54.4812 43.7109 54.6365C43.7109 54.7919 43.7729 54.9409 43.8833 55.0507C43.9937 55.1606 44.1435 55.2223 44.2996 55.2223ZM44.2996 58.7055H58.872C58.9507 58.7077 59.0289 58.6941 59.1022 58.6657C59.1755 58.6372 59.2423 58.5944 59.2987 58.5398C59.3551 58.4853 59.3999 58.42 59.4305 58.3479C59.4611 58.2758 59.4769 58.1983 59.4769 58.12C59.4769 58.0417 59.4611 57.9643 59.4305 57.8922C59.3999 57.82 59.3551 57.7548 59.2987 57.7002C59.2423 57.6456 59.1755 57.6028 59.1022 57.5744C59.0289 57.5459 58.9507 57.5323 58.872 57.5345H44.2996C44.221 57.5323 44.1427 57.5459 44.0694 57.5744C43.9961 57.6028 43.9293 57.6456 43.8729 57.7002C43.8165 57.7548 43.7717 57.82 43.7411 57.8922C43.7105 57.9643 43.6947 58.0417 43.6947 58.12C43.6947 58.1983 43.7105 58.2758 43.7411 58.3479C43.7717 58.42 43.8165 58.4853 43.8729 58.5398C43.9293 58.5944 43.9961 58.6372 44.0694 58.6657C44.1427 58.6941 44.221 58.7077 44.2996 58.7055ZM44.2996 62.1888H67.1942C67.2728 62.191 67.3511 62.1774 67.4244 62.1489C67.4977 62.1205 67.5645 62.0777 67.6209 62.0231C67.6773 61.9685 67.7221 61.9032 67.7527 61.8311C67.7833 61.759 67.7991 61.6816 67.7991 61.6033C67.7991 61.525 67.7833 61.4475 67.7527 61.3754C67.7221 61.3033 67.6773 61.238 67.6209 61.1835C67.5645 61.1289 67.4977 61.0861 67.4244 61.0576C67.3511 61.0292 67.2728 61.0156 67.1942 61.0177H44.2996C44.221 61.0156 44.1427 61.0292 44.0694 61.0576C43.9961 61.0861 43.9293 61.1289 43.8729 61.1835C43.8165 61.238 43.7717 61.3033 43.7411 61.3754C43.7105 61.4475 43.6947 61.525 43.6947 61.6033C43.6947 61.6816 43.7105 61.759 43.7411 61.8311C43.7717 61.9032 43.8165 61.9685 43.8729 62.0231C43.9293 62.0777 43.9961 62.1205 44.0694 62.1489C44.1427 62.1774 44.221 62.191 44.2996 62.1888ZM44.2996 65.6725H67.1942C67.3503 65.6725 67.5001 65.6108 67.6105 65.5009C67.7209 65.3911 67.7829 65.2421 67.7829 65.0868C67.7829 64.9314 67.7209 64.7824 67.6105 64.6726C67.5001 64.5627 67.3503 64.501 67.1942 64.501H44.2996C44.1435 64.501 43.9937 64.5627 43.8833 64.6726C43.7729 64.7824 43.7109 64.9314 43.7109 65.0868C43.7109 65.2421 43.7729 65.3911 43.8833 65.5009C43.9937 65.6108 44.1435 65.6725 44.2996 65.6725ZM44.2996 69.1558H67.1942C67.3503 69.1558 67.5001 69.0941 67.6105 68.9842C67.7209 68.8744 67.7829 68.7254 67.7829 68.57C67.7829 68.4147 67.7209 68.2657 67.6105 68.1558C67.5001 68.046 67.3503 67.9843 67.1942 67.9843H44.2996C44.1435 67.9843 43.9937 68.046 43.8833 68.1558C43.7729 68.2657 43.7109 68.4147 43.7109 68.57C43.7109 68.7254 43.7729 68.8744 43.8833 68.9842C43.9937 69.0941 44.1435 69.1558 44.2996 69.1558ZM59.7027 44.9208C60.1097 44.6024 60.6271 44.4576 61.1412 44.5182C61.6554 44.5789 62.1244 44.84 62.4452 45.2443L63.9934 47.2013L70.7457 41.5317C71.1415 41.2 71.6535 41.038 72.1692 41.0813C72.6849 41.1246 73.1623 41.3697 73.4966 41.7628C73.8435 42.1533 74.0453 42.6504 74.0685 43.171C74.0708 43.4503 74.0095 43.7264 73.8893 43.9787C73.7691 44.231 73.5931 44.453 73.3745 44.6282L64.7489 51.871C64.4458 52.1306 64.0589 52.2729 63.659 52.272C63.5978 52.2719 63.5367 52.2689 63.4759 52.2627C63.2476 52.2418 63.0261 52.1743 62.8251 52.0644C62.6242 51.9546 62.4482 51.8047 62.3081 51.6242L59.2414 47.7514C58.5319 46.8554 58.7207 45.6905 59.7027 44.9208ZM60.1681 47.0288L63.2344 50.9015C63.2784 50.9568 63.3332 51.0028 63.3954 51.0366C63.4576 51.0705 63.526 51.0916 63.5965 51.0988C63.6671 51.1059 63.7384 51.0989 63.8061 51.0782C63.8739 51.0575 63.9368 51.0234 63.9912 50.9781L72.6168 43.7352C72.7023 43.6725 72.7718 43.5907 72.8198 43.4964C72.8679 43.4021 72.893 43.2979 72.8932 43.1922C72.8744 42.9411 72.7707 42.7038 72.5991 42.5188C72.4663 42.3628 72.2767 42.2655 72.0719 42.2483C71.8671 42.2311 71.6638 42.2953 71.5065 42.4269L64.2884 48.4872C64.2282 48.5377 64.1583 48.5756 64.083 48.5987C64.0077 48.6219 63.9285 48.6297 63.8502 48.6218C63.7718 48.6138 63.6958 48.5903 63.6267 48.5526C63.5576 48.5149 63.4969 48.4638 63.448 48.4023L61.5212 45.9695C61.4582 45.89 61.3801 45.8235 61.2913 45.774C61.2025 45.7245 61.1047 45.6928 61.0036 45.6809C60.9025 45.669 60.8001 45.677 60.7021 45.7044C60.6041 45.7319 60.5125 45.7783 60.4326 45.841C60.3316 45.8969 60.2436 45.9734 60.1745 46.0656C60.1054 46.1577 60.0567 46.2635 60.0317 46.3757C60.0067 46.488 60.006 46.6042 60.0295 46.7168C60.053 46.8294 60.1002 46.9357 60.1681 47.0288ZM74.3273 55.0947V77.1508C74.3267 77.6854 74.113 78.1979 73.733 78.576C73.3531 78.954 72.8379 79.1667 72.3005 79.1672H45.1135C44.5762 79.1665 44.0611 78.9539 43.6812 78.5759C43.3012 78.1978 43.0874 77.6854 43.0867 77.1508V76.1021H42.0331C41.4957 76.1016 40.9804 75.889 40.6003 75.511C40.2202 75.1329 40.0064 74.6203 40.0059 74.0856V43.3193C40.0059 43.3141 40.0059 43.3088 40.0059 43.3035V43.2833C40.0074 43.2613 40.0101 43.2394 40.0138 43.2177V43.208C40.0188 43.1827 40.0255 43.1577 40.0337 43.1332L40.0382 43.1213C40.0461 43.0993 40.0554 43.0779 40.066 43.0571L40.0704 43.0478C40.0824 43.0251 40.0958 43.0032 40.1107 42.9822L40.12 42.9699C40.1337 42.951 40.1484 42.933 40.1642 42.9158L40.1686 42.9105L46.3158 36.6516C46.3342 36.6331 46.3538 36.6159 46.3746 36.6002L46.3879 36.5905C46.4303 36.5592 46.4769 36.5341 46.5264 36.5157L46.5392 36.5108C46.5885 36.4932 46.64 36.4826 46.6922 36.4791H46.7117H46.7356H61.0731C63.554 35.1875 66.4217 34.8349 69.144 35.4868C71.8664 36.1387 74.2587 37.7508 75.8773 40.024C77.4958 42.2973 78.2308 45.0775 77.9457 47.8488C77.6607 50.6202 76.3751 53.1946 74.3273 55.0947ZM66.4422 36.3304C64.3863 36.3304 62.3765 36.9369 60.6671 38.0733C58.9576 39.2097 57.6253 40.8249 56.8385 42.7146C56.0517 44.6044 55.8459 46.6838 56.247 48.69C56.6481 50.6961 57.6381 52.5389 59.0919 53.9852C60.5456 55.4316 62.3978 56.4165 64.4142 56.8156C66.4307 57.2146 68.5207 57.0098 70.4202 56.2271C72.3196 55.4443 73.9431 54.1188 75.0853 52.418C76.2275 50.7173 76.8371 48.7178 76.8371 46.6723C76.8335 43.9306 75.7372 41.3022 73.7885 39.3635C71.8399 37.4247 69.198 36.334 66.4422 36.3304ZM41.992 42.734H45.8292C45.9134 42.733 45.9938 42.6993 46.0533 42.6401C46.1128 42.5809 46.1467 42.5009 46.1477 42.4172V38.4991L41.992 42.734ZM42.0331 74.931H69.2196C69.4449 74.9308 69.6609 74.8416 69.8202 74.6831C69.9795 74.5246 70.0691 74.3097 70.0694 74.0856V57.6093C67.4869 58.4582 64.6864 58.3749 62.1595 57.374C59.6326 56.3732 57.5408 54.5187 56.2514 52.1363C54.9619 49.7538 54.5572 46.9956 55.1083 44.3458C55.6593 41.696 57.131 39.324 59.2648 37.6462H47.3243V42.4172C47.3239 42.8116 47.1662 43.1897 46.8859 43.4686C46.6057 43.7476 46.2257 43.9045 45.8292 43.9051H41.1847V74.0856C41.1849 74.3095 41.2743 74.5242 41.4334 74.6827C41.5924 74.8411 41.808 74.9304 42.0331 74.931ZM73.1502 56.0514C72.5526 56.476 71.9157 56.8431 71.2482 57.1477V74.0856C71.2476 74.6202 71.0339 75.1328 70.6539 75.5108C70.2739 75.8888 69.7588 76.1015 69.2214 76.1021H44.2642V77.1508C44.2645 77.3748 44.354 77.5896 44.5133 77.748C44.6725 77.9064 44.8884 77.9955 45.1135 77.9957H72.3005C72.5257 77.9955 72.7417 77.9064 72.901 77.748C73.0602 77.5896 73.1499 77.3748 73.1502 77.1508V56.0514Z"/>
</mask>
<path d="M43.7109 47.67C43.7111 47.5148 43.7732 47.3661 43.8836 47.2564C43.994 47.1467 44.1436 47.0851 44.2996 47.0851H52.9292C53.0079 47.083 53.0861 47.0966 53.1594 47.125C53.2327 47.1535 53.2995 47.1963 53.3559 47.2508C53.4123 47.3054 53.4571 47.3707 53.4877 47.4428C53.5183 47.5149 53.5341 47.5924 53.5341 47.6707C53.5341 47.7489 53.5183 47.8264 53.4877 47.8985C53.4571 47.9706 53.4123 48.0359 53.3559 48.0905C53.2995 48.1451 53.2327 48.1879 53.1594 48.2163C53.0861 48.2448 53.0079 48.2583 52.9292 48.2562H44.2996C44.2223 48.2563 44.1456 48.2411 44.0742 48.2117C44.0027 48.1822 43.9377 48.1391 43.883 48.0846C43.8283 48.0302 43.785 47.9655 43.7555 47.8944C43.7259 47.8232 43.7108 47.747 43.7109 47.67ZM44.2996 51.739H53.3676C53.5237 51.739 53.6735 51.6773 53.7839 51.5675C53.8943 51.4576 53.9563 51.3086 53.9563 51.1533C53.9563 50.9979 53.8943 50.8489 53.7839 50.7391C53.6735 50.6292 53.5237 50.5675 53.3676 50.5675H44.2996C44.1435 50.5675 43.9937 50.6292 43.8833 50.7391C43.7729 50.8489 43.7109 50.9979 43.7109 51.1533C43.7109 51.3086 43.7729 51.4576 43.8833 51.5675C43.9937 51.6773 44.1435 51.739 44.2996 51.739ZM44.2996 55.2223H55.2404C55.3966 55.2223 55.5463 55.1606 55.6567 55.0507C55.7671 54.9409 55.8292 54.7919 55.8292 54.6365C55.8292 54.4812 55.7671 54.3322 55.6567 54.2223C55.5463 54.1125 55.3966 54.0508 55.2404 54.0508H44.2996C44.1435 54.0508 43.9937 54.1125 43.8833 54.2223C43.7729 54.3322 43.7109 54.4812 43.7109 54.6365C43.7109 54.7919 43.7729 54.9409 43.8833 55.0507C43.9937 55.1606 44.1435 55.2223 44.2996 55.2223ZM44.2996 58.7055H58.872C58.9507 58.7077 59.0289 58.6941 59.1022 58.6657C59.1755 58.6372 59.2423 58.5944 59.2987 58.5398C59.3551 58.4853 59.3999 58.42 59.4305 58.3479C59.4611 58.2758 59.4769 58.1983 59.4769 58.12C59.4769 58.0417 59.4611 57.9643 59.4305 57.8922C59.3999 57.82 59.3551 57.7548 59.2987 57.7002C59.2423 57.6456 59.1755 57.6028 59.1022 57.5744C59.0289 57.5459 58.9507 57.5323 58.872 57.5345H44.2996C44.221 57.5323 44.1427 57.5459 44.0694 57.5744C43.9961 57.6028 43.9293 57.6456 43.8729 57.7002C43.8165 57.7548 43.7717 57.82 43.7411 57.8922C43.7105 57.9643 43.6947 58.0417 43.6947 58.12C43.6947 58.1983 43.7105 58.2758 43.7411 58.3479C43.7717 58.42 43.8165 58.4853 43.8729 58.5398C43.9293 58.5944 43.9961 58.6372 44.0694 58.6657C44.1427 58.6941 44.221 58.7077 44.2996 58.7055ZM44.2996 62.1888H67.1942C67.2728 62.191 67.3511 62.1774 67.4244 62.1489C67.4977 62.1205 67.5645 62.0777 67.6209 62.0231C67.6773 61.9685 67.7221 61.9032 67.7527 61.8311C67.7833 61.759 67.7991 61.6816 67.7991 61.6033C67.7991 61.525 67.7833 61.4475 67.7527 61.3754C67.7221 61.3033 67.6773 61.238 67.6209 61.1835C67.5645 61.1289 67.4977 61.0861 67.4244 61.0576C67.3511 61.0292 67.2728 61.0156 67.1942 61.0177H44.2996C44.221 61.0156 44.1427 61.0292 44.0694 61.0576C43.9961 61.0861 43.9293 61.1289 43.8729 61.1835C43.8165 61.238 43.7717 61.3033 43.7411 61.3754C43.7105 61.4475 43.6947 61.525 43.6947 61.6033C43.6947 61.6816 43.7105 61.759 43.7411 61.8311C43.7717 61.9032 43.8165 61.9685 43.8729 62.0231C43.9293 62.0777 43.9961 62.1205 44.0694 62.1489C44.1427 62.1774 44.221 62.191 44.2996 62.1888ZM44.2996 65.6725H67.1942C67.3503 65.6725 67.5001 65.6108 67.6105 65.5009C67.7209 65.3911 67.7829 65.2421 67.7829 65.0868C67.7829 64.9314 67.7209 64.7824 67.6105 64.6726C67.5001 64.5627 67.3503 64.501 67.1942 64.501H44.2996C44.1435 64.501 43.9937 64.5627 43.8833 64.6726C43.7729 64.7824 43.7109 64.9314 43.7109 65.0868C43.7109 65.2421 43.7729 65.3911 43.8833 65.5009C43.9937 65.6108 44.1435 65.6725 44.2996 65.6725ZM44.2996 69.1558H67.1942C67.3503 69.1558 67.5001 69.0941 67.6105 68.9842C67.7209 68.8744 67.7829 68.7254 67.7829 68.57C67.7829 68.4147 67.7209 68.2657 67.6105 68.1558C67.5001 68.046 67.3503 67.9843 67.1942 67.9843H44.2996C44.1435 67.9843 43.9937 68.046 43.8833 68.1558C43.7729 68.2657 43.7109 68.4147 43.7109 68.57C43.7109 68.7254 43.7729 68.8744 43.8833 68.9842C43.9937 69.0941 44.1435 69.1558 44.2996 69.1558ZM59.7027 44.9208C60.1097 44.6024 60.6271 44.4576 61.1412 44.5182C61.6554 44.5789 62.1244 44.84 62.4452 45.2443L63.9934 47.2013L70.7457 41.5317C71.1415 41.2 71.6535 41.038 72.1692 41.0813C72.6849 41.1246 73.1623 41.3697 73.4966 41.7628C73.8435 42.1533 74.0453 42.6504 74.0685 43.171C74.0708 43.4503 74.0095 43.7264 73.8893 43.9787C73.7691 44.231 73.5931 44.453 73.3745 44.6282L64.7489 51.871C64.4458 52.1306 64.0589 52.2729 63.659 52.272C63.5978 52.2719 63.5367 52.2689 63.4759 52.2627C63.2476 52.2418 63.0261 52.1743 62.8251 52.0644C62.6242 51.9546 62.4482 51.8047 62.3081 51.6242L59.2414 47.7514C58.5319 46.8554 58.7207 45.6905 59.7027 44.9208ZM60.1681 47.0288L63.2344 50.9015C63.2784 50.9568 63.3332 51.0028 63.3954 51.0366C63.4576 51.0705 63.526 51.0916 63.5965 51.0988C63.6671 51.1059 63.7384 51.0989 63.8061 51.0782C63.8739 51.0575 63.9368 51.0234 63.9912 50.9781L72.6168 43.7352C72.7023 43.6725 72.7718 43.5907 72.8198 43.4964C72.8679 43.4021 72.893 43.2979 72.8932 43.1922C72.8744 42.9411 72.7707 42.7038 72.5991 42.5188C72.4663 42.3628 72.2767 42.2655 72.0719 42.2483C71.8671 42.2311 71.6638 42.2953 71.5065 42.4269L64.2884 48.4872C64.2282 48.5377 64.1583 48.5756 64.083 48.5987C64.0077 48.6219 63.9285 48.6297 63.8502 48.6218C63.7718 48.6138 63.6958 48.5903 63.6267 48.5526C63.5576 48.5149 63.4969 48.4638 63.448 48.4023L61.5212 45.9695C61.4582 45.89 61.3801 45.8235 61.2913 45.774C61.2025 45.7245 61.1047 45.6928 61.0036 45.6809C60.9025 45.669 60.8001 45.677 60.7021 45.7044C60.6041 45.7319 60.5125 45.7783 60.4326 45.841C60.3316 45.8969 60.2436 45.9734 60.1745 46.0656C60.1054 46.1577 60.0567 46.2635 60.0317 46.3757C60.0067 46.488 60.006 46.6042 60.0295 46.7168C60.053 46.8294 60.1002 46.9357 60.1681 47.0288ZM74.3273 55.0947V77.1508C74.3267 77.6854 74.113 78.1979 73.733 78.576C73.3531 78.954 72.8379 79.1667 72.3005 79.1672H45.1135C44.5762 79.1665 44.0611 78.9539 43.6812 78.5759C43.3012 78.1978 43.0874 77.6854 43.0867 77.1508V76.1021H42.0331C41.4957 76.1016 40.9804 75.889 40.6003 75.511C40.2202 75.1329 40.0064 74.6203 40.0059 74.0856V43.3193C40.0059 43.3141 40.0059 43.3088 40.0059 43.3035V43.2833C40.0074 43.2613 40.0101 43.2394 40.0138 43.2177V43.208C40.0188 43.1827 40.0255 43.1577 40.0337 43.1332L40.0382 43.1213C40.0461 43.0993 40.0554 43.0779 40.066 43.0571L40.0704 43.0478C40.0824 43.0251 40.0958 43.0032 40.1107 42.9822L40.12 42.9699C40.1337 42.951 40.1484 42.933 40.1642 42.9158L40.1686 42.9105L46.3158 36.6516C46.3342 36.6331 46.3538 36.6159 46.3746 36.6002L46.3879 36.5905C46.4303 36.5592 46.4769 36.5341 46.5264 36.5157L46.5392 36.5108C46.5885 36.4932 46.64 36.4826 46.6922 36.4791H46.7117H46.7356H61.0731C63.554 35.1875 66.4217 34.8349 69.144 35.4868C71.8664 36.1387 74.2587 37.7508 75.8773 40.024C77.4958 42.2973 78.2308 45.0775 77.9457 47.8488C77.6607 50.6202 76.3751 53.1946 74.3273 55.0947ZM66.4422 36.3304C64.3863 36.3304 62.3765 36.9369 60.6671 38.0733C58.9576 39.2097 57.6253 40.8249 56.8385 42.7146C56.0517 44.6044 55.8459 46.6838 56.247 48.69C56.6481 50.6961 57.6381 52.5389 59.0919 53.9852C60.5456 55.4316 62.3978 56.4165 64.4142 56.8156C66.4307 57.2146 68.5207 57.0098 70.4202 56.2271C72.3196 55.4443 73.9431 54.1188 75.0853 52.418C76.2275 50.7173 76.8371 48.7178 76.8371 46.6723C76.8335 43.9306 75.7372 41.3022 73.7885 39.3635C71.8399 37.4247 69.198 36.334 66.4422 36.3304ZM41.992 42.734H45.8292C45.9134 42.733 45.9938 42.6993 46.0533 42.6401C46.1128 42.5809 46.1467 42.5009 46.1477 42.4172V38.4991L41.992 42.734ZM42.0331 74.931H69.2196C69.4449 74.9308 69.6609 74.8416 69.8202 74.6831C69.9795 74.5246 70.0691 74.3097 70.0694 74.0856V57.6093C67.4869 58.4582 64.6864 58.3749 62.1595 57.374C59.6326 56.3732 57.5408 54.5187 56.2514 52.1363C54.9619 49.7538 54.5572 46.9956 55.1083 44.3458C55.6593 41.696 57.131 39.324 59.2648 37.6462H47.3243V42.4172C47.3239 42.8116 47.1662 43.1897 46.8859 43.4686C46.6057 43.7476 46.2257 43.9045 45.8292 43.9051H41.1847V74.0856C41.1849 74.3095 41.2743 74.5242 41.4334 74.6827C41.5924 74.8411 41.808 74.9304 42.0331 74.931ZM73.1502 56.0514C72.5526 56.476 71.9157 56.8431 71.2482 57.1477V74.0856C71.2476 74.6202 71.0339 75.1328 70.6539 75.5108C70.2739 75.8888 69.7588 76.1015 69.2214 76.1021H44.2642V77.1508C44.2645 77.3748 44.354 77.5896 44.5133 77.748C44.6725 77.9064 44.8884 77.9955 45.1135 77.9957H72.3005C72.5257 77.9955 72.7417 77.9064 72.901 77.748C73.0602 77.5896 73.1499 77.3748 73.1502 77.1508V56.0514Z" fill="#233A7C"/>
<path d="M43.7109 47.67C43.7111 47.5148 43.7732 47.3661 43.8836 47.2564C43.994 47.1467 44.1436 47.0851 44.2996 47.0851H52.9292C53.0079 47.083 53.0861 47.0966 53.1594 47.125C53.2327 47.1535 53.2995 47.1963 53.3559 47.2508C53.4123 47.3054 53.4571 47.3707 53.4877 47.4428C53.5183 47.5149 53.5341 47.5924 53.5341 47.6707C53.5341 47.7489 53.5183 47.8264 53.4877 47.8985C53.4571 47.9706 53.4123 48.0359 53.3559 48.0905C53.2995 48.1451 53.2327 48.1879 53.1594 48.2163C53.0861 48.2448 53.0079 48.2583 52.9292 48.2562H44.2996C44.2223 48.2563 44.1456 48.2411 44.0742 48.2117C44.0027 48.1822 43.9377 48.1391 43.883 48.0846C43.8283 48.0302 43.785 47.9655 43.7555 47.8944C43.7259 47.8232 43.7108 47.747 43.7109 47.67ZM44.2996 51.739H53.3676C53.5237 51.739 53.6735 51.6773 53.7839 51.5675C53.8943 51.4576 53.9563 51.3086 53.9563 51.1533C53.9563 50.9979 53.8943 50.8489 53.7839 50.7391C53.6735 50.6292 53.5237 50.5675 53.3676 50.5675H44.2996C44.1435 50.5675 43.9937 50.6292 43.8833 50.7391C43.7729 50.8489 43.7109 50.9979 43.7109 51.1533C43.7109 51.3086 43.7729 51.4576 43.8833 51.5675C43.9937 51.6773 44.1435 51.739 44.2996 51.739ZM44.2996 55.2223H55.2404C55.3966 55.2223 55.5463 55.1606 55.6567 55.0507C55.7671 54.9409 55.8292 54.7919 55.8292 54.6365C55.8292 54.4812 55.7671 54.3322 55.6567 54.2223C55.5463 54.1125 55.3966 54.0508 55.2404 54.0508H44.2996C44.1435 54.0508 43.9937 54.1125 43.8833 54.2223C43.7729 54.3322 43.7109 54.4812 43.7109 54.6365C43.7109 54.7919 43.7729 54.9409 43.8833 55.0507C43.9937 55.1606 44.1435 55.2223 44.2996 55.2223ZM44.2996 58.7055H58.872C58.9507 58.7077 59.0289 58.6941 59.1022 58.6657C59.1755 58.6372 59.2423 58.5944 59.2987 58.5398C59.3551 58.4853 59.3999 58.42 59.4305 58.3479C59.4611 58.2758 59.4769 58.1983 59.4769 58.12C59.4769 58.0417 59.4611 57.9643 59.4305 57.8922C59.3999 57.82 59.3551 57.7548 59.2987 57.7002C59.2423 57.6456 59.1755 57.6028 59.1022 57.5744C59.0289 57.5459 58.9507 57.5323 58.872 57.5345H44.2996C44.221 57.5323 44.1427 57.5459 44.0694 57.5744C43.9961 57.6028 43.9293 57.6456 43.8729 57.7002C43.8165 57.7548 43.7717 57.82 43.7411 57.8922C43.7105 57.9643 43.6947 58.0417 43.6947 58.12C43.6947 58.1983 43.7105 58.2758 43.7411 58.3479C43.7717 58.42 43.8165 58.4853 43.8729 58.5398C43.9293 58.5944 43.9961 58.6372 44.0694 58.6657C44.1427 58.6941 44.221 58.7077 44.2996 58.7055ZM44.2996 62.1888H67.1942C67.2728 62.191 67.3511 62.1774 67.4244 62.1489C67.4977 62.1205 67.5645 62.0777 67.6209 62.0231C67.6773 61.9685 67.7221 61.9032 67.7527 61.8311C67.7833 61.759 67.7991 61.6816 67.7991 61.6033C67.7991 61.525 67.7833 61.4475 67.7527 61.3754C67.7221 61.3033 67.6773 61.238 67.6209 61.1835C67.5645 61.1289 67.4977 61.0861 67.4244 61.0576C67.3511 61.0292 67.2728 61.0156 67.1942 61.0177H44.2996C44.221 61.0156 44.1427 61.0292 44.0694 61.0576C43.9961 61.0861 43.9293 61.1289 43.8729 61.1835C43.8165 61.238 43.7717 61.3033 43.7411 61.3754C43.7105 61.4475 43.6947 61.525 43.6947 61.6033C43.6947 61.6816 43.7105 61.759 43.7411 61.8311C43.7717 61.9032 43.8165 61.9685 43.8729 62.0231C43.9293 62.0777 43.9961 62.1205 44.0694 62.1489C44.1427 62.1774 44.221 62.191 44.2996 62.1888ZM44.2996 65.6725H67.1942C67.3503 65.6725 67.5001 65.6108 67.6105 65.5009C67.7209 65.3911 67.7829 65.2421 67.7829 65.0868C67.7829 64.9314 67.7209 64.7824 67.6105 64.6726C67.5001 64.5627 67.3503 64.501 67.1942 64.501H44.2996C44.1435 64.501 43.9937 64.5627 43.8833 64.6726C43.7729 64.7824 43.7109 64.9314 43.7109 65.0868C43.7109 65.2421 43.7729 65.3911 43.8833 65.5009C43.9937 65.6108 44.1435 65.6725 44.2996 65.6725ZM44.2996 69.1558H67.1942C67.3503 69.1558 67.5001 69.0941 67.6105 68.9842C67.7209 68.8744 67.7829 68.7254 67.7829 68.57C67.7829 68.4147 67.7209 68.2657 67.6105 68.1558C67.5001 68.046 67.3503 67.9843 67.1942 67.9843H44.2996C44.1435 67.9843 43.9937 68.046 43.8833 68.1558C43.7729 68.2657 43.7109 68.4147 43.7109 68.57C43.7109 68.7254 43.7729 68.8744 43.8833 68.9842C43.9937 69.0941 44.1435 69.1558 44.2996 69.1558ZM59.7027 44.9208C60.1097 44.6024 60.6271 44.4576 61.1412 44.5182C61.6554 44.5789 62.1244 44.84 62.4452 45.2443L63.9934 47.2013L70.7457 41.5317C71.1415 41.2 71.6535 41.038 72.1692 41.0813C72.6849 41.1246 73.1623 41.3697 73.4966 41.7628C73.8435 42.1533 74.0453 42.6504 74.0685 43.171C74.0708 43.4503 74.0095 43.7264 73.8893 43.9787C73.7691 44.231 73.5931 44.453 73.3745 44.6282L64.7489 51.871C64.4458 52.1306 64.0589 52.2729 63.659 52.272C63.5978 52.2719 63.5367 52.2689 63.4759 52.2627C63.2476 52.2418 63.0261 52.1743 62.8251 52.0644C62.6242 51.9546 62.4482 51.8047 62.3081 51.6242L59.2414 47.7514C58.5319 46.8554 58.7207 45.6905 59.7027 44.9208ZM60.1681 47.0288L63.2344 50.9015C63.2784 50.9568 63.3332 51.0028 63.3954 51.0366C63.4576 51.0705 63.526 51.0916 63.5965 51.0988C63.6671 51.1059 63.7384 51.0989 63.8061 51.0782C63.8739 51.0575 63.9368 51.0234 63.9912 50.9781L72.6168 43.7352C72.7023 43.6725 72.7718 43.5907 72.8198 43.4964C72.8679 43.4021 72.893 43.2979 72.8932 43.1922C72.8744 42.9411 72.7707 42.7038 72.5991 42.5188C72.4663 42.3628 72.2767 42.2655 72.0719 42.2483C71.8671 42.2311 71.6638 42.2953 71.5065 42.4269L64.2884 48.4872C64.2282 48.5377 64.1583 48.5756 64.083 48.5987C64.0077 48.6219 63.9285 48.6297 63.8502 48.6218C63.7718 48.6138 63.6958 48.5903 63.6267 48.5526C63.5576 48.5149 63.4969 48.4638 63.448 48.4023L61.5212 45.9695C61.4582 45.89 61.3801 45.8235 61.2913 45.774C61.2025 45.7245 61.1047 45.6928 61.0036 45.6809C60.9025 45.669 60.8001 45.677 60.7021 45.7044C60.6041 45.7319 60.5125 45.7783 60.4326 45.841C60.3316 45.8969 60.2436 45.9734 60.1745 46.0656C60.1054 46.1577 60.0567 46.2635 60.0317 46.3757C60.0067 46.488 60.006 46.6042 60.0295 46.7168C60.053 46.8294 60.1002 46.9357 60.1681 47.0288ZM74.3273 55.0947V77.1508C74.3267 77.6854 74.113 78.1979 73.733 78.576C73.3531 78.954 72.8379 79.1667 72.3005 79.1672H45.1135C44.5762 79.1665 44.0611 78.9539 43.6812 78.5759C43.3012 78.1978 43.0874 77.6854 43.0867 77.1508V76.1021H42.0331C41.4957 76.1016 40.9804 75.889 40.6003 75.511C40.2202 75.1329 40.0064 74.6203 40.0059 74.0856V43.3193C40.0059 43.3141 40.0059 43.3088 40.0059 43.3035V43.2833C40.0074 43.2613 40.0101 43.2394 40.0138 43.2177V43.208C40.0188 43.1827 40.0255 43.1577 40.0337 43.1332L40.0382 43.1213C40.0461 43.0993 40.0554 43.0779 40.066 43.0571L40.0704 43.0478C40.0824 43.0251 40.0958 43.0032 40.1107 42.9822L40.12 42.9699C40.1337 42.951 40.1484 42.933 40.1642 42.9158L40.1686 42.9105L46.3158 36.6516C46.3342 36.6331 46.3538 36.6159 46.3746 36.6002L46.3879 36.5905C46.4303 36.5592 46.4769 36.5341 46.5264 36.5157L46.5392 36.5108C46.5885 36.4932 46.64 36.4826 46.6922 36.4791H46.7117H46.7356H61.0731C63.554 35.1875 66.4217 34.8349 69.144 35.4868C71.8664 36.1387 74.2587 37.7508 75.8773 40.024C77.4958 42.2973 78.2308 45.0775 77.9457 47.8488C77.6607 50.6202 76.3751 53.1946 74.3273 55.0947ZM66.4422 36.3304C64.3863 36.3304 62.3765 36.9369 60.6671 38.0733C58.9576 39.2097 57.6253 40.8249 56.8385 42.7146C56.0517 44.6044 55.8459 46.6838 56.247 48.69C56.6481 50.6961 57.6381 52.5389 59.0919 53.9852C60.5456 55.4316 62.3978 56.4165 64.4142 56.8156C66.4307 57.2146 68.5207 57.0098 70.4202 56.2271C72.3196 55.4443 73.9431 54.1188 75.0853 52.418C76.2275 50.7173 76.8371 48.7178 76.8371 46.6723C76.8335 43.9306 75.7372 41.3022 73.7885 39.3635C71.8399 37.4247 69.198 36.334 66.4422 36.3304ZM41.992 42.734H45.8292C45.9134 42.733 45.9938 42.6993 46.0533 42.6401C46.1128 42.5809 46.1467 42.5009 46.1477 42.4172V38.4991L41.992 42.734ZM42.0331 74.931H69.2196C69.4449 74.9308 69.6609 74.8416 69.8202 74.6831C69.9795 74.5246 70.0691 74.3097 70.0694 74.0856V57.6093C67.4869 58.4582 64.6864 58.3749 62.1595 57.374C59.6326 56.3732 57.5408 54.5187 56.2514 52.1363C54.9619 49.7538 54.5572 46.9956 55.1083 44.3458C55.6593 41.696 57.131 39.324 59.2648 37.6462H47.3243V42.4172C47.3239 42.8116 47.1662 43.1897 46.8859 43.4686C46.6057 43.7476 46.2257 43.9045 45.8292 43.9051H41.1847V74.0856C41.1849 74.3095 41.2743 74.5242 41.4334 74.6827C41.5924 74.8411 41.808 74.9304 42.0331 74.931ZM73.1502 56.0514C72.5526 56.476 71.9157 56.8431 71.2482 57.1477V74.0856C71.2476 74.6202 71.0339 75.1328 70.6539 75.5108C70.2739 75.8888 69.7588 76.1015 69.2214 76.1021H44.2642V77.1508C44.2645 77.3748 44.354 77.5896 44.5133 77.748C44.6725 77.9064 44.8884 77.9955 45.1135 77.9957H72.3005C72.5257 77.9955 72.7417 77.9064 72.901 77.748C73.0602 77.5896 73.1499 77.3748 73.1502 77.1508V56.0514Z" stroke="#233A7C" stroke-width="0.4" mask="url(#path-6-outside-1_643_2133)"/>
<defs>
<filter id="filter0_ii_643_2133" x="90" y="35" width="43" height="47" filterUnits="userSpaceOnUse" color-interpolation-filters="sRGB">
<feFlood flood-opacity="0" result="BackgroundImageFix"/>
<feBlend mode="normal" in="SourceGraphic" in2="BackgroundImageFix" result="shape"/>
<feColorMatrix in="SourceAlpha" type="matrix" values="0 0 0 0 0 0 0 0 0 0 0 0 0 0 0 0 0 0 127 0" result="hardAlpha"/>
<feOffset dy="4"/>
<feGaussianBlur stdDeviation="2"/>
<feComposite in2="hardAlpha" operator="arithmetic" k2="-1" k3="1"/>
<feColorMatrix type="matrix" values="0 0 0 0 0.521855 0 0 0 0 0.627134 0 0 0 0 0.925424 0 0 0 1 0"/>
<feBlend mode="normal" in2="shape" result="effect1_innerShadow_643_2133"/>
<feColorMatrix in="SourceAlpha" type="matrix" values="0 0 0 0 0 0 0 0 0 0 0 0 0 0 0 0 0 0 127 0" result="hardAlpha"/>
<feOffset dx="2" dy="-2"/>
<feGaussianBlur stdDeviation="2"/>
<feComposite in2="hardAlpha" operator="arithmetic" k2="-1" k3="1"/>
<feColorMatrix type="matrix" values="0 0 0 0 0.0484865 0 0 0 0 0.113937 0 0 0 0 0.160231 0 0 0 1 0"/>
<feBlend mode="normal" in2="effect1_innerShadow_643_2133" result="effect2_innerShadow_643_2133"/>
</filter>
</defs>
</svg>
