<svg width="53" height="53" viewBox="0 0 53 53" fill="none" xmlns="http://www.w3.org/2000/svg">
<path d="M50.5788 34.9883C49.5703 34.3496 48.3264 34.2823 47.259 34.795L38.6359 38.7788C38.6359 38.7704 38.6359 38.762 38.6359 38.7536V38.7452C38.6359 38.7367 38.6359 38.7367 38.6359 38.7283C38.6275 36.8037 37.0643 35.2488 35.1396 35.2488H29.2396C26.2644 32.6518 22.5663 31.0634 19.2717 30.9877C15.9015 30.9037 12.8758 30.9457 11.4975 30.9709C11.3462 29.5085 10.1275 28.3655 8.63152 28.3655H0.790032C0.352993 28.3655 0 28.7185 0 29.1555V47.4355C0 47.8725 0.352993 48.2255 0.790032 48.2255H8.62311C9.94264 48.2255 11.052 47.3347 11.3966 46.1244C14.4475 47.8809 23.1294 52.68 27.1973 52.68C27.2897 52.68 27.3738 52.68 27.4578 52.6716C34.4841 52.2681 49.4358 41.6111 50.4612 40.8715C51.5202 40.258 52.1757 39.1234 52.1757 37.9047C52.1925 36.7112 51.5874 35.6186 50.5788 34.9883ZM9.95104 45.326C9.95104 46.0487 9.36272 46.6455 8.63152 46.6455H1.58006V29.9371H8.62311C9.34591 29.9371 9.94264 30.5255 9.94264 31.2567V31.7693V44.8133V45.326H9.95104ZM49.6543 39.5184C49.6291 39.5352 49.6039 39.552 49.5787 39.5688C49.4274 39.6781 34.0386 50.7133 27.3822 51.0915C24.0035 51.2932 15.1451 46.5026 11.5311 44.3678V32.5426C12.8926 32.5173 15.8931 32.4753 19.2381 32.5594C22.247 32.635 25.676 34.1478 28.4159 36.6188C28.5588 36.7533 28.7521 36.8205 28.9454 36.8205H35.148C36.207 36.8205 37.0643 37.6778 37.0643 38.7367C37.0643 38.9048 37.039 39.0645 36.997 39.2242C36.9886 39.2662 36.9718 39.2999 36.9634 39.3419C36.913 39.4848 36.8541 39.6276 36.7701 39.7537C36.4339 40.2916 35.8372 40.653 35.1564 40.653H23.1631C22.726 40.653 22.373 41.006 22.373 41.443C22.373 41.8801 22.726 42.2331 23.1631 42.2331H35.1396C36.2742 42.2331 37.266 41.6868 37.9131 40.8463L47.9314 36.2154C48.5113 35.938 49.1837 35.9716 49.73 36.3162C50.2847 36.6608 50.6041 37.2407 50.6041 37.8963C50.6125 38.5687 50.2427 39.1822 49.6543 39.5184Z" fill="black"/>
<path d="M7.1123 38.8965C6.67526 38.8965 6.32227 39.2495 6.32227 39.6865V40.1404C6.32227 40.5774 6.67526 40.9304 7.1123 40.9304C7.54934 40.9304 7.90233 40.5774 7.90233 40.1404V39.6865C7.90233 39.2495 7.54934 38.8965 7.1123 38.8965Z" fill="black"/>
<path d="M7.1123 42.4098C6.67526 42.4098 6.32227 42.7628 6.32227 43.1998V43.6537C6.32227 44.0907 6.67526 44.4437 7.1123 44.4437C7.54934 44.4437 7.90233 44.0907 7.90233 43.6537V43.1998C7.90233 42.7628 7.54934 42.4098 7.1123 42.4098Z" fill="black"/>
<path d="M18.1809 25.8441C18.1977 25.9366 18.2313 26.0206 18.2817 26.0963V26.1047C18.3069 26.1467 18.3406 26.1803 18.3742 26.2139C18.3826 26.2223 18.391 26.2391 18.4078 26.256C18.4582 26.3064 18.5171 26.34 18.5843 26.3736C18.5843 26.3736 18.5843 26.3736 18.5927 26.382L33.6201 33.8453C33.6537 33.8621 33.6789 33.8705 33.7126 33.8789C33.7378 33.8873 33.7546 33.8957 33.7714 33.9041C33.8386 33.9209 33.9059 33.9293 33.9731 33.9293C34.0824 33.9293 34.1916 33.8957 34.2925 33.8537C34.3009 33.8453 34.3177 33.8537 34.3261 33.8453L49.3535 26.382C49.3535 26.382 49.3535 26.382 49.3619 26.3736C49.4208 26.34 49.4796 26.3064 49.5384 26.256C49.5468 26.2476 49.5636 26.2307 49.572 26.2139C49.6057 26.1803 49.6393 26.1467 49.6645 26.1047V26.0963C49.7149 26.0206 49.7485 25.9282 49.7653 25.8441C49.7737 25.8189 49.7737 25.7937 49.7737 25.7685C49.7737 25.7349 49.7906 25.7013 49.7906 25.6676V8.25331C49.7906 8.16927 49.7737 8.09363 49.7485 8.01798C49.7401 8.00117 49.7317 7.98437 49.7317 7.96756C49.7065 7.89191 49.6645 7.82468 49.6141 7.76585C49.6056 7.74904 49.5972 7.74063 49.5888 7.72382C49.5384 7.66499 49.4796 7.61456 49.4208 7.57254C49.4039 7.56414 49.3871 7.55573 49.3787 7.55573C49.3703 7.55573 49.3703 7.54733 49.3619 7.53892L34.3261 0.084046C34.3177 0.084046 34.3093 0.084046 34.3093 0.0756414C34.2084 0.0252138 34.0992 0 33.9815 0H33.9731C33.8554 0 33.7462 0.0336184 33.6453 0.0756414C33.6369 0.0756414 33.6285 0.0756414 33.6285 0.084046L18.6011 7.54733C18.5927 7.54733 18.5927 7.55573 18.5843 7.56414C18.5675 7.57254 18.5507 7.57254 18.5423 7.58094C18.475 7.62297 18.4246 7.67339 18.3742 7.73223C18.3658 7.74904 18.3574 7.75744 18.3406 7.77425C18.2901 7.83308 18.2565 7.90032 18.2229 7.97596C18.2145 7.99277 18.2061 8.00958 18.2061 8.02639C18.1809 8.10203 18.1641 8.17767 18.1641 8.26172V25.6844C18.1641 25.7181 18.1725 25.7517 18.1809 25.7853C18.1725 25.7937 18.1725 25.8189 18.1809 25.8441ZM41.1254 19.5071V13.0439L48.2105 9.53081V24.2052L41.1254 19.5071ZM29.3842 12.5565L33.9731 10.2788L38.5536 12.5565L33.9647 14.8341L32.0905 13.9012L29.3842 12.5565ZM28.4009 13.834L33.1831 16.2125V21.8267L28.4009 19.4482V13.834ZM26.8208 19.5071L19.7441 24.1968V9.53081L26.8208 13.0523V19.5071ZM27.6613 20.8434L33.1747 23.5833V31.8534L20.5173 25.5668L27.6613 20.8434ZM34.7631 16.2041L39.5454 13.834V19.4482L34.7631 21.8267V16.2041ZM40.3354 11.674L34.7631 8.90887V2.06753L47.2187 8.25331L40.3354 11.674ZM33.1831 8.90887L27.6108 11.674L20.7275 8.25331L33.1831 2.06753V8.90887ZM34.7631 23.5833L40.2766 20.8434L47.4121 25.5752L34.7547 31.8618V23.5833H34.7631Z" fill="black"/>
</svg>
