<svg width="49" height="38" viewBox="0 0 49 38" fill="none" xmlns="http://www.w3.org/2000/svg">
<path fill-rule="evenodd" clip-rule="evenodd" d="M10.4686 12.3733C11.0951 12.3733 11.6756 12.5829 12.1392 12.9377L17.4493 8.4293C17.2473 8.04458 17.1326 7.60688 17.1326 7.14151C17.1326 6.37665 17.4401 5.68551 17.9404 5.18564C18.4383 4.68572 19.129 4.37472 19.8886 4.37472C20.6505 4.37472 21.3389 4.68342 21.8368 5.18564C22.3348 5.68555 22.6446 6.37895 22.6446 7.14151C22.6446 7.24287 22.64 7.34193 22.6285 7.43869L23.9916 7.89944C24.3335 7.51241 24.7099 7.15074 25.1229 6.8144C27.14 5.17877 29.6253 4.51759 32.0162 4.77331C32.8675 4.86316 33.7074 5.0705 34.5083 5.39073L36.2546 3.99006C36.0733 3.62146 35.9723 3.2068 35.9723 2.76678C35.9723 2.00193 36.2798 1.31079 36.7801 0.810915C37.2781 0.311002 37.9688 0 38.7283 0C39.4902 0 40.1787 0.308702 40.6766 0.810915C41.1745 1.31083 41.4843 2.00423 41.4843 2.76678C41.4843 3.53164 41.1768 4.22278 40.6766 4.72265C40.1786 5.22257 39.4879 5.53357 38.7283 5.53357C38.0743 5.53357 37.4708 5.3032 36.9981 4.92075L35.697 5.96663C36.6677 6.52413 37.5535 7.26592 38.3016 8.18742C38.3222 8.21045 38.3429 8.23349 38.3589 8.25883C38.8225 8.83937 39.2057 9.4614 39.5132 10.1064H41.5463C41.8767 10.1064 42.1429 10.376 42.1429 10.7054V19.1324L47.8546 23.1962C48.8459 23.9011 49.1259 24.8756 48.9515 25.7349C48.8849 26.0667 48.7472 26.38 48.5568 26.6518C48.3663 26.9237 48.1185 27.1586 47.827 27.3337C47.0881 27.7783 46.0991 27.8313 45.1192 27.131L42.1429 25.0115V33.4432H45.6998C46.0302 33.4432 46.2964 33.7128 46.2964 34.0422V37.3964C46.2964 37.7282 46.0279 37.9954 45.6998 37.9954L0.596621 38C0.266177 38 0 37.7305 0 37.401V0.601406C0 0.269668 0.268485 0.00244885 0.596621 0.00244885H3.93778C4.26823 0.00244885 4.5344 0.271986 4.5344 0.601406V33.4455H7.91228V24.611C7.91228 24.2793 8.18076 24.012 8.5089 24.012H14.4452C14.7756 24.012 15.0418 24.2816 15.0418 24.611V33.4455H16.9441V16.253C16.9441 15.9212 17.2126 15.654 17.5408 15.654H21.7494C21.6163 14.8247 21.5956 13.9861 21.6828 13.1567C21.8411 11.6547 22.3574 10.1896 23.218 8.90406L22.2451 8.57463C22.1303 8.76584 21.9903 8.94322 21.8343 9.09988C21.3363 9.5998 20.6456 9.9108 19.8861 9.9108C19.2596 9.9108 18.679 9.70116 18.2178 9.34638L12.9077 13.8548C13.1097 14.2395 13.2244 14.6772 13.2244 15.1426C13.2244 15.9074 12.9169 16.5986 12.4166 17.0984C11.9187 17.5984 11.228 17.9094 10.4684 17.9094C9.70652 17.9094 9.01808 17.6007 8.52016 17.0984C8.02219 16.5985 7.7124 15.9051 7.7124 15.1426C7.7124 14.3777 8.0199 13.6866 8.52016 13.1867C9.01812 12.6845 9.70672 12.3733 10.4686 12.3733ZM41.5421 34.646H3.93784C3.6074 34.646 3.34122 34.3765 3.34122 34.0471V1.20293H1.19565V36.8001H45.101V34.6461L41.5421 34.646ZM35.009 33.4458V22.6898C34.394 22.98 33.7561 23.1989 33.1067 23.3464V33.4483L35.009 33.4458ZM25.9769 33.4458V22.1047C25.2884 21.6647 24.6482 21.1256 24.0745 20.4944V33.4461L25.9769 33.4458ZM33.1597 21.4112C34.7385 20.9435 36.1062 19.9691 37.0699 18.6744C38.0085 17.4142 38.5638 15.85 38.5638 14.1498C38.5638 12.0603 37.7194 10.1666 36.354 8.79593C34.9886 7.42522 33.1047 6.57974 31.021 6.57974C28.9396 6.57974 27.0534 7.42752 25.688 8.79593C24.3226 10.1666 23.4782 12.058 23.4782 14.1498C23.4782 16.2393 24.3226 18.133 25.688 19.5037C27.0534 20.8744 28.9374 21.7222 31.021 21.7222C31.3515 21.7222 31.6176 21.4526 31.6176 21.1232C31.6176 20.7915 31.3491 20.5242 31.021 20.5242C29.2678 20.5242 27.6821 19.8101 26.5325 18.6582C25.3851 17.5063 24.6737 15.9122 24.6737 14.1544C24.6737 12.3943 25.3851 10.8025 26.5325 9.64831C27.6798 8.49645 29.2678 7.78226 31.021 7.78226C32.7742 7.78226 34.3599 8.49409 35.5072 9.64831C36.6546 10.8002 37.366 12.3943 37.366 14.1544C37.366 15.5873 36.8979 16.9028 36.1108 17.9625C35.2985 19.0545 34.1488 19.8746 32.8201 20.2662C32.5034 20.3583 32.3244 20.6924 32.4162 21.008C32.5126 21.3213 32.8453 21.5033 33.1597 21.4112ZM38.316 17.9164C38.3252 17.8934 38.3366 17.8703 38.3504 17.8496C38.7956 16.9581 39.0733 15.9974 39.1765 15.0183C39.3211 13.6614 39.1283 12.2676 38.589 10.9729C38.5776 10.9522 38.5684 10.9291 38.5615 10.9061C38.2724 10.2265 37.8846 9.57685 37.4003 8.9733C35.9776 7.20633 33.9766 6.18575 31.8883 5.96229C29.8024 5.74113 27.6293 6.31707 25.8693 7.74536C24.1092 9.1737 23.0926 11.1825 22.87 13.2789C22.7713 14.2073 22.831 15.1542 23.049 16.0734C23.0559 16.0964 23.0628 16.1195 23.0651 16.1425C23.2532 16.905 23.5538 17.6491 23.9692 18.3472C23.983 18.3679 23.9967 18.3886 24.0059 18.4094C24.1964 18.7227 24.4075 19.0268 24.6438 19.3217C25.2749 20.1072 26.023 20.7454 26.8399 21.2292C26.8629 21.2407 26.8858 21.2545 26.9088 21.2683C27.9139 21.8535 29.0223 22.2106 30.1558 22.3304C30.8924 22.4087 31.6382 22.388 32.3725 22.2659C32.3955 22.2613 32.4184 22.2567 32.4437 22.2544C33.4213 22.0816 34.3782 21.7291 35.2639 21.1923C35.2846 21.1785 35.3052 21.1647 35.3282 21.1532C35.6196 20.9712 35.9042 20.7707 36.1772 20.5496C36.4457 20.333 36.6959 20.1004 36.9299 19.8585L36.9368 19.8516C37.499 19.2687 37.9603 18.6144 38.316 17.9164ZM39.6194 17.9533L40.5029 18.5753C40.6222 18.4555 40.7852 18.3956 40.9481 18.4025L40.9458 11.3071H39.9797C40.3721 12.5558 40.4961 13.8643 40.3629 15.1452C40.262 16.1104 40.0118 17.0571 39.6194 17.9533ZM39.8145 19.5543L39.0641 19.0268C38.8255 19.4253 38.5547 19.8077 38.2541 20.1694L39.0182 20.7085L39.8145 19.5543ZM38.3436 21.6968L37.4257 21.0494C37.2765 21.1877 37.1227 21.3236 36.9621 21.4549C36.9392 21.4756 36.9162 21.4964 36.891 21.5125C36.6684 21.6922 36.4389 21.858 36.2048 22.0147V33.4483H40.9458V24.1644L38.534 22.448C38.2907 22.2753 38.2173 21.9548 38.3436 21.6968ZM41.2372 19.9575C41.212 19.9414 41.1868 19.9252 41.1638 19.9045L41.0697 19.8377L39.7044 21.8143L41.8499 23.3417C41.8752 23.3578 41.9004 23.3762 41.9234 23.3947L45.8084 26.1591C46.3431 26.5393 46.8502 26.5277 47.2151 26.3089C47.3573 26.2237 47.4813 26.1039 47.5799 25.9656C47.6786 25.8251 47.7497 25.6662 47.7819 25.498C47.8691 25.0649 47.7084 24.5627 47.16 24.1733L41.2372 19.9575ZM31.9137 23.5375C31.2873 23.5974 30.6562 23.5928 30.032 23.526C29.0499 23.4223 28.0838 23.162 27.1728 22.7519V33.4483H31.9137V23.5375ZM22.8816 18.8517C22.5144 18.2113 22.2276 17.5408 22.0234 16.8544H18.1406V33.4484H22.8816V18.8517ZM13.8494 25.2122H9.10847V33.4482H13.8494V25.2122ZM39.8285 1.66088C39.5463 1.37752 39.1562 1.20244 38.7248 1.20244C38.2933 1.20244 37.9033 1.37752 37.621 1.66088C37.3387 1.94424 37.1643 2.33586 37.1643 2.76897C37.1643 3.20208 37.3387 3.59369 37.621 3.87707C37.9032 4.16043 38.2933 4.33551 38.7248 4.33551C39.1562 4.33551 39.5463 4.16043 39.8285 3.87707C40.1108 3.59371 40.2852 3.20209 40.2852 2.76897C40.2875 2.33587 40.1131 1.94426 39.8285 1.66088ZM20.9911 6.03339C20.7089 5.75003 20.3188 5.57495 19.8874 5.57495C19.456 5.57495 19.0659 5.75004 18.7836 6.03339C18.5013 6.31675 18.3269 6.70837 18.3269 7.14149C18.3269 7.5746 18.5013 7.9662 18.7836 8.24958C19.0658 8.53296 19.4559 8.70802 19.8874 8.70802C20.3188 8.70802 20.7089 8.53294 20.9911 8.24958C21.2734 7.96622 21.4478 7.5746 21.4478 7.14149C21.4501 6.70838 21.2734 6.31677 20.9911 6.03339ZM11.5736 14.0317C11.2914 13.7483 10.9013 13.5732 10.4698 13.5732C10.0384 13.5732 9.64835 13.7483 9.36608 14.0317C9.0838 14.315 8.90942 14.7067 8.90942 15.1398C8.90942 15.5729 9.08382 15.9645 9.36608 16.2479C9.64833 16.5312 10.0384 16.7063 10.4698 16.7063C10.9013 16.7063 11.2913 16.5312 11.5736 16.2479C11.8559 15.9645 12.0303 15.5729 12.0303 15.1398C12.0303 14.7067 11.8559 14.3151 11.5736 14.0317Z" fill="black"/>
</svg>
