<svg width="30" height="30" viewBox="0 0 30 30" fill="none" xmlns="http://www.w3.org/2000/svg">
<path d="M15.0003 0C19.1411 0 22.8937 1.67939 25.6075 4.39317L25.6766 4.468C28.3492 7.17735 30 10.897 30 14.9997C30 19.1417 28.32 22.8931 25.6062 25.6068L25.5307 25.676C22.8214 28.3498 19.0998 30.0006 15.0003 30.0006C10.8634 30.0006 7.11202 28.3193 4.39761 25.6037C1.68065 22.8931 0 19.1417 0 14.9997C0 10.8577 1.67939 7.10695 4.39317 4.39317C7.10695 1.67939 10.8583 0 15.0003 0Z" fill="white"/>
<path d="M15.0016 1.27539C17.5055 1.27539 19.8527 1.94638 21.8746 3.11713H8.12871C10.1506 1.94638 12.4978 1.27539 15.0016 1.27539ZM24.8851 5.47893C25.4661 6.08016 25.9899 6.73593 26.4529 7.43546H3.54972C4.01205 6.73213 4.53845 6.07445 5.11748 5.47893H24.8851ZM27.7017 9.78965C27.9617 10.422 28.1748 11.0758 28.3384 11.7506H1.66485C1.83037 11.0771 2.04727 10.4251 2.30159 9.78965H27.7017ZM28.6961 14.1073C28.7151 14.4042 28.7259 14.7016 28.7259 14.9997C28.7259 15.3593 28.712 15.7163 28.6847 16.0683H1.31857C1.29193 15.7138 1.27734 15.3542 1.27734 14.9997C1.27734 14.6997 1.28813 14.4023 1.30715 14.1073H28.6961ZM28.2953 18.4238C28.1235 19.094 27.9004 19.75 27.6281 20.386H2.37516C2.10562 19.7505 1.87857 19.0929 1.70797 18.4238H28.2953ZM26.3356 22.7402C25.8517 23.4467 25.305 24.1076 24.7006 24.7107H5.30267C4.70017 24.1076 4.15158 23.4467 3.66768 22.7402H26.3356ZM21.5619 27.0579C19.6047 28.1215 17.366 28.7252 15.0016 28.7252C12.6252 28.7252 10.3897 28.1208 8.44137 27.0579H21.5619Z" fill="#B22234"/>
<path d="M15.7728 1.29759V16.1641H1.32745C1.29383 15.7791 1.27734 15.3929 1.27734 14.9997C1.27734 7.42024 7.42156 1.27539 15.0016 1.27539C15.2604 1.27539 15.5179 1.28364 15.7728 1.29759Z" fill="#3C3B6E"/>
<path d="M1.98557 10.628L2.04772 10.822L1.94625 10.7472L1.98557 10.628ZM13.9905 13.7933L14.4985 15.3573L13.1692 14.3901H14.8112L13.4812 15.3573L13.9905 13.7933ZM13.9905 10.7707L14.4985 12.3321L13.1692 11.3668H14.8112L13.4812 12.3321L13.9905 10.7707ZM13.9905 7.74611L14.4985 9.30944L13.1692 8.34163H14.8112L13.4812 9.30944L13.9905 7.74611ZM13.9905 4.72347L14.4985 6.28489L13.1692 5.31899H14.8112L13.4812 6.28489L13.9905 4.72347ZM13.9905 1.7002L14.4985 3.26225L13.1692 2.29572H14.8112L13.4812 3.26225L13.9905 1.7002ZM12.2097 12.282L12.7189 13.8447L11.3884 12.8775H13.0303L11.7074 13.8447L12.2097 12.282ZM12.2097 9.2587L12.7189 10.822L11.3884 9.85422H13.0303L11.7074 10.822L12.2097 9.2587ZM12.2097 6.23606L12.7189 7.79748L11.3884 6.83158H13.0303L11.7074 7.79748L12.2097 6.23606ZM12.2097 3.21088L12.7189 4.77421L11.3884 3.80704H13.0303L11.7074 4.77421L12.2097 3.21088ZM10.4358 13.7933L10.945 15.3573L9.61447 14.3901H11.2577L9.92777 15.3573L10.4358 13.7933ZM10.4358 10.7707L10.945 12.3321L9.61447 11.3668H11.2577L9.92777 12.3321L10.4358 10.7707ZM10.4358 7.74611L10.945 9.30944L9.61447 8.34163H11.2577L9.92777 9.30944L10.4358 7.74611ZM10.4358 4.72347L10.945 6.28489L9.61447 5.31899H11.2577L9.92777 6.28489L10.4358 4.72347ZM10.5398 2.01667L10.945 3.26225L9.68106 2.34392L9.79903 2.29572H11.2577L9.92777 3.26225L10.3064 2.09911L10.5398 2.01667ZM8.65555 12.282L9.16355 13.8447L7.83361 12.8775H9.47685L8.14628 13.8447L8.65555 12.282ZM8.65555 9.2587L9.16355 10.822L7.83361 9.85422H9.47685L8.14628 10.822L8.65555 9.2587ZM8.65555 6.23606L9.16355 7.79748L7.83361 6.83158H9.47685L8.14628 7.79748L8.65555 6.23606ZM8.65555 3.21088L9.16355 4.77421L7.83361 3.80704H9.47685L8.14628 4.77421L8.65555 3.21088ZM6.88166 13.7933L7.38396 15.3573L6.061 14.3901H7.70297L6.3724 15.3573L6.88166 13.7933ZM6.88166 10.7707L7.38396 12.3321L6.061 11.3668H7.70297L6.3724 12.3321L6.88166 10.7707ZM6.88166 7.74611L7.38396 9.30944L6.061 8.34163H7.70297L6.3724 9.30944L6.88166 7.74611ZM6.88166 4.72347L7.38396 6.28489L6.061 5.31899H7.70297L6.3724 6.28489L6.88166 4.72347ZM5.10081 12.282L5.61008 13.8447L4.28014 12.8775H5.92274L4.5928 13.8447L5.10081 12.282ZM5.10081 9.2587L5.61008 10.822L4.28014 9.85422H5.92274L4.5928 10.822L5.10081 9.2587ZM5.10081 6.23606L5.61008 7.79748L4.28014 6.83158H5.92274L4.5928 7.79748L5.10081 6.23606ZM3.32121 13.7933L3.82922 15.3573L2.49865 14.3901H4.14886L2.81194 15.3573L3.32121 13.7933ZM3.32121 10.7707L3.82922 12.3321L2.49865 11.3668H4.14886L2.81194 12.3321L3.32121 10.7707ZM3.33009 7.77338L3.82922 9.30944L2.85507 8.60103L2.9946 8.34163H4.14886L2.81194 9.30944L3.29394 7.83046L3.33009 7.77338ZM1.54733 12.282L2.04772 13.8447L1.37356 13.3519L1.34375 13.6227L2.368 12.8775H1.43698C1.46742 12.686 1.50167 12.4957 1.53972 12.3073L1.54733 12.282ZM2.27287 9.85422H2.368L2.23228 9.95379L2.27287 9.85422Z" fill="white"/>
</svg>
